<?xml version="1.0" encoding="utf-8"?>
<!-- Generator: Adobe Illustrator 15.0.0, SVG Export Plug-In . SVG Version: 6.00 Build 0)  -->
<!DOCTYPE svg PUBLIC "-//W3C//DTD SVG 1.1//EN" "http://www.w3.org/Graphics/SVG/1.1/DTD/svg11.dtd">
<svg version="1.1" id="Capa_1" xmlns="http://www.w3.org/2000/svg" xmlns:xlink="http://www.w3.org/1999/xlink" x="0px" y="0px"
	 width="600px" height="600px" viewBox="0 0 600 600" enable-background="new 0 0 600 600" xml:space="preserve">
<g>
	<circle fill="#40424F" cx="300" cy="300" r="250"/>
	<path fill="#D86D50" d="M402.632,147.294h-93.306v-2.485c0-5.15-4.175-9.326-9.327-9.326c-5.153,0-9.327,4.175-9.327,9.326v2.485
		H197.37c-6.3,0-11.403,5.104-11.403,11.403v294.418c0,6.298,5.104,11.401,11.403,11.401H300h102.632
		c6.299,0,11.402-5.104,11.402-11.401V158.697C414.034,152.397,408.931,147.294,402.632,147.294z"/>
	<path fill="#D86D50" d="M414.034,453.115c0,6.298-5.104,11.401-11.402,11.401H197.37c-6.3,0-11.404-5.104-11.404-11.401V158.697
		c0-6.3,5.104-11.403,11.404-11.403h205.262c6.299,0,11.402,5.104,11.402,11.403V453.115L414.034,453.115z"/>
	<path fill="#CE6346" d="M197.37,147.294c-6.3,0-11.404,5.104-11.404,11.403v294.418c0,6.298,5.104,11.401,11.404,11.401H300
		V147.294H197.37z"/>
	<path fill="#F0F0CB" d="M397.779,436.776c0,5.4-4.379,9.775-9.776,9.775H211.997c-5.395,0-9.777-4.375-9.777-9.775V184.324
		c0-5.397,4.38-9.773,9.777-9.773h176.005c5.397,0,9.776,4.375,9.776,9.773L397.779,436.776L397.779,436.776z"/>
	<path fill="#E6E6C1" d="M211.997,174.55c-5.395,0-9.777,4.375-9.777,9.773v252.453c0,5.4,4.38,9.775,9.777,9.775H300V174.55
		H211.997z"/>
	<g>
		<g>
			<path fill="#66AD9E" d="M252.056,226.401c0,3.989-3.232,7.221-7.218,7.221h-13.641c-3.988,0-7.223-3.232-7.223-7.221v-11.033
				c0-3.986,3.235-7.221,7.223-7.221h13.641c3.986,0,7.218,3.235,7.218,7.221V226.401z"/>
			<path fill="#66AD9E" d="M376.026,211.955c0,2.106-1.708,3.814-3.811,3.814H264.695c-2.103,0-3.813-1.708-3.813-3.814l0,0
				c0-2.102,1.71-3.809,3.813-3.809h107.521C374.318,208.147,376.026,209.854,376.026,211.955L376.026,211.955z"/>
			<path fill="#66AD9E" d="M376.026,229.814c0,2.104-1.708,3.809-3.811,3.809H264.695c-2.103,0-3.813-1.705-3.813-3.809l0,0
				c0-2.109,1.71-3.812,3.813-3.812h107.521C374.318,226.002,376.026,227.705,376.026,229.814L376.026,229.814z"/>
		</g>
		<g>
			<path fill="#40424F" d="M252.056,274.542c0,3.992-3.232,7.222-7.218,7.222h-13.641c-3.988,0-7.223-3.229-7.223-7.222V263.51
				c0-3.989,3.235-7.219,7.223-7.219h13.641c3.986,0,7.218,3.23,7.218,7.219V274.542z"/>
			<path fill="#40424F" d="M376.026,260.103c0,2.104-1.708,3.811-3.811,3.811H264.695c-2.103,0-3.813-1.707-3.813-3.811l0,0
				c0-2.104,1.71-3.811,3.813-3.811h107.521C374.318,256.292,376.026,257.998,376.026,260.103L376.026,260.103z"/>
			<path fill="#40424F" d="M376.026,277.952c0,2.109-1.708,3.812-3.811,3.812H264.695c-2.103,0-3.813-1.703-3.813-3.812l0,0
				c0-2.104,1.71-3.813,3.813-3.813h107.521C374.318,274.14,376.026,275.85,376.026,277.952L376.026,277.952z"/>
		</g>
		<g>
			<path fill="#40424F" d="M252.056,322.684c0,3.986-3.232,7.224-7.218,7.224h-13.641c-3.988,0-7.223-3.237-7.223-7.224V311.65
				c0-3.984,3.235-7.221,7.223-7.221h13.641c3.986,0,7.218,3.236,7.218,7.221V322.684z"/>
			<path fill="#40424F" d="M376.026,308.241c0,2.109-1.708,3.812-3.811,3.812H264.695c-2.103,0-3.813-1.702-3.813-3.812l0,0
				c0-2.101,1.71-3.812,3.813-3.812h107.521C374.318,304.43,376.026,306.141,376.026,308.241L376.026,308.241z"/>
			<path fill="#40424F" d="M376.026,326.098c0,2.101-1.708,3.811-3.811,3.811H264.695c-2.103,0-3.813-1.71-3.813-3.811l0,0
				c0-2.108,1.71-3.812,3.813-3.812h107.521C374.318,322.286,376.026,323.989,376.026,326.098L376.026,326.098z"/>
		</g>
		<g>
			<path fill="#40424F" d="M252.056,370.829c0,3.987-3.232,7.218-7.218,7.218h-13.641c-3.988,0-7.223-3.23-7.223-7.218v-11.035
				c0-3.988,3.235-7.218,7.223-7.218h13.641c3.986,0,7.218,3.229,7.218,7.218V370.829z"/>
			<path fill="#40424F" d="M376.026,356.385c0,2.104-1.708,3.814-3.811,3.814H264.695c-2.103,0-3.813-1.711-3.813-3.814l0,0
				c0-2.106,1.71-3.812,3.813-3.812h107.521C374.318,352.576,376.026,354.279,376.026,356.385L376.026,356.385z"/>
			<path fill="#40424F" d="M376.026,374.238c0,2.104-1.708,3.811-3.811,3.811H264.695c-2.103,0-3.813-1.707-3.813-3.811l0,0
				c0-2.105,1.71-3.812,3.813-3.812h107.521C374.318,370.426,376.026,372.133,376.026,374.238L376.026,374.238z"/>
		</g>
		<g>
			<path fill="#40424F" d="M252.056,418.97c0,3.987-3.232,7.222-7.218,7.222h-13.641c-3.988,0-7.223-3.234-7.223-7.222v-11.03
				c0-3.989,3.235-7.225,7.223-7.225h13.641c3.986,0,7.218,3.235,7.218,7.225V418.97z"/>
			<path fill="#40424F" d="M376.026,404.525c0,2.11-1.708,3.813-3.811,3.813H264.695c-2.103,0-3.813-1.703-3.813-3.813l0,0
				c0-2.102,1.71-3.812,3.813-3.812h107.521C374.318,400.713,376.026,402.424,376.026,404.525L376.026,404.525z"/>
			<path fill="#40424F" d="M376.026,422.381c0,2.104-1.708,3.811-3.811,3.811H264.695c-2.103,0-3.813-1.707-3.813-3.811l0,0
				c0-2.107,1.71-3.812,3.813-3.812h107.521C374.318,418.569,376.026,420.275,376.026,422.381L376.026,422.381z"/>
		</g>
	</g>
	<path fill="#C2C63D" d="M334.299,156.797h-24.973v-11.988c0-5.15-4.175-9.326-9.327-9.326c-5.153,0-9.328,4.175-9.328,9.326v11.988
		H265.7c-7.312,0-13.243,5.927-13.243,13.239v1.204c0,7.307,5.931,13.238,13.243,13.238h68.599c7.316,0,13.244-5.931,13.244-13.238
		v-1.204C347.543,162.724,341.615,156.797,334.299,156.797z"/>
	<path fill="#B8BC33" d="M290.673,144.809v11.988H265.7c-7.312,0-13.243,5.927-13.243,13.239v1.204
		c0,7.307,5.931,13.238,13.243,13.238H300v-48.995C294.848,135.483,290.673,139.659,290.673,144.809z"/>
</g>
</svg>
