<?xml version="1.0" encoding="utf-8"?>
<!-- Generator: Adobe Illustrator 15.0.0, SVG Export Plug-In . SVG Version: 6.00 Build 0)  -->
<!DOCTYPE svg PUBLIC "-//W3C//DTD SVG 1.1//EN" "http://www.w3.org/Graphics/SVG/1.1/DTD/svg11.dtd">
<svg version="1.1" id="Capa_1" xmlns="http://www.w3.org/2000/svg" xmlns:xlink="http://www.w3.org/1999/xlink" x="0px" y="0px"
	 width="600px" height="600px" viewBox="0 0 600 600" enable-background="new 0 0 600 600" xml:space="preserve">
<g>
	<path fill="#C2C63D" d="M300,50c138.074,0,250,111.926,250,250c0,138.074-111.926,250-250,250C161.926,550,50,438.074,50,300
		C50,161.926,161.926,50,300,50z"/>
	<path fill="#F0F0CB" d="M395.189,224.401c0-52.575-42.617-95.189-95.189-95.189s-95.187,42.615-95.187,95.189
		c0,5.478,4.037,28.148,6.18,33.791c6.367,24.118,23.381,68.487,28.216,105.241l121.572-0.004c0,0,21.86-81.12,28.227-105.237
		C391.148,252.55,395.189,229.879,395.189,224.401z"/>
	<path fill="#E6E6C1" d="M204.813,224.401c0,5.478,4.037,28.148,6.18,33.791c6.367,24.118,23.381,68.487,28.216,105.241L300,363.433
		V129.212C247.428,129.212,204.813,171.827,204.813,224.401z"/>
	<path fill="none" d="M327.707,276.897c-0.138-2.195-0.793-3.427-1.13-3.798c-0.351,0.162-1.384,0.805-2.929,3.214
		c-2.143,3.349-3.713,7.684-4.792,12.655c2.334-0.824,4.163-1.779,5.481-2.872C327.114,283.8,327.891,279.708,327.707,276.897z"/>
	<path fill="none" d="M327.707,276.897c-0.138-2.195-0.793-3.427-1.13-3.798c-0.351,0.162-1.384,0.805-2.929,3.214
		c-2.143,3.349-3.713,7.684-4.792,12.655c2.334-0.824,4.163-1.779,5.481-2.872C327.114,283.8,327.891,279.708,327.707,276.897z"/>
	<path fill="none" d="M322.807,368.271c-8.273-14.055-14.014-46.051-11.602-70.878c-1.901,0.305-6.885,0.361-11.705,0.291v72.169
		h26.077C324.475,369.854,323.404,369.286,322.807,368.271z"/>
	<path fill="#66AD9E" d="M311.205,297.394c-2.412,24.827,3.328,56.823,11.602,70.878c0.598,1.015,1.668,1.582,2.771,1.582
		c0.55,0,1.11-0.141,1.621-0.445c1.527-0.898,2.039-2.865,1.138-4.39c-7.881-13.393-13.449-45.56-10.652-68.981
		c4.153-1.115,7.979-2.701,10.752-4.995c5.397-4.476,6.66-12.43,5.114-17.976c-1.007-3.624-3.19-5.945-5.987-6.365
		c-3.255-0.488-6.391,1.582-9.319,6.154c-2.951,4.617-4.95,10.799-6.148,17.852c-1.751,0.328-7.237,0.431-12.595,0.379v6.599
		C304.32,297.754,309.304,297.699,311.205,297.394z M323.648,276.313c1.545-2.409,2.578-3.052,2.929-3.214
		c0.337,0.371,0.992,1.603,1.13,3.798c0.184,2.811-0.593,6.902-3.369,9.199c-1.318,1.093-3.147,2.048-5.481,2.872
		C319.936,283.997,321.506,279.662,323.648,276.313z"/>
	<path fill="#5CA394" d="M281.757,272.853c-2.926-4.569-6.064-6.639-9.316-6.151c-2.802,0.42-4.981,2.741-5.99,6.365
		c-1.545,5.546-0.283,13.5,5.115,17.976c2.849,2.355,6.703,3.875,10.741,4.906c2.822,23.428-2.752,55.662-10.642,69.07
		c-0.901,1.524-0.39,3.491,1.138,4.39c0.514,0.305,1.07,0.445,1.621,0.445c1.103,0,2.173-0.567,2.771-1.582
		c8.291-14.086,14.037-46.192,11.585-71.044c1.269,0.194,5.914,0.388,10.721,0.458v-6.599c-5.1-0.05-10.083-0.24-11.613-0.513
		C286.681,283.572,284.687,277.439,281.757,272.853z M275.664,286.097c-2.778-2.297-3.555-6.393-3.376-9.199
		c0.139-2.198,0.798-3.427,1.133-3.798c0.352,0.16,1.386,0.805,2.931,3.214c2.132,3.336,3.704,7.653,4.786,12.604
		C278.985,288.188,277.071,287.27,275.664,286.097z"/>
	<path fill="#D86D50" d="M325.577,369.854H299.5v30.611v35.164v35.16h21.507c13.617,0,24.658-11.039,24.658-24.658v-10.502h14.496
		v-65.775H325.577z"/>
	<path fill="#CE6346" d="M274.423,369.854H242.5v65.775h11.835v10.502c0,13.619,11.041,24.658,24.658,24.658H299.5v-35.16v-35.164
		v-30.611H274.423z"/>
	<path fill="#40424F" d="M374.33,378.051c0,11.25-9.115,20.368-20.365,20.368H246.037c-11.252,0-20.367-9.118-20.367-20.368l0,0
		c0-11.248,9.115-20.366,20.367-20.366h107.928C365.215,357.685,374.33,366.803,374.33,378.051L374.33,378.051z"/>
	<path fill="#40424F" d="M374.33,425.646c0,11.249-9.115,20.364-20.365,20.364H246.037c-11.252,0-20.367-9.115-20.367-20.364l0,0
		c0-11.25,9.115-20.367,20.367-20.367h107.928C365.215,405.279,374.33,414.396,374.33,425.646L374.33,425.646z"/>
	<path fill="#363845" d="M225.67,378.051c0,11.25,9.115,20.368,20.367,20.368H300v-40.734h-53.963
		C234.785,357.685,225.67,366.803,225.67,378.051z"/>
	<path fill="#363845" d="M246.037,405.279c-11.252,0-20.367,9.117-20.367,20.367c0,11.249,9.115,20.364,20.367,20.364H300v-40.731
		H246.037z"/>
</g>
</svg>
