<?xml version="1.0" encoding="utf-8"?>
<!-- Generator: Adobe Illustrator 15.0.0, SVG Export Plug-In . SVG Version: 6.00 Build 0)  -->
<!DOCTYPE svg PUBLIC "-//W3C//DTD SVG 1.1//EN" "http://www.w3.org/Graphics/SVG/1.1/DTD/svg11.dtd">
<svg version="1.1" id="Capa_1" xmlns="http://www.w3.org/2000/svg" xmlns:xlink="http://www.w3.org/1999/xlink" x="0px" y="0px"
	 width="600px" height="600px" viewBox="0 0 600 600" enable-background="new 0 0 600 600" xml:space="preserve">
<g>
	<path fill="#40424F" d="M300,50c138.068,0,250,111.931,250,250c0,138.068-111.932,250-250,250C161.931,550,50,438.068,50,300
		C50,161.931,161.931,50,300,50z"/>
	<g>
		<path fill="#605150" d="M183.615,414.716c0.132,1.38-0.879,2.604-2.252,2.737l0,0c-1.376,0.135-2.602-0.874-2.733-2.252
			l-1.186-12.207c-0.134-1.376,0.876-2.6,2.252-2.733l0,0c1.376-0.135,2.599,0.871,2.733,2.25L183.615,414.716z"/>
		<path fill="#66AD9E" d="M183.615,414.716c0.132,1.38-0.879,2.604-2.252,2.737l0,0c-1.376,0.135-2.602-0.874-2.733-2.252
			l-1.186-12.207c-0.134-1.376,0.876-2.6,2.252-2.733l0,0c1.376-0.135,2.599,0.871,2.733,2.25L183.615,414.716z"/>
		<path fill="#5CA394" d="M179.695,400.261L179.695,400.261c1.376-0.135,2.599,0.871,2.733,2.25l1.187,12.205
			c0.132,1.38-0.879,2.604-2.252,2.737l0,0L179.695,400.261z"/>
		<path fill="#C2C63D" d="M377.536,440.305c-1.219,3.619-5.143,5.562-8.767,4.348l-151.853-51.138
			c-3.622-1.219-5.566-5.143-4.354-8.762l75.788-225.058c1.218-3.619,5.143-5.566,8.759-4.343l151.86,51.132
			c3.621,1.219,5.565,5.143,4.348,8.764L377.536,440.305z"/>
		<path fill="#B8BC33" d="M216.917,393.515c-3.622-1.219-5.566-5.143-4.354-8.762l75.788-225.058
			c1.218-3.619,5.143-5.566,8.759-4.343l151.86,51.132c3.621,1.219,5.565,5.143,4.348,8.764L216.917,393.515z"/>
		<path fill="#40424F" d="M245.625,369.66c1.621-4.828-0.971-10.06-5.8-11.683c-4.821-1.628-10.059,0.969-11.687,5.795
			c-1.624,4.826,0.971,10.06,5.8,11.685C238.767,377.08,243.998,374.483,245.625,369.66z"/>
		<path fill="#40424F" d="M255.61,340.001c1.628-4.831-0.966-10.055-5.795-11.681c-4.828-1.626-10.059,0.969-11.687,5.798
			c-1.624,4.823,0.971,10.054,5.799,11.68C248.756,347.424,253.98,344.829,255.61,340.001z"/>
		<path fill="#40424F" d="M265.593,310.344c1.628-4.828-0.967-10.057-5.792-11.68c-4.829-1.63-10.062,0.966-11.689,5.792
			c-1.621,4.831,0.974,10.06,5.799,11.685C258.739,317.769,263.972,315.172,265.593,310.344z"/>
		<path fill="#40424F" d="M275.583,280.689c1.621-4.829-0.971-10.059-5.8-11.685c-4.821-1.625-10.059,0.969-11.682,5.797
			c-1.628,4.826,0.973,10.059,5.802,11.685C268.729,288.109,273.955,285.513,275.583,280.689z"/>
		<path fill="#40424F" d="M285.568,251.027c1.628-4.829-0.966-10.057-5.795-11.683c-4.828-1.623-10.059,0.971-11.687,5.797
			c-1.621,4.826,0.979,10.057,5.8,11.682C278.714,258.45,283.945,255.855,285.568,251.027z"/>
		<path fill="#40424F" d="M295.558,221.373c1.621-4.829-0.973-10.059-5.799-11.685c-4.822-1.625-10.062,0.969-11.683,5.797
			c-1.628,4.829,0.971,10.059,5.8,11.68C288.697,228.795,293.93,226.196,295.558,221.373z"/>
		<path fill="#40424F" d="M305.541,191.711c1.628-4.824-0.965-10.052-5.793-11.68c-4.829-1.625-10.059,0.971-11.687,5.795
			c-1.624,4.829,0.978,10.057,5.799,11.685C298.687,199.136,303.92,196.539,305.541,191.711z"/>
		<path fill="#66AD9E" d="M241.373,368.227c-0.696,2.071-2.941,3.184-5.011,2.488l-23.869-8.034
			c-2.062-0.698-3.18-2.945-2.486-5.016l0,0c0.701-2.064,2.941-3.184,5.018-2.485l23.86,8.038
			C240.954,363.913,242.073,366.156,241.373,368.227L241.373,368.227z"/>
		<path fill="#66AD9E" d="M251.362,338.571c-0.701,2.072-2.941,3.185-5.018,2.488l-23.862-8.04
			c-2.069-0.696-3.187-2.939-2.486-5.012l0,0c0.694-2.069,2.941-3.182,5.011-2.487l23.869,8.038
			C250.946,334.257,252.056,336.502,251.362,338.571L251.362,338.571z"/>
		<path fill="#66AD9E" d="M261.345,308.914c-0.694,2.07-2.941,3.18-5.011,2.484l-23.866-8.034c-2.07-0.7-3.182-2.941-2.486-5.015
			l0,0c0.701-2.07,2.939-3.182,5.016-2.484l23.862,8.036C260.929,304.597,262.046,306.845,261.345,308.914L261.345,308.914z"/>
		<path fill="#66AD9E" d="M271.331,279.255c-0.694,2.072-2.935,3.185-5.011,2.488l-23.869-8.038
			c-2.062-0.696-3.18-2.941-2.486-5.011l0,0c0.701-2.07,2.946-3.182,5.018-2.488l23.86,8.036
			C270.914,274.94,272.031,277.186,271.331,279.255L271.331,279.255z"/>
		<path fill="#66AD9E" d="M281.32,249.598c-0.694,2.07-2.941,3.184-5.018,2.486l-23.862-8.036c-2.069-0.698-3.187-2.941-2.486-5.011
			l0,0c0.701-2.069,2.941-3.184,5.011-2.486l23.869,8.036C280.904,245.285,282.014,247.528,281.32,249.598L281.32,249.598z"/>
		<path fill="#66AD9E" d="M291.303,219.939c-0.693,2.072-2.939,3.184-5.011,2.488l-23.867-8.038
			c-2.065-0.696-3.182-2.941-2.481-5.011l0,0c0.696-2.07,2.941-3.184,5.011-2.486l23.869,8.038
			C290.887,215.624,292.003,217.869,291.303,219.939L291.303,219.939z"/>
		<path fill="#66AD9E" d="M301.295,190.282c-0.696,2.07-2.941,3.184-5.018,2.486l-23.862-8.036c-2.07-0.694-3.18-2.941-2.486-5.011
			l0,0c0.701-2.069,2.941-3.184,5.011-2.486l23.867,8.036C300.876,185.969,301.993,188.212,301.295,190.282L301.295,190.282z"/>
		<path fill="#D86D50" d="M188.177,396.481c0.474,4.848-3.073,9.153-7.913,9.622l0,0c-4.847,0.475-9.152-3.073-9.625-7.915
			l-13.941-143.38c-0.467-4.847,3.073-9.15,7.913-9.625l0,0c4.847-0.469,9.153,3.073,9.625,7.918L188.177,396.481z"/>
		
			<rect x="155.177" y="223.452" transform="matrix(0.9953 -0.0967 0.0967 0.9953 -22.3267 16.984)" fill="#D86D50" width="17.62" height="30.575"/>
		
			<rect x="173.484" y="237.635" transform="matrix(0.9953 -0.0963 0.0963 0.9953 -22.8123 18.0703)" fill="#C2C63D" width="4.491" height="15.286"/>
		<path fill="#C2C63D" d="M185.028,285.547c0.164,1.711-1.084,3.226-2.795,3.392l0,0c-1.709,0.169-3.23-1.082-3.395-2.791
			l-4.405-45.301c-0.164-1.713,1.084-3.23,2.796-3.395l0,0c1.711-0.167,3.23,1.078,3.395,2.793L185.028,285.547z"/>
		<path fill="#B8BC33" d="M185.028,285.547c0.164,1.711-1.084,3.226-2.795,3.392l0,0c-1.709,0.169-3.23-1.082-3.395-2.791
			l-4.405-45.301c-0.164-1.713,1.084-3.23,2.796-3.395l0,0c1.711-0.167,3.23,1.078,3.395,2.793L185.028,285.547z"/>
		<path fill="#CE6346" d="M162.512,223.525L162.512,223.525c4.84-0.472,8.764-0.854,8.764-0.854l16.901,173.81
			c0.474,4.848-3.073,9.153-7.913,9.622l0,0L162.512,223.525z"/>
		
			<rect x="152.461" y="238.655" transform="matrix(0.9953 -0.0968 0.0968 0.9953 -23.0642 17.1511)" fill="#C2C63D" width="25.566" height="15.287"/>
		<polygon fill="#B8BC33" points="178.706,252.669 165.472,253.955 163.987,238.739 177.228,237.453 		"/>
	</g>
</g>
</svg>
