<?xml version="1.0" encoding="utf-8"?>
<!-- Generator: Adobe Illustrator 15.0.0, SVG Export Plug-In . SVG Version: 6.00 Build 0)  -->
<!DOCTYPE svg PUBLIC "-//W3C//DTD SVG 1.1//EN" "http://www.w3.org/Graphics/SVG/1.1/DTD/svg11.dtd">
<svg version="1.1" id="Capa_1" xmlns="http://www.w3.org/2000/svg" xmlns:xlink="http://www.w3.org/1999/xlink" x="0px" y="0px"
	 width="600px" height="600px" viewBox="0 0 600 600" enable-background="new 0 0 600 600" xml:space="preserve">
<g>
	<circle fill="#40424F" cx="300" cy="300" r="250"/>
	<g>
		<path fill="#C2C63D" d="M389.218,441.691c0,6.497-5.271,11.767-11.767,11.767H202.05c-6.498,0-11.765-5.27-11.765-11.767V174.315
			c0-6.499,5.267-11.767,11.765-11.767h175.401c6.496,0,11.767,5.266,11.767,11.767V441.691z"/>
		<path fill="#F0F0CB" d="M409.716,425.688c0,6.501-5.268,11.764-11.766,11.764h-175.4c-6.499,0-11.765-5.263-11.765-11.764V158.312
			c0-6.501,5.266-11.767,11.765-11.767h175.4c6.498,0,11.765,5.266,11.765,11.767L409.716,425.688L409.716,425.688z"/>
		<path opacity="0.18" fill="#C2C63D" enable-background="new    " d="M311.513,146.546H222.55c-6.499,0-11.765,5.266-11.765,11.767
			v267.375c0,6.501,5.266,11.764,11.765,11.764h88.963V146.546z"/>
		<path fill="#66AD9E" d="M385.027,219.307c2.608,0,4.724-2.115,4.724-4.727c0-2.606-2.115-4.723-4.724-4.723h-73.515v9.452h73.515
			V219.307z"/>
		<path fill="#66AD9E" d="M385.027,244.199c2.608,0,4.724-2.118,4.724-4.727c0-2.61-2.115-4.726-4.724-4.726h-73.515v9.453H385.027z
			"/>
		<path fill="#66AD9E" d="M385.027,269.09c2.608,0,4.724-2.115,4.724-4.727c0-2.606-2.115-4.725-4.724-4.725h-73.515v9.452H385.027z
			"/>
		<path fill="#66AD9E" d="M385.027,293.984c2.608,0,4.724-2.12,4.724-4.727c0-2.613-2.115-4.728-4.724-4.728h-73.515v9.455H385.027z
			"/>
		<path fill="#66AD9E" d="M385.027,318.872c2.608,0,4.724-2.114,4.724-4.727c0-2.607-2.115-4.723-4.724-4.723h-73.515v9.452h73.515
			V318.872z"/>
		<path fill="#66AD9E" d="M385.027,343.764c2.608,0,4.724-2.118,4.724-4.73c0-2.605-2.115-4.722-4.724-4.722h-73.515v9.452H385.027z
			"/>
		<path fill="#66AD9E" d="M385.027,368.656c2.608,0,4.724-2.118,4.724-4.729c0-2.604-2.115-4.724-4.724-4.724h-73.515v9.453
			L385.027,368.656L385.027,368.656z"/>
		<path fill="#66AD9E" d="M385.027,393.545c2.608,0,4.724-2.114,4.724-4.727c0-2.608-2.115-4.725-4.724-4.725h-73.515v9.452
			L385.027,393.545L385.027,393.545z"/>
		<path fill="#D86D50" d="M361.779,166.548h-50.267v28.364h50.267c6.5,0,11.767-5.269,11.767-11.764v-4.834
			C373.546,171.812,368.279,166.548,361.779,166.548z"/>
		<path fill="#D86D50" d="M261.246,166.548c-6.498,0-11.766,5.264-11.766,11.766v4.834c0,6.495,5.267,11.764,11.766,11.764h50.267
			v-28.364H261.246z"/>
		<path opacity="0.42" fill="#D86D50" enable-background="new    " d="M261.246,166.548c-6.498,0-11.766,5.264-11.766,11.766v4.834
			c0,6.495,5.267,11.764,11.766,11.764h50.267v-28.364H261.246z"/>
		<path fill="#66AD9E" d="M230.749,214.58c0,2.612,2.116,4.727,4.727,4.727h76.037v-9.453h-76.037
			C232.865,209.854,230.749,211.972,230.749,214.58z"/>
		<path opacity="0.29" fill="#66AD9E" enable-background="new    " d="M230.749,214.58c0,2.612,2.116,4.727,4.727,4.727h76.037
			v-9.453h-76.037C232.865,209.854,230.749,211.972,230.749,214.58z"/>
		<path fill="#66AD9E" d="M230.749,239.472c0,2.609,2.116,4.727,4.727,4.727h76.037v-9.453h-76.037
			C232.865,234.746,230.749,236.861,230.749,239.472z"/>
		<path opacity="0.29" fill="#66AD9E" enable-background="new    " d="M230.749,239.472c0,2.609,2.116,4.727,4.727,4.727h76.037
			v-9.453h-76.037C232.865,234.746,230.749,236.861,230.749,239.472z"/>
		<path fill="#66AD9E" d="M230.749,264.363c0,2.612,2.116,4.727,4.727,4.727h76.037v-9.452h-76.037
			C232.865,259.636,230.749,261.755,230.749,264.363z"/>
		<path opacity="0.29" fill="#66AD9E" enable-background="new    " d="M230.749,264.363c0,2.612,2.116,4.727,4.727,4.727h76.037
			v-9.452h-76.037C232.865,259.636,230.749,261.755,230.749,264.363z"/>
		<path fill="#66AD9E" d="M230.749,289.257c0,2.606,2.116,4.727,4.727,4.727h76.037v-9.455h-76.037
			C232.865,284.529,230.749,286.644,230.749,289.257z"/>
		<path opacity="0.29" fill="#66AD9E" enable-background="new    " d="M230.749,289.257c0,2.606,2.116,4.727,4.727,4.727h76.037
			v-9.455h-76.037C232.865,284.529,230.749,286.644,230.749,289.257z"/>
		<path fill="#66AD9E" d="M230.749,314.143c0,2.613,2.116,4.729,4.727,4.729h76.037v-9.452h-76.037
			C232.865,309.422,230.749,311.535,230.749,314.143z"/>
		<path opacity="0.29" fill="#66AD9E" enable-background="new    " d="M230.749,314.143c0,2.613,2.116,4.729,4.727,4.729h76.037
			v-9.452h-76.037C232.865,309.422,230.749,311.535,230.749,314.143z"/>
		<path fill="#66AD9E" d="M230.749,339.033c0,2.612,2.116,4.73,4.727,4.73h76.037v-9.452h-76.037
			C232.865,334.311,230.749,336.428,230.749,339.033z"/>
		<path opacity="0.29" fill="#66AD9E" enable-background="new    " d="M230.749,339.033c0,2.612,2.116,4.73,4.727,4.73h76.037
			v-9.452h-76.037C232.865,334.311,230.749,336.428,230.749,339.033z"/>
		<path fill="#66AD9E" d="M230.749,363.928c0,2.61,2.116,4.729,4.727,4.729h76.037v-9.452h-76.037
			C232.865,359.204,230.749,361.323,230.749,363.928z"/>
		<path opacity="0.29" fill="#66AD9E" enable-background="new    " d="M230.749,363.928c0,2.61,2.116,4.729,4.727,4.729h76.037
			v-9.452h-76.037C232.865,359.204,230.749,361.323,230.749,363.928z"/>
		<path fill="#66AD9E" d="M230.749,388.818c0,2.612,2.116,4.727,4.727,4.727h76.037v-9.451h-76.037
			C232.865,384.094,230.749,386.21,230.749,388.818z"/>
		<path opacity="0.29" fill="#66AD9E" enable-background="new    " d="M230.749,388.818c0,2.612,2.116,4.727,4.727,4.727h76.037
			v-9.451h-76.037C232.865,384.094,230.749,386.21,230.749,388.818z"/>
	</g>
</g>
</svg>
