<?xml version="1.0" encoding="utf-8"?>
<!-- Generator: Adobe Illustrator 15.0.0, SVG Export Plug-In . SVG Version: 6.00 Build 0)  -->
<!DOCTYPE svg PUBLIC "-//W3C//DTD SVG 1.1//EN" "http://www.w3.org/Graphics/SVG/1.1/DTD/svg11.dtd">
<svg version="1.1" id="Capa_1" xmlns="http://www.w3.org/2000/svg" xmlns:xlink="http://www.w3.org/1999/xlink" x="0px" y="0px"
	 width="600px" height="600px" viewBox="0 0 600 600" enable-background="new 0 0 600 600" xml:space="preserve">
<g>
	<circle fill="#F0F0CB" cx="300.001" cy="300" r="250"/>
	<path fill="#66AD9E" d="M441.604,186.016H300.001v34.583h8.014c1.12,0,2.032,0.912,2.032,2.034s-0.912,2.03-2.032,2.03h-8.014
		v11.851h8.014c1.12,0,2.032,0.905,2.032,2.032c0,1.118-0.912,2.03-2.032,2.03h-8.014v11.851h8.014c1.12,0,2.032,0.908,2.032,2.03
		c0,1.125-0.912,2.032-2.032,2.032h-8.014v11.858h8.014c1.12,0,2.032,0.902,2.032,2.025c0,1.124-0.912,2.034-2.032,2.034h-8.014
		v11.849h8.014c1.12,0,2.032,0.91,2.032,2.032s-0.912,2.028-2.032,2.028h-8.014v11.855h8.014c1.12,0,2.032,0.907,2.032,2.029
		s-0.912,2.03-2.032,2.03h-8.014v11.855h8.014c1.12,0,2.032,0.907,2.032,2.03c0,1.122-0.912,2.032-2.032,2.032h-8.014v11.853h8.014
		c1.12,0,2.032,0.906,2.032,2.025c0,1.125-0.912,2.033-2.032,2.033h-8.014v11.848h8.014c1.12,0,2.032,0.915,2.032,2.035
		c0,1.122-0.912,2.03-2.032,2.03h-8.014v11.853h8.014c1.12,0,2.032,0.91,2.032,2.028c0,1.127-0.912,2.037-2.032,2.037h-8.014v11.849
		h8.014c1.12,0,2.032,0.912,2.032,2.032c0,1.124-0.912,2.034-2.032,2.034h-8.014v30.175h141.604c6.353,0,11.498-5.148,11.498-11.503
		v-204.96C453.103,191.163,447.957,186.016,441.604,186.016z"/>
	<path fill="#F0F0CB" d="M436.077,391.464c0,6.708-5.432,12.142-12.142,12.142H314.504c-6.706,0-12.144-5.434-12.144-12.142V208.533
		c0-6.708,5.438-12.142,12.144-12.142h109.432c6.71,0,12.142,5.434,12.142,12.142V391.464z"/>
	<path fill="#40424F" d="M312.492,381.772c0-2.24-1.82-4.065-4.064-4.065c-2.245,0-4.061,1.825-4.061,4.065
		c0,2.241,1.815,4.064,4.061,4.064C310.672,385.837,312.492,384.014,312.492,381.772z"/>
	<path fill="#40424F" d="M312.492,365.854c0-2.24-1.82-4.061-4.064-4.061c-2.245,0-4.061,1.82-4.061,4.061
		c0,2.246,1.815,4.066,4.061,4.066C310.672,369.921,312.492,368.101,312.492,365.854z"/>
	<path fill="#40424F" d="M312.492,349.943c0-2.24-1.82-4.062-4.064-4.062c-2.245,0-4.061,1.822-4.061,4.062
		c0,2.244,1.815,4.064,4.061,4.064C310.672,354.008,312.492,352.188,312.492,349.943z"/>
	<path fill="#40424F" d="M312.492,334.027c0-2.241-1.82-4.064-4.064-4.064c-2.245,0-4.061,1.823-4.061,4.064
		c0,2.247,1.815,4.065,4.061,4.065C310.672,338.093,312.492,336.274,312.492,334.027z"/>
	<circle fill="#40424F" cx="308.43" cy="318.117" r="4.062"/>
	<circle fill="#40424F" cx="308.43" cy="302.201" r="4.062"/>
	<path fill="#40424F" d="M312.492,286.288c0-2.242-1.82-4.062-4.064-4.062c-2.245,0-4.061,1.82-4.061,4.062
		c0,2.247,1.815,4.062,4.061,4.062C310.672,290.351,312.492,288.535,312.492,286.288z"/>
	<circle fill="#40424F" cx="308.43" cy="270.373" r="4.062"/>
	<path fill="#40424F" d="M312.492,254.457c0-2.239-1.82-4.06-4.064-4.06c-2.245,0-4.061,1.82-4.061,4.06
		c0,2.249,1.815,4.064,4.061,4.064C310.672,258.521,312.492,256.706,312.492,254.457z"/>
	<circle fill="#40424F" cx="308.43" cy="238.546" r="4.062"/>
	<path fill="#40424F" d="M312.492,222.633c0-2.246-1.82-4.067-4.064-4.067c-2.245,0-4.061,1.821-4.061,4.067
		c0,2.24,1.815,4.062,4.061,4.062C310.672,226.695,312.492,224.873,312.492,222.633z"/>
	<path fill="#D86D50" d="M436.079,206.747L436.079,206.747c5.892,0,10.671,4.781,10.671,10.676v26.529
		c0,5.895-4.779,10.671-10.671,10.671l0,0V206.747z"/>
	<path fill="#C2C63D" d="M436.079,238.595L436.079,238.595c5.892,0,10.671,4.776,10.671,10.671v26.533
		c0,5.89-4.779,10.674-10.671,10.674l0,0V238.595z"/>
	<path fill="#40424F" d="M436.079,270.438L436.079,270.438c5.892,0,10.671,4.778,10.671,10.673v26.529
		c0,5.898-4.779,10.673-10.671,10.673l0,0V270.438z"/>
	<path fill="#40424F" d="M418.419,220.599c0,2.307-1.871,4.177-4.18,4.177h-90.042c-2.302,0-4.173-1.87-4.173-4.177l0,0
		c0-2.307,1.871-4.176,4.173-4.176h90.042C416.548,216.423,418.419,218.292,418.419,220.599L418.419,220.599z"/>
	<path fill="#40424F" d="M418.419,241.71c0,2.307-1.871,4.175-4.18,4.175h-90.042c-2.302,0-4.173-1.868-4.173-4.175l0,0
		c0-2.309,1.871-4.178,4.173-4.178h90.042C416.548,237.532,418.419,239.401,418.419,241.71L418.419,241.71z"/>
	<path fill="#40424F" d="M418.419,262.819c0,2.307-1.871,4.178-4.18,4.178h-90.042c-2.302,0-4.173-1.871-4.173-4.178l0,0
		c0-2.307,1.871-4.176,4.173-4.176h90.042C416.548,258.644,418.419,260.513,418.419,262.819L418.419,262.819z"/>
	<path fill="#40424F" d="M418.419,283.929c0,2.307-1.871,4.18-4.18,4.18h-90.042c-2.302,0-4.173-1.873-4.173-4.18l0,0
		c0-2.309,1.871-4.178,4.173-4.178h90.042C416.548,279.751,418.419,281.62,418.419,283.929L418.419,283.929z"/>
	<path fill="#40424F" d="M418.419,305.04c0,2.307-1.871,4.178-4.18,4.178h-90.042c-2.302,0-4.173-1.871-4.173-4.178l0,0
		c0-2.307,1.871-4.175,4.173-4.175h90.042C416.548,300.865,418.419,302.733,418.419,305.04L418.419,305.04z"/>
	<path fill="#40424F" d="M418.419,326.151c0,2.305-1.871,4.176-4.18,4.176h-90.042c-2.302,0-4.173-1.871-4.173-4.176l0,0
		c0-2.309,1.871-4.177,4.173-4.177h90.042C416.548,321.975,418.419,323.843,418.419,326.151L418.419,326.151z"/>
	<path fill="#40424F" d="M418.419,347.261c0,2.307-1.871,4.178-4.18,4.178h-90.042c-2.302,0-4.173-1.871-4.173-4.178l0,0
		c0-2.304,1.871-4.175,4.173-4.175h90.042C416.548,343.086,418.419,344.957,418.419,347.261L418.419,347.261z"/>
	<path fill="#40424F" d="M418.419,368.37c0,2.31-1.871,4.181-4.18,4.181h-90.042c-2.302,0-4.173-1.871-4.173-4.181l0,0
		c0-2.304,1.871-4.175,4.173-4.175h90.042C416.548,364.195,418.419,366.066,418.419,368.37L418.419,368.37z"/>
	<path fill="#C2C63D" d="M308.015,383.807c1.12,0,2.032-0.91,2.032-2.034c0-1.12-0.912-2.032-2.032-2.032h-8.014v4.066H308.015z"/>
	<path fill="#C2C63D" d="M308.015,367.892c1.12,0,2.032-0.91,2.032-2.037c0-1.118-0.912-2.028-2.032-2.028h-8.014v4.065H308.015z"/>
	<path fill="#C2C63D" d="M308.015,351.974c1.12,0,2.032-0.908,2.032-2.03c0-1.12-0.912-2.035-2.032-2.035h-8.014v4.065H308.015z"/>
	<path fill="#C2C63D" d="M308.015,336.061c1.12,0,2.032-0.908,2.032-2.033c0-1.119-0.912-2.025-2.032-2.025h-8.014v4.059H308.015z"
		/>
	<path fill="#C2C63D" d="M308.015,320.149c1.12,0,2.032-0.91,2.032-2.032c0-1.123-0.912-2.03-2.032-2.03h-8.014v4.062H308.015z"/>
	<path fill="#C2C63D" d="M308.015,304.231c1.12,0,2.032-0.908,2.032-2.03s-0.912-2.029-2.032-2.029h-8.014v4.06H308.015z"/>
	<path fill="#C2C63D" d="M308.015,288.316c1.12,0,2.032-0.906,2.032-2.028s-0.912-2.032-2.032-2.032h-8.014v4.061H308.015z"/>
	<path fill="#C2C63D" d="M308.015,272.407c1.12,0,2.032-0.91,2.032-2.034c0-1.123-0.912-2.025-2.032-2.025h-8.014v4.06H308.015z"/>
	<path fill="#C2C63D" d="M308.015,256.489c1.12,0,2.032-0.907,2.032-2.032c0-1.122-0.912-2.03-2.032-2.03h-8.014v4.062H308.015z"/>
	<path fill="#C2C63D" d="M308.015,240.576c1.12,0,2.032-0.912,2.032-2.03c0-1.127-0.912-2.032-2.032-2.032h-8.014v4.062H308.015z"/>
	<path fill="#C2C63D" d="M308.015,224.663c1.12,0,2.032-0.908,2.032-2.03s-0.912-2.034-2.032-2.034h-8.014v4.064H308.015z"/>
	<rect x="297.152" y="336.061" fill="#66AD9E" width="2.849" height="11.848"/>
	<rect x="297.152" y="336.061" opacity="0.3" fill="#66AD9E" width="2.849" height="11.848"/>
	<rect x="297.152" y="367.892" fill="#66AD9E" width="2.849" height="11.849"/>
	<rect x="297.152" y="367.892" opacity="0.3" fill="#66AD9E" width="2.849" height="11.849"/>
	<rect x="297.152" y="320.149" fill="#66AD9E" width="2.849" height="11.853"/>
	<rect x="297.152" y="320.149" opacity="0.3" fill="#66AD9E" width="2.849" height="11.853"/>
	<rect x="297.152" y="351.974" fill="#66AD9E" width="2.849" height="11.853"/>
	<rect x="297.152" y="351.974" opacity="0.3" fill="#66AD9E" width="2.849" height="11.853"/>
	<rect x="297.152" y="240.576" fill="#66AD9E" width="2.849" height="11.851"/>
	<rect x="297.152" y="240.576" opacity="0.3" fill="#66AD9E" width="2.849" height="11.851"/>
	<rect x="297.152" y="256.489" fill="#66AD9E" width="2.849" height="11.858"/>
	<rect x="297.152" y="256.489" opacity="0.3" fill="#66AD9E" width="2.849" height="11.858"/>
	<rect x="297.152" y="272.407" fill="#66AD9E" width="2.849" height="11.849"/>
	<rect x="297.152" y="272.407" opacity="0.3" fill="#66AD9E" width="2.849" height="11.849"/>
	<rect x="297.152" y="288.316" fill="#66AD9E" width="2.849" height="11.855"/>
	<rect x="297.152" y="288.316" opacity="0.3" fill="#66AD9E" width="2.849" height="11.855"/>
	<path fill="#66AD9E" d="M297.152,383.807v7.657c0,6.708-5.438,12.142-12.141,12.142H175.577c-6.705,0-12.139-5.434-12.139-12.142
		V208.533c0-6.708,5.434-12.142,12.139-12.142h109.435c6.703,0,12.141,5.434,12.141,12.142v12.065h2.849v-34.583H158.396
		c-6.353,0-11.502,5.147-11.502,11.503v204.96c0,6.354,5.149,11.503,11.502,11.503h141.604v-30.175H297.152z"/>
	<path opacity="0.18" fill="#66AD9E" d="M297.152,383.807v7.657c0,6.708-5.438,12.142-12.141,12.142H175.577
		c-6.705,0-12.139-5.434-12.139-12.142V208.533c0-6.708,5.434-12.142,12.139-12.142h109.435c6.703,0,12.141,5.434,12.141,12.142
		v12.065h2.849v-34.583H158.396c-6.353,0-11.502,5.147-11.502,11.503v204.96c0,6.354,5.149,11.503,11.502,11.503h141.604v-30.175
		H297.152z"/>
	<rect x="297.152" y="224.663" fill="#66AD9E" width="2.849" height="11.851"/>
	<rect x="297.152" y="224.663" opacity="0.3" fill="#66AD9E" width="2.849" height="11.851"/>
	<rect x="297.152" y="304.231" fill="#66AD9E" width="2.849" height="11.855"/>
	<rect x="297.152" y="304.231" opacity="0.3" fill="#66AD9E" width="2.849" height="11.855"/>
	<path fill="#F0F0CB" d="M291.088,385.998c-2.244,0-4.062-1.813-4.062-4.058s1.818-4.064,4.062-4.064
		c1.431,0,2.685,0.744,3.408,1.864h2.656v-11.849h-2.475c-0.677,1.302-2.021,2.2-3.59,2.2c-2.244,0-4.062-1.822-4.062-4.064
		c0-2.247,1.818-4.065,4.062-4.065c1.434,0,2.685,0.745,3.408,1.864h2.656v-11.853h-2.475c-0.677,1.302-2.022,2.198-3.59,2.198
		c-2.244,0-4.062-1.818-4.062-4.065c0-2.234,1.818-4.055,4.062-4.055c1.431,0,2.683,0.741,3.406,1.856h2.658v-11.848h-2.475
		c-0.677,1.302-2.021,2.198-3.59,2.198c-2.244,0-4.062-1.816-4.062-4.062c0-2.24,1.818-4.065,4.062-4.065
		c1.434,0,2.687,0.749,3.41,1.871h2.654v-11.853h-2.477c-0.678,1.3-2.021,2.195-3.588,2.195c-2.244,0-4.062-1.82-4.062-4.062
		c0-2.245,1.818-4.062,4.062-4.062c1.434,0,2.687,0.746,3.41,1.866h2.654v-11.855h-2.475c-0.677,1.302-2.021,2.2-3.59,2.2
		c-2.244,0-4.062-1.82-4.062-4.064c0-2.242,1.818-4.06,4.062-4.06c1.434-0.003,2.687,0.744,3.41,1.864h2.654v-11.855h-2.472
		c-0.678,1.302-2.023,2.2-3.593,2.2c-2.244,0-4.062-1.818-4.062-4.061c0-2.244,1.818-4.062,4.062-4.062
		c1.431,0,2.685,0.745,3.408,1.862h2.656v-11.849h-2.477c-0.678,1.298-2.021,2.193-3.588,2.193c-2.244,0-4.062-1.815-4.062-4.06
		s1.818-4.067,4.062-4.067c1.436,0,2.689,0.749,3.413,1.874h2.651v-11.858h-2.475c-0.677,1.302-2.022,2.203-3.59,2.203
		c-2.244,0-4.062-1.825-4.062-4.069c0-2.24,1.818-4.061,4.062-4.061c1.434,0,2.685,0.745,3.408,1.864h2.656v-11.851h-2.475
		c-0.677,1.3-2.021,2.198-3.59,2.198c-2.244,0-4.062-1.82-4.062-4.06c0-2.245,1.818-4.065,4.062-4.065
		c1.431,0,2.685,0.744,3.408,1.864h2.656v-11.851h-2.475c-0.677,1.3-2.021,2.196-3.59,2.196c-2.244,0-4.062-1.816-4.062-4.061
		s1.818-4.064,4.062-4.064c1.431,0,2.685,0.744,3.408,1.864h2.656v-12.065c0-6.708-5.438-12.142-12.141-12.142H175.577
		c-6.705,0-12.139,5.434-12.139,12.142v182.931c0,6.708,5.434,12.142,12.139,12.142h109.435c6.703,0,12.141-5.434,12.141-12.142
		v-7.657h-2.477C293.998,385.104,292.655,385.998,291.088,385.998z M275.317,372.551h-90.044c-2.309,0-4.18-1.871-4.18-4.181
		c0-2.304,1.871-4.175,4.18-4.175h90.044c2.305,0,4.176,1.871,4.176,4.175C279.493,370.68,277.622,372.551,275.317,372.551z
		 M275.317,351.438h-90.044c-2.309,0-4.18-1.871-4.18-4.178c0-2.304,1.871-4.175,4.18-4.175h90.044c2.305,0,4.176,1.871,4.176,4.175
		C279.493,349.567,277.622,351.438,275.317,351.438z M275.317,330.327h-90.044c-2.309,0-4.18-1.871-4.18-4.176
		c0-2.309,1.871-4.177,4.18-4.177h90.044c2.305,0,4.176,1.868,4.176,4.177C279.493,328.456,277.622,330.327,275.317,330.327z
		 M275.317,309.218h-90.044c-2.309,0-4.18-1.871-4.18-4.178s1.871-4.175,4.18-4.175h90.044c2.305,0,4.176,1.868,4.176,4.175
		S277.622,309.218,275.317,309.218z M275.317,288.108h-90.044c-2.309,0-4.18-1.873-4.18-4.18c0-2.309,1.871-4.178,4.18-4.178h90.044
		c2.305,0,4.176,1.869,4.176,4.178C279.493,286.235,277.622,288.108,275.317,288.108z M275.317,266.997h-90.044
		c-2.309,0-4.18-1.871-4.18-4.178s1.871-4.176,4.18-4.176h90.044c2.305,0,4.176,1.869,4.176,4.176S277.622,266.997,275.317,266.997z
		 M275.317,245.885h-90.044c-2.309,0-4.18-1.868-4.18-4.175c0-2.309,1.871-4.178,4.18-4.178h90.044c2.305,0,4.176,1.869,4.176,4.178
		C279.493,244.017,277.622,245.885,275.317,245.885z M275.317,224.775h-90.044c-2.309,0-4.18-1.87-4.18-4.177
		s1.871-4.176,4.18-4.176h90.044c2.305,0,4.176,1.869,4.176,4.176S277.622,224.775,275.317,224.775z"/>
	<path opacity="0.18" fill="#66AD9E" d="M291.088,385.998c-2.244,0-4.062-1.813-4.062-4.058s1.818-4.064,4.062-4.064
		c1.431,0,2.685,0.744,3.408,1.864h2.656v-11.849h-2.475c-0.677,1.302-2.021,2.2-3.59,2.2c-2.244,0-4.062-1.822-4.062-4.064
		c0-2.247,1.818-4.065,4.062-4.065c1.434,0,2.685,0.745,3.408,1.864h2.656v-11.853h-2.475c-0.677,1.302-2.022,2.198-3.59,2.198
		c-2.244,0-4.062-1.818-4.062-4.065c0-2.234,1.818-4.055,4.062-4.055c1.431,0,2.683,0.741,3.406,1.856h2.658v-11.848h-2.475
		c-0.677,1.302-2.021,2.198-3.59,2.198c-2.244,0-4.062-1.816-4.062-4.062c0-2.24,1.818-4.065,4.062-4.065
		c1.434,0,2.687,0.749,3.41,1.871h2.654v-11.853h-2.477c-0.678,1.3-2.021,2.195-3.588,2.195c-2.244,0-4.062-1.82-4.062-4.062
		c0-2.245,1.818-4.062,4.062-4.062c1.434,0,2.687,0.746,3.41,1.866h2.654v-11.855h-2.475c-0.677,1.302-2.021,2.2-3.59,2.2
		c-2.244,0-4.062-1.82-4.062-4.064c0-2.242,1.818-4.06,4.062-4.06c1.434-0.003,2.687,0.744,3.41,1.864h2.654v-11.855h-2.472
		c-0.678,1.302-2.023,2.2-3.593,2.2c-2.244,0-4.062-1.818-4.062-4.061c0-2.244,1.818-4.062,4.062-4.062
		c1.431,0,2.685,0.745,3.408,1.862h2.656v-11.849h-2.477c-0.678,1.298-2.021,2.193-3.588,2.193c-2.244,0-4.062-1.815-4.062-4.06
		s1.818-4.067,4.062-4.067c1.436,0,2.689,0.749,3.413,1.874h2.651v-11.858h-2.475c-0.677,1.302-2.022,2.203-3.59,2.203
		c-2.244,0-4.062-1.825-4.062-4.069c0-2.24,1.818-4.061,4.062-4.061c1.434,0,2.685,0.745,3.408,1.864h2.656v-11.851h-2.475
		c-0.677,1.3-2.021,2.198-3.59,2.198c-2.244,0-4.062-1.82-4.062-4.06c0-2.245,1.818-4.065,4.062-4.065
		c1.431,0,2.685,0.744,3.408,1.864h2.656v-11.851h-2.475c-0.677,1.3-2.021,2.196-3.59,2.196c-2.244,0-4.062-1.816-4.062-4.061
		s1.818-4.064,4.062-4.064c1.431,0,2.685,0.744,3.408,1.864h2.656v-12.065c0-6.708-5.438-12.142-12.141-12.142H175.577
		c-6.705,0-12.139,5.434-12.139,12.142v182.931c0,6.708,5.434,12.142,12.139,12.142h109.435c6.703,0,12.141-5.434,12.141-12.142
		v-7.657h-2.477C293.998,385.104,292.655,385.998,291.088,385.998z M275.317,372.551h-90.044c-2.309,0-4.18-1.871-4.18-4.181
		c0-2.304,1.871-4.175,4.18-4.175h90.044c2.305,0,4.176,1.871,4.176,4.175C279.493,370.68,277.622,372.551,275.317,372.551z
		 M275.317,351.438h-90.044c-2.309,0-4.18-1.871-4.18-4.178c0-2.304,1.871-4.175,4.18-4.175h90.044c2.305,0,4.176,1.871,4.176,4.175
		C279.493,349.567,277.622,351.438,275.317,351.438z M275.317,330.327h-90.044c-2.309,0-4.18-1.871-4.18-4.176
		c0-2.309,1.871-4.177,4.18-4.177h90.044c2.305,0,4.176,1.868,4.176,4.177C279.493,328.456,277.622,330.327,275.317,330.327z
		 M275.317,309.218h-90.044c-2.309,0-4.18-1.871-4.18-4.178s1.871-4.175,4.18-4.175h90.044c2.305,0,4.176,1.868,4.176,4.175
		S277.622,309.218,275.317,309.218z M275.317,288.108h-90.044c-2.309,0-4.18-1.873-4.18-4.18c0-2.309,1.871-4.178,4.18-4.178h90.044
		c2.305,0,4.176,1.869,4.176,4.178C279.493,286.235,277.622,288.108,275.317,288.108z M275.317,266.997h-90.044
		c-2.309,0-4.18-1.871-4.18-4.178s1.871-4.176,4.18-4.176h90.044c2.305,0,4.176,1.869,4.176,4.176S277.622,266.997,275.317,266.997z
		 M275.317,245.885h-90.044c-2.309,0-4.18-1.868-4.18-4.175c0-2.309,1.871-4.178,4.18-4.178h90.044c2.305,0,4.176,1.869,4.176,4.178
		C279.493,244.017,277.622,245.885,275.317,245.885z M275.317,224.775h-90.044c-2.309,0-4.18-1.87-4.18-4.177
		s1.871-4.176,4.18-4.176h90.044c2.305,0,4.176,1.869,4.176,4.176S277.622,224.775,275.317,224.775z"/>
	<path fill="#40424F" d="M291.088,377.876c-2.244,0-4.062,1.82-4.062,4.064s1.818,4.058,4.062,4.058c1.567,0,2.91-0.894,3.588-2.191
		h-3.71c-1.124,0-2.034-0.91-2.034-2.034c0-1.12,0.91-2.032,2.034-2.032h3.53C293.772,378.62,292.519,377.876,291.088,377.876z"/>
	<path opacity="0.3" fill="#66AD9E" d="M291.088,377.876c-2.244,0-4.062,1.82-4.062,4.064s1.818,4.058,4.062,4.058
		c1.567,0,2.91-0.894,3.588-2.191h-3.71c-1.124,0-2.034-0.91-2.034-2.034c0-1.12,0.91-2.032,2.034-2.032h3.53
		C293.772,378.62,292.519,377.876,291.088,377.876z"/>
	<path fill="#40424F" d="M288.932,365.854c0-1.118,0.91-2.028,2.034-2.028h3.53c-0.724-1.119-1.975-1.864-3.408-1.864
		c-2.244,0-4.062,1.818-4.062,4.065c0,2.242,1.818,4.064,4.062,4.064c1.569,0,2.913-0.898,3.59-2.2h-3.712
		C289.842,367.892,288.932,366.981,288.932,365.854z"/>
	<path opacity="0.3" fill="#66AD9E" d="M288.932,365.854c0-1.118,0.91-2.028,2.034-2.028h3.53c-0.724-1.119-1.975-1.864-3.408-1.864
		c-2.244,0-4.062,1.818-4.062,4.065c0,2.242,1.818,4.064,4.062,4.064c1.569,0,2.913-0.898,3.59-2.2h-3.712
		C289.842,367.892,288.932,366.981,288.932,365.854z"/>
	<path fill="#40424F" d="M288.932,349.943c0-1.12,0.91-2.035,2.034-2.035h3.528c-0.724-1.115-1.976-1.856-3.406-1.856
		c-2.244,0-4.062,1.82-4.062,4.055c0,2.247,1.818,4.065,4.062,4.065c1.567,0,2.913-0.896,3.59-2.198h-3.712
		C289.842,351.974,288.932,351.065,288.932,349.943z"/>
	<path opacity="0.3" fill="#66AD9E" d="M288.932,349.943c0-1.12,0.91-2.035,2.034-2.035h3.528c-0.724-1.115-1.976-1.856-3.406-1.856
		c-2.244,0-4.062,1.82-4.062,4.055c0,2.247,1.818,4.065,4.062,4.065c1.567,0,2.913-0.896,3.59-2.198h-3.712
		C289.842,351.974,288.932,351.065,288.932,349.943z"/>
	<path fill="#40424F" d="M288.932,334.027c0-1.119,0.91-2.025,2.034-2.025h3.532c-0.724-1.122-1.977-1.871-3.41-1.871
		c-2.244,0-4.062,1.825-4.062,4.065c0,2.246,1.818,4.062,4.062,4.062c1.569,0,2.913-0.896,3.59-2.198h-3.712
		C289.842,336.061,288.932,335.152,288.932,334.027z"/>
	<path opacity="0.3" fill="#66AD9E" d="M288.932,334.027c0-1.119,0.91-2.025,2.034-2.025h3.532c-0.724-1.122-1.977-1.871-3.41-1.871
		c-2.244,0-4.062,1.825-4.062,4.065c0,2.246,1.818,4.062,4.062,4.062c1.569,0,2.913-0.896,3.59-2.198h-3.712
		C289.842,336.061,288.932,335.152,288.932,334.027z"/>
	<path fill="#40424F" d="M288.932,318.117c0-1.123,0.91-2.03,2.034-2.03h3.532c-0.724-1.12-1.977-1.866-3.41-1.866
		c-2.244,0-4.062,1.817-4.062,4.062c0,2.241,1.818,4.062,4.062,4.062c1.567,0,2.91-0.896,3.588-2.195h-3.71
		C289.842,320.149,288.932,319.239,288.932,318.117z"/>
	<path opacity="0.3" fill="#66AD9E" d="M288.932,318.117c0-1.123,0.91-2.03,2.034-2.03h3.532c-0.724-1.12-1.977-1.866-3.41-1.866
		c-2.244,0-4.062,1.817-4.062,4.062c0,2.241,1.818,4.062,4.062,4.062c1.567,0,2.91-0.896,3.588-2.195h-3.71
		C289.842,320.149,288.932,319.239,288.932,318.117z"/>
	<path fill="#40424F" d="M288.932,302.201c0-1.122,0.91-2.029,2.034-2.029h3.532c-0.724-1.12-1.977-1.867-3.41-1.864
		c-2.244,0-4.062,1.817-4.062,4.06c0,2.244,1.818,4.064,4.062,4.064c1.569,0,2.913-0.898,3.59-2.2h-3.712
		C289.842,304.231,288.932,303.323,288.932,302.201z"/>
	<path opacity="0.3" fill="#66AD9E" d="M288.932,302.201c0-1.122,0.91-2.029,2.034-2.029h3.532c-0.724-1.12-1.977-1.867-3.41-1.864
		c-2.244,0-4.062,1.817-4.062,4.06c0,2.244,1.818,4.064,4.062,4.064c1.569,0,2.913-0.898,3.59-2.2h-3.712
		C289.842,304.231,288.932,303.323,288.932,302.201z"/>
	<path fill="#40424F" d="M288.932,286.288c0-1.122,0.91-2.032,2.034-2.032h3.53c-0.724-1.117-1.978-1.862-3.408-1.862
		c-2.244,0-4.062,1.818-4.062,4.062c0,2.242,1.818,4.061,4.062,4.061c1.569,0,2.915-0.898,3.593-2.2h-3.715
		C289.842,288.316,288.932,287.41,288.932,286.288z"/>
	<path opacity="0.3" fill="#66AD9E" d="M288.932,286.288c0-1.122,0.91-2.032,2.034-2.032h3.53c-0.724-1.117-1.978-1.862-3.408-1.862
		c-2.244,0-4.062,1.818-4.062,4.062c0,2.242,1.818,4.061,4.062,4.061c1.569,0,2.915-0.898,3.593-2.2h-3.715
		C289.842,288.316,288.932,287.41,288.932,286.288z"/>
	<path fill="#40424F" d="M288.932,270.373c0-1.123,0.91-2.025,2.034-2.025h3.535c-0.724-1.125-1.978-1.874-3.413-1.874
		c-2.244,0-4.062,1.823-4.062,4.067s1.818,4.06,4.062,4.06c1.567,0,2.91-0.896,3.588-2.193h-3.71
		C289.842,272.407,288.932,271.497,288.932,270.373z"/>
	<path opacity="0.3" fill="#66AD9E" d="M288.932,270.373c0-1.123,0.91-2.025,2.034-2.025h3.535
		c-0.724-1.125-1.978-1.874-3.413-1.874c-2.244,0-4.062,1.823-4.062,4.067s1.818,4.06,4.062,4.06c1.567,0,2.91-0.896,3.588-2.193
		h-3.71C289.842,272.407,288.932,271.497,288.932,270.373z"/>
	<path fill="#40424F" d="M288.932,254.457c0-1.122,0.91-2.03,2.034-2.03h3.53c-0.724-1.119-1.975-1.864-3.408-1.864
		c-2.244,0-4.062,1.82-4.062,4.061c0,2.244,1.818,4.069,4.062,4.069c1.567,0,2.913-0.901,3.59-2.203h-3.712
		C289.842,256.489,288.932,255.582,288.932,254.457z"/>
	<path opacity="0.3" fill="#66AD9E" d="M288.932,254.457c0-1.122,0.91-2.03,2.034-2.03h3.53c-0.724-1.119-1.975-1.864-3.408-1.864
		c-2.244,0-4.062,1.82-4.062,4.061c0,2.244,1.818,4.069,4.062,4.069c1.567,0,2.913-0.901,3.59-2.203h-3.712
		C289.842,256.489,288.932,255.582,288.932,254.457z"/>
	<path fill="#40424F" d="M288.932,238.546c0-1.127,0.91-2.032,2.034-2.032h3.53c-0.724-1.12-1.978-1.864-3.408-1.864
		c-2.244,0-4.062,1.82-4.062,4.065c0,2.239,1.818,4.06,4.062,4.06c1.569,0,2.913-0.898,3.59-2.198h-3.712
		C289.842,240.576,288.932,239.664,288.932,238.546z"/>
	<path opacity="0.3" fill="#66AD9E" d="M288.932,238.546c0-1.127,0.91-2.032,2.034-2.032h3.53c-0.724-1.12-1.978-1.864-3.408-1.864
		c-2.244,0-4.062,1.82-4.062,4.065c0,2.239,1.818,4.06,4.062,4.06c1.569,0,2.913-0.898,3.59-2.198h-3.712
		C289.842,240.576,288.932,239.664,288.932,238.546z"/>
	<path fill="#40424F" d="M288.932,222.633c0-1.122,0.91-2.034,2.034-2.034h3.53c-0.724-1.12-1.978-1.864-3.408-1.864
		c-2.244,0-4.062,1.82-4.062,4.064s1.818,4.061,4.062,4.061c1.569,0,2.913-0.896,3.59-2.196h-3.712
		C289.842,224.663,288.932,223.755,288.932,222.633z"/>
	<path opacity="0.3" fill="#66AD9E" d="M288.932,222.633c0-1.122,0.91-2.034,2.034-2.034h3.53c-0.724-1.12-1.978-1.864-3.408-1.864
		c-2.244,0-4.062,1.82-4.062,4.064s1.818,4.061,4.062,4.061c1.569,0,2.913-0.896,3.59-2.196h-3.712
		C289.842,224.663,288.932,223.755,288.932,222.633z"/>
	<rect x="297.152" y="379.74" fill="#C2C63D" width="2.849" height="4.066"/>
	<rect x="297.152" y="379.74" opacity="0.3" fill="#66AD9E" width="2.849" height="4.066"/>
	<path fill="#C2C63D" d="M294.496,379.74c0.41,0.636,0.654,1.389,0.654,2.2c0,0.678-0.182,1.307-0.475,1.866h2.477v-4.066H294.496z"
		/>
	<path opacity="0.3" fill="#66AD9E" d="M294.496,379.74c0.41,0.636,0.654,1.389,0.654,2.2c0,0.678-0.182,1.307-0.475,1.866h2.477
		v-4.066H294.496z"/>
	<path fill="#C2C63D" d="M288.932,381.772c0,1.124,0.91,2.034,2.034,2.034h3.71c0.293-0.56,0.475-1.188,0.475-1.866
		c0-0.812-0.244-1.564-0.654-2.2h-3.53C289.842,379.74,288.932,380.652,288.932,381.772z"/>
	<path opacity="0.3" fill="#66AD9E" d="M288.932,381.772c0,1.124,0.91,2.034,2.034,2.034h3.71c0.293-0.56,0.475-1.188,0.475-1.866
		c0-0.812-0.244-1.564-0.654-2.2h-3.53C289.842,379.74,288.932,380.652,288.932,381.772z"/>
	<rect x="297.152" y="363.826" fill="#C2C63D" width="2.849" height="4.065"/>
	<rect x="297.152" y="363.826" opacity="0.3" fill="#66AD9E" width="2.849" height="4.065"/>
	<path fill="#C2C63D" d="M295.15,366.027c0,0.675-0.18,1.304-0.473,1.864h2.475v-4.065h-2.656
		C294.906,364.46,295.15,365.214,295.15,366.027z"/>
	<path opacity="0.3" fill="#66AD9E" d="M295.15,366.027c0,0.675-0.18,1.304-0.473,1.864h2.475v-4.065h-2.656
		C294.906,364.46,295.15,365.214,295.15,366.027z"/>
	<path fill="#C2C63D" d="M294.496,363.826h-3.53c-1.124,0-2.034,0.91-2.034,2.028c0,1.127,0.91,2.037,2.034,2.037h3.712
		c0.293-0.561,0.473-1.189,0.473-1.864C295.15,365.214,294.906,364.46,294.496,363.826z"/>
	<path opacity="0.3" fill="#66AD9E" d="M294.496,363.826h-3.53c-1.124,0-2.034,0.91-2.034,2.028c0,1.127,0.91,2.037,2.034,2.037
		h3.712c0.293-0.561,0.473-1.189,0.473-1.864C295.15,365.214,294.906,364.46,294.496,363.826z"/>
	<rect x="297.152" y="347.908" fill="#C2C63D" width="2.849" height="4.065"/>
	<rect x="297.152" y="347.908" opacity="0.3" fill="#66AD9E" width="2.849" height="4.065"/>
	<path fill="#C2C63D" d="M295.15,350.106c0,0.678-0.182,1.307-0.473,1.867h2.475v-4.065h-2.658
		C294.906,348.542,295.15,349.296,295.15,350.106z"/>
	<path opacity="0.3" fill="#66AD9E" d="M295.15,350.106c0,0.678-0.182,1.307-0.473,1.867h2.475v-4.065h-2.658
		C294.906,348.542,295.15,349.296,295.15,350.106z"/>
	<path fill="#C2C63D" d="M294.494,347.908h-3.528c-1.124,0-2.034,0.915-2.034,2.035c0,1.122,0.91,2.03,2.034,2.03h3.712
		c0.291-0.561,0.473-1.189,0.473-1.867C295.15,349.296,294.906,348.542,294.494,347.908z"/>
	<path opacity="0.3" fill="#66AD9E" d="M294.494,347.908h-3.528c-1.124,0-2.034,0.915-2.034,2.035c0,1.122,0.91,2.03,2.034,2.03
		h3.712c0.291-0.561,0.473-1.189,0.473-1.867C295.15,349.296,294.906,348.542,294.494,347.908z"/>
	<rect x="297.152" y="332.002" fill="#C2C63D" width="2.849" height="4.059"/>
	<rect x="297.152" y="332.002" opacity="0.3" fill="#66AD9E" width="2.849" height="4.059"/>
	<path fill="#C2C63D" d="M295.15,334.196c0,0.677-0.18,1.304-0.473,1.864h2.475v-4.059h-2.654
		C294.906,332.636,295.15,333.387,295.15,334.196z"/>
	<path opacity="0.3" fill="#66AD9E" d="M295.15,334.196c0,0.677-0.18,1.304-0.473,1.864h2.475v-4.059h-2.654
		C294.906,332.636,295.15,333.387,295.15,334.196z"/>
	<path fill="#C2C63D" d="M294.498,332.002h-3.532c-1.124,0-2.034,0.906-2.034,2.025c0,1.125,0.91,2.033,2.034,2.033h3.712
		c0.293-0.561,0.473-1.188,0.473-1.864C295.15,333.387,294.906,332.636,294.498,332.002z"/>
	<path opacity="0.3" fill="#66AD9E" d="M294.498,332.002h-3.532c-1.124,0-2.034,0.906-2.034,2.025c0,1.125,0.91,2.033,2.034,2.033
		h3.712c0.293-0.561,0.473-1.188,0.473-1.864C295.15,333.387,294.906,332.636,294.498,332.002z"/>
	<rect x="297.152" y="316.087" fill="#C2C63D" width="2.849" height="4.062"/>
	<rect x="297.152" y="316.087" opacity="0.3" fill="#66AD9E" width="2.849" height="4.062"/>
	<path fill="#C2C63D" d="M295.15,318.283c0,0.677-0.182,1.304-0.475,1.866h2.477v-4.062h-2.654
		C294.906,316.721,295.15,317.472,295.15,318.283z"/>
	<path opacity="0.3" fill="#66AD9E" d="M295.15,318.283c0,0.677-0.182,1.304-0.475,1.866h2.477v-4.062h-2.654
		C294.906,316.721,295.15,317.472,295.15,318.283z"/>
	<path fill="#C2C63D" d="M294.498,316.087h-3.532c-1.124,0-2.034,0.907-2.034,2.03c0,1.122,0.91,2.032,2.034,2.032h3.71
		c0.293-0.562,0.475-1.189,0.475-1.866C295.15,317.472,294.906,316.721,294.498,316.087z"/>
	<path opacity="0.3" fill="#66AD9E" d="M294.498,316.087h-3.532c-1.124,0-2.034,0.907-2.034,2.03c0,1.122,0.91,2.032,2.034,2.032
		h3.71c0.293-0.562,0.475-1.189,0.475-1.866C295.15,317.472,294.906,316.721,294.498,316.087z"/>
	<rect x="297.152" y="300.172" fill="#C2C63D" width="2.849" height="4.06"/>
	<rect x="297.152" y="300.172" opacity="0.3" fill="#66AD9E" width="2.849" height="4.06"/>
	<path fill="#C2C63D" d="M295.15,302.367c0,0.675-0.18,1.302-0.473,1.864h2.475v-4.06h-2.654
		C294.906,300.805,295.15,301.556,295.15,302.367z"/>
	<path opacity="0.3" fill="#66AD9E" d="M295.15,302.367c0,0.675-0.18,1.302-0.473,1.864h2.475v-4.06h-2.654
		C294.906,300.805,295.15,301.556,295.15,302.367z"/>
	<path fill="#C2C63D" d="M294.498,300.172h-3.532c-1.124,0-2.034,0.907-2.034,2.029s0.91,2.03,2.034,2.03h3.712
		c0.293-0.562,0.473-1.189,0.473-1.864C295.15,301.556,294.906,300.805,294.498,300.172z"/>
	<path opacity="0.3" fill="#66AD9E" d="M294.498,300.172h-3.532c-1.124,0-2.034,0.907-2.034,2.029s0.91,2.03,2.034,2.03h3.712
		c0.293-0.562,0.473-1.189,0.473-1.864C295.15,301.556,294.906,300.805,294.498,300.172z"/>
	<rect x="297.152" y="284.256" fill="#C2C63D" width="2.849" height="4.061"/>
	<rect x="297.152" y="284.256" opacity="0.3" fill="#66AD9E" width="2.849" height="4.061"/>
	<path fill="#C2C63D" d="M295.15,286.456c0,0.673-0.18,1.3-0.47,1.86h2.472v-4.061h-2.656
		C294.906,284.89,295.15,285.643,295.15,286.456z"/>
	<path opacity="0.3" fill="#66AD9E" d="M295.15,286.456c0,0.673-0.18,1.3-0.47,1.86h2.472v-4.061h-2.656
		C294.906,284.89,295.15,285.643,295.15,286.456z"/>
	<path fill="#C2C63D" d="M294.496,284.256h-3.53c-1.124,0-2.034,0.91-2.034,2.032s0.91,2.028,2.034,2.028h3.715
		c0.29-0.561,0.47-1.188,0.47-1.86C295.15,285.643,294.906,284.89,294.496,284.256z"/>
	<path opacity="0.3" fill="#66AD9E" d="M294.496,284.256h-3.53c-1.124,0-2.034,0.91-2.034,2.032s0.91,2.028,2.034,2.028h3.715
		c0.29-0.561,0.47-1.188,0.47-1.86C295.15,285.643,294.906,284.89,294.496,284.256z"/>
	<rect x="297.152" y="268.348" fill="#C2C63D" width="2.849" height="4.06"/>
	<rect x="297.152" y="268.348" opacity="0.3" fill="#66AD9E" width="2.849" height="4.06"/>
	<path fill="#C2C63D" d="M295.15,270.541c0,0.678-0.182,1.307-0.475,1.866h2.477v-4.06h-2.651
		C294.908,268.98,295.15,269.732,295.15,270.541z"/>
	<path opacity="0.3" fill="#66AD9E" d="M295.15,270.541c0,0.678-0.182,1.307-0.475,1.866h2.477v-4.06h-2.651
		C294.908,268.98,295.15,269.732,295.15,270.541z"/>
	<path fill="#C2C63D" d="M294.501,268.348h-3.535c-1.124,0-2.034,0.902-2.034,2.025c0,1.124,0.91,2.034,2.034,2.034h3.71
		c0.293-0.56,0.475-1.188,0.475-1.866C295.15,269.732,294.908,268.98,294.501,268.348z"/>
	<path opacity="0.3" fill="#66AD9E" d="M294.501,268.348h-3.535c-1.124,0-2.034,0.902-2.034,2.025c0,1.124,0.91,2.034,2.034,2.034
		h3.71c0.293-0.56,0.475-1.188,0.475-1.866C295.15,269.732,294.908,268.98,294.501,268.348z"/>
	<rect x="297.152" y="252.427" fill="#C2C63D" width="2.849" height="4.062"/>
	<rect x="297.152" y="252.427" opacity="0.3" fill="#66AD9E" width="2.849" height="4.062"/>
	<path fill="#C2C63D" d="M295.15,254.623c0,0.675-0.182,1.304-0.473,1.866h2.475v-4.062h-2.656
		C294.906,253.061,295.15,253.812,295.15,254.623z"/>
	<path opacity="0.3" fill="#66AD9E" d="M295.15,254.623c0,0.675-0.182,1.304-0.473,1.866h2.475v-4.062h-2.656
		C294.906,253.061,295.15,253.812,295.15,254.623z"/>
	<path fill="#C2C63D" d="M294.496,252.427h-3.53c-1.124,0-2.034,0.908-2.034,2.03c0,1.125,0.91,2.032,2.034,2.032h3.712
		c0.291-0.562,0.473-1.191,0.473-1.866C295.15,253.812,294.906,253.061,294.496,252.427z"/>
	<path opacity="0.3" fill="#66AD9E" d="M294.496,252.427h-3.53c-1.124,0-2.034,0.908-2.034,2.03c0,1.125,0.91,2.032,2.034,2.032
		h3.712c0.291-0.562,0.473-1.191,0.473-1.866C295.15,253.812,294.906,253.061,294.496,252.427z"/>
	<rect x="297.152" y="236.514" fill="#C2C63D" width="2.849" height="4.062"/>
	<rect x="297.152" y="236.514" opacity="0.3" fill="#66AD9E" width="2.849" height="4.062"/>
	<path fill="#C2C63D" d="M295.15,238.715c0,0.675-0.18,1.302-0.473,1.861h2.475v-4.062h-2.656
		C294.906,237.149,295.15,237.901,295.15,238.715z"/>
	<path opacity="0.3" fill="#66AD9E" d="M295.15,238.715c0,0.675-0.18,1.302-0.473,1.861h2.475v-4.062h-2.656
		C294.906,237.149,295.15,237.901,295.15,238.715z"/>
	<path fill="#C2C63D" d="M294.496,236.514h-3.53c-1.124,0-2.034,0.905-2.034,2.032c0,1.118,0.91,2.03,2.034,2.03h3.712
		c0.293-0.56,0.473-1.187,0.473-1.861C295.15,237.901,294.906,237.149,294.496,236.514z"/>
	<path opacity="0.3" fill="#66AD9E" d="M294.496,236.514h-3.53c-1.124,0-2.034,0.905-2.034,2.032c0,1.118,0.91,2.03,2.034,2.03
		h3.712c0.293-0.56,0.473-1.187,0.473-1.861C295.15,237.901,294.906,237.149,294.496,236.514z"/>
	<rect x="297.152" y="220.599" fill="#C2C63D" width="2.849" height="4.064"/>
	<rect x="297.152" y="220.599" opacity="0.3" fill="#66AD9E" width="2.849" height="4.064"/>
	<path fill="#C2C63D" d="M295.15,222.799c0,0.678-0.182,1.305-0.473,1.864h2.475v-4.064h-2.656
		C294.906,221.234,295.15,221.987,295.15,222.799z"/>
	<path opacity="0.3" fill="#66AD9E" d="M295.15,222.799c0,0.678-0.182,1.305-0.473,1.864h2.475v-4.064h-2.656
		C294.906,221.234,295.15,221.987,295.15,222.799z"/>
	<path fill="#C2C63D" d="M294.496,220.599h-3.53c-1.124,0-2.034,0.912-2.034,2.034s0.91,2.03,2.034,2.03h3.712
		c0.291-0.56,0.473-1.187,0.473-1.864C295.15,221.987,294.906,221.234,294.496,220.599z"/>
	<path opacity="0.3" fill="#66AD9E" d="M294.496,220.599h-3.53c-1.124,0-2.034,0.912-2.034,2.034s0.91,2.03,2.034,2.03h3.712
		c0.291-0.56,0.473-1.187,0.473-1.864C295.15,221.987,294.906,221.234,294.496,220.599z"/>
	<path fill="#40424F" d="M275.317,216.423h-90.044c-2.309,0-4.18,1.869-4.18,4.176s1.871,4.177,4.18,4.177h90.044
		c2.305,0,4.176-1.87,4.176-4.177S277.622,216.423,275.317,216.423z"/>
	<path opacity="0.3" fill="#66AD9E" d="M275.317,216.423h-90.044c-2.309,0-4.18,1.869-4.18,4.176s1.871,4.177,4.18,4.177h90.044
		c2.305,0,4.176-1.87,4.176-4.177S277.622,216.423,275.317,216.423z"/>
	<path fill="#40424F" d="M275.317,237.532h-90.044c-2.309,0-4.18,1.869-4.18,4.178c0,2.307,1.871,4.175,4.18,4.175h90.044
		c2.305,0,4.176-1.868,4.176-4.175C279.493,239.401,277.622,237.532,275.317,237.532z"/>
	<path opacity="0.3" fill="#66AD9E" d="M275.317,237.532h-90.044c-2.309,0-4.18,1.869-4.18,4.178c0,2.307,1.871,4.175,4.18,4.175
		h90.044c2.305,0,4.176-1.868,4.176-4.175C279.493,239.401,277.622,237.532,275.317,237.532z"/>
	<path fill="#40424F" d="M275.317,258.644h-90.044c-2.309,0-4.18,1.869-4.18,4.176s1.871,4.178,4.18,4.178h90.044
		c2.305,0,4.176-1.871,4.176-4.178S277.622,258.644,275.317,258.644z"/>
	<path opacity="0.3" fill="#66AD9E" d="M275.317,258.644h-90.044c-2.309,0-4.18,1.869-4.18,4.176s1.871,4.178,4.18,4.178h90.044
		c2.305,0,4.176-1.871,4.176-4.178S277.622,258.644,275.317,258.644z"/>
	<path fill="#40424F" d="M275.317,279.751h-90.044c-2.309,0-4.18,1.869-4.18,4.178c0,2.307,1.871,4.18,4.18,4.18h90.044
		c2.305,0,4.176-1.873,4.176-4.18C279.493,281.62,277.622,279.751,275.317,279.751z"/>
	<path opacity="0.3" fill="#66AD9E" d="M275.317,279.751h-90.044c-2.309,0-4.18,1.869-4.18,4.178c0,2.307,1.871,4.18,4.18,4.18
		h90.044c2.305,0,4.176-1.873,4.176-4.18C279.493,281.62,277.622,279.751,275.317,279.751z"/>
	<path fill="#40424F" d="M275.317,300.865h-90.044c-2.309,0-4.18,1.868-4.18,4.175s1.871,4.178,4.18,4.178h90.044
		c2.305,0,4.176-1.871,4.176-4.178S277.622,300.865,275.317,300.865z"/>
	<path opacity="0.3" fill="#66AD9E" d="M275.317,300.865h-90.044c-2.309,0-4.18,1.868-4.18,4.175s1.871,4.178,4.18,4.178h90.044
		c2.305,0,4.176-1.871,4.176-4.178S277.622,300.865,275.317,300.865z"/>
	<path fill="#40424F" d="M275.317,321.975h-90.044c-2.309,0-4.18,1.868-4.18,4.177c0,2.305,1.871,4.176,4.18,4.176h90.044
		c2.305,0,4.176-1.871,4.176-4.176C279.493,323.843,277.622,321.975,275.317,321.975z"/>
	<path opacity="0.3" fill="#66AD9E" d="M275.317,321.975h-90.044c-2.309,0-4.18,1.868-4.18,4.177c0,2.305,1.871,4.176,4.18,4.176
		h90.044c2.305,0,4.176-1.871,4.176-4.176C279.493,323.843,277.622,321.975,275.317,321.975z"/>
	<path fill="#40424F" d="M275.317,343.086h-90.044c-2.309,0-4.18,1.871-4.18,4.175c0,2.307,1.871,4.178,4.18,4.178h90.044
		c2.305,0,4.176-1.871,4.176-4.178C279.493,344.957,277.622,343.086,275.317,343.086z"/>
	<path opacity="0.3" fill="#66AD9E" d="M275.317,343.086h-90.044c-2.309,0-4.18,1.871-4.18,4.175c0,2.307,1.871,4.178,4.18,4.178
		h90.044c2.305,0,4.176-1.871,4.176-4.178C279.493,344.957,277.622,343.086,275.317,343.086z"/>
	<path fill="#40424F" d="M275.317,364.195h-90.044c-2.309,0-4.18,1.871-4.18,4.175c0,2.31,1.871,4.181,4.18,4.181h90.044
		c2.305,0,4.176-1.871,4.176-4.181C279.493,366.066,277.622,364.195,275.317,364.195z"/>
	<path opacity="0.3" fill="#66AD9E" d="M275.317,364.195h-90.044c-2.309,0-4.18,1.871-4.18,4.175c0,2.31,1.871,4.181,4.18,4.181
		h90.044c2.305,0,4.176-1.871,4.176-4.181C279.493,366.066,277.622,364.195,275.317,364.195z"/>
</g>
</svg>
