<?xml version="1.0" encoding="utf-8"?>
<!-- Generator: Adobe Illustrator 15.0.0, SVG Export Plug-In . SVG Version: 6.00 Build 0)  -->
<!DOCTYPE svg PUBLIC "-//W3C//DTD SVG 1.1//EN" "http://www.w3.org/Graphics/SVG/1.1/DTD/svg11.dtd">
<svg version="1.1" id="Capa_1" xmlns="http://www.w3.org/2000/svg" xmlns:xlink="http://www.w3.org/1999/xlink" x="0px" y="0px"
	 width="600px" height="600px" viewBox="0 0 600 600" enable-background="new 0 0 600 600" xml:space="preserve">
<g>
	<circle fill="#40424F" cx="299.999" cy="300" r="250"/>
	<g>
		<path fill="#F0F0CB" d="M383.088,427.853c0,9.519-7.715,17.238-17.237,17.238H234.144c-9.523,0-17.238-7.72-17.238-17.238V172.147
			c0-9.523,7.715-17.238,17.238-17.238h131.707c9.522,0,17.237,7.715,17.237,17.238V427.853z"/>
		<rect x="232.504" y="182.204" fill="#66AD9E" width="133.6" height="216.921"/>
		<polygon fill="#5CA394" points="299.303,290.667 232.504,399.125 232.504,182.204 366.104,182.204 		"/>
		<path fill="#D86D50" d="M325.875,423.541c0,3.169-2.571,5.747-5.747,5.747h-39.386c-3.169,0-5.743-2.578-5.743-5.747l0,0
			c0-3.174,2.574-5.743,5.743-5.743h39.386C323.304,417.798,325.875,420.367,325.875,423.541L325.875,423.541z"/>
	</g>
</g>
</svg>
