<?xml version="1.0" encoding="utf-8"?>
<!-- Generator: Adobe Illustrator 15.0.0, SVG Export Plug-In . SVG Version: 6.00 Build 0)  -->
<!DOCTYPE svg PUBLIC "-//W3C//DTD SVG 1.1//EN" "http://www.w3.org/Graphics/SVG/1.1/DTD/svg11.dtd">
<svg version="1.1" id="Capa_1" xmlns="http://www.w3.org/2000/svg" xmlns:xlink="http://www.w3.org/1999/xlink" x="0px" y="0px"
	 width="600px" height="600px" viewBox="0 0 600 600" enable-background="new 0 0 600 600" xml:space="preserve">
<g>
	<path fill="#D86D50" d="M300.002,50C438.073,50,550,161.929,550,300c0,138.073-111.927,250-249.998,250
		C161.929,550,50,438.073,50,300C50,161.929,161.929,50,300.002,50z"/>
	<path fill="#F0F0CB" d="M420.143,426.025c0,6.499-5.268,11.766-11.767,11.766H191.623c-6.496,0-11.766-5.267-11.766-11.766V191.553
		c0-6.494,5.27-11.764,11.766-11.764h216.753c6.499,0,11.767,5.27,11.767,11.764V426.025z"/>
	<path fill="#C2C63D" d="M355.802,178.252c0,6.499-5.272,11.764-11.767,11.764h-88.068c-6.499,0-11.764-5.265-11.764-11.764v-4.277
		c0-6.497,5.265-11.766,11.764-11.766h88.068c6.494,0,11.767,5.269,11.767,11.766V178.252z"/>
	<g>
		<path fill="#66AD9E" d="M206.239,353.601h0.176c0.007-0.009,0.013-0.019,0.019-0.027
			C206.356,353.591,206.291,353.601,206.239,353.601z"/>
		<path fill="#66AD9E" d="M373.611,236.093c4.072,4.56,6.55,10.573,6.55,17.168c0,14.235-11.54,25.78-25.78,25.78
			c-9.335,0-17.512-4.962-22.037-12.392c-18.231,13.275-37.737,27.249-55.833,40.018l15.755,15.491l25.449-15.349
			c0.875-0.524,1.961-0.508,2.817,0.037l72.185,45.978c0.357,0.184,0.653,0.461,0.894,0.776h0.15
			c6.499,0,11.766-5.268,11.766-11.764V209.564C405.526,211.238,392.727,221.613,373.611,236.093z"/>
		<path fill="#C2C63D" d="M354.381,279.041c14.24,0,25.78-11.545,25.78-25.78c0-6.595-2.478-12.608-6.55-17.168
			c-11.845,8.973-26.116,19.523-41.268,30.556C336.869,274.078,345.046,279.041,354.381,279.041z"/>
		<path fill="#40424F" d="M392.717,352.824l-72.185-45.978c-0.856-0.545-1.942-0.562-2.817-0.037l-25.449,15.349l-15.755-15.491
			c-36.024,25.421-66.452,46.064-70.077,46.906c-0.006,0.009-0.012,0.019-0.019,0.027H393.61
			C393.37,353.285,393.074,353.008,392.717,352.824z"/>
		<path fill="#66AD9E" d="M206.533,353.422l53.158-59.366c0.486-0.545,1.176-0.867,1.906-0.891c0.75-0.026,1.441,0.254,1.961,0.766
			l12.952,12.736c18.096-12.77,37.602-26.743,55.833-40.018c-2.377-3.903-3.747-8.486-3.747-13.388
			c0-14.242,11.545-25.784,25.784-25.784c7.646,0,14.51,3.331,19.23,8.616c19.115-14.48,31.915-24.854,31.915-26.528
			c0-6.499-5.267-11.764-11.766-11.764H206.239c-6.497,0-11.764,5.265-11.764,11.764v132.272c0,6.496,5.267,11.764,11.764,11.764
			c0.052,0,0.117-0.01,0.194-0.027C206.466,353.522,206.491,353.468,206.533,353.422z"/>
		<path fill="#5CA394" d="M206.533,353.422l53.158-59.366c0.486-0.545,1.176-0.867,1.906-0.891c0.75-0.026,1.441,0.254,1.961,0.766
			l12.952,12.736c18.096-12.77,37.602-26.743,55.833-40.018c-2.377-3.903-3.747-8.486-3.747-13.388
			c0-14.242,11.545-25.784,25.784-25.784c7.646,0,14.51,3.331,19.23,8.616c19.115-14.48,31.915-24.854,31.915-26.528
			c0-6.499-5.267-11.764-11.766-11.764H206.239c-6.497,0-11.764,5.265-11.764,11.764v132.272c0,6.496,5.267,11.764,11.764,11.764
			c0.052,0,0.117-0.01,0.194-0.027C206.466,353.522,206.491,353.468,206.533,353.422z"/>
		<path fill="#C2C63D" d="M354.381,227.477c-14.239,0-25.784,11.542-25.784,25.784c0,4.902,1.37,9.485,3.747,13.388
			c15.151-11.033,29.423-21.583,41.268-30.556C368.891,230.807,362.026,227.477,354.381,227.477z"/>
		<path fill="#B8BC33" d="M354.381,227.477c-14.239,0-25.784,11.542-25.784,25.784c0,4.902,1.37,9.485,3.747,13.388
			c15.151-11.033,29.423-21.583,41.268-30.556C368.891,230.807,362.026,227.477,354.381,227.477z"/>
		<path fill="#40424F" d="M261.598,293.165c-0.73,0.023-1.42,0.345-1.906,0.891l-53.158,59.366c-0.042,0.046-0.067,0.101-0.1,0.151
			c3.625-0.842,34.053-21.485,70.077-46.906l-12.952-12.736C263.039,293.419,262.348,293.139,261.598,293.165z"/>
		<path fill="#363845" d="M261.598,293.165c-0.73,0.023-1.42,0.345-1.906,0.891l-53.158,59.366c-0.042,0.046-0.067,0.101-0.1,0.151
			c3.625-0.842,34.053-21.485,70.077-46.906l-12.952-12.736C263.039,293.419,262.348,293.139,261.598,293.165z"/>
	</g>
</g>
</svg>
