<?xml version="1.0" encoding="utf-8"?>
<!-- Generator: Adobe Illustrator 15.0.0, SVG Export Plug-In . SVG Version: 6.00 Build 0)  -->
<!DOCTYPE svg PUBLIC "-//W3C//DTD SVG 1.1//EN" "http://www.w3.org/Graphics/SVG/1.1/DTD/svg11.dtd">
<svg version="1.1" id="Capa_1" xmlns="http://www.w3.org/2000/svg" xmlns:xlink="http://www.w3.org/1999/xlink" x="0px" y="0px"
	 width="600px" height="600px" viewBox="0 0 600 600" enable-background="new 0 0 600 600" xml:space="preserve">
<g>
	<circle fill="#C2C63D" cx="300" cy="300" r="250"/>
	<rect x="151.047" y="358.477" fill="#F0F0CB" width="213.778" height="25.653"/>
	<rect x="151.047" y="358.477" fill="#D86D50" width="21.461" height="25.653"/>
	<path fill="#40424F" d="M448.951,300c0-46.458-37.66-84.128-84.126-84.128c-46.463,0-83.61,37.672-84.125,84.128
		c-0.938,84.13-15.998,84.13,84.125,84.13C411.291,384.13,448.951,346.461,448.951,300z"/>
	<path fill="#2C2E3B" d="M448.951,300c0-46.458-37.66-84.128-84.126-84.128c-46.463,0-83.61,37.672-84.125,84.128
		c-0.938,84.13-15.998,84.13,84.125,84.13C411.291,384.13,448.951,346.461,448.951,300z"/>
	<path fill="#40424F" d="M364.825,359.177c-32.678,0-59.172-26.494-59.172-59.177c0-16.461,6.729-31.348,17.578-42.074
		l-17.578-17.578c18.692-18.69,43.94-26.81,68.336-24.376c-3.011-0.325-6.065-0.502-9.164-0.502
		c-46.685,0-84.532,37.846-84.532,84.53c0,46.689,37.848,84.537,84.532,84.537c23.468,0,44.695-9.567,60.013-25.008l-17.934-17.933
		C396.178,352.447,381.289,359.177,364.825,359.177z"/>
	<path fill="#F0F0CB" d="M305.604,300c0,32.71,26.517,59.227,59.222,59.227c16.479,0,31.379-6.734,42.114-17.595l-17.383-17.384
		c-6.287,6.411-15.041,10.393-24.731,10.393c-19.129,0-34.645-15.507-34.645-34.641c0-9.688,3.983-18.442,10.396-24.729
		l-17.381-17.38C312.337,268.625,305.604,283.525,305.604,300z"/>
	<path fill="#C2C63D" d="M329.619,300c0,19.444,15.768,35.202,35.206,35.202c9.847,0,18.743-4.047,25.132-10.561l-49.773-49.772
		C333.668,281.259,329.619,290.155,329.619,300z"/>
	<path opacity="0.26" fill="#C2C63D" d="M424.707,241.059c-14.214-14.215-32.27-22.241-50.826-24.092
		c41.876,4.516,74.479,39.962,74.479,83.034c0,22.946-9.257,43.728-24.232,58.825l0.584,0.584
		C457.399,326.724,457.395,273.744,424.707,241.059z"/>
	<path fill="#363845" d="M373.989,215.972c-24.396-2.434-49.644,5.686-68.336,24.376l17.578,17.578
		c10.689-10.566,25.378-17.096,41.594-17.096c32.683,0,59.174,26.492,59.174,59.169c0,16.218-6.528,30.907-17.095,41.597
		l17.934,17.933c15.154-15.278,24.522-36.309,24.522-59.529C449.36,256.413,416.366,220.542,373.989,215.972z"/>
	<path fill="#E6E6C1" d="M364.825,265.359c19.134,0,34.639,15.512,34.639,34.641c0,9.443-3.782,17.999-9.907,24.248l17.383,17.384
		c10.575-10.698,17.109-25.4,17.109-41.632c0-32.705-26.514-59.219-59.224-59.219c-16.229,0-30.931,6.535-41.629,17.11l17.381,17.38
		C346.827,269.143,355.384,265.359,364.825,265.359z"/>
	<path fill="#B8BC33" d="M364.825,264.798c-9.595,0-18.29,3.845-24.642,10.072l49.773,49.772
		c6.225-6.351,10.068-15.045,10.068-24.642C400.025,280.561,384.27,264.798,364.825,264.798z"/>
</g>
</svg>
