<?xml version="1.0" encoding="utf-8"?>
<!-- Generator: Adobe Illustrator 15.0.0, SVG Export Plug-In . SVG Version: 6.00 Build 0)  -->
<!DOCTYPE svg PUBLIC "-//W3C//DTD SVG 1.1//EN" "http://www.w3.org/Graphics/SVG/1.1/DTD/svg11.dtd">
<svg version="1.1" id="Capa_1" xmlns="http://www.w3.org/2000/svg" xmlns:xlink="http://www.w3.org/1999/xlink" x="0px" y="0px"
	 width="600px" height="600px" viewBox="0 0 600 600" enable-background="new 0 0 600 600" xml:space="preserve">
<g>
	<circle fill="#D86D50" cx="300" cy="300" r="250"/>
	<path fill="#F0F0CB" d="M198.118,423.681c0,0,0.284,0.377,0.795,0.959c-0.287-0.301-0.552-0.619-0.788-0.964L198.118,423.681z"/>
	<path fill="#F0F0CB" d="M247.606,427.283v0.005H221.63v-0.12l-17.047-0.074c-2.168-0.01-4.125-0.893-5.546-2.313
		c1.962,2.209,6.967,7.088,13.731,8.181c2.577,0.418,6.856,0.76,12.402,1.042v-3.27c0-0.592,0.479-1.07,1.07-1.07h16.758
		c0.592,0,1.072,0.479,1.072,1.07v3.917c15.136,0.347,33.771,0.489,52.631,0.518v-7.67L247.606,427.283z"/>
	<path fill="#66AD9E" d="M199.037,424.78c-0.044-0.048-0.083-0.095-0.125-0.141C198.957,424.686,198.993,424.736,199.037,424.78z"/>
	<path fill="#66AD9E" d="M205.836,140.109c-4.363-0.016-7.91,3.505-7.931,7.868l-1.19,271.183c-0.004,1.681,0.52,3.233,1.41,4.516
		c0.236,0.345,0.501,0.663,0.788,0.964c0.042,0.046,0.081,0.093,0.125,0.141c1.421,1.421,3.378,2.304,5.546,2.313l17.047,0.074
		V145.216v-5.038h0.072L205.836,140.109z"/>
	<polygon fill="#66AD9E" points="247.606,140.291 247.606,145.329 247.606,427.283 296.702,427.498 296.702,145.544 
		296.702,140.506 	"/>
	<polygon fill="#40424F" points="247.606,140.178 221.702,140.178 247.606,140.291 	"/>
	<polygon fill="#40424F" points="221.63,427.288 247.606,427.288 247.606,427.283 221.63,427.168 	"/>
	<polygon fill="#40424F" points="221.702,140.178 221.63,140.178 221.63,145.216 221.63,427.168 247.606,427.283 247.606,145.329 
		247.606,140.291 	"/>
	<path fill="#C2C63D" d="M225.17,459.889c0,0.451,0.284,0.853,0.709,1.008c0.118,0.039,0.24,0.062,0.36,0.062
		c0.312,0,0.617-0.139,0.825-0.391l7.557-9.142l7.554,9.142c0.287,0.352,0.763,0.479,1.188,0.328
		c0.42-0.155,0.707-0.557,0.707-1.008V434.65c-7.219-0.167-13.631-0.379-18.9-0.647V459.889z"/>
	<path fill="#C2C63D" d="M242.999,429.663H226.24c-0.591,0-1.07,0.479-1.07,1.07v3.27c5.269,0.269,11.681,0.48,18.9,0.647v-3.917
		C244.071,430.142,243.59,429.663,242.999,429.663z"/>
	<path fill="#E6E6C1" d="M391.063,434.604c4.367,0.017,11.018-5.142,11.036-9.504l1.186-271.19c0.016-4.104-3.113-7.453-7.117-7.854
		c0.325,0.871,0.524,1.805,0.52,2.789l-1.183,271.188c-0.021,4.363-3.568,7.885-7.938,7.864l-90.864-0.397v7.67
		C343.208,435.237,391.063,434.604,391.063,434.604z"/>
	<path fill="#5CA394" d="M396.168,146.055c-1.116-2.986-3.966-5.128-7.347-5.146l-92.119-0.402v5.038v281.954l90.864,0.397
		c4.37,0.021,7.917-3.501,7.938-7.864l1.183-271.188C396.692,147.859,396.493,146.926,396.168,146.055z"/>
</g>
</svg>
