<?xml version="1.0" encoding="utf-8"?>
<!-- Generator: Adobe Illustrator 15.0.0, SVG Export Plug-In . SVG Version: 6.00 Build 0)  -->
<!DOCTYPE svg PUBLIC "-//W3C//DTD SVG 1.1//EN" "http://www.w3.org/Graphics/SVG/1.1/DTD/svg11.dtd">
<svg version="1.1" id="Capa_1" xmlns="http://www.w3.org/2000/svg" xmlns:xlink="http://www.w3.org/1999/xlink" x="0px" y="0px"
	 width="600px" height="600px" viewBox="0 0 600 600" enable-background="new 0 0 600 600" xml:space="preserve">
<g>
	<path fill="#66AD9E" d="M300,50c138.071,0,250,111.936,250,250.004C550,438.072,438.07,550,300,550S50,438.072,50,300.004
		C50,161.936,161.929,50,300,50z"/>
	<g>
		<path fill="none" d="M153.725,366.641c4.329,0,7.837,3.515,7.837,7.842c0,4.336-3.509,7.847-7.837,7.847
			c-4.336,0-7.846-3.513-7.846-7.847C145.879,370.155,149.389,366.641,153.725,366.641z"/>
		<path fill="#40424F" d="M174.341,355.273c1.534-1.531,1.534-4.013,0-5.547l-14.708-14.707l-5.545,5.545l14.705,14.711
			C170.329,356.805,172.812,356.805,174.341,355.273z"/>
		<path fill="#40424F" d="M187.955,341.662c1.532-1.535,1.532-4.017,0-5.547l-14.705-14.704l-5.547,5.542l14.708,14.711
			C183.938,343.189,186.425,343.189,187.955,341.662z"/>
		<path fill="#40424F" d="M201.566,328.047c1.531-1.532,1.531-4.014,0-5.545l-14.708-14.707l-5.545,5.545l14.708,14.707
			C197.551,329.579,200.034,329.579,201.566,328.047z"/>
		<path fill="#40424F" d="M215.18,314.436c1.533-1.53,1.533-4.016,0-5.543l-14.708-14.712l-5.545,5.547l14.708,14.707
			C211.167,315.967,213.65,315.967,215.18,314.436z"/>
		<path fill="#40424F" d="M228.793,300.825c1.529-1.533,1.529-4.015,0-5.547l-14.706-14.707l-5.545,5.544l14.703,14.707
			C224.778,302.353,227.261,302.353,228.793,300.825z"/>
		<path fill="#40424F" d="M242.406,287.211c1.53-1.534,1.53-4.013,0-5.549l-14.707-14.703l-5.548,5.544l14.705,14.708
			C238.389,288.741,240.875,288.741,242.406,287.211z"/>
		<path fill="#40424F" d="M256.02,273.598c1.531-1.528,1.531-4.01,0-5.546l-14.71-14.708l-5.547,5.547l14.71,14.705
			C252.005,275.13,254.487,275.13,256.02,273.598z"/>
		<path fill="#40424F" d="M269.631,259.985c1.533-1.529,1.533-4.016,0-5.547l-14.708-14.705l-5.545,5.545l14.705,14.707
			C265.619,261.514,268.099,261.514,269.631,259.985z"/>
		<path fill="#40424F" d="M283.245,246.373c1.528-1.533,1.528-4.012,0-5.547l-14.708-14.708l-5.545,5.551l14.705,14.703
			C279.229,247.904,281.715,247.904,283.245,246.373z"/>
		<path fill="#40424F" d="M296.855,232.76c1.534-1.531,1.534-4.012,0-5.543l-14.705-14.712l-5.548,5.548l14.707,14.707
			C292.845,234.292,295.323,234.292,296.855,232.76z"/>
		<path fill="#40424F" d="M310.47,219.15c1.532-1.534,1.532-4.015,0-5.546l-14.706-14.707l-5.548,5.544l14.71,14.708
			C306.453,220.684,308.938,220.678,310.47,219.15z"/>
		<path fill="#40424F" d="M324.081,205.535c1.536-1.53,1.536-4.015,0-5.547l-14.707-14.703l-5.545,5.545l14.707,14.705
			C320.068,207.063,322.554,207.069,324.081,205.535z"/>
		<path fill="#40424F" d="M337.696,191.921c1.527-1.533,1.527-4.012,0-5.545l-14.708-14.708l-5.548,5.545l14.708,14.708
			C333.68,193.455,336.166,193.455,337.696,191.921z"/>
		<path fill="#40424F" d="M351.309,178.31c1.532-1.535,1.532-4.013,0-5.545l-14.708-14.708l-5.546,5.547l14.709,14.706
			C347.295,179.843,349.776,179.843,351.309,178.31z"/>
		<path fill="#40424F" d="M364.92,164.7c1.536-1.532,1.536-4.015,0.006-5.549l-14.709-14.706l-5.548,5.546l14.707,14.705
			C360.907,166.231,363.393,166.231,364.92,164.7z"/>
		<path fill="none" d="M256.02,273.598c1.531-1.528,1.531-4.01,0-5.546l-5.971-5.964l-5.545,5.545l5.966,5.964
			C252.005,275.13,254.487,275.13,256.02,273.598z"/>
		<path fill="none" d="M228.793,300.825c1.529-1.533,1.529-4.015,0-5.547l-5.97-5.967l-5.547,5.548l5.969,5.963
			C224.778,302.353,227.261,302.353,228.793,300.825z"/>
		<path fill="none" d="M269.631,259.985c1.533-1.529,1.533-4.016,0-5.547l-5.966-5.963l-5.545,5.544l5.964,5.967
			C265.619,261.514,268.099,261.514,269.631,259.985z"/>
		<path fill="none" d="M283.245,246.373c1.528-1.533,1.528-4.012,0-5.547l-5.966-5.967l-5.548,5.547l5.967,5.966
			C279.229,247.904,281.715,247.904,283.245,246.373z"/>
		<path fill="none" d="M242.406,287.211c1.53-1.534,1.53-4.013,0-5.549l-5.969-5.969l-5.546,5.551l5.966,5.966
			C238.389,288.741,240.875,288.741,242.406,287.211z"/>
		<path fill="none" d="M324.081,205.535c1.536-1.53,1.536-4.015,0-5.547l-5.965-5.969l-5.546,5.547l5.966,5.969
			C320.068,207.063,322.554,207.069,324.081,205.535z"/>
		<path fill="none" d="M310.47,219.15c1.532-1.534,1.532-4.015,0-5.546l-5.967-5.969l-5.547,5.545l5.966,5.969
			C306.453,220.684,308.938,220.678,310.47,219.15z"/>
		<path fill="none" d="M296.855,232.76c1.534-1.531,1.534-4.012,0-5.543l-5.966-5.969l-5.547,5.545l5.968,5.967
			C292.845,234.292,295.323,234.292,296.855,232.76z"/>
		<path fill="none" d="M201.566,328.047c1.531-1.532,1.531-4.014,0-5.545l-5.964-5.967l-5.549,5.546l5.97,5.966
			C197.551,329.579,200.034,329.579,201.566,328.047z"/>
		<path fill="none" d="M215.18,314.436c1.533-1.53,1.533-4.016,0-5.543l-5.964-5.972l-5.549,5.546l5.969,5.969
			C211.167,315.967,213.65,315.967,215.18,314.436z"/>
		<path fill="none" d="M351.309,178.31c1.532-1.535,1.532-4.013,0-5.545l-5.966-5.968l-5.546,5.547l5.967,5.966
			C347.295,179.843,349.776,179.843,351.309,178.31z"/>
		<path fill="none" d="M364.92,164.7c1.536-1.532,1.536-4.015,0.006-5.549l-5.972-5.966l-5.546,5.549l5.967,5.961
			C360.907,166.231,363.393,166.231,364.92,164.7z"/>
		<path fill="none" d="M153.725,366.641c4.329,0,7.837,3.515,7.837,7.842c0,4.336-3.509,7.847-7.837,7.847
			c-4.336,0-7.846-3.513-7.846-7.847C145.879,370.155,149.389,366.641,153.725,366.641z"/>
		<path fill="none" d="M337.696,191.921c1.527-1.533,1.527-4.012,0-5.545l-5.97-5.969l-5.545,5.545l5.966,5.969
			C333.68,193.455,336.166,193.455,337.696,191.921z"/>
		<path fill="none" d="M187.955,341.662c1.532-1.535,1.532-4.017,0-5.547l-5.964-5.967l-5.551,5.545l5.972,5.971
			C183.938,343.189,186.425,343.189,187.955,341.662z"/>
		<path fill="none" d="M174.341,355.273c1.534-1.531,1.534-4.013,0-5.547l-5.966-5.967l-5.548,5.545l5.968,5.971
			C170.329,356.805,172.812,356.805,174.341,355.273z"/>
		<path fill="#C2C63D" d="M364.924,159.153c1.531,1.532,1.531,4.015-0.006,5.547c-1.527,1.531-4.012,1.531-5.544,0l-5.967-5.966
			l-8.065,8.064l5.966,5.969c1.532,1.531,1.532,4.015,0,5.545c-1.532,1.532-4.018,1.532-5.545,0l-5.972-5.966l-8.066,8.064
			l5.967,5.971c1.531,1.53,1.531,4.018,0,5.546c-1.533,1.533-4.014,1.533-5.545-0.001l-5.966-5.966l-8.071,8.069l5.969,5.966
			c1.537,1.534,1.537,4.012,0,5.546c-1.53,1.533-4.018,1.533-5.544,0l-5.971-5.966l-8.066,8.064l5.971,5.969
			c1.532,1.529,1.532,4.01,0,5.543c-1.532,1.535-4.018,1.535-5.55,0l-5.964-5.968l-8.071,8.067l5.971,5.97
			c1.533,1.53,1.533,4.016-0.002,5.545c-1.531,1.534-4.01,1.534-5.545,0l-5.969-5.961l-8.065,8.064l5.966,5.968
			c1.532,1.53,1.532,4.01,0,5.545c-1.535,1.531-4.015,1.531-5.545,0l-5.971-5.969l-8.065,8.066l5.964,5.969
			c1.531,1.53,1.531,4.012,0.003,5.545c-1.533,1.531-4.016,1.531-5.549,0l-5.969-5.969l-8.064,8.066l5.966,5.967
			c1.534,1.533,1.534,4.016,0,5.548c-1.528,1.532-4.01,1.532-5.545-0.005l-5.966-5.966l-8.066,8.071l5.966,5.964
			c1.531,1.535,1.531,4.017,0,5.547c-1.533,1.531-4.013,1.531-5.548,0l-5.966-5.966l-8.068,8.066l5.966,5.969
			c1.531,1.531,1.531,4.015,0,5.544c-1.533,1.536-4.013,1.536-5.548,0l-5.966-5.965l-8.068,8.065l5.969,5.967
			c1.533,1.535,1.533,4.017,0,5.548c-1.531,1.531-4.017,1.531-5.549,0l-5.966-5.966l-8.065,8.065l5.969,5.963
			c1.529,1.537,1.529,4.018,0,5.549c-1.533,1.531-4.015,1.531-5.545,0l-5.968-5.964l-8.068,8.067l5.969,5.963
			c1.528,1.531,1.528,4.016,0,5.548c-1.534,1.532-4.018,1.532-5.549,0l-5.969-5.966l-8.067,8.062l5.968,5.971
			c1.53,1.532,1.53,4.013,0,5.546c-1.531,1.531-4.015,1.531-5.545,0l-5.97-5.971l-29.742,29.753l17.896,17.897
			c4.595,4.597,12.045,4.597,16.64,0l228.391-228.386c4.597-4.595,4.597-12.044,0-16.64l-17.899-17.908l-19.158,19.167
			L364.924,159.153z M159.27,380.031c-3.064,3.06-8.03,3.06-11.094,0c-3.062-3.066-3.062-8.034,0-11.091
			c3.064-3.063,8.03-3.063,11.094,0C162.333,372,162.333,376.965,159.27,380.031z"/>
		
			<rect x="230.398" y="261.112" transform="matrix(0.7071 -0.7071 0.7071 0.7071 -119.8511 245.2268)" fill="#B8BC33" width="11.407" height="12.361"/>
		
			<rect x="216.783" y="274.756" transform="matrix(0.7071 -0.7071 0.7071 0.7071 -133.4894 239.6277)" fill="#B8BC33" width="11.407" height="12.36"/>
		
			<rect x="203.174" y="288.333" transform="matrix(0.707 -0.7073 0.7073 0.707 -147.0869 234.0354)" fill="#B8BC33" width="11.407" height="12.362"/>
		
			<rect x="162.328" y="329.197" transform="matrix(0.707 -0.7072 0.7072 0.707 -187.9435 217.0784)" fill="#B8BC33" width="11.407" height="12.361"/>
		
			<rect x="244.013" y="247.496" transform="matrix(0.7072 -0.707 0.707 0.7072 -106.2343 250.8215)" fill="#B8BC33" width="11.406" height="12.357"/>
		<path fill="#B8BC33" d="M154.09,340.562l-21.429,21.435c-4.595,4.59-4.595,12.041,0,16.634l0.421,0.426l29.743-29.75
			L154.09,340.562z"/>
		
			<rect x="175.971" y="315.584" transform="matrix(0.7071 -0.7071 0.7071 0.7071 -174.313 222.7165)" fill="#B8BC33" width="11.407" height="12.358"/>
		
			<rect x="189.553" y="301.959" transform="matrix(0.7072 -0.707 0.707 0.7072 -160.6881 228.2774)" fill="#B8BC33" width="11.41" height="12.361"/>
		
			<rect x="271.235" y="220.29" transform="matrix(0.7071 -0.7071 0.7071 0.7071 -79.0257 262.1473)" fill="#B8BC33" width="11.411" height="12.36"/>
		<polygon fill="#B8BC33" points="336.597,158.047 344.663,149.976 353.399,158.72 345.337,166.789 		"/>
		<path fill="#B8BC33" d="M361.054,133.596l-10.837,10.848l8.736,8.745l19.16-19.174l-0.422-0.418
			C373.096,129.004,365.648,129.004,361.054,133.596z"/>
		<polygon fill="#B8BC33" points="322.98,171.672 331.053,163.606 339.793,172.344 331.721,180.409 		"/>
		
			<rect x="284.85" y="206.67" transform="matrix(0.7073 -0.7069 0.7069 0.7073 -65.4217 267.6877)" fill="#B8BC33" width="11.411" height="12.358"/>
		
			<rect x="257.625" y="233.892" transform="matrix(0.707 -0.7072 0.7072 0.707 -92.6263 256.5496)" fill="#B8BC33" width="11.409" height="12.357"/>
		
			<rect x="298.466" y="193.065" transform="matrix(0.7068 -0.7074 0.7074 0.7068 -51.7698 273.5789)" fill="#B8BC33" width="11.408" height="12.362"/>
		
			<rect x="312.08" y="179.461" transform="matrix(0.7068 -0.7074 0.7074 0.7068 -38.1498 279.2416)" fill="#B8BC33" width="11.406" height="12.362"/>
		<path fill="#F0F0CB" d="M456.125,179.808c0-2.557-1.514-4.87-3.857-5.884c-2.338-1.018-5.062-0.555-6.935,1.188L177.366,424.92
			h278.759V179.808z M394.458,376.616l-81.801,0.317l81.801-75.311V376.616z"/>
		<path fill="#E6E6C1" d="M173.379,434.191c0.965,2.454,3.334,4.07,5.974,4.07h270.356c3.541,0,6.418-2.876,6.418-6.421v-6.921
			H177.366l-2.391,2.224C173.047,428.946,172.415,431.74,173.379,434.191z"/>
		<path fill="#D86D50" d="M213.576,424.214c0-1.472-1.195-2.671-2.673-2.671c-1.477,0-2.674,1.199-2.674,2.671v14.046h5.348V424.214
			L213.576,424.214z"/>
		<path fill="#D86D50" d="M227.481,424.214c0-1.472-1.197-2.671-2.673-2.671c-1.479,0-2.674,1.199-2.674,2.671v14.046h5.347V424.214
			z"/>
		<path fill="#D86D50" d="M241.386,424.214c0-1.472-1.199-2.671-2.676-2.671c-1.479,0-2.674,1.199-2.674,2.671v14.046h5.35V424.214
			L241.386,424.214z"/>
		<path fill="#D86D50" d="M255.288,424.214c0-1.472-1.198-2.671-2.676-2.671c-1.475,0-2.674,1.199-2.674,2.671v14.046h5.349v-14.046
			H255.288z"/>
		<path fill="#D86D50" d="M269.192,424.214c0-1.472-1.199-2.671-2.674-2.671c-1.479,0-2.679,1.199-2.679,2.671v14.046h5.353V424.214
			z"/>
		<path fill="#D86D50" d="M283.095,424.214c0-1.472-1.198-2.671-2.674-2.671c-1.476,0-2.671,1.199-2.671,2.671v14.046h5.345V424.214
			z"/>
		<path fill="#D86D50" d="M296.997,424.214c0-1.472-1.194-2.671-2.671-2.671s-2.674,1.199-2.674,2.671v14.046h5.345V424.214z"/>
		<path fill="#D86D50" d="M310.906,424.214c0-1.472-1.198-2.671-2.674-2.671c-1.482,0-2.674,1.199-2.674,2.671v14.046h5.346v-14.046
			H310.906z"/>
		<path fill="#D86D50" d="M324.806,424.214c0-1.472-1.197-2.671-2.673-2.671c-1.478,0-2.675,1.199-2.675,2.671v14.046h5.347
			L324.806,424.214L324.806,424.214z"/>
		<path fill="#D86D50" d="M338.711,424.214c0-1.472-1.197-2.671-2.675-2.671c-1.476,0-2.673,1.199-2.673,2.671v14.046h5.347
			L338.711,424.214L338.711,424.214z"/>
		<path fill="#D86D50" d="M352.615,424.214c0-1.472-1.197-2.671-2.674-2.671s-2.68,1.199-2.68,2.671v14.046h5.352v-14.046H352.615z"
			/>
		<path fill="#D86D50" d="M366.52,424.214c0-1.472-1.201-2.671-2.673-2.671c-1.483,0-2.68,1.199-2.68,2.671v14.046h5.352
			L366.52,424.214L366.52,424.214z"/>
		<path fill="#D86D50" d="M380.42,424.214c0-1.472-1.192-2.671-2.674-2.671c-1.473,0-2.67,1.199-2.67,2.671v14.046h5.343
			L380.42,424.214L380.42,424.214z"/>
		<path fill="#D86D50" d="M394.325,424.214c0-1.472-1.198-2.671-2.67-2.671c-1.481,0-2.675,1.199-2.675,2.671v14.046h5.344
			L394.325,424.214L394.325,424.214z"/>
		<path fill="#D86D50" d="M408.229,424.214c0-1.472-1.196-2.671-2.673-2.671c-1.479,0-2.675,1.199-2.675,2.671v14.046h5.347
			L408.229,424.214L408.229,424.214z"/>
		<path fill="#D86D50" d="M422.134,424.214c0-1.472-1.197-2.671-2.673-2.671c-1.479,0-2.675,1.199-2.675,2.671v14.046h5.347
			L422.134,424.214L422.134,424.214z"/>
		<path fill="#D86D50" d="M436.039,424.214c0-1.472-1.197-2.671-2.675-2.671s-2.68,1.199-2.68,2.671v14.046h5.353v-14.046H436.039z"
			/>
	</g>
</g>
</svg>
