<?xml version="1.0" encoding="utf-8"?>
<!-- Generator: Adobe Illustrator 15.0.0, SVG Export Plug-In . SVG Version: 6.00 Build 0)  -->
<!DOCTYPE svg PUBLIC "-//W3C//DTD SVG 1.1//EN" "http://www.w3.org/Graphics/SVG/1.1/DTD/svg11.dtd">
<svg version="1.1" id="Capa_1" xmlns="http://www.w3.org/2000/svg" xmlns:xlink="http://www.w3.org/1999/xlink" x="0px" y="0px"
	 width="600px" height="600px" viewBox="0 0 600 600" enable-background="new 0 0 600 600" xml:space="preserve">
<g>
	<circle fill="#66AD9E" cx="300.001" cy="300" r="250"/>
	<g>
		<path fill="#40424F" d="M276.273,195.072c-0.081,0.195-0.108,0.401-0.108,0.606h-0.016v230.066v4.072v10.379h0.077v5.381
			c0,8.08,6.551,14.633,14.632,14.633h18.286c8.079,0,14.631-6.553,14.631-14.633v-5.381h0.077v-10.379v-4.072V195.678h-0.015
			c0-0.205-0.027-0.411-0.107-0.606l-0.605-1.481h-46.246L276.273,195.072z"/>
		<path fill="#F0F0CB" d="M309.947,161.381l-8.459-20.693c-0.249-0.604-0.835-0.995-1.488-0.995c-0.65,0-1.236,0.391-1.485,0.995
			l-8.46,20.693h0.001l-13.177,32.209h46.246l-13.171-32.209H309.947z"/>
	</g>
	<path fill="#D86D50" d="M401.726,445.577c0,8.08-6.552,14.632-14.631,14.632h-18.286c-8.081,0-14.632-6.552-14.632-14.632v-37.19
		c0-8.08,6.551-14.632,14.632-14.632h18.286c8.079,0,14.631,6.552,14.631,14.632V445.577z"/>
	<rect x="354.1" y="195.679" fill="#C2C63D" width="47.703" height="234.138"/>
	<rect x="368.828" y="195.679" fill="#40424F" width="18.249" height="234.138"/>
	<rect x="354.1" y="425.744" fill="#F0F0CB" width="47.703" height="14.451"/>
	<path fill="#F0F0CB" d="M401.681,195.073l-13.776-33.69h-19.898l-13.782,33.69c-0.204,0.494-0.146,1.057,0.152,1.5
		c0.298,0.446,0.798,0.711,1.332,0.711h44.489c0.537,0,1.038-0.265,1.33-0.711C401.824,196.13,401.883,195.566,401.681,195.073z"/>
	<path fill="#40424F" d="M379.438,140.689c-0.249-0.604-0.835-0.995-1.488-0.995c-0.65,0-1.236,0.391-1.485,0.995l-8.46,20.693
		h19.893L379.438,140.689z"/>
	<rect x="323.844" y="429.816" fill="#F0F0CB" width="0.005" height="10.379"/>
	<rect x="323.844" y="425.744" fill="#F0F0CB" width="0.005" height="4.072"/>
	<path fill="#CE6346" d="M198.202,445.631c0,8.105,6.571,14.673,14.676,14.673h18.346c8.104,0,14.672-6.567,14.672-14.673v-5.438
		h-47.693V445.631L198.202,445.631z"/>
	<path fill="#40424F" d="M245.627,196.572c-0.294,0.445-0.799,0.71-1.33,0.71h-13.122v196.374h0.048
		c8.104,0,14.672,6.568,14.672,14.672v17.416h0.004V195.679h-0.032C245.868,195.994,245.807,196.305,245.627,196.572z"/>
	<g>
		<path fill="#363845" d="M245.868,195.679c0,0.315-0.061,0.626-0.241,0.894c-0.294,0.445-0.799,0.71-1.33,0.71h-13.122v196.374
			v32.088h14.72h0.004V195.679H245.868z"/>
		<path fill="#363845" d="M198.47,196.572c-0.179-0.268-0.239-0.579-0.236-0.894h-0.036v230.065h0.005h14.721v-32.088V197.283
			h-13.12C199.27,197.283,198.769,197.018,198.47,196.572z"/>
	</g>
	<polygon fill="#B8BC33" points="212.923,197.283 212.923,393.656 212.923,425.744 231.176,425.744 231.176,393.656 
		231.176,197.283 	"/>
	<path fill="#E6E6C1" d="M245.781,195.073l-13.784-33.69h-19.895l-13.781,33.69c-0.079,0.195-0.088,0.401-0.088,0.606
		c-0.001,0.315,0.059,0.626,0.236,0.894c0.298,0.445,0.799,0.71,1.333,0.71h13.12h18.252h13.122c0.532,0,1.035-0.265,1.33-0.71
		c0.182-0.268,0.241-0.579,0.241-0.894C245.866,195.474,245.86,195.266,245.781,195.073z"/>
	<path fill="#B8BC33" d="M223.539,140.689c-0.251-0.604-0.837-0.995-1.486-0.995c-0.654,0-1.239,0.391-1.486,0.995l-8.461,20.693
		H232L223.539,140.689z"/>
	<rect x="198.197" y="429.816" fill="#F0F0CB" width="0.005" height="10.379"/>
	<rect x="198.197" y="429.816" opacity="0.36" fill="#D86D50" enable-background="new    " width="0.005" height="10.379"/>
	<rect x="245.896" y="429.816" fill="#F0F0CB" width="0.004" height="10.379"/>
	<rect x="245.896" y="429.816" opacity="0.36" fill="#D86D50" enable-background="new    " width="0.004" height="10.379"/>
	<rect x="198.197" y="425.744" fill="#F0F0CB" width="0.005" height="4.072"/>
	<rect x="198.197" y="425.744" opacity="0.36" fill="#D86D50" enable-background="new    " width="0.005" height="4.072"/>
	<rect x="245.896" y="425.744" fill="#F0F0CB" width="0.004" height="4.072"/>
	<rect x="245.896" y="425.744" opacity="0.36" fill="#D86D50" enable-background="new    " width="0.004" height="4.072"/>
	<polygon fill="#F0F0CB" points="231.176,425.744 212.923,425.744 198.202,425.744 198.202,429.816 198.202,440.193 
		245.896,440.193 245.896,429.816 245.896,425.744 	"/>
	<g>
		<path fill="#D86D50" d="M323.816,195.679c0,0.315-0.059,0.626-0.237,0.894c-0.293,0.445-0.8,0.71-1.331,0.71h-13.12v196.381
			v32.078h14.717h0.005V195.679H323.816z"/>
		<path fill="#D86D50" d="M276.422,196.572c-0.179-0.268-0.239-0.579-0.239-0.894h-0.031v230.065h0.006h14.718v-32.08V197.283
			h-13.12C277.218,197.283,276.722,197.018,276.422,196.572z"/>
	</g>
	<path fill="#CE6350" d="M276.406,196.095c-0.146-0.267-0.198-0.578-0.198-0.894h-0.024v230.064l2.518,5.809l12.175-2.515
		l4.562-34.806l-0.413-196.473l-17.519-0.478C277.063,196.805,276.654,196.54,276.406,196.095z"/>
	<rect x="276.151" y="429.816" fill="#F0F0CB" width="0.006" height="10.379"/>
	<rect x="276.151" y="429.816" opacity="0.36" fill="#D86D50" enable-background="new    " width="0.006" height="10.379"/>
	<rect x="276.151" y="425.744" fill="#F0F0CB" width="0.006" height="4.072"/>
	<rect x="276.151" y="425.744" opacity="0.36" fill="#D86D50" enable-background="new    " width="0.006" height="4.072"/>
	<path fill="#C2C63D" d="M300,440.193v20.105h1.312h7.859c8.104,0,14.672-6.568,14.672-14.673v-5.433h-22.531H300z"/>
	<polygon fill="#40424F" points="300,197.283 300,425.744 301.312,425.744 309.127,425.744 309.127,393.664 309.127,197.283 
		301.312,197.283 	"/>
	<polygon fill="#F0F0CB" points="309.127,425.744 301.312,425.744 300,425.744 300,440.193 301.312,440.193 323.844,440.193 
		323.844,429.816 323.844,425.744 	"/>
	<path fill="#F0F0CB" d="M300,161.382v35.9h1.312h7.814h13.12c0.532,0,1.038-0.265,1.331-0.71c0.18-0.268,0.237-0.579,0.237-0.894
		c0-0.205-0.009-0.413-0.084-0.606l-13.783-33.69h-8.636H300z"/>
	<path fill="#D86D50" d="M301.312,161.382h8.636h0.004l-8.463-20.693c-0.046-0.108-0.115-0.201-0.179-0.294
		c-0.297-0.427-0.777-0.7-1.311-0.7c0,0,0,0-0.001,0v21.688H301.312z"/>
	<path fill="#B8BC33" d="M276.158,440.193v5.433c0,8.104,6.574,14.673,14.675,14.673H300v-20.104L276.158,440.193L276.158,440.193z"
		/>
	<polygon fill="#363845" points="290.876,197.283 290.876,393.664 290.876,425.744 300,425.744 300,197.283 	"/>
	<polygon fill="#F0F0CB" points="276.158,425.744 276.158,429.816 276.158,440.193 300,440.193 300,425.744 290.876,425.744 	"/>
	<path fill="#E6E6C1" d="M300,161.382h-9.948l-13.781,33.69c-0.079,0.195-0.086,0.401-0.088,0.606c0,0.315,0.062,0.626,0.239,0.894
		c0.3,0.445,0.796,0.71,1.333,0.71h13.12H300V161.382z"/>
	<path fill="#CE6350" d="M298.519,140.689l-8.467,20.693H300v-21.688C299.351,139.696,298.765,140.087,298.519,140.689z"/>
</g>
</svg>
