<?xml version="1.0" encoding="utf-8"?>
<!-- Generator: Adobe Illustrator 15.0.0, SVG Export Plug-In . SVG Version: 6.00 Build 0)  -->
<!DOCTYPE svg PUBLIC "-//W3C//DTD SVG 1.1//EN" "http://www.w3.org/Graphics/SVG/1.1/DTD/svg11.dtd">
<svg version="1.1" id="Capa_1" xmlns="http://www.w3.org/2000/svg" xmlns:xlink="http://www.w3.org/1999/xlink" x="0px" y="0px"
	 width="600px" height="600px" viewBox="0 0 600 600" enable-background="new 0 0 600 600" xml:space="preserve">
<g>
	<path fill="#66AD9E" d="M300.001,50C438.076,50,550,161.929,550,300c0,138.074-111.924,250-249.999,250
		C161.927,550,50,438.074,50,300C50,161.929,161.927,50,300.001,50z"/>
	<g>
		<path fill="#40424F" d="M455.836,374.471V220.276c0-10.099-7.703-18.287-17.2-18.287H161.367c-9.5,0-17.201,8.188-17.201,18.287
			v154.194H455.836z"/>
		<path fill="#F0F0CB" d="M129.472,374.471v3.32c0,11.164,8.519,20.22,19.022,20.22h303.013c10.506,0,19.019-9.056,19.019-20.22
			v-3.32H129.472z"/>
		<path fill="#DCDCB7" d="M249.141,374.471v0.987c0,3.332,2.539,6.034,5.676,6.034h90.367c3.135,0,5.678-2.702,5.678-6.034v-0.987
			H249.141z"/>
		<polygon fill="#C2C63D" points="305.904,215.856 278.308,215.856 254.375,215.856 228.334,215.856 163.055,215.856 
			163.055,266.783 163.055,287.1 163.055,305.772 163.055,326.224 163.055,360.606 436.948,360.606 436.948,215.856 		"/>
		<polygon fill="#B8BC33" points="305.904,215.856 278.308,215.856 254.375,215.856 228.334,215.856 163.055,215.856 
			163.055,266.783 163.055,287.1 163.055,305.772 163.055,326.224 163.055,360.606 300.001,288.232 436.948,215.856 		"/>
		<path fill="#F0F0CB" d="M308.461,208.948c0-1.413-1.142-2.557-2.557-2.557s-2.557,1.145-2.557,2.557
			c0,1.412,1.142,2.562,2.557,2.562S308.461,210.36,308.461,208.948z"/>
	</g>
</g>
</svg>
