<?xml version="1.0" encoding="utf-8"?>
<!-- Generator: Adobe Illustrator 15.0.0, SVG Export Plug-In . SVG Version: 6.00 Build 0)  -->
<!DOCTYPE svg PUBLIC "-//W3C//DTD SVG 1.1//EN" "http://www.w3.org/Graphics/SVG/1.1/DTD/svg11.dtd">
<svg version="1.1" id="Capa_1" xmlns="http://www.w3.org/2000/svg" xmlns:xlink="http://www.w3.org/1999/xlink" x="0px" y="0px"
	 width="600px" height="600px" viewBox="0 0 600 600" enable-background="new 0 0 600 600" xml:space="preserve">
<g>
	<circle fill="#66AD9E" cx="300.001" cy="300" r="250"/>
	<g>
		<path fill="#F0F0CB" d="M341.693,153.647c6.329,4.381,7.911,13.058,3.532,19.389l-53.743,77.7
			c-4.377,6.326-13.061,7.905-19.39,3.531l-16.742-11.587c-6.329-4.379-7.909-13.058-3.532-19.384l53.743-77.7
			c4.377-6.329,13.061-7.908,19.389-3.532L341.693,153.647z"/>
		<path fill="#F0F0CB" d="M393.358,204.838c4.961,5.887,4.215,14.676-1.672,19.634l-72.244,60.883
			c-5.882,4.955-14.672,4.205-19.635-1.677l-13.119-15.571c-4.961-5.885-4.21-14.674,1.677-19.635l72.239-60.88
			c5.887-4.96,14.672-4.208,19.633,1.677L393.358,204.838z"/>
		<path fill="#F0F0CB" d="M428.314,268.213c3.22,6.987,0.171,15.266-6.818,18.49l-85.777,39.587
			c-6.988,3.228-15.267,0.176-18.489-6.811l-8.535-18.49c-3.221-6.986-0.174-15.263,6.817-18.489l85.775-39.589
			c6.989-3.223,15.27-0.171,18.489,6.815L428.314,268.213z"/>
		<path fill="#F0F0CB" d="M449.481,409.229c-0.751,7.66-7.563,13.261-15.225,12.513l-94.028-9.182
			c-7.656-0.748-13.261-7.562-12.515-15.22l1.98-20.268c0.749-7.658,7.563-13.259,15.222-12.513l94.029,9.182
			c7.655,0.748,13.261,7.563,12.513,15.22L449.481,409.229z"/>
		<path fill="#F0F0CB" d="M448.077,337.135c1.316,7.586-3.762,14.796-11.341,16.114l-93.08,16.18
			c-7.581,1.318-14.796-3.76-16.114-11.339l-3.486-20.062c-1.318-7.584,3.76-14.798,11.344-16.114l93.077-16.178
			c7.581-1.322,14.793,3.76,16.111,11.341L448.077,337.135z"/>
		<path fill="#40424F" d="M152.183,411.592c-0.769,2.296-3.254,3.543-5.553,2.774l0,0c-2.299-0.767-3.543-3.257-2.777-5.556
			l14.242-42.69c0.769-2.299,3.254-3.541,5.551-2.774l0,0c2.303,0.767,3.54,3.252,2.781,5.553L152.183,411.592z"/>
		<path opacity="0.43" fill="#40424F" d="M152.183,411.592c-0.769,2.296-3.254,3.543-5.553,2.774l0,0
			c-2.299-0.767-3.543-3.257-2.777-5.556l14.242-42.69c0.769-2.299,3.254-3.541,5.551-2.774l0,0c2.303,0.767,3.54,3.252,2.781,5.553
			L152.183,411.592z"/>
		<g>
			<path fill="#F0F0CB" d="M146.244,375.479l39.637,27.48l148.831-214.65l-39.635-27.48L146.244,375.479z M178.845,380.835
				c-1.803,2.603-5.371,3.247-7.974,1.444c-2.597-1.805-3.248-5.373-1.445-7.972c1.801-2.599,5.373-3.245,7.975-1.442
				C180.001,374.669,180.647,378.236,178.845,380.835z"/>
			
				<rect x="286.944" y="165.087" transform="matrix(0.5698 -0.8218 0.8218 0.5698 -24.3792 331.834)" fill="#B0C4DC" width="35.611" height="48.229"/>
			
				<rect x="260.08" y="203.83" transform="matrix(0.5698 -0.8218 0.8218 0.5698 -67.7746 326.4203)" fill="#8FA5CB" width="35.612" height="48.228"/>
			<polygon fill="#728DBB" points="280.979,265.797 260.693,295.06 221.058,267.582 241.35,238.315 			"/>
			
				<rect x="206.353" y="281.318" transform="matrix(0.5698 -0.8218 0.8218 0.5698 -154.5655 315.6085)" fill="#5774AC" width="35.611" height="48.227"/>
		</g>
		<path fill="#F0F0CB" d="M146.244,375.479l39.637,27.48l148.831-214.65l-39.635-27.48L146.244,375.479z M178.845,380.835
			c-1.803,2.603-5.371,3.247-7.974,1.444c-2.597-1.805-3.248-5.373-1.445-7.972c1.801-2.599,5.373-3.245,7.975-1.442
			C180.001,374.669,180.647,378.236,178.845,380.835z"/>
		
			<rect x="286.944" y="165.087" transform="matrix(0.5698 -0.8218 0.8218 0.5698 -24.3792 331.834)" fill="#F0F0CB" width="35.611" height="48.229"/>
		
			<rect x="260.08" y="203.83" transform="matrix(0.5698 -0.8218 0.8218 0.5698 -67.7746 326.4203)" fill="#F0F0CB" width="35.612" height="48.228"/>
		<polygon fill="#F0F0CB" points="280.979,265.797 260.693,295.06 221.058,267.582 241.35,238.315 		"/>
		
			<rect x="206.353" y="281.318" transform="matrix(0.5698 -0.8218 0.8218 0.5698 -154.5655 315.6085)" fill="#F0F0CB" width="35.611" height="48.227"/>
		
			<rect x="286.944" y="165.087" transform="matrix(0.5698 -0.8218 0.8218 0.5698 -24.3792 331.834)" fill="#F0F0CB" width="35.611" height="48.229"/>
		
			<rect x="260.08" y="203.83" transform="matrix(0.5698 -0.8218 0.8218 0.5698 -67.7746 326.4203)" fill="#F0F0CB" width="35.612" height="48.228"/>
		<polygon fill="#F0F0CB" points="280.979,265.797 260.693,295.06 221.058,267.582 241.35,238.315 		"/>
		
			<rect x="206.353" y="281.318" transform="matrix(0.5698 -0.8218 0.8218 0.5698 -154.5655 315.6085)" fill="#F0F0CB" width="35.611" height="48.227"/>
		
			<rect x="260.08" y="203.83" transform="matrix(0.5698 -0.8218 0.8218 0.5698 -67.7746 326.4203)" opacity="0.3" fill="#F0F0CB" width="35.612" height="48.228"/>
		<polygon opacity="0.5" fill="#F0F0CB" points="280.979,265.797 260.693,295.06 221.058,267.582 241.35,238.315 		"/>
		
			<rect x="206.353" y="281.318" transform="matrix(0.5698 -0.8218 0.8218 0.5698 -154.5655 315.6085)" opacity="0.8" fill="#F0F0CB" width="35.611" height="48.227"/>
		<path fill="#F0F0CB" d="M147.394,366.753l31.025,36.928l200.002-168.002l-31.023-36.93L147.394,366.753z M177.44,380.485
			c-2.421,2.037-6.033,1.72-8.066-0.698c-2.039-2.426-1.724-6.036,0.699-8.071s6.037-1.724,8.07,0.701
			C180.179,374.838,179.863,378.452,177.44,380.485z"/>
		
			<rect x="331.472" y="204.551" transform="matrix(0.7657 -0.6432 0.6432 0.7657 -65.2432 278.2202)" fill="#9CCBC1" width="35.608" height="48.23"/>
		<polygon fill="#9CCBC1" points="342.32,266 315.055,288.907 284.029,251.975 311.298,229.075 		"/>
		
			<rect x="259.272" y="265.199" transform="matrix(0.7657 -0.6431 0.6431 0.7657 -121.1625 245.9709)" fill="#9CCBC1" width="35.61" height="48.226"/>
		<polygon fill="#9CCBC1" points="270.117,326.648 242.857,349.555 211.833,312.623 239.101,289.723 		"/>
		<polygon opacity="0.3" fill="#9CCBC1" points="342.32,266 315.055,288.907 284.029,251.975 311.298,229.075 		"/>
		
			<rect x="259.272" y="265.199" transform="matrix(0.7657 -0.6431 0.6431 0.7657 -121.1625 245.9709)" opacity="0.5" fill="#9CCBC1" width="35.61" height="48.226"/>
		<polygon opacity="0.8" fill="#9CCBC1" points="270.117,326.648 242.857,349.555 211.833,312.623 239.101,289.723 		"/>
		<path fill="#F0F0CB" d="M150.801,358.638l20.23,43.783l237.114-109.556l-20.228-43.782L150.801,358.638z M176.186,379.782
			c-2.876,1.327-6.277,0.074-7.604-2.795c-1.33-2.873-0.074-6.274,2.802-7.604c2.868-1.325,6.274-0.077,7.597,2.797
			C180.308,375.05,179.054,378.455,176.186,379.782z"/>
		<polygon fill="#40424F" points="408.146,292.865 375.824,307.803 355.59,264.018 387.918,249.083 		"/>
		<polygon fill="#40424F" points="365.345,312.642 333.021,327.577 312.794,283.791 345.115,268.854 		"/>
		
			<rect x="278.464" y="293.875" transform="matrix(0.9078 -0.4194 0.4194 0.9078 -106.058 153.5952)" fill="#40424F" width="35.612" height="48.229"/>
		
			<rect x="235.669" y="313.649" transform="matrix(0.9078 -0.4194 0.4194 0.9078 -118.2951 137.4597)" fill="#40424F" width="35.604" height="48.229"/>
		<polygon opacity="0.3" fill="#40424F" points="365.345,312.642 333.021,327.577 312.794,283.791 345.115,268.854 		"/>
		
			<rect x="278.464" y="293.875" transform="matrix(0.9078 -0.4194 0.4194 0.9078 -106.058 153.5952)" opacity="0.5" fill="#40424F" width="35.612" height="48.229"/>
		
			<rect x="235.669" y="313.649" transform="matrix(0.9078 -0.4194 0.4194 0.9078 -118.2951 137.4597)" opacity="0.8" fill="#40424F" width="35.604" height="48.229"/>
		<path fill="#F0F0CB" d="M156.22,351.698l8.01,47.561l257.571-43.407l-8.017-47.554L156.22,351.698z M175.15,378.771
			c-3.119,0.527-6.071-1.575-6.597-4.692c-0.527-3.121,1.575-6.074,4.699-6.604c3.115-0.525,6.069,1.577,6.597,4.697
			C180.373,375.291,178.27,378.25,175.15,378.771z"/>
		
			<rect x="382.432" y="310.922" transform="matrix(0.9861 -0.1662 0.1662 0.9861 -50.1221 71.1891)" fill="#C2C63D" width="35.609" height="48.224"/>
		<polygon fill="#C2C63D" points="375.311,363.69 340.197,369.604 332.188,322.046 367.294,316.13 		"/>
		<polygon fill="#C2C63D" points="328.818,371.522 293.707,377.443 285.69,329.885 320.811,323.966 		"/>
		
			<rect x="242.961" y="334.422" transform="matrix(0.9861 -0.1662 0.1662 0.9861 -55.9535 48.3175)" fill="#C2C63D" width="35.613" height="48.228"/>
		<polygon opacity="0.3" fill="#C2C63D" points="375.311,363.69 340.197,369.604 332.188,322.046 367.294,316.13 		"/>
		<polygon opacity="0.5" fill="#C2C63D" points="328.818,371.522 293.707,377.443 285.69,329.885 320.811,323.966 		"/>
		
			<rect x="242.961" y="334.422" transform="matrix(0.9861 -0.1662 0.1662 0.9861 -55.9535 48.3175)" opacity="0.8" fill="#C2C63D" width="35.613" height="48.228"/>
		<path fill="#F0F0CB" d="M163.267,346.427l-4.767,47.998l259.927,25.794l4.76-47.995L163.267,346.427z M174.425,377.524
			c-3.148-0.31-5.451-3.115-5.136-6.264c0.311-3.148,3.119-5.445,6.265-5.132c3.148,0.309,5.445,3.115,5.137,6.266
			C180.379,375.541,177.571,377.835,174.425,377.524z"/>
		<polygon fill="#D86D50" points="418.427,420.219 382.993,416.703 387.76,368.707 423.187,372.224 		"/>
		<polygon fill="#D86D50" points="371.515,415.562 336.075,412.051 340.844,364.051 376.277,367.569 		"/>
		<polygon fill="#D86D50" points="324.599,410.908 289.165,407.391 293.925,359.393 329.358,362.915 		"/>
		<polygon fill="#D86D50" points="277.681,406.252 242.249,402.734 247.009,354.743 282.447,358.259 		"/>
		<polygon opacity="0.3" fill="#D86D50" points="371.515,415.562 336.075,412.051 340.844,364.051 376.277,367.569 		"/>
		<polygon opacity="0.5" fill="#D86D50" points="324.599,410.908 289.165,407.391 293.925,359.393 329.358,362.915 		"/>
		<polygon opacity="0.8" fill="#D86D50" points="277.681,406.252 242.249,402.734 247.009,354.743 282.447,358.259 		"/>
		<path fill="#40424F" d="M151.974,414.366c-1.42,2.044-4.233,2.556-6.281,1.136l0,0c-2.045-1.418-2.554-4.229-1.137-6.277
			l26.349-37.991c1.418-2.044,4.227-2.553,6.274-1.136l0,0c2.042,1.42,2.554,4.232,1.137,6.277L151.974,414.366z"/>
	</g>
</g>
</svg>
