<?xml version="1.0" encoding="utf-8"?>
<!-- Generator: Adobe Illustrator 15.0.0, SVG Export Plug-In . SVG Version: 6.00 Build 0)  -->
<!DOCTYPE svg PUBLIC "-//W3C//DTD SVG 1.1//EN" "http://www.w3.org/Graphics/SVG/1.1/DTD/svg11.dtd">
<svg version="1.1" id="Capa_1" xmlns="http://www.w3.org/2000/svg" xmlns:xlink="http://www.w3.org/1999/xlink" x="0px" y="0px"
	 width="600px" height="600px" viewBox="0 0 600 600" enable-background="new 0 0 600 600" xml:space="preserve">
<g>
	<g>
		<path fill="#C4C83D" d="M550,300c0-138.071-111.928-250-250.002-250C161.928,50,50,161.929,50,300s111.928,250,249.998,250
			C438.072,550,550,438.071,550,300z"/>
		<g>
			<path fill="#40424F" d="M429.41,280.706H299.998h-129.41c-1.772,0-3.209,1.435-3.209,3.209v77.005
				c0,29.388,58.256,73.395,132.621,73.395c74.368,0,132.622-44.007,132.622-73.395v-77.005
				C432.619,282.141,431.182,280.706,429.41,280.706z"/>
			<path fill="#494C57" d="M429.41,280.706H299.998v153.608c74.369,0,132.622-44.007,132.622-73.395v-77.005
				C432.619,282.141,431.182,280.706,429.41,280.706z"/>
			<path fill="#40424F" d="M170.588,280.706c-1.772,0-3.209,1.435-3.209,3.209v77.005c0,29.388,58.256,73.395,132.621,73.395
				V280.706H170.588z"/>
			<path fill="#40424F" d="M429.41,290.2H170.588c-1.772,0-3.209,1.438-3.209,3.208v14.736l131.036,74.592
				c0.492,0.28,1.04,0.42,1.585,0.42c0.55,0,1.097-0.14,1.591-0.42l131.029-74.592v-14.736
				C432.619,291.638,431.182,290.2,429.41,290.2z"/>
			<path opacity="0.35" fill="#40424F" enable-background="new    " d="M429.41,290.2H170.588c-1.772,0-3.209,1.438-3.209,3.208
				v14.736l131.036,74.592c0.492,0.28,1.04,0.42,1.585,0.42c0.55,0,1.097-0.14,1.591-0.42l131.029-74.592v-14.736
				C432.619,291.638,431.182,290.2,429.41,290.2z"/>
			<path fill="#40424F" d="M484.604,264.238L301.59,166.106c-0.986-0.561-2.194-0.561-3.177,0l-183.017,98.132
				c-1.003,0.57-1.621,1.635-1.621,2.789s0.618,2.216,1.621,2.789L298.413,374c0.492,0.279,1.04,0.418,1.584,0.418
				c0.55,0,1.097-0.139,1.589-0.418l183.015-104.185c1.003-0.572,1.621-1.635,1.621-2.789S485.604,264.808,484.604,264.238z"/>
			<path fill="#494C57" d="M484.604,264.238L301.59,166.106c-0.495-0.281-1.043-0.42-1.591-0.42v208.732
				c0.55,0,1.097-0.139,1.591-0.418l183.014-104.185c1.002-0.572,1.622-1.635,1.622-2.789
				C486.223,265.873,485.604,264.808,484.604,264.238z"/>
			<path fill="#40424F" d="M298.413,166.106l-183.017,98.132c-1.003,0.57-1.621,1.635-1.621,2.789s0.618,2.216,1.621,2.789
				L298.413,374c0.492,0.279,1.04,0.418,1.584,0.418V165.686C299.453,165.686,298.904,165.825,298.413,166.106z"/>
			<path fill="#F2F2CD" d="M392.013,390.213h1.153c3.066,0,5.551-2.486,5.551-5.55c0-3.021-2.417-5.466-5.422-5.537V320.91
				c0-0.078-0.009-0.153-0.012-0.232c-0.004-0.139-0.008-0.279-0.022-0.419c-0.01-0.095-0.023-0.19-0.036-0.286
				c-0.02-0.137-0.036-0.271-0.062-0.407c-0.018-0.088-0.038-0.173-0.059-0.264c-0.034-0.14-0.067-0.282-0.106-0.417
				c-0.024-0.074-0.047-0.141-0.074-0.213c-0.051-0.156-0.104-0.311-0.169-0.461c-0.017-0.043-0.035-0.087-0.054-0.131
				c-0.078-0.178-0.161-0.348-0.252-0.521c-0.007-0.013-0.017-0.025-0.02-0.038c-0.506-0.928-1.225-1.76-2.146-2.408l-87.658-61.39
				c-3.189-2.235-7.591-1.462-9.83,1.733c-2.235,3.191-1.459,7.592,1.735,9.827l84.649,59.287v54.556
				c-3.004,0.071-5.421,2.517-5.421,5.537c0,3.063,2.483,5.55,5.55,5.55h1.154c-3.882,7.429-8.084,16.456-7.591,19.899
				c0.763,5.353,10.259,6.128,12.996,6.239c0,0,0.13,0.021,0.368,0.014c0.233,0.007,0.367-0.014,0.367-0.014
				c2.736-0.111,12.233-0.887,12.995-6.239C400.094,406.669,395.893,397.642,392.013,390.213z"/>
		</g>
	</g>
	<g>
		<circle fill="#C4C83D" cx="299.998" cy="300" r="248.471"/>
		<g>
			<path fill="#40424F" d="M428.615,283.472H299.998h-128.62c-1.76,0-3.189,1.428-3.189,3.189v76.534
				c0,29.208,57.896,72.947,131.809,72.947c73.913,0,131.809-43.739,131.809-72.947v-76.534
				C431.807,284.9,430.379,283.472,428.615,283.472z"/>
			<path fill="#383B47" d="M428.615,283.472H299.998v152.67c73.913,0,131.809-43.739,131.809-72.947v-76.534
				C431.807,284.9,430.379,283.472,428.615,283.472z"/>
			<path opacity="0.74" fill="#2E313D" enable-background="new    " d="M428.615,297.13H171.377c-1.76,0-3.189,1.428-3.189,3.188
				v14.639l130.234,74.135c0.488,0.277,1.034,0.418,1.576,0.418c0.544,0,1.087-0.141,1.575-0.418l130.234-74.135v-14.639
				C431.807,298.558,430.379,297.13,428.615,297.13z"/>
			<path fill="#40424F" d="M486.104,262.488c-0.041-0.022-0.08-0.045-0.12-0.068l-181.852-97.507c-2.521-1.404-5.745-1.404-8.273,0
				L114.01,262.42c-0.033,0.022-0.072,0.042-0.113,0.063c-2.651,1.509-4.299,4.34-4.299,7.394c0,3.05,1.648,5.881,4.298,7.389
				l181.886,103.542c1.284,0.729,2.742,1.116,4.218,1.116c1.475,0,2.932-0.387,4.206-1.112l181.896-103.545
				c2.647-1.51,4.298-4.339,4.298-7.389C490.396,266.827,488.752,263.997,486.104,262.488z"/>
			<path fill="#383B47" d="M486.104,262.488c-0.041-0.022-0.08-0.045-0.12-0.068l-181.852-97.507
				c-1.264-0.703-2.698-1.051-4.135-1.051v218.062c1.475,0,2.932-0.386,4.207-1.113L486.1,277.266
				c2.648-1.51,4.299-4.339,4.299-7.389C490.396,266.827,488.752,263.997,486.104,262.488z"/>
			<path fill="#EDEFC0" d="M391.45,392.31h1.146c3.043,0,5.513-2.47,5.513-5.513c0-3.004-2.401-5.436-5.386-5.503v-57.86
				c0-0.076-0.01-0.154-0.013-0.232c-0.006-0.143-0.008-0.277-0.021-0.418c-0.012-0.096-0.024-0.19-0.034-0.284
				c-0.021-0.134-0.039-0.269-0.066-0.401c-0.015-0.091-0.036-0.179-0.058-0.264c-0.031-0.143-0.066-0.282-0.109-0.419
				c-0.023-0.067-0.044-0.141-0.07-0.209c-0.048-0.153-0.104-0.309-0.166-0.459c-0.02-0.042-0.038-0.085-0.057-0.13
				c-0.077-0.176-0.161-0.346-0.25-0.518c-0.009-0.012-0.014-0.023-0.021-0.039c-0.501-0.92-1.211-1.745-2.133-2.394l-87.117-61.012
				c-3.174-2.223-7.55-1.451-9.771,1.723c-2.221,3.17-1.452,7.547,1.721,9.766l84.135,58.918v54.225
				c-2.987,0.072-5.388,2.502-5.388,5.505c0,3.047,2.472,5.512,5.514,5.512h1.148c-3.858,7.384-8.037,16.36-7.545,19.78
				c0.76,5.318,10.194,6.091,12.912,6.199c0,0,0.137,0.022,0.369,0.014c0.232,0.009,0.369-0.014,0.369-0.014
				c2.721-0.108,12.155-0.881,12.916-6.199C399.481,408.667,395.307,399.689,391.45,392.31z"/>
		</g>
	</g>
</g>
</svg>
