<?xml version="1.0" encoding="utf-8"?>
<!-- Generator: Adobe Illustrator 15.0.0, SVG Export Plug-In . SVG Version: 6.00 Build 0)  -->
<!DOCTYPE svg PUBLIC "-//W3C//DTD SVG 1.1//EN" "http://www.w3.org/Graphics/SVG/1.1/DTD/svg11.dtd">
<svg version="1.1" id="Capa_1" xmlns="http://www.w3.org/2000/svg" xmlns:xlink="http://www.w3.org/1999/xlink" x="0px" y="0px"
	 width="600px" height="600px" viewBox="0 0 600 600" enable-background="new 0 0 600 600" xml:space="preserve">
<g>
	<circle fill="#C2C63D" cx="300" cy="300" r="250"/>
	<g>
		<path fill="#F0F0CB" d="M183.92,185.358l0.143,43.756c0.005,0.851,0.347,1.667,0.95,2.266l62.457,62.041l1.695-42.817
			L183.92,185.358z"/>
		<path fill="#40424F" d="M397.4,418.248c-5.498-5.458-5.65-14.229-0.488-19.897l-7.289-7.292l-11.291,11.365l-0.134-0.134
			l-14.514,14.608c-0.521,0.527-1.207,0.786-1.896,0.786c-0.679,0.002-1.363-0.255-1.886-0.774l-28.728-28.54
			c0,0,0.003,0.005,0.005,0.007l63.788,63.37c1.85,1.831,4.286,2.841,6.862,2.841c2.528,0,4.896-0.98,6.653-2.758l20.885-21.023
			l-12.137-12.138C411.593,423.806,402.875,423.686,397.4,418.248z"/>
		<path fill="#66AD9E" d="M331.004,374.853l6.959-7.002c0.286-0.752,0.721-1.459,1.327-2.064l1.077-1.078l-4.8-4.767l-1.063,1.063
			c-2.295,2.298-6.02,2.298-8.317,0c-2.298-2.296-2.298-6.027,0-8.318l1.035-1.033l-61.074-60.669l-0.802,0.807l-1.884,10.429
			c-0.213,1.172-1.059,2.129-2.196,2.487c-0.317,0.1-0.638,0.147-0.957,0.147c-0.837,0-1.655-0.325-2.266-0.934l-2.391-2.372
			l-4.013,4.041c-0.518,0.521-1.198,0.788-1.896,0.788c-0.365,0-0.726-0.071-1.073-0.219c-0.363-0.16-0.654-0.409-0.906-0.694
			c0.037,0.042,0.051,0.098,0.092,0.139l83.318,82.767c-1.816-1.811-2.843-4.2-2.89-6.736
			C328.248,379.067,329.213,376.66,331.004,374.853z"/>
		<path opacity="0.38" fill="#66AD9E" d="M331.004,374.853l6.959-7.002c0.286-0.752,0.721-1.459,1.327-2.064l1.077-1.078l-4.8-4.767
			l-1.063,1.063c-2.295,2.298-6.02,2.298-8.317,0c-2.298-2.296-2.298-6.027,0-8.318l1.035-1.033l-61.074-60.669l-0.802,0.807
			l-1.884,10.429c-0.213,1.172-1.059,2.129-2.196,2.487c-0.317,0.1-0.638,0.147-0.957,0.147c-0.837,0-1.655-0.325-2.266-0.934
			l-2.391-2.372l-4.013,4.041c-0.518,0.521-1.198,0.788-1.896,0.788c-0.365,0-0.726-0.071-1.073-0.219
			c-0.363-0.16-0.654-0.409-0.906-0.694c0.037,0.042,0.051,0.098,0.092,0.139l83.318,82.767c-1.816-1.811-2.843-4.2-2.89-6.736
			C328.248,379.067,329.213,376.66,331.004,374.853z"/>
		<path fill="#66AD9E" d="M247.362,304.871c-0.044-0.09-0.083-0.178-0.118-0.272C247.278,304.693,247.318,304.781,247.362,304.871z"
			/>
		<path opacity="0.38" fill="#66AD9E" d="M247.362,304.871c-0.044-0.09-0.083-0.178-0.118-0.272
			C247.278,304.693,247.318,304.781,247.362,304.871z"/>
		<path fill="#66AD9E" d="M247.061,303.715c0.002,0.065,0.035,0.12,0.04,0.186c-0.005-0.081-0.03-0.16-0.025-0.24
			C247.073,303.678,247.061,303.696,247.061,303.715z"/>
		<path opacity="0.38" fill="#66AD9E" d="M247.061,303.715c0.002,0.065,0.035,0.12,0.04,0.186c-0.005-0.081-0.03-0.16-0.025-0.24
			C247.073,303.678,247.061,303.696,247.061,303.715z"/>
		<path fill="#66AD9E" d="M258.042,303.921c0.61,0.608,1.429,0.934,2.266,0.934c0.319,0,0.64-0.048,0.957-0.147
			c1.137-0.358,1.983-1.315,2.196-2.487l1.884-10.429l-9.694,9.758L258.042,303.921z"/>
		<path opacity="0.38" fill="#66AD9E" d="M258.042,303.921c0.61,0.608,1.429,0.934,2.266,0.934c0.319,0,0.64-0.048,0.957-0.147
			c1.137-0.358,1.983-1.315,2.196-2.487l1.884-10.429l-9.694,9.758L258.042,303.921z"/>
		<path fill="#66AD9E" d="M361.788,417.685c0.689,0,1.376-0.259,1.896-0.786l14.514-14.608l-29.485-29.289l-1.105,1.105
			c-2.298,2.295-6.02,2.295-8.32,0c-1.692-1.692-2.129-4.157-1.324-6.256l-6.959,7.002c-1.791,1.808-2.756,4.215-2.719,6.781
			c0.047,2.536,1.073,4.926,2.89,6.736l28.728,28.54C360.425,417.43,361.109,417.687,361.788,417.685z"/>
		<path opacity="0.38" fill="#66AD9E" d="M361.788,417.685c0.689,0,1.376-0.259,1.896-0.786l14.514-14.608l-29.485-29.289
			l-1.105,1.105c-2.298,2.295-6.02,2.295-8.32,0c-1.692-1.692-2.129-4.157-1.324-6.256l-6.959,7.002
			c-1.791,1.808-2.756,4.215-2.719,6.781c0.047,2.536,1.073,4.926,2.89,6.736l28.728,28.54
			C360.425,417.43,361.109,417.687,361.788,417.685z"/>
		<path fill="#C2C63D" d="M397.4,418.248c5.475,5.438,14.192,5.558,19.831,0.421l-20.319-20.318
			C391.75,404.019,391.902,412.79,397.4,418.248z"/>
		
			<rect x="383.816" y="388.664" transform="matrix(-0.7071 -0.7071 0.7071 -0.7071 374.8854 948.6312)" fill="#F0F0CB" width="0.189" height="16.02"/>
		<polygon fill="#F0F0CB" points="347.034,348.473 335.567,359.941 340.367,364.708 351.82,353.256 		"/>
		<polygon fill="#F0F0CB" points="277.809,279.247 266.148,290.984 327.222,351.653 338.717,340.154 		"/>
		<polygon fill="#F0F0CB" points="360.138,361.573 348.713,373.001 378.198,402.29 389.484,390.922 		"/>
		<path fill="#40424F" d="M338.717,340.154l-11.495,11.499l-1.035,1.033c-2.298,2.291-2.298,6.022,0,8.318
			c2.298,2.298,6.022,2.298,8.317,0l1.063-1.063l11.467-11.469L338.717,340.154z"/>
		<path fill="#40424F" d="M352.139,353.577l-0.318-0.321l-11.453,11.452l-1.077,1.078c-0.606,0.605-1.041,1.312-1.327,2.064
			c-0.805,2.099-0.368,4.563,1.324,6.256c2.301,2.295,6.022,2.295,8.32,0l1.105-1.105l11.425-11.428L352.139,353.577z"/>
		<path fill="#66AD9E" d="M247.764,305.465c-0.162-0.183-0.296-0.381-0.402-0.594C247.468,305.088,247.602,305.282,247.764,305.465z
			"/>
		<path fill="#66AD9E" d="M247.244,304.599c-0.081-0.223-0.127-0.46-0.143-0.698C247.119,304.141,247.163,304.376,247.244,304.599z"
			/>
		<path fill="#66AD9E" d="M251.86,297.781l-4.39-4.36l-0.404,10.181c0,0.021,0.009,0.04,0.009,0.059
			c0.014-0.688,0.28-1.349,0.768-1.839L251.86,297.781z"/>
		<polygon fill="#66AD9E" points="269.176,270.614 267.024,282.516 274.026,275.464 		"/>
		<polygon fill="#66AD9E" points="267.024,282.516 269.176,270.614 249.165,250.603 247.47,293.42 251.86,297.781 		"/>
		<polygon fill="#66AD9E" points="275.917,277.355 274.026,275.464 267.024,282.516 266.185,287.153 		"/>
		<polygon fill="#66AD9E" points="265.346,291.791 266.148,290.984 265.593,290.431 		"/>
		<path fill="#66AD9E" d="M248.67,306.159c0.347,0.147,0.708,0.219,1.073,0.219c0.698,0,1.377-0.268,1.896-0.788l4.013-4.041
			l-3.792-3.768l-4.018,4.041c-0.488,0.49-0.754,1.151-0.768,1.839c-0.005,0.08,0.021,0.159,0.025,0.24
			c0.016,0.238,0.062,0.476,0.143,0.698c0.035,0.095,0.074,0.183,0.118,0.272c0.106,0.213,0.24,0.411,0.402,0.594
			C248.016,305.75,248.307,305.999,248.67,306.159z"/>
		<polygon fill="#66AD9E" points="264.252,289.1 266.185,287.153 267.024,282.516 251.86,297.781 255.652,301.549 265.346,291.791 
			265.593,290.431 		"/>
		<polygon fill="#66AD9E" points="275.917,277.355 266.185,287.153 265.593,290.431 266.148,290.984 277.809,279.247 		"/>
		<polygon fill="#66AD9E" points="265.593,290.431 266.185,287.153 264.252,289.1 		"/>
		<path fill="#F0F0CB" d="M250.869,207.533l-61.599-61.189c-0.92-0.911-2.303-1.184-3.5-0.682c-1.195,0.501-1.974,1.674-1.97,2.968
			l0.121,36.729l65.245,65.245L250.869,207.533z"/>
		<path fill="#E6E6C1" d="M250.869,207.533l-61.599-61.189c-0.92-0.911-2.303-1.184-3.5-0.682c-1.195,0.501-1.974,1.674-1.97,2.968
			l0.121,36.729l65.245,65.245L250.869,207.533z"/>
		<path fill="#363845" d="M451.396,394.94l-63.786-63.37c-0.005-0.007-0.012-0.009-0.016-0.016l28.74,28.553
			c0.504,0.5,0.788,1.177,0.791,1.889c0,0.708-0.277,1.39-0.779,1.892l-14.507,14.606l0.132,0.132l-12.348,12.433l7.289,7.292
			c0.142-0.157,0.271-0.321,0.423-0.472c5.604-5.646,14.727-5.678,20.372-0.072c5.646,5.611,5.674,14.731,0.065,20.372
			c-0.176,0.174-0.361,0.326-0.541,0.49l12.137,12.138l22.208-22.349C455.256,404.752,455.173,398.688,451.396,394.94z"/>
		<path fill="#66AD9E" d="M350.939,327.932l0.582-0.583c2.296-2.295,6.021-2.295,8.32,0c2.294,2.301,2.294,6.025-0.002,8.32
			l-0.553,0.553l4.8,4.768l0.536-0.539c0.513-0.513,1.103-0.893,1.725-1.175l7.74-7.79c1.764-1.778,4.129-2.759,6.662-2.761
			c2.568,0.002,4.998,1.008,6.844,2.83l-81.409-80.871l-16.396,16.502L350.939,327.932z"/>
		<path fill="#66AD9E" d="M374.088,331.485l-7.74,7.79c2.168-0.991,4.809-0.612,6.593,1.175c2.299,2.298,2.299,6.021,0,8.32
			l-0.511,0.509l29.409,29.215l14.507-14.606c0.502-0.502,0.779-1.184,0.779-1.892c-0.003-0.712-0.287-1.389-0.791-1.889
			l-28.74-28.553c-1.846-1.822-4.275-2.828-6.844-2.83C378.217,328.727,375.852,329.707,374.088,331.485z"/>
		<path fill="#C2C63D" d="M417.772,418.179c5.608-5.641,5.58-14.761-0.065-20.372c-5.646-5.605-14.768-5.573-20.372,0.072
			c-0.152,0.15-0.281,0.314-0.423,0.472l20.319,20.318C417.411,418.505,417.597,418.353,417.772,418.179z"/>
		<polygon fill="#F0F0CB" points="389.623,391.059 401.971,378.626 401.839,378.494 389.484,390.922 		"/>
		<polygon opacity="0.14" fill="#66AD9E" points="389.623,391.059 401.971,378.626 401.839,378.494 389.484,390.922 		"/>
		<polygon fill="#F0F0CB" points="351.82,353.256 364.087,340.989 359.287,336.222 347.034,348.473 		"/>
		<polygon opacity="0.14" fill="#66AD9E" points="351.82,353.256 364.087,340.989 359.287,336.222 347.034,348.473 		"/>
		<polygon fill="#F0F0CB" points="338.717,340.154 350.939,327.932 289.789,267.186 277.809,279.247 		"/>
		<polygon fill="#E6E6C1" points="338.717,340.154 350.939,327.932 289.789,267.186 277.809,279.247 		"/>
		<polygon fill="#F0F0CB" points="360.138,361.573 389.484,390.922 401.839,378.494 372.43,349.279 		"/>
		<polygon opacity="0.14" fill="#66AD9E" points="360.138,361.573 389.484,390.922 401.839,378.494 372.43,349.279 		"/>
		<path fill="#363845" d="M359.842,327.349c-2.3-2.295-6.024-2.295-8.32,0l-0.582,0.583l-12.223,12.223l8.317,8.318l12.253-12.251
			l0.553-0.553C362.136,333.374,362.136,329.649,359.842,327.349z"/>
		<path fill="#40424F" d="M366.348,339.275c-0.622,0.282-1.212,0.662-1.725,1.175l-0.536,0.539l0.281,0.282L366.348,339.275z"/>
		<path fill="#363845" d="M372.94,340.45c-1.784-1.787-4.425-2.166-6.593-1.175c-0.622,0.282-1.212,0.662-1.725,1.175l-0.536,0.539
			l-12.267,12.267l0.318,0.321l7.999,7.996l12.292-12.294l0.511-0.509C375.239,346.471,375.239,342.748,372.94,340.45z"/>
		<path fill="#66AD9E" d="M275.76,234.221l-6.584,36.393l4.85,4.85l26.479-26.651c1.036-1.047,2.733-1.054,3.78-0.014l1.898,1.884
			l6.838-6.884c0.499-0.504,0.777-1.186,0.777-1.891c-0.005-0.71-0.289-1.39-0.791-1.889l-47.042-46.734
			c-0.504-0.5-1.165-0.786-1.896-0.774c-0.708,0.002-1.387,0.284-1.887,0.788l-10.463,10.533c-0.472,0.474-0.749,1.107-0.776,1.773
			l-0.077,1.928l23.995,23.837C275.612,232.118,275.948,233.181,275.76,234.221z"/>
		<path fill="#66AD9E" d="M269.176,270.614l6.584-36.393c0.188-1.041-0.148-2.104-0.897-2.851l-23.995-23.837l-1.704,43.07
			L269.176,270.614z"/>
		<path fill="#66AD9E" d="M300.506,248.813l-26.479,26.651l1.891,1.891l11.976-12.054l1.896,1.884l16.396-16.502l-1.898-1.884
			C303.239,247.759,301.542,247.766,300.506,248.813z"/>
		<polygon fill="#66AD9E" points="289.789,267.186 287.893,265.302 275.917,277.355 277.809,279.247 		"/>
		<path fill="#5CA394" d="M416.354,360.101l-28.74-28.553l-81.409-80.871l6.838-6.884c0.499-0.504,0.777-1.186,0.777-1.891
			c-0.005-0.71-0.289-1.39-0.791-1.889l-47.042-46.734c-0.504-0.5-1.164-0.786-1.895-0.774c-0.708,0.002-1.388,0.284-1.887,0.788
			l-10.464,10.533c-0.472,0.474-0.749,1.107-0.776,1.773l-0.077,1.928l-1.704,43.07l20.011,20.011l4.851,4.85l1.892,1.891
			l1.891,1.891l11.98-12.061l61.15,60.746l0.582-0.583c2.296-2.295,6.021-2.295,8.32,0c2.294,2.301,2.294,6.025-0.002,8.32
			l-0.553,0.553l4.8,4.768l0.536-0.539c0.513-0.513,1.103-0.893,1.725-1.175c2.168-0.991,4.809-0.612,6.593,1.175
			c2.299,2.298,2.299,6.021,0,8.32l-0.511,0.509l29.409,29.215l14.507-14.606c0.502-0.502,0.779-1.184,0.779-1.892
			C417.143,361.277,416.858,360.601,416.354,360.101z"/>
	</g>
</g>
</svg>
