<?xml version="1.0" encoding="utf-8"?>
<!-- Generator: Adobe Illustrator 15.0.0, SVG Export Plug-In . SVG Version: 6.00 Build 0)  -->
<!DOCTYPE svg PUBLIC "-//W3C//DTD SVG 1.1//EN" "http://www.w3.org/Graphics/SVG/1.1/DTD/svg11.dtd">
<svg version="1.1" id="Capa_1" xmlns="http://www.w3.org/2000/svg" xmlns:xlink="http://www.w3.org/1999/xlink" x="0px" y="0px"
	 width="600px" height="600px" viewBox="0 0 600 600" enable-background="new 0 0 600 600" xml:space="preserve">
<g>
	<circle fill="#D86D50" cx="300" cy="300" r="250"/>
	<path fill="#F0F0CB" d="M391.256,147.591h-16.721c-1.182,0-2.137,0.959-2.137,2.141v15.021c0,0.714,0.352,1.379,0.945,1.777
		c1.211,0.809,1.934,2.157,1.934,3.608c0,2.392-1.947,4.338-4.344,4.338c-2.387,0-4.342-1.947-4.342-4.338
		c0-1.451,0.727-2.799,1.938-3.608c0.588-0.398,0.945-1.063,0.945-1.777v-15.021c0-1.182-0.955-2.141-2.137-2.141h-16.443
		c-1.188,0-2.141,0.959-2.141,2.141v15.021c0,0.714,0.352,1.379,0.945,1.777c1.209,0.809,1.932,2.157,1.932,3.608
		c0,2.392-1.947,4.338-4.342,4.338c-2.387,0-4.338-1.947-4.338-4.338c0-1.451,0.723-2.799,1.932-3.608
		c0.59-0.398,0.945-1.063,0.945-1.777v-15.021c0-1.182-0.959-2.141-2.141-2.141h-16.443c-1.178,0-2.141,0.959-2.141,2.141v15.021
		c0,0.714,0.361,1.379,0.949,1.777c1.209,0.809,1.934,2.157,1.934,3.608c0,2.392-1.947,4.338-4.344,4.338
		c-2.391,0-4.338-1.947-4.338-4.338c0-1.451,0.723-2.799,1.928-3.608c0.594-0.398,0.951-1.063,0.951-1.777v-15.021
		c0-1.182-0.961-2.141-2.137-2.141h-16.449c-1.182,0-2.137,0.959-2.137,2.141v15.021c0,0.714,0.354,1.379,0.945,1.777
		c1.211,0.809,1.934,2.157,1.934,3.608c0,2.392-1.947,4.338-4.339,4.338c-2.394,0-4.345-1.947-4.345-4.338
		c0-1.451,0.725-2.799,1.935-3.608c0.593-0.398,0.948-1.063,0.948-1.777v-15.021c0-1.182-0.957-2.141-2.139-2.141h-16.446
		c-1.182,0-2.139,0.959-2.139,2.141v15.021c0,0.714,0.354,1.379,0.948,1.777c1.209,0.809,1.935,2.157,1.935,3.608
		c0,2.392-1.951,4.338-4.345,4.338c-2.391,0-4.338-1.947-4.338-4.338c0-1.451,0.723-2.799,1.93-3.608
		c0.593-0.398,0.948-1.063,0.948-1.777v-15.021c0-1.182-0.958-2.141-2.137-2.141h-16.448c-1.18,0-2.137,0.959-2.137,2.141v15.021
		c0,0.714,0.354,1.379,0.943,1.777c1.212,0.809,1.935,2.157,1.935,3.608c0,2.392-1.947,4.338-4.343,4.338
		c-2.394,0-4.34-1.947-4.34-4.338c0-1.451,0.726-2.799,1.933-3.608c0.591-0.398,0.95-1.063,0.95-1.777v-15.021
		c0-1.182-0.962-2.141-2.139-2.141H232.66c-1.177,0-2.137,0.959-2.137,2.141v15.021c0,0.714,0.357,1.379,0.948,1.777
		c1.212,0.811,1.931,2.157,1.931,3.608c0,2.392-1.944,4.338-4.338,4.338c-2.396,0-4.341-1.947-4.341-4.338
		c0-1.451,0.721-2.799,1.933-3.608c0.591-0.398,0.946-1.063,0.946-1.777v-15.021c0-1.182-0.957-2.141-2.137-2.141h-16.726
		c-1.177,0-2.137,0.959-2.137,2.141v300.536c0,1.182,0.959,2.14,2.137,2.14h182.517c1.178,0,2.143-0.958,2.143-2.14V149.732
		C393.398,148.55,392.434,147.591,391.256,147.591z"/>
	<path fill="#E6E6C1" d="M391.836,147.672c-0.932-0.262-1.914,0.132-2.404,0.95L206.913,449.158
		c-0.401,0.658-0.41,1.487-0.035,2.159c0.38,0.672,1.091,1.09,1.861,1.09h182.517c1.178,0,2.143-0.958,2.143-2.14V149.732
		C393.398,148.773,392.754,147.934,391.836,147.672z"/>
	<path fill="#40424F" d="M373.084,206.191c0,1.455-1.182,2.63-2.633,2.63H229.546c-1.456,0-2.63-1.175-2.63-2.63l0,0
		c0-1.448,1.175-2.628,2.63-2.628h140.905C371.902,203.563,373.084,204.743,373.084,206.191L373.084,206.191z"/>
	<path fill="#40424F" d="M373.084,227.584c0,1.451-1.182,2.627-2.633,2.627H229.546c-1.456,0-2.63-1.177-2.63-2.627l0,0
		c0-1.453,1.175-2.63,2.63-2.63h140.905C371.902,224.954,373.084,226.131,373.084,227.584L373.084,227.584z"/>
	<path fill="#40424F" d="M373.084,248.973c0,1.455-1.182,2.63-2.633,2.63H229.546c-1.456,0-2.63-1.175-2.63-2.63l0,0
		c0-1.449,1.175-2.628,2.63-2.628h140.905C371.902,246.345,373.084,247.524,373.084,248.973L373.084,248.973z"/>
	<path fill="#40424F" d="M373.084,270.366c0,1.451-1.182,2.628-2.633,2.628H229.546c-1.456,0-2.63-1.177-2.63-2.628l0,0
		c0-1.451,1.175-2.63,2.63-2.63h140.905C371.902,267.736,373.084,268.916,373.084,270.366L373.084,270.366z"/>
	<path fill="#40424F" d="M373.084,291.757c0,1.451-1.182,2.63-2.633,2.63H229.546c-1.456,0-2.63-1.18-2.63-2.63l0,0
		c0-1.451,1.175-2.63,2.63-2.63h140.905C371.902,289.127,373.084,290.307,373.084,291.757L373.084,291.757z"/>
	<path fill="#40424F" d="M373.084,313.148c0,1.45-1.182,2.628-2.633,2.628H229.546c-1.456,0-2.63-1.178-2.63-2.628l0,0
		c0-1.455,1.175-2.628,2.63-2.628h140.905C371.902,310.521,373.084,311.693,373.084,313.148L373.084,313.148z"/>
	<path fill="#40424F" d="M373.084,334.539c0,1.451-1.182,2.631-2.633,2.631H229.546c-1.456,0-2.63-1.18-2.63-2.631l0,0
		c0-1.455,1.175-2.627,2.63-2.627h140.905C371.902,331.912,373.084,333.084,373.084,334.539L373.084,334.539z"/>
	<path fill="#40424F" d="M373.084,355.926c0,1.455-1.182,2.633-2.633,2.633H229.546c-1.456,0-2.63-1.178-2.63-2.633l0,0
		c0-1.45,1.175-2.623,2.63-2.623h140.905C371.902,353.303,373.084,354.476,373.084,355.926L373.084,355.926z"/>
	<path fill="#40424F" d="M373.084,377.316c0,1.456-1.182,2.631-2.633,2.631H229.546c-1.456,0-2.63-1.175-2.63-2.631l0,0
		c0-1.45,1.175-2.625,2.63-2.625h140.905C371.902,374.691,373.084,375.866,373.084,377.316L373.084,377.316z"/>
	<path fill="#40424F" d="M373.084,398.708c0,1.453-1.182,2.63-2.633,2.63H229.546c-1.456,0-2.63-1.177-2.63-2.63l0,0
		c0-1.451,1.175-2.628,2.63-2.628h140.905C371.902,396.08,373.084,397.257,373.084,398.708L373.084,398.708z"/>
</g>
</svg>
