<?xml version="1.0" encoding="utf-8"?>
<!-- Generator: Adobe Illustrator 15.0.0, SVG Export Plug-In . SVG Version: 6.00 Build 0)  -->
<!DOCTYPE svg PUBLIC "-//W3C//DTD SVG 1.1//EN" "http://www.w3.org/Graphics/SVG/1.1/DTD/svg11.dtd">
<svg version="1.1" id="Capa_1" xmlns="http://www.w3.org/2000/svg" xmlns:xlink="http://www.w3.org/1999/xlink" x="0px" y="0px"
	 width="600px" height="600px" viewBox="0 0 600 600" enable-background="new 0 0 600 600" xml:space="preserve">
<g>
	<path fill="#D86D50" d="M300.002,50C438.069,50,550,161.929,550,300c0,138.07-111.931,250-249.998,250
		C161.926,550,50,438.07,50,300C50,161.929,161.926,50,300.002,50z"/>
	<path fill="#66AD9E" d="M225.459,469.395c0,6.27-5.079,11.354-11.347,11.354l0,0c-6.276,0-11.355-5.084-11.355-11.354v-28.989
		c0-6.27,5.079-11.351,11.355-11.351l0,0c6.268,0,11.347,5.081,11.347,11.351V469.395z"/>
	<path fill="#5C9994" d="M225.459,469.395c0,6.27-5.079,11.354-11.347,11.354l0,0c-6.276,0-11.355-5.084-11.355-11.354v-28.989
		c0-6.27,5.079-11.351,11.355-11.351l0,0c6.268,0,11.347,5.081,11.347,11.351V469.395z"/>
	<path fill="#66AD9E" d="M397.243,469.395c0,6.27-5.084,11.354-11.351,11.354l0,0c-6.272,0-11.356-5.084-11.356-11.354v-28.989
		c0-6.27,5.084-11.351,11.356-11.351l0,0c6.267,0,11.351,5.081,11.351,11.351V469.395z"/>
	<rect x="167.732" y="205.079" fill="#B8BC33" width="263.462" height="10.676"/>
	<path fill="#F0F0CB" d="M412.292,409.885c0,18.311-14.842,33.157-33.155,33.157H220.858c-18.309,0-33.155-14.847-33.155-33.157
		V182.628c0-18.309,14.846-33.155,33.155-33.155h158.278c18.313,0,33.155,14.846,33.155,33.155V409.885z"/>
	<path fill="#E6E6C1" d="M404.1,411.835c0,10.35-8.39,18.739-18.737,18.739H214.638c-10.347,0-18.737-8.39-18.737-18.739v-83.974
		c0-10.347,8.39-18.737,18.737-18.737h170.725c10.348,0,18.737,8.391,18.737,18.737V411.835z"/>
	<g>
		<path fill="#66AD9E" d="M390.377,268.986c0,10.628-8.625,19.25-19.253,19.25H228.875c-10.632,0-19.248-8.623-19.248-19.25v-70.055
			c0-10.632,8.616-19.25,19.248-19.25h142.249c10.628,0,19.253,8.618,19.253,19.25V268.986z"/>
		<polygon opacity="0.52" fill="#66AD9E" points="259.47,179.681 209.627,217.313 209.627,229.079 275.053,179.681 		"/>
		<polygon opacity="0.52" fill="#66AD9E" points="289.609,179.681 209.627,240.068 209.627,251.832 305.188,179.681 		"/>
	</g>
	<polygon opacity="0.52" fill="#66AD9E" points="259.47,179.681 209.627,217.313 209.627,229.079 275.053,179.681 	"/>
	<polygon opacity="0.52" fill="#66AD9E" points="289.609,179.681 209.627,240.068 209.627,251.832 305.188,179.681 	"/>
	<path fill="#40424F" d="M177.361,227.988c0,5.314-4.311,9.624-9.629,9.624l0,0c-5.314,0-9.624-4.31-9.624-9.624v-19.25
		c0-5.319,4.31-9.629,9.624-9.629l0,0c5.318,0,9.629,4.31,9.629,9.629V227.988z"/>
	<path fill="#363845" d="M177.361,227.988c0,5.314-4.311,9.624-9.629,9.624l0,0c-5.314,0-9.624-4.31-9.624-9.624v-19.25
		c0-5.319,4.31-9.629,9.624-9.629l0,0c5.318,0,9.629,4.31,9.629,9.629V227.988z"/>
	<path fill="#40424F" d="M441.892,227.988c0,5.314-4.314,9.624-9.629,9.624l0,0c-5.313,0-9.624-4.31-9.624-9.624v-19.25
		c0-5.319,4.311-9.629,9.624-9.629l0,0c5.314,0,9.629,4.31,9.629,9.629V227.988z"/>
	<polygon fill="#66AD9E" points="305.188,179.681 300.458,179.681 300.458,183.25 	"/>
	<path fill="#DCDCB7" d="M209.627,268.986v-17.155v-11.763v-10.989v-11.766v-18.382c0-10.632,8.616-19.25,19.248-19.25h30.595
		h15.583h14.556h10.849v-30.208h-79.6c-18.309,0-33.155,14.846-33.155,33.155v227.257c0,18.311,14.846,33.157,33.155,33.157h79.6
		V288.237h-71.583C218.243,288.237,209.627,279.614,209.627,268.986z"/>
	<path fill="#66AD9E" d="M228.875,179.681c-10.632,0-19.248,8.618-19.248,19.25v18.382l49.843-37.633H228.875z"/>
	<polygon fill="#66AD9E" points="275.053,179.681 209.627,229.079 209.627,240.068 289.609,179.681 	"/>
	<polygon fill="#66AD9E" points="259.47,179.681 209.627,217.313 209.627,229.079 275.053,179.681 	"/>
	<polygon fill="#66AD9E" points="209.627,240.068 209.627,251.832 300.458,183.25 300.458,179.681 289.609,179.681 	"/>
	<path fill="#C2C63D" d="M371.299,149.199c0,10.633-8.615,19.25-19.248,19.25H247.949c-10.628,0-19.249-8.618-19.249-19.25v-10.697
		c0-10.633,8.62-19.25,19.249-19.25h104.102c10.633,0,19.248,8.618,19.248,19.25V149.199z"/>
	<path fill="#B8BC33" d="M247.949,119.252c-10.628,0-19.249,8.618-19.249,19.25v10.697c0,10.633,8.62,19.25,19.249,19.25h52.509
		v-49.198H247.949z"/>
	<path fill="#40424F" d="M431.194,429.411c0,10.633-8.62,19.251-19.253,19.251H188.058c-10.632,0-19.253-8.618-19.253-19.251v-0.714
		c0-10.635,8.621-19.25,19.253-19.25h223.883c10.633,0,19.253,8.615,19.253,19.25V429.411z"/>
	<path fill="#5C9994" d="M228.875,179.681c-10.632,0-19.248,8.618-19.248,19.25v70.055c0,10.628,8.616,19.25,19.248,19.25h71.583
		V179.681H228.875z"/>
	<path fill="#363845" d="M188.058,409.447c-10.632,0-19.253,8.615-19.253,19.25v0.714c0,10.633,8.621,19.251,19.253,19.251h111.944
		v-39.215H188.058z"/>
	<g>
		<polygon opacity="0.52" fill="#66AD9E" points="300.458,179.681 289.609,179.681 209.627,240.068 209.627,251.832 300.458,183.25 
			305.188,179.681 		"/>
		<polygon opacity="0.52" fill="#66AD9E" points="259.47,179.681 209.627,217.313 209.627,229.079 275.053,179.681 		"/>
	</g>
	<g>
		<path fill="#C2C63D" d="M361.381,342.675c0,2.701-1.935,4.889-4.324,4.889H242.943c-2.39,0-4.324-2.188-4.324-4.889l0,0
			c0-2.698,1.934-4.888,4.324-4.888h114.113C359.446,337.787,361.381,339.977,361.381,342.675L361.381,342.675z"/>
		<path fill="#C2C63D" d="M361.381,361.649c0,2.698-1.935,4.886-4.324,4.886H242.943c-2.39,0-4.324-2.188-4.324-4.886l0,0
			c0-2.698,1.934-4.886,4.324-4.886h114.113C359.446,356.764,361.381,358.951,361.381,361.649L361.381,361.649z"/>
		<path fill="#C2C63D" d="M361.381,380.623c0,2.699-1.935,4.889-4.324,4.889H242.943c-2.39,0-4.324-2.189-4.324-4.889l0,0
			c0-2.7,1.934-4.886,4.324-4.886h114.113C359.446,375.737,361.381,377.923,361.381,380.623L361.381,380.623z"/>
	</g>
	<g>
		<path fill="#D86D50" d="M222.903,366.774c0-5.659-4.591-10.25-10.246-10.25c-5.659,0-10.25,4.591-10.25,10.25
			c0,5.657,4.591,10.246,10.25,10.246C218.312,377.021,222.903,372.432,222.903,366.774z"/>
		<path fill="#D86D50" d="M397.589,366.774c0-5.659-4.587-10.25-10.246-10.25s-10.246,4.591-10.246,10.25
			c0,5.657,4.587,10.246,10.246,10.246S397.589,372.432,397.589,366.774z"/>
	</g>
	<g>
		<path fill="#F0F0CB" d="M289.881,137.535v0.771c0,2.217-0.677,3.635-2.188,4.34c1.819,0.709,2.523,2.344,2.523,4.624v1.754
			c0,3.327-1.754,5.116-5.144,5.116h-5.328v-21.566h5.111C288.371,132.574,289.881,134.208,289.881,137.535z M283.135,135.654v5.701
			h1.321c1.267,0,2.036-0.555,2.036-2.282v-1.2c0-1.54-0.525-2.219-1.727-2.219H283.135z M283.135,144.436v6.624h1.938
			c1.142,0,1.759-0.525,1.759-2.125v-1.881c0-2-0.649-2.618-2.192-2.618H283.135z"/>
		<path fill="#F0F0CB" d="M298.565,132.574v16.635c0,1.542,0.677,2.098,1.759,2.098c1.078,0,1.754-0.555,1.754-2.098v-16.635h3.205
			v16.418c0,3.451-1.727,5.424-5.052,5.424c-3.329,0-5.056-1.973-5.056-5.424v-16.418H298.565z"/>
		<path fill="#F0F0CB" d="M315.235,132.327c3.297,0,4.991,1.973,4.991,5.425v0.831h-3.205v-1.048c0-1.54-0.617-2.127-1.694-2.127
			s-1.694,0.587-1.694,2.127c0,4.437,6.622,5.266,6.622,11.427c0,3.454-1.723,5.425-5.052,5.425s-5.052-1.971-5.052-5.425v-1.476
			h3.205v1.692c0,1.54,0.677,2.097,1.755,2.097c1.077,0,1.759-0.557,1.759-2.097c0-4.435-6.627-5.268-6.627-11.427
			C310.243,134.3,311.938,132.327,315.235,132.327z"/>
	</g>
</g>
</svg>
