<?xml version="1.0" encoding="utf-8"?>
<!-- Generator: Adobe Illustrator 15.0.0, SVG Export Plug-In . SVG Version: 6.00 Build 0)  -->
<!DOCTYPE svg PUBLIC "-//W3C//DTD SVG 1.1//EN" "http://www.w3.org/Graphics/SVG/1.1/DTD/svg11.dtd">
<svg version="1.1" id="Capa_1" xmlns="http://www.w3.org/2000/svg" xmlns:xlink="http://www.w3.org/1999/xlink" x="0px" y="0px"
	 width="600px" height="600px" viewBox="0 0 600 600" enable-background="new 0 0 600 600" xml:space="preserve">
<g>
	<circle fill="#40424F" cx="300.001" cy="300" r="250"/>
	<path fill="#D86D50" d="M429.915,377.91h-4.275v-99.266c6.428-3.117,10.87-9.684,10.87-17.311v-46.347
		c0-6.934-3.68-12.995-9.181-16.383v-0.001c-0.011-0.007-0.023-0.013-0.034-0.02c-1.023-0.627-2.107-1.16-3.245-1.59
		c-0.15-0.057-0.301-0.112-0.452-0.166c-0.311-0.108-0.621-0.215-0.938-0.308c-0.45-0.133-0.906-0.252-1.369-0.352
		c-0.189-0.041-0.383-0.068-0.574-0.104c-0.39-0.072-0.784-0.132-1.182-0.18c-0.182-0.021-0.362-0.042-0.546-0.059
		c-0.569-0.052-1.144-0.087-1.728-0.087h-1.335h-12.925h-11.413h-12.92h-8.445v-23.174c0-6.494-5.267-11.764-11.761-11.764H241.48
		c-6.497,0-11.767,5.27-11.767,11.764v23.174h-8.444h-12.925h-11.406h-12.926h-1.334c-0.584,0-1.159,0.036-1.729,0.087
		c-0.182,0.016-0.36,0.037-0.54,0.058c-0.404,0.048-0.804,0.11-1.199,0.183c-0.186,0.034-0.372,0.061-0.555,0.1
		c-0.471,0.101-0.933,0.222-1.39,0.357c-0.302,0.089-0.598,0.191-0.894,0.293c-0.174,0.061-0.347,0.124-0.519,0.19
		c-1.115,0.423-2.178,0.946-3.183,1.56c-0.021,0.013-0.042,0.023-0.062,0.036v0.002c-5.501,3.389-9.18,9.449-9.18,16.382v46.347
		c0,7.629,4.444,14.197,10.874,17.312v99.265h-4.281c-10.631,0-19.247,8.619-19.247,19.254v3.207
		c0,10.631,8.616,19.252,19.247,19.252h43.851c6.557,0,12.34-3.285,15.817-8.291h45.145h25.137h25.131h45.147
		c3.476,5.006,9.259,8.291,15.818,8.291h43.848c10.632,0,19.251-8.621,19.251-19.252v-3.207
		C449.166,386.529,440.547,377.91,429.915,377.91z"/>
	<g>
		<path fill="#D86D50" d="M425.67,392.244c0,10.633-8.622,19.252-19.254,19.252H193.583c-10.634,0-19.25-8.619-19.25-19.252V245.453
			c0-10.632,8.616-19.25,19.25-19.25h212.833c10.632,0,19.254,8.617,19.254,19.25V392.244z"/>
		<path opacity="0.3" fill="#D86D50" d="M193.583,226.204c-10.634,0-19.25,8.617-19.25,19.25v146.791
			c0,10.633,8.616,19.252,19.25,19.252h106.418V226.204H193.583z"/>
		<path fill="#C2C63D" d="M233.156,400.534c0,10.632-8.621,19.252-19.254,19.252h-43.851c-10.631,0-19.247-8.62-19.247-19.252
			v-3.206c0-10.635,8.616-19.254,19.247-19.254h43.851c10.633,0,19.254,8.619,19.254,19.254V400.534z"/>
		<path opacity="0.54" fill="#C2C63D" d="M233.156,400.534c0,10.632-8.621,19.252-19.254,19.252h-43.851
			c-10.631,0-19.247-8.62-19.247-19.252v-3.206c0-10.635,8.616-19.254,19.247-19.254h43.851c10.633,0,19.254,8.619,19.254,19.254
			V400.534z"/>
		<path fill="#C2C63D" d="M449.196,400.534c0,10.632-8.619,19.252-19.251,19.252h-43.848c-10.638,0-19.254-8.62-19.254-19.252
			v-3.206c0-10.635,8.616-19.254,19.254-19.254h43.848c10.632,0,19.251,8.619,19.251,19.254V400.534z"/>
		<path fill="#F0F0CB" d="M305.883,318.851h-11.767c-10.63,0-19.251,8.617-19.251,19.252v73.394h50.268v-73.394
			C325.132,327.468,316.518,318.851,305.883,318.851z"/>
		<path fill="#40424F" d="M322.026,365.172c0-2.686-2.18-4.863-4.866-4.863c-2.686,0-4.866,2.178-4.866,4.863
			c0,2.691,2.181,4.867,4.866,4.867C319.847,370.039,322.026,367.863,322.026,365.172z"/>
		<circle fill="#F0F0CB" cx="379.948" cy="318.851" r="27.045"/>
		<circle fill="#66AD9E" cx="379.945" cy="318.851" r="21.392"/>
		<circle fill="#F0F0CB" cx="220.053" cy="318.851" r="27.046"/>
		<path fill="#66AD9E" d="M241.443,318.851c0-11.815-9.578-21.39-21.392-21.39c-11.811,0-21.388,9.575-21.388,21.39
			c0,11.814,9.578,21.389,21.388,21.389C231.866,340.239,241.443,330.665,241.443,318.851z"/>
		<rect x="216.98" y="294.98" fill="#F0F0CB" width="6.146" height="47.739"/>
		<rect x="196.185" y="315.78" fill="#F0F0CB" width="47.735" height="6.14"/>
		<rect x="376.873" y="294.98" fill="#F0F0CB" width="6.146" height="47.739"/>
		<rect x="356.078" y="315.78" fill="#F0F0CB" width="47.734" height="6.14"/>
		<path fill="#F0F0CB" d="M436.54,261.497c0,10.637-8.617,19.25-19.249,19.25H182.708c-10.631,0-19.25-8.613-19.25-19.25V215.15
			c0-10.63,8.618-19.25,19.25-19.25h234.583c10.632,0,19.249,8.62,19.249,19.25V261.497z"/>
		<path fill="#40424F" d="M182.708,195.9c-3.695,0-7.141,1.061-10.07,2.865v79.114c2.929,1.812,6.375,2.867,10.07,2.867h1.335V195.9
			H182.708z"/>
		<rect x="196.969" y="195.9" fill="#40424F" width="11.406" height="84.846"/>
		<rect x="221.3" y="195.9" fill="#40424F" width="11.411" height="84.846"/>
		<rect x="245.634" y="195.9" fill="#40424F" width="11.408" height="84.846"/>
		<rect x="269.965" y="195.9" fill="#40424F" width="11.408" height="84.846"/>
		<path opacity="0.35" fill="#40424F" d="M182.708,195.9c-3.695,0-7.141,1.061-10.07,2.865v79.114
			c2.929,1.812,6.375,2.867,10.07,2.867h1.335V195.9H182.708z"/>
		<rect x="196.969" y="195.9" opacity="0.35" fill="#40424F" width="11.406" height="84.846"/>
		<rect x="221.3" y="195.9" opacity="0.35" fill="#40424F" width="11.411" height="84.846"/>
		<rect x="245.634" y="195.9" opacity="0.35" fill="#40424F" width="11.408" height="84.846"/>
		<rect x="269.965" y="195.9" opacity="0.35" fill="#40424F" width="11.408" height="84.846"/>
		<rect x="294.295" y="195.9" fill="#40424F" width="11.406" height="84.846"/>
		<rect x="318.629" y="195.9" fill="#40424F" width="11.405" height="84.846"/>
		<rect x="342.961" y="195.9" fill="#40424F" width="11.406" height="84.846"/>
		<rect x="367.29" y="195.9" fill="#40424F" width="11.408" height="84.846"/>
		<rect x="391.618" y="195.9" fill="#40424F" width="11.413" height="84.846"/>
		<path fill="#40424F" d="M417.291,195.9h-1.335v84.846h1.335c3.693,0,7.136-1.056,10.068-2.867v-79.114
			C424.427,196.961,420.984,195.9,417.291,195.9z"/>
		<path fill="#C2C63D" d="M251.693,251.203c0,2.732-2.217,4.946-4.946,4.946l0,0c-2.733,0-4.946-2.214-4.946-4.946v-37.166
			c0-2.732,2.213-4.946,4.946-4.946l0,0c2.729,0,4.946,2.214,4.946,4.946V251.203z"/>
		<path opacity="0.54" fill="#C2C63D" d="M251.693,251.203c0,2.732-2.217,4.946-4.946,4.946l0,0c-2.733,0-4.946-2.214-4.946-4.946
			v-37.166c0-2.732,2.213-4.946,4.946-4.946l0,0c2.729,0,4.946,2.214,4.946,4.946V251.203z"/>
		<path fill="#C2C63D" d="M358.199,251.203c0,2.732-2.213,4.946-4.947,4.946l0,0c-2.729,0-4.943-2.214-4.943-4.946v-37.166
			c0-2.732,2.214-4.946,4.943-4.946l0,0c2.734,0,4.947,2.214,4.947,4.946V251.203z"/>
		<path opacity="0.54" fill="#C2C63D" d="M358.199,251.203c0,2.732-2.213,4.946-4.947,4.946l0,0c-2.729,0-4.943-2.214-4.943-4.946
			v-37.166c0-2.732,2.214-4.946,4.943-4.946l0,0c2.734,0,4.947,2.214,4.947,4.946V251.203z"/>
		<rect x="294.295" y="201.069" opacity="0.35" fill="#40424F" width="5.706" height="79.677"/>
		<path fill="#C2C63D" d="M370.253,214.44c0,6.495-5.267,11.764-11.761,11.764H241.511c-6.497,0-11.767-5.269-11.767-11.764v-41.714
			c0-6.494,5.27-11.764,11.767-11.764h116.981c6.494,0,11.761,5.27,11.761,11.764V214.44z"/>
		<path fill="#F0F0CB" d="M360.081,209.173c0,4.857-3.938,8.798-8.798,8.798h-102.57c-4.856,0-8.796-3.941-8.796-8.798v-31.183
			c0-4.857,3.94-8.796,8.796-8.796h102.57c4.859,0,8.798,3.939,8.798,8.796V209.173z"/>
		<g>
			<path fill="#66AD9E" d="M263.711,183.008c3.161,0,4.786,1.892,4.786,5.201v0.797h-3.073V188c0-1.475-0.592-2.038-1.624-2.038
				c-1.033,0-1.623,0.563-1.623,2.038c0,4.255,6.347,5.049,6.347,10.96c0,3.307-1.652,5.198-4.841,5.198
				c-3.191,0-4.847-1.892-4.847-5.198v-1.417h3.072v1.621c0,1.477,0.649,2.013,1.681,2.013c1.036,0,1.688-0.536,1.688-2.013
				c0-4.252-6.349-5.051-6.349-10.955C258.928,184.899,260.553,183.008,263.711,183.008z"/>
			<path fill="#66AD9E" d="M282.762,196.212v2.748c0,3.307-1.651,5.198-4.842,5.198s-4.843-1.892-4.843-5.198v-10.751
				c0-3.309,1.652-5.201,4.843-5.201s4.842,1.892,4.842,5.201v2.006h-3.07V188c0-1.475-0.651-2.038-1.683-2.038
				c-1.035,0-1.688,0.563-1.688,2.038v11.164c0,1.477,0.652,2.013,1.688,2.013c1.032,0,1.683-0.536,1.683-2.013v-2.952H282.762z"/>
			<path fill="#66AD9E" d="M290.946,203.92h-3.247v-20.674h3.247v8.86h3.69v-8.86h3.31v20.674h-3.31v-8.86h-3.69V203.92z"/>
			<path fill="#66AD9E" d="M303.002,188.208c0-3.309,1.74-5.201,4.928-5.201c3.189,0,4.933,1.892,4.933,5.201v10.751
				c0,3.307-1.743,5.198-4.933,5.198c-3.188,0-4.928-1.892-4.928-5.198V188.208z M306.249,199.164c0,1.477,0.646,2.036,1.681,2.036
				s1.686-0.559,1.686-2.036V188c0-1.475-0.65-2.038-1.686-2.038s-1.681,0.563-1.681,2.038V199.164z"/>
			<path fill="#66AD9E" d="M317.648,188.208c0-3.309,1.74-5.201,4.933-5.201s4.935,1.892,4.935,5.201v10.751
				c0,3.307-1.742,5.198-4.935,5.198s-4.933-1.892-4.933-5.198V188.208z M320.897,199.164c0,1.477,0.653,2.036,1.684,2.036
				s1.683-0.559,1.683-2.036V188c0-1.475-0.652-2.038-1.683-2.038s-1.684,0.563-1.684,2.038V199.164z"/>
			<path fill="#66AD9E" d="M332.565,183.246h3.247v17.72h5.349v2.954h-8.596V183.246z"/>
		</g>
	</g>
</g>
</svg>
