<?xml version="1.0" encoding="utf-8"?>
<!-- Generator: Adobe Illustrator 15.0.0, SVG Export Plug-In . SVG Version: 6.00 Build 0)  -->
<!DOCTYPE svg PUBLIC "-//W3C//DTD SVG 1.1//EN" "http://www.w3.org/Graphics/SVG/1.1/DTD/svg11.dtd">
<svg version="1.1" id="Capa_1" xmlns="http://www.w3.org/2000/svg" xmlns:xlink="http://www.w3.org/1999/xlink" x="0px" y="0px"
	 width="600px" height="600px" viewBox="0 0 600 600" enable-background="new 0 0 600 600" xml:space="preserve">
<g>
	<circle fill="#66AD9E" cx="300" cy="300" r="250"/>
	<g>
		<path fill="none" d="M326.428,397.135c-17.363-5.922-36.243,3.345-42.173,20.708c-5.924,17.365,3.349,36.245,20.714,42.174
			c17.357,5.924,36.24-3.344,42.172-20.71C353.064,421.943,343.791,403.064,326.428,397.135z"/>
		<path fill="#F0F0CB" d="M335.584,224.516c3.955,1.355,6.074,5.659,4.717,9.621c-1.348,3.961-5.656,6.078-9.611,4.72
			c-2.539-0.863-4.305-2.944-4.9-5.369l-16.721,48.971c10.002,3.417,15.342,14.289,11.924,24.292l-4.473,13.116
			c0.002-0.01,0.008-0.021,0.014-0.033l57.357-168.055c3.412-9.992-1.924-20.863-11.916-24.283l-33.551,98.275
			C330.377,224.22,333.045,223.655,335.584,224.516z"/>
		<path fill="#40424F" d="M330.689,238.857c3.955,1.357,8.264-0.759,9.611-4.72c1.357-3.961-0.762-8.266-4.717-9.621
			c-2.539-0.861-5.207-0.296-7.16,1.255l-2.635,7.717C326.385,235.913,328.15,237.994,330.689,238.857z"/>
		<path fill="#C2C63D" d="M357.016,410.364c-7.867-16.029-32.188-42.162-53.67-51.903l13.174-38.593l4.473-13.116
			c3.418-10.004-1.922-20.875-11.924-24.292l-16.832,49.304l-7.932,23.23l-0.763,2.232l-9.858,28.879l-5.477,16.039l-2.509,7.354
			c1.408,15.996,5.262,31.646,9.805,40.899c11.054,22.507,38.26,31.794,60.773,20.74
			C358.789,460.083,368.07,432.872,357.016,410.364z M347.141,439.307c-5.932,17.366-24.814,26.634-42.172,20.71
			c-17.365-5.929-26.638-24.809-20.714-42.174c5.93-17.363,24.81-26.63,42.173-20.708
			C343.791,403.064,353.064,421.943,347.141,439.307z"/>
		<path fill="#F0F0CB" d="M355.559,126.478l-52.895,154.97c2.125-0.021,4.281,0.288,6.402,1.012c0.002,0,0.002,0,0.002,0
			l16.721-48.971c-0.336-1.359-0.314-2.824,0.17-4.247c0.488-1.424,1.365-2.599,2.465-3.47l33.551-98.275
			c-0.006-0.002-0.012-0.004-0.016-0.004C359.838,126.764,357.678,126.458,355.559,126.478z"/>
		<path fill="#E6E6C1" d="M299.175,281.809l52.893-154.967c-6.48,1.284-12.117,5.876-14.406,12.577l-54.173,158.72l1.279-3.75
			C287.056,287.684,292.698,283.093,299.175,281.809z"/>
		<g>
			<path opacity="0.3" fill="#F0F0CB" d="M283.489,298.139l1.287-3.771c-0.002,0.007-0.005,0.014-0.008,0.021L283.489,298.139z"/>
		</g>
		<path fill="#40424F" d="M302.664,281.447l52.895-154.97c-1.182,0.017-2.35,0.137-3.49,0.364l-52.893,154.967
			C300.319,281.582,301.484,281.461,302.664,281.447z"/>
		<path opacity="0.3" fill="#C2C63D" d="M302.664,281.447l52.895-154.97c-1.182,0.017-2.35,0.137-3.49,0.364l-52.893,154.967
			C300.319,281.582,301.484,281.461,302.664,281.447z"/>
		<path fill="#40424F" d="M325.959,229.241c-0.484,1.423-0.506,2.888-0.17,4.247l2.635-7.717
			C327.324,226.642,326.447,227.817,325.959,229.241z"/>
		<path opacity="0.3" fill="#C2C63D" d="M325.959,229.241c-0.484,1.423-0.506,2.888-0.17,4.247l2.635-7.717
			C327.324,226.642,326.447,227.817,325.959,229.241z"/>
		<path fill="#C2C63D" d="M265.398,405.455c0.082,1.348,0.181,2.698,0.299,4.044l2.509-7.354
			C267.29,403.258,266.354,404.362,265.398,405.455z"/>
		<path opacity="0.3" fill="#C2C63D" d="M265.398,405.455c0.082,1.348,0.181,2.698,0.299,4.044l2.509-7.354
			C267.29,403.258,266.354,404.362,265.398,405.455z"/>
		<path fill="#B8BC33" d="M309.066,282.459c-2.121-0.724-4.277-1.034-6.402-1.012c-1.18,0.014-2.345,0.135-3.489,0.362
			c-6.478,1.284-12.119,5.875-14.407,12.579l-1.279,3.75l-16.297,47.746c-22.76-6.778-60.533-0.795-77.296,7.439
			c-22.509,11.057-31.796,38.263-20.747,60.77c11.053,22.51,38.262,31.795,60.779,20.748c10.027-4.929,24.013-16.302,35.47-29.387
			c0.956-1.093,1.892-2.197,2.809-3.311l5.477-16.039l9.858-28.879l0.763-2.232l7.932-23.23l16.832-49.304
			C309.068,282.459,309.068,282.459,309.066,282.459z M242.898,403.729c-5.926,17.363-24.807,26.632-42.177,20.71
			c-17.362-5.929-26.634-24.811-20.704-42.172c5.926-17.368,24.805-26.636,42.168-20.71
			C239.55,367.486,248.826,386.37,242.898,403.729z"/>
	</g>
</g>
</svg>
