<?xml version="1.0" encoding="utf-8"?>
<!-- Generator: Adobe Illustrator 15.0.0, SVG Export Plug-In . SVG Version: 6.00 Build 0)  -->
<!DOCTYPE svg PUBLIC "-//W3C//DTD SVG 1.1//EN" "http://www.w3.org/Graphics/SVG/1.1/DTD/svg11.dtd">
<svg version="1.1" id="Capa_1" xmlns="http://www.w3.org/2000/svg" xmlns:xlink="http://www.w3.org/1999/xlink" x="0px" y="0px"
	 width="600px" height="600px" viewBox="0 0 600 600" enable-background="new 0 0 600 600" xml:space="preserve">
<g>
	<path fill="#40424F" d="M300,50c138.068,0,250,111.929,250,250S438.068,550,300,550C161.929,550,50,438.071,50,300
		S161.929,50,300,50z"/>
	<g>
		<path fill="#66AD9E" d="M396.792,419.235c0,5.684-4.606,10.288-10.288,10.288h-173.01c-5.679,0-10.286-4.604-10.286-10.288
			V180.765c0-5.684,4.607-10.286,10.286-10.286h173.01c5.682,0,10.288,4.603,10.288,10.286V419.235z"/>
		<path fill="#5CA394" d="M396.792,419.235V180.765c0-5.684-4.606-10.286-10.288-10.286h-86.506v259.045h86.506
			C392.186,429.523,396.792,424.919,396.792,419.235z"/>
		<path fill="#F0F0CB" d="M374.813,238.745c0,5.681-4.604,10.291-10.289,10.291H235.474c-5.684,0-10.288-4.609-10.288-10.291
			v-23.379c0-5.681,4.604-10.288,10.288-10.288h129.051c5.685,0,10.289,4.607,10.289,10.288V238.745z"/>
		<path fill="#F0F0CB" d="M265.709,295.168c0,5.679-4.604,10.288-10.286,10.288h-19.95c-5.684,0-10.288-4.609-10.288-10.288v-18.705
			c0-5.681,4.604-10.286,10.288-10.286h19.95c5.681,0,10.286,4.604,10.286,10.286V295.168z"/>
		<path fill="#F0F0CB" d="M320.263,295.168c0,5.679-4.61,10.288-10.286,10.288h-19.955c-5.679,0-10.286-4.609-10.286-10.288v-18.705
			c0-5.681,4.607-10.286,10.286-10.286h19.955c5.676,0,10.286,4.604,10.286,10.286V295.168z"/>
		<path fill="#F0F0CB" d="M374.811,295.168c0,5.679-4.604,10.288-10.286,10.288h-19.949c-5.684,0-10.288-4.609-10.288-10.288
			v-18.705c0-5.681,4.604-10.286,10.288-10.286h19.949c5.682,0,10.286,4.604,10.286,10.286V295.168z"/>
		<path fill="#F0F0CB" d="M265.709,351.204c0,5.679-4.604,10.285-10.286,10.285h-19.95c-5.684,0-10.288-4.606-10.288-10.285v-18.705
			c0-5.681,4.604-10.288,10.288-10.288h19.95c5.681,0,10.286,4.607,10.286,10.288V351.204z"/>
		<path fill="#F0F0CB" d="M320.263,351.204c0,5.679-4.61,10.285-10.286,10.285h-19.955c-5.679,0-10.286-4.606-10.286-10.285v-18.705
			c0-5.681,4.607-10.288,10.286-10.288h19.955c5.676,0,10.286,4.607,10.286,10.288V351.204z"/>
		<path fill="#F0F0CB" d="M374.811,351.204c0,5.679-4.604,10.285-10.286,10.285h-19.949c-5.684,0-10.288-4.606-10.288-10.285
			v-18.705c0-5.681,4.604-10.288,10.288-10.288h19.949c5.682,0,10.286,4.607,10.286,10.288V351.204z"/>
		<path fill="#D86D50" d="M374.813,391.648c0,5.681-4.604,10.288-10.289,10.288h-77.306c-5.684,0-10.286-4.607-10.286-10.288v-6.779
			c0-5.684,4.602-10.288,10.286-10.288h77.306c5.685,0,10.289,4.604,10.289,10.288V391.648z"/>
		<path fill="#C2C63D" d="M360.162,227.057c0,3.549-2.878,6.432-6.427,6.432h-74.893c-3.553,0-6.432-2.883-6.432-6.432l0,0
			c0-3.552,2.878-6.432,6.432-6.432h74.893C357.284,220.625,360.162,223.505,360.162,227.057L360.162,227.057z"/>
	</g>
</g>
</svg>
