<?xml version="1.0" encoding="utf-8"?>
<!-- Generator: Adobe Illustrator 15.0.0, SVG Export Plug-In . SVG Version: 6.00 Build 0)  -->
<!DOCTYPE svg PUBLIC "-//W3C//DTD SVG 1.1//EN" "http://www.w3.org/Graphics/SVG/1.1/DTD/svg11.dtd">
<svg version="1.1" id="Capa_1" xmlns="http://www.w3.org/2000/svg" xmlns:xlink="http://www.w3.org/1999/xlink" x="0px" y="0px"
	 width="600px" height="600px" viewBox="0 0 600 600" enable-background="new 0 0 600 600" xml:space="preserve">
<g>
	<circle fill="#F0F0CB" cx="300" cy="300" r="250"/>
	<path fill="#D86D50" d="M411.758,323.926h-1.068V199.479c0-3.921-0.705-7.679-1.993-11.151
		c-4.332-12.939-16.543-22.266-30.938-22.266h-6.067v-17.482c0-8.321-6.744-15.063-15.062-15.063s-15.064,6.742-15.064,15.063
		v17.482H300h-41.567v-17.482c0-8.321-6.74-15.063-15.062-15.063c-8.316,0-15.061,6.742-15.061,15.063v17.482h-6.07
		c-14.395,0-26.604,9.325-30.936,22.261c-0.005,0.013-0.008,0.027-0.012,0.041c-0.794,2.147-1.359,4.405-1.678,6.742v-0.001
		c-0.195,1.432-0.305,2.89-0.305,4.375v124.447h-1.069c-14.765,0-26.736,11.972-26.736,26.736v60.607
		c0,14.768,11.972,26.737,26.736,26.737h1.294c0.028,0.249,0.044,0.501,0.078,0.749v0.016c2.135,15.652,15.545,27.713,31.783,27.713
		H300v0.001h78.603c16.501,0,30.086-12.456,31.88-28.479h1.275c14.766,0,26.737-11.971,26.737-26.737v-60.606
		C438.495,335.896,426.522,323.926,411.758,323.926z M377.759,246.268c18.017,0,32.627-14.608,32.627-32.626
		C410.386,231.66,395.776,246.268,377.759,246.268z"/>
	<g>
		<g>
			<path fill="#5CA394" d="M258.433,213.64c0,8.318-6.74,15.061-15.061,15.061l0,0c-8.317,0-15.061-6.743-15.061-15.061v-65.061
				c0-8.321,6.744-15.063,15.061-15.063l0,0c8.321,0,15.061,6.742,15.061,15.063V213.64z"/>
		</g>
		<g>
			<path fill="#66AD9E" d="M371.691,213.64c0,8.318-6.744,15.061-15.062,15.061l0,0c-8.318,0-15.064-6.743-15.064-15.061v-65.061
				c0-8.321,6.746-15.063,15.064-15.063l0,0c8.318,0,15.062,6.742,15.062,15.063V213.64z"/>
		</g>
		<g>
			<path fill="#5CA394" d="M217.117,411.27c0,14.767-11.971,26.737-26.736,26.737h-2.14c-14.765,0-26.736-11.97-26.736-26.737
				v-60.607c0-14.765,11.971-26.736,26.736-26.736h2.14c14.765,0,26.736,11.971,26.736,26.737V411.27z"/>
		</g>
		<path fill="#CE6346" d="M252.769,433.973c-14.635,0-26.502-11.865-26.502-26.507c0-14.634,11.866-26.497,26.502-26.497H300
			V246.267h-77.76c-18.019,0-32.626-14.609-32.626-32.626v225.131c2.135,15.652,15.545,27.713,31.783,27.713H300v-32.514h-47.231
			V433.973z"/>
		<g>
			<path fill="#66AD9E" d="M438.495,411.27c0,14.767-11.972,26.737-26.737,26.737h-2.139c-14.768,0-26.738-11.97-26.738-26.737
				v-60.607c0-14.765,11.969-26.736,26.738-26.736h2.139c14.765,0,26.737,11.971,26.737,26.737V411.27z"/>
		</g>
		<path fill="#D86D50" d="M408.696,188.328c1.09,3.256,1.689,6.736,1.689,10.36v14.954c0,18.019-14.609,32.626-32.627,32.626H300
			v134.701h47.231c14.635,0,26.504,11.865,26.504,26.497c0,14.642-11.87,26.507-26.504,26.507H300v32.513h78.603
			c17.721,0,32.087-14.364,32.087-32.086V199.479C410.689,195.557,409.984,191.8,408.696,188.328z"/>
		<path fill="#D86D50" d="M189.615,198.687v-3.583c-0.195,1.432-0.304,2.89-0.304,4.375v234.921c0,1.485,0.108,2.943,0.304,4.375
			V213.64V198.687z"/>
		<path fill="#40424F" d="M408.696,188.328c-4.332-12.939-16.543-22.266-30.938-22.266H300v1.329v78.877h77.759
			c18.017,0,32.627-14.608,32.627-32.626v-14.954C410.386,195.063,409.786,191.584,408.696,188.328z"/>
		<path fill="#66AD9E" d="M347.231,433.973c14.634,0,26.504-11.865,26.504-26.507c0-14.632-11.869-26.497-26.504-26.497H300v53.004
			H347.231L347.231,433.973z"/>
		<path fill="#66AD9E" d="M191.306,188.323c-0.801,2.16-1.371,4.431-1.691,6.782v3.583
			C189.615,195.062,190.215,191.58,191.306,188.323z"/>
		<path fill="#363845" d="M222.24,166.062c-14.394,0-26.603,9.325-30.936,22.261c-1.091,3.257-1.691,6.74-1.691,10.365v14.954
			c0,18.019,14.607,32.626,32.626,32.626H300V167.39v-1.329H222.24z"/>
		<path fill="#5CA394" d="M226.267,407.466c0,14.642,11.866,26.507,26.502,26.507H300v-53.004h-47.231
			C238.132,380.967,226.267,392.832,226.267,407.466z"/>
		<path fill="#F0F0CB" d="M372.971,401.153c-0.441-1.81-1.062-3.547-1.857-5.188H228.886c-0.791,1.639-1.415,3.379-1.857,5.188
			h121.144v7.724c0,1.255,1.016,2.268,2.266,2.268c1.252,0,2.266-1.013,2.266-2.268v-7.724H372.971z"/>
		<g>
			<path fill="#B8BC33" d="M237.61,166.062v170.974v8.243v3.608c0,5.317,4.309,9.627,9.627,9.627c5.317,0,9.627-4.31,9.627-9.627
				v-3.608v-8.243V166.062H237.61z"/>
		</g>
		<g>
			<path fill="#C2C63D" d="M362.391,337.017V166.062h-19.255v179.217l0,0v3.608c0,5.317,4.312,9.627,9.629,9.627
				c5.315,0,9.626-4.31,9.626-9.627v-11.851C362.391,337.029,362.391,337.023,362.391,337.017z"/>
		</g>
		<path fill="#E6E6C1" d="M252.071,317.492H242.4c-5.896,0-10.696,4.795-10.696,10.696v9.355c0,5.896,4.8,10.696,10.696,10.696
			h9.671c5.898,0,10.696-4.801,10.696-10.696v-9.355C262.768,322.287,257.97,317.492,252.071,317.492z M256.349,337.544
			c0,2.362-1.916,4.278-4.277,4.278h-1.626v-4.801c0-1.775-1.435-3.208-3.208-3.208c-1.771,0-3.208,1.433-3.208,3.208v4.801h-1.626
			c-2.362,0-4.278-1.916-4.278-4.278v-9.355c0-2.362,1.916-4.278,4.278-4.278h9.672c2.358,0,4.278,1.916,4.278,4.278v9.355H256.349z
			"/>
		<path fill="#F0F0CB" d="M357.599,317.492h-9.67c-5.898,0-10.696,4.795-10.696,10.696v9.355c0,5.896,4.798,10.696,10.696,10.696
			h9.67c5.896,0,10.696-4.801,10.696-10.696v-9.355C368.295,322.287,363.495,317.492,357.599,317.492z M361.879,337.544
			c0,2.362-1.919,4.278-4.28,4.278h-1.628v-4.801c0-1.775-1.436-3.208-3.206-3.208c-1.774,0-3.21,1.433-3.21,3.208v4.801h-1.626
			c-2.358,0-4.277-1.916-4.277-4.278v-9.355c0-2.362,1.919-4.278,4.277-4.278h9.67c2.363,0,4.28,1.916,4.28,4.278V337.544
			L361.879,337.544z"/>
	</g>
</g>
</svg>
