<?xml version="1.0" encoding="utf-8"?>
<!-- Generator: Adobe Illustrator 15.0.0, SVG Export Plug-In . SVG Version: 6.00 Build 0)  -->
<!DOCTYPE svg PUBLIC "-//W3C//DTD SVG 1.1//EN" "http://www.w3.org/Graphics/SVG/1.1/DTD/svg11.dtd">
<svg version="1.1" id="Capa_1" xmlns="http://www.w3.org/2000/svg" xmlns:xlink="http://www.w3.org/1999/xlink" x="0px" y="0px"
	 width="600px" height="600px" viewBox="0 0 600 600" enable-background="new 0 0 600 600" xml:space="preserve">
<g>
	<circle fill="#D86D50" cx="300" cy="300" r="250"/>
	<path fill="#D2D571" d="M405.404,172.839h-0.646c-3.734-4.781-9.538-7.868-16.072-7.868h-0.918
		c-3.732-4.201-9.158-6.859-15.22-6.859H356.4H300h-24.326h-90.321c-6.197-2.5-11.151,2.677-11.151,8.994
		c0,81.948,0,163.895,0,245.846c0,6.385,5.196,11.51,11.604,14.463c6.798,2.947,13.597,7.552,20.394,10.501
		c2.535,1.167,4.873,1.029,6.781,0.053H300h8.53h80.728h16.147c11.265,0,20.392-9.135,20.392-20.397V193.234
		C425.797,181.97,416.669,172.839,405.404,172.839z"/>
	<path fill="#D2D571" d="M308.529,173.414h80.728h2.872c-2.46-8.504-10.288-14.727-19.581-14.727H356.4H300v14.727H308.529z"/>
	<polygon fill="#C2C63D" points="179.65,158.687 179.65,423.81 212.507,423.81 212.507,173.414 300,173.414 300,158.687 
		275.674,158.687 	"/>
	<polygon fill="#C8CB67" points="179.65,158.687 179.65,423.81 212.507,423.81 212.507,173.414 300,173.414 300,158.687 
		275.674,158.687 	"/>
	<path fill="#F3F4D9" d="M388.686,165.546H372.54h-13.223h-67.503h-83.56h-25.712v80.381h29.49l8.688,184.744h71.095h80.727h16.146
		c11.261,0,20.395-9.137,20.395-20.391V185.938C409.081,174.677,399.946,165.546,388.686,165.546z"/>
	<path fill="#D2D571" d="M405.404,173.414h-13.275h-2.872h-80.728H300V423.81v14.734h8.53h80.728h16.147
		c11.265,0,20.392-9.135,20.392-20.397V193.809C425.797,182.545,416.669,173.414,405.404,173.414z"/>
	<polygon fill="#D2D571" points="275.674,423.81 212.507,423.81 212.507,438.544 300,438.544 300,423.81 	"/>
	<polygon fill="#D2D571" points="212.507,173.414 212.507,423.81 275.674,423.81 300,423.81 300,173.414 	"/>
	<polygon fill="#C8CB67" points="275.674,423.81 212.507,423.81 212.507,438.544 300,438.544 300,423.81 	"/>
	<polygon fill="#C8CB67" points="212.507,173.414 212.507,423.81 275.674,423.81 300,423.81 300,173.414 	"/>
	<path fill="#66AD9E" d="M217.802,429.673c0,6.472-5.197,11.769-11.603,8.818c-6.797-2.949-13.596-7.554-20.394-10.501
		c-6.408-2.953-11.604-8.078-11.604-14.463c0-81.951,0-163.898,0-245.846c0-6.471,5.196-11.77,11.604-8.819
		c6.797,2.95,13.596,7.554,20.394,10.503c6.406,2.952,11.603,8.076,11.603,14.463C217.802,265.776,217.802,347.727,217.802,429.673z
		"/>
	<path fill="#40424F" d="M390.811,231.769c0,6.498-5.268,11.766-11.766,11.766H259.26c-6.498,0-11.765-5.267-11.765-11.766v-1.067
		c0-6.498,5.268-11.765,11.765-11.765h119.785c6.498,0,11.766,5.268,11.766,11.765V231.769z"/>
	<path fill="#40424F" d="M321.229,258.336c0,3.343-2.712,6.054-6.056,6.054h-61.626c-3.342,0-6.052-2.711-6.052-6.054v-0.55
		c0-3.342,2.71-6.053,6.052-6.053h61.626c3.344,0,6.056,2.709,6.056,6.053V258.336z"/>
	<path fill="#40424F" d="M321.229,279.728c0,3.343-2.712,6.051-6.056,6.051h-61.626c-3.342,0-6.052-2.708-6.052-6.051v-0.55
		c0-3.342,2.71-6.053,6.052-6.053h61.626c3.344,0,6.056,2.711,6.056,6.053V279.728z"/>
</g>
</svg>
