<?xml version="1.0" encoding="utf-8"?>
<!-- Generator: Adobe Illustrator 15.0.0, SVG Export Plug-In . SVG Version: 6.00 Build 0)  -->
<!DOCTYPE svg PUBLIC "-//W3C//DTD SVG 1.1//EN" "http://www.w3.org/Graphics/SVG/1.1/DTD/svg11.dtd">
<svg version="1.1" id="Capa_1" xmlns="http://www.w3.org/2000/svg" xmlns:xlink="http://www.w3.org/1999/xlink" x="0px" y="0px"
	 width="600px" height="600px" viewBox="0 0 600 600" enable-background="new 0 0 600 600" xml:space="preserve">
<g>
	<circle fill="#F0F0CB" cx="300" cy="300" r="250"/>
	<path fill="#66AD9E" d="M462.035,212.425h-11.768v-3.914c0-6.5-5.27-11.77-11.765-11.77h-3.208c-6.5,0-11.763,5.27-11.763,11.77
		v3.914H300H137.965c-6.493,0-11.761,5.268-11.761,11.763V368.95c0,6.495,5.268,11.766,11.761,11.766h73.636v3.018v9.093
		c0,6.495,5.263,11.765,11.761,11.765H300h76.639c6.495,0,11.763-5.27,11.763-11.765v-9.093v-3.018h73.634
		c6.493,0,11.761-5.271,11.761-11.766V224.188C473.796,217.692,468.528,212.425,462.035,212.425z"/>
	<path fill="#C2C63D" d="M450.268,207.845c0-6.5-5.27-11.77-11.765-11.77h-3.208c-6.5,0-11.763,5.27-11.763,11.77v3.914h26.735
		V207.845z"/>
	<path fill="#66AD9E" d="M300,403.925h76.639c6.495,0,11.763-5.27,11.763-11.765v-9.093H300V403.925z"/>
	<rect x="300" y="380.05" fill="#66AD9E" width="88.401" height="3.018"/>
	<rect x="300" y="380.05" fill="#5CA394" width="88.401" height="3.018"/>
	<path fill="#66AD9E" d="M462.035,211.759h-11.768v0.629c0,6.498-5.27,11.763-11.765,11.763h-3.208
		c-6.5,0-11.763-5.265-11.763-11.763v-0.629H300v18.505h142.959c6.497,0,11.765,5.266,11.765,11.766v107.752
		c0,6.495-5.268,11.766-11.765,11.766H300v4.942h76.639c6.497,0,11.763,5.271,11.763,11.768v1.793h73.634
		c6.493,0,11.761-5.271,11.761-11.766V223.521C473.796,217.026,468.528,211.759,462.035,211.759z"/>
	<path fill="#66AD9E" d="M435.295,224.15h3.208c6.495,0,11.765-5.265,11.765-11.763v-0.629h-26.735v0.629
		C423.532,218.885,428.795,224.15,435.295,224.15z"/>
	<path fill="#66AD9E" d="M388.401,378.257c0-6.497-5.266-11.768-11.763-11.768C383.134,366.489,388.401,371.76,388.401,378.257z"/>
	<path fill="#66AD9E" d="M376.639,366.489H300v13.561h88.401v-1.793C388.401,371.76,383.134,366.489,376.639,366.489z"/>
	<path fill="#40424F" d="M442.959,361.547c6.497,0,11.765-5.271,11.765-11.766V242.029c0-6.5-5.268-11.766-11.765-11.766H300
		v131.283H442.959z M320.789,262.695c0-6.493,5.268-11.763,11.768-11.763h67.086c6.498,0,11.764,5.27,11.764,11.763v33.602v32.815
		c0,6.5-5.266,11.768-11.764,11.768h-67.086c-6.5,0-11.768-5.268-11.768-11.768v-32.815V262.695z"/>
	<path fill="#F0F0CB" d="M356.905,291.079c0.617-1.338,0.926-2.703,0.926-4.102c0-2.216-0.646-3.951-1.947-5.206
		c-1.304-1.253-3.085-1.882-5.353-1.882c-1.609,0-3.299,0.293-5.071,0.874c-1.77,0.585-3.644,1.473-5.628,2.657v-5.414
		c1.826-0.866,3.616-1.527,5.375-1.966c1.763-0.444,3.502-0.663,5.217-0.663c3.88,0,6.996,1.031,9.36,3.093
		c2.364,2.062,3.544,4.765,3.544,8.109c0,1.699-0.394,3.402-1.18,5.098c-0.654,1.416-1.674,2.958-3.014,4.619h29.447
		c-1.644-1.498-3.896-2.259-6.776-2.259c-1.437,0-2.828,0.162-4.198,0.494c-1.36,0.325-2.658,0.818-3.902,1.472V276.09h20.073v4.513
		h-15.188v9.744c0.766-0.283,1.529-0.489,2.3-0.622c0.769-0.133,1.543-0.197,2.32-0.197c4.104,0,7.362,1.212,9.768,3.631
		c0.905,0.912,1.584,1.984,2.146,3.137h16.281v-33.602c0-6.493-5.266-11.763-11.764-11.763h-67.086
		c-6.5,0-11.768,5.27-11.768,11.763v33.602h32.548C355.097,294.149,356.286,292.41,356.905,291.079z"/>
	<path fill="#D86D50" d="M363.328,286.58c0-3.345-1.18-6.047-3.544-8.109c-2.364-2.062-5.48-3.093-9.36-3.093
		c-1.715,0-3.454,0.219-5.217,0.663c-1.759,0.438-3.549,1.1-5.375,1.966v5.414c1.984-1.184,3.858-2.071,5.628-2.657
		c1.772-0.581,3.462-0.874,5.071-0.874c2.268,0,4.049,0.629,5.353,1.882c1.301,1.255,1.947,2.99,1.947,5.206
		c0,1.399-0.309,2.764-0.926,4.102c-0.619,1.331-1.809,3.07-3.568,5.217h5.798c1.34-1.66,2.359-3.203,3.014-4.619
		C362.935,289.981,363.328,288.278,363.328,286.58z"/>
	<path fill="#D86D50" d="M383.211,289.529c-0.777,0-1.552,0.064-2.32,0.197c-0.771,0.132-1.534,0.338-2.3,0.622v-9.744h15.188
		v-4.513h-20.073v19.914c1.244-0.654,2.542-1.147,3.902-1.472c1.37-0.332,2.762-0.494,4.198-0.494c2.88,0,5.133,0.761,6.776,2.259
		h6.543c-0.562-1.152-1.241-2.225-2.146-3.137C390.573,290.741,387.315,289.529,383.211,289.529z"/>
	<path fill="#F0F0CB" d="M332.557,340.879h67.086c6.498,0,11.764-5.268,11.764-11.768v-32.815h-16.281
		c0.939,1.918,1.464,4.129,1.464,6.717c0,4.177-1.26,7.467-3.779,9.874c-2.522,2.407-5.97,3.605-10.341,3.605
		c-2.108,0-4.029-0.137-5.773-0.423c-1.742-0.281-3.304-0.706-4.687-1.273v-5.439c1.628,0.883,3.263,1.544,4.915,1.976
		c1.64,0.435,3.327,0.651,5.042,0.651c2.953,0,5.23-0.777,6.836-2.336c1.6-1.558,2.4-3.772,2.4-6.635
		c0-2.835-0.828-5.037-2.483-6.612c-0.041-0.039-0.096-0.066-0.137-0.105h-29.447c-0.268,0.332-0.53,0.663-0.825,1.006
		c-0.992,1.152-2.426,2.746-4.316,4.778c-1.878,2.037-4.754,5.08-8.61,9.137h18.21v4.513h-24.077v-4.513
		c3.309-3.487,6.203-6.566,8.682-9.244c2.479-2.67,4.182-4.552,5.121-5.653c0.007-0.007,0.012-0.016,0.019-0.023h-32.548v32.815
		C320.789,335.611,326.057,340.879,332.557,340.879z"/>
	<path fill="#D2D2AD" d="M332.557,340.879h67.086c6.498,0,11.764-5.268,11.764-11.768v-32.815h-16.281
		c0.939,1.918,1.464,4.129,1.464,6.717c0,4.177-1.26,7.467-3.779,9.874c-2.522,2.407-5.97,3.605-10.341,3.605
		c-2.108,0-4.029-0.137-5.773-0.423c-1.742-0.281-3.304-0.706-4.687-1.273v-5.439c1.628,0.883,3.263,1.544,4.915,1.976
		c1.64,0.435,3.327,0.651,5.042,0.651c2.953,0,5.23-0.777,6.836-2.336c1.6-1.558,2.4-3.772,2.4-6.635
		c0-2.835-0.828-5.037-2.483-6.612c-0.041-0.039-0.096-0.066-0.137-0.105h-29.447c-0.268,0.332-0.53,0.663-0.825,1.006
		c-0.992,1.152-2.426,2.746-4.316,4.778c-1.878,2.037-4.754,5.08-8.61,9.137h18.21v4.513h-24.077v-4.513
		c3.309-3.487,6.203-6.566,8.682-9.244c2.479-2.67,4.182-4.552,5.121-5.653c0.007-0.007,0.012-0.016,0.019-0.023h-32.548v32.815
		C320.789,335.611,326.057,340.879,332.557,340.879z"/>
	<path fill="#D86D50" d="M353.318,296.319c-0.939,1.102-2.643,2.983-5.121,5.653c-2.479,2.678-5.373,5.757-8.682,9.244v4.513h24.077
		v-4.513h-18.21c3.856-4.057,6.732-7.1,8.61-9.137c1.891-2.032,3.324-3.625,4.316-4.778c0.295-0.343,0.558-0.674,0.825-1.006h-5.798
		C353.33,296.303,353.325,296.312,353.318,296.319z"/>
	<path opacity="0.41" fill="#F0F0CB" d="M353.318,296.319c-0.939,1.102-2.643,2.983-5.121,5.653
		c-2.479,2.678-5.373,5.757-8.682,9.244v4.513h24.077v-4.513h-18.21c3.856-4.057,6.732-7.1,8.61-9.137
		c1.891-2.032,3.324-3.625,4.316-4.778c0.295-0.343,0.558-0.674,0.825-1.006h-5.798C353.33,296.303,353.325,296.312,353.318,296.319
		z"/>
	<path fill="#D86D50" d="M388.719,296.401c1.655,1.575,2.483,3.777,2.483,6.612c0,2.862-0.801,5.077-2.4,6.635
		c-1.605,1.559-3.883,2.336-6.836,2.336c-1.715,0-3.402-0.217-5.042-0.651c-1.652-0.432-3.287-1.093-4.915-1.976v5.439
		c1.383,0.567,2.944,0.992,4.687,1.273c1.744,0.286,3.665,0.423,5.773,0.423c4.371,0,7.818-1.198,10.341-3.605
		c2.52-2.407,3.779-5.697,3.779-9.874c0-2.588-0.524-4.799-1.464-6.717h-6.543C388.623,296.335,388.678,296.362,388.719,296.401z"/>
	<path opacity="0.41" fill="#F0F0CB" d="M388.719,296.401c1.655,1.575,2.483,3.777,2.483,6.612c0,2.862-0.801,5.077-2.4,6.635
		c-1.605,1.559-3.883,2.336-6.836,2.336c-1.715,0-3.402-0.217-5.042-0.651c-1.652-0.432-3.287-1.093-4.915-1.976v5.439
		c1.383,0.567,2.944,0.992,4.687,1.273c1.744,0.286,3.665,0.423,5.773,0.423c4.371,0,7.818-1.198,10.341-3.605
		c2.52-2.407,3.779-5.697,3.779-9.874c0-2.588-0.524-4.799-1.464-6.717h-6.543C388.623,296.335,388.678,296.362,388.719,296.401z"/>
	<path fill="#66AD9E" d="M211.601,383.067v9.093c0,6.495,5.263,11.765,11.761,11.765H300v-20.857H211.601z"/>
	<path fill="#5CA394" d="M211.601,383.067v9.093c0,6.495,5.263,11.765,11.761,11.765H300v-20.857H211.601z"/>
	<rect x="211.601" y="380.05" fill="#66AD9E" width="88.399" height="3.018"/>
	<rect x="211.601" y="380.05" opacity="0.3" fill="#66AD9E" width="88.399" height="3.018"/>
	<rect x="211.601" y="380.05" fill="#52998A" width="88.399" height="3.018"/>
	<path fill="#66AD9E" d="M126.204,223.521v144.763c0,6.495,5.268,11.766,11.761,11.766h73.636v-1.793
		c0-6.497,5.263-11.768,11.761-11.768H300v-4.942H157.042c-6.496,0-11.765-5.271-11.765-11.766V242.029
		c0-6.5,5.27-11.766,11.765-11.766H300v-18.505H137.965C131.472,211.759,126.204,217.026,126.204,223.521z"/>
	<path fill="#66AD9E" d="M223.362,366.489c-6.498,0-11.761,5.271-11.761,11.768C211.601,371.76,216.866,366.489,223.362,366.489z"/>
	<path opacity="0.28" fill="#66AD9E" d="M223.362,366.489c-6.498,0-11.761,5.271-11.761,11.768
		C211.601,371.76,216.866,366.489,223.362,366.489z"/>
	<path fill="#66AD9E" d="M211.601,378.257v1.793H300v-13.561h-76.638C216.866,366.489,211.601,371.76,211.601,378.257z"/>
	<path fill="#5CA394" d="M157.042,230.264H300v-18.505H137.965c-6.493,0-11.761,5.268-11.761,11.763v144.763
		c0,6.495,5.268,11.766,11.761,11.766h73.636H300v-13.561v-4.942H157.042c-6.496,0-11.765-5.271-11.765-11.766V242.029
		C145.276,235.529,150.546,230.264,157.042,230.264z M223.362,366.489c-6.496,0-11.761,5.271-11.761,11.768
		C211.601,371.76,216.864,366.489,223.362,366.489z"/>
	<path fill="#40424F" d="M145.276,242.029v107.752c0,6.495,5.27,11.766,11.765,11.766H300V230.264H157.042
		C150.546,230.264,145.276,235.529,145.276,242.029z M188.592,296.296v-33.602c0-6.493,5.268-11.763,11.765-11.763h67.086
		c6.502,0,11.765,5.27,11.765,11.763v33.602v32.815c0,6.5-5.263,11.768-11.765,11.768h-67.086c-6.498,0-11.765-5.268-11.765-11.768
		V296.296z"/>
	<path opacity="0.28" fill="#66AD9E" d="M145.276,242.029v107.752c0,6.495,5.27,11.766,11.765,11.766H300V230.264H157.042
		C150.546,230.264,145.276,235.529,145.276,242.029z M188.592,296.296v-33.602c0-6.493,5.268-11.763,11.765-11.763h67.086
		c6.502,0,11.765,5.27,11.765,11.763v33.602v32.815c0,6.5-5.263,11.768-11.765,11.768h-67.086c-6.498,0-11.765-5.268-11.765-11.768
		V296.296z"/>
	<path fill="#F0F0CB" d="M223.688,295.935c0-2.919-0.174-5.553-0.528-7.911l-5.286,8.272h5.803
		C223.68,296.17,223.688,296.063,223.688,295.935z"/>
	<path fill="#E6E6C1" d="M223.688,295.935c0-2.919-0.174-5.553-0.528-7.911l-5.286,8.272h5.803
		C223.68,296.17,223.688,296.063,223.688,295.935z"/>
	<path fill="#F0F0CB" d="M203.412,295.935c0-6.758,1.077-11.866,3.237-15.313c2.158-3.452,5.352-5.178,9.58-5.178
		c4.234,0,7.433,1.726,9.598,5.178c2.167,3.448,3.256,8.555,3.256,15.313c0,0.124-0.007,0.238-0.007,0.361h11.191
		c1.131-0.761,2.458-1.34,4.023-1.685c-2.281-0.585-4.067-1.674-5.348-3.267c-1.282-1.594-1.925-3.512-1.925-5.757
		c0-3.155,1.07-5.656,3.21-7.503c2.145-1.848,5.055-2.771,8.736-2.771c3.699,0,6.619,0.923,8.761,2.771
		c2.14,1.847,3.212,4.348,3.212,7.503c0,2.245-0.645,4.163-1.927,5.757c-1.278,1.593-3.061,2.682-5.345,3.267
		c1.571,0.345,2.896,0.924,4.033,1.685h21.511v-33.602c0-6.493-5.263-11.763-11.765-11.763h-67.086
		c-6.498,0-11.765,5.27-11.765,11.763v33.602h14.827C203.418,296.173,203.412,296.059,203.412,295.935z"/>
	<path fill="#E6E6C1" d="M203.412,295.935c0-6.758,1.077-11.866,3.237-15.313c2.158-3.452,5.352-5.178,9.58-5.178
		c4.234,0,7.433,1.726,9.598,5.178c2.167,3.448,3.256,8.555,3.256,15.313c0,0.124-0.007,0.238-0.007,0.361h11.191
		c1.131-0.761,2.458-1.34,4.023-1.685c-2.281-0.585-4.067-1.674-5.348-3.267c-1.282-1.594-1.925-3.512-1.925-5.757
		c0-3.155,1.07-5.656,3.21-7.503c2.145-1.848,5.055-2.771,8.736-2.771c3.699,0,6.619,0.923,8.761,2.771
		c2.14,1.847,3.212,4.348,3.212,7.503c0,2.245-0.645,4.163-1.927,5.757c-1.278,1.593-3.061,2.682-5.345,3.267
		c1.571,0.345,2.896,0.924,4.033,1.685h21.511v-33.602c0-6.493-5.263-11.763-11.765-11.763h-67.086
		c-6.498,0-11.765,5.27-11.765,11.763v33.602h14.827C203.418,296.173,203.412,296.059,203.412,295.935z"/>
	<path fill="#F0F0CB" d="M255.598,286.09c0-2.161-0.562-3.804-1.683-4.938c-1.123-1.134-2.778-1.696-4.952-1.696
		c-2.145,0-3.777,0.567-4.911,1.71c-1.134,1.141-1.701,2.783-1.701,4.925c0,2.124,0.567,3.743,1.701,4.856
		c1.134,1.116,2.766,1.674,4.911,1.674c2.161,0,3.807-0.558,4.936-1.674C255.034,289.833,255.598,288.214,255.598,286.09z"/>
	<path fill="#E6E6C1" d="M255.598,286.09c0-2.161-0.562-3.804-1.683-4.938c-1.123-1.134-2.778-1.696-4.952-1.696
		c-2.145,0-3.777,0.567-4.911,1.71c-1.134,1.141-1.701,2.783-1.701,4.925c0,2.124,0.567,3.743,1.701,4.856
		c1.134,1.116,2.766,1.674,4.911,1.674c2.161,0,3.807-0.558,4.936-1.674C255.034,289.833,255.598,288.214,255.598,286.09z"/>
	<path fill="#F0F0CB" d="M221.672,283.223c-1.344-2.355-3.159-3.53-5.443-3.53c-2.49,0-4.353,1.328-5.588,4.008
		c-1.228,2.668-1.843,6.749-1.843,12.234c0,0.125,0.012,0.238,0.014,0.361h4.66L221.672,283.223z"/>
	<path fill="#E6E6C1" d="M221.672,283.223c-1.344-2.355-3.159-3.53-5.443-3.53c-2.49,0-4.353,1.328-5.588,4.008
		c-1.228,2.668-1.843,6.749-1.843,12.234c0,0.125,0.012,0.238,0.014,0.361h4.66L221.672,283.223z"/>
	<path fill="#D86D50" d="M225.826,280.622c-2.165-3.452-5.363-5.178-9.598-5.178c-4.228,0-7.421,1.726-9.58,5.178
		c-2.161,3.448-3.237,8.555-3.237,15.313c0,0.124,0.007,0.238,0.007,0.361h5.393c-0.002-0.124-0.014-0.236-0.014-0.361
		c0-5.485,0.615-9.566,1.843-12.234c1.235-2.68,3.098-4.008,5.588-4.008c2.284,0,4.099,1.175,5.443,3.53l-8.201,13.073h4.403
		l5.286-8.272c0.354,2.357,0.528,4.991,0.528,7.911c0,0.128-0.009,0.235-0.011,0.361h5.398c0-0.124,0.007-0.238,0.007-0.361
		C229.082,289.177,227.994,284.069,225.826,280.622z"/>
	<path opacity="0.28" fill="#66AD9E" d="M225.826,280.622c-2.165-3.452-5.363-5.178-9.598-5.178c-4.228,0-7.421,1.726-9.58,5.178
		c-2.161,3.448-3.237,8.555-3.237,15.313c0,0.124,0.007,0.238,0.007,0.361h5.393c-0.002-0.124-0.014-0.236-0.014-0.361
		c0-5.485,0.615-9.566,1.843-12.234c1.235-2.68,3.098-4.008,5.588-4.008c2.284,0,4.099,1.175,5.443,3.53l-8.201,13.073h4.403
		l5.286-8.272c0.354,2.357,0.528,4.991,0.528,7.911c0,0.128-0.009,0.235-0.011,0.361h5.398c0-0.124,0.007-0.238,0.007-0.361
		C229.082,289.177,227.994,284.069,225.826,280.622z"/>
	<path fill="#D86D50" d="M259.009,291.344c1.283-1.594,1.927-3.512,1.927-5.757c0-3.155-1.072-5.656-3.212-7.503
		c-2.143-1.848-5.062-2.771-8.761-2.771c-3.681,0-6.591,0.923-8.736,2.771c-2.14,1.847-3.21,4.348-3.21,7.503
		c0,2.245,0.643,4.163,1.925,5.757c1.281,1.593,3.066,2.682,5.348,3.267c-1.566,0.345-2.892,0.924-4.023,1.685h17.431
		c-1.137-0.761-2.462-1.34-4.033-1.685C255.948,294.026,257.731,292.938,259.009,291.344z M244.053,290.946
		c-1.134-1.113-1.701-2.732-1.701-4.856c0-2.142,0.567-3.784,1.701-4.925c1.134-1.143,2.766-1.71,4.911-1.71
		c2.174,0,3.83,0.562,4.952,1.696c1.12,1.134,1.683,2.778,1.683,4.938c0,2.124-0.564,3.743-1.699,4.856
		c-1.129,1.116-2.775,1.674-4.936,1.674C246.819,292.62,245.187,292.062,244.053,290.946z"/>
	<path opacity="0.28" fill="#66AD9E" d="M259.009,291.344c1.283-1.594,1.927-3.512,1.927-5.757c0-3.155-1.072-5.656-3.212-7.503
		c-2.143-1.848-5.062-2.771-8.761-2.771c-3.681,0-6.591,0.923-8.736,2.771c-2.14,1.847-3.21,4.348-3.21,7.503
		c0,2.245,0.643,4.163,1.925,5.757c1.281,1.593,3.066,2.682,5.348,3.267c-1.566,0.345-2.892,0.924-4.023,1.685h17.431
		c-1.137-0.761-2.462-1.34-4.033-1.685C255.948,294.026,257.731,292.938,259.009,291.344z M244.053,290.946
		c-1.134-1.113-1.701-2.732-1.701-4.856c0-2.142,0.567-3.784,1.701-4.925c1.134-1.143,2.766-1.71,4.911-1.71
		c2.174,0,3.83,0.562,4.952,1.696c1.12,1.134,1.683,2.778,1.683,4.938c0,2.124-0.564,3.743-1.699,4.856
		c-1.129,1.116-2.775,1.674-4.936,1.674C246.819,292.62,245.187,292.062,244.053,290.946z"/>
	<path fill="#F0F0CB" d="M200.357,340.879h67.086c6.502,0,11.765-5.268,11.765-11.768v-32.815h-21.511
		c0.779,0.523,1.486,1.12,2.058,1.843c1.408,1.77,2.11,4.065,2.11,6.876c0,3.576-1.141,6.37-3.425,8.391
		c-2.284,2.013-5.441,3.023-9.477,3.023c-4.033,0-7.188-1-9.463-3.009c-2.275-2.013-3.414-4.795-3.414-8.35
		c0-2.835,0.707-5.138,2.113-6.918c0.574-0.727,1.28-1.329,2.067-1.856h-11.191c-0.039,6.583-1.121,11.571-3.249,14.957
		c-2.165,3.452-5.363,5.177-9.598,5.177c-4.228,0-7.421-1.725-9.58-5.177c-2.122-3.386-3.191-8.374-3.23-14.957h-14.827v32.815
		C188.592,335.611,193.859,340.879,200.357,340.879z"/>
	<path opacity="0.41" fill="#F0F0CB" d="M200.357,340.879h67.086c6.502,0,11.765-5.268,11.765-11.768v-32.815h-21.511
		c0.779,0.523,1.486,1.12,2.058,1.843c1.408,1.77,2.11,4.065,2.11,6.876c0,3.576-1.141,6.37-3.425,8.391
		c-2.284,2.013-5.441,3.023-9.477,3.023c-4.033,0-7.188-1-9.463-3.009c-2.275-2.013-3.414-4.795-3.414-8.35
		c0-2.835,0.707-5.138,2.113-6.918c0.574-0.727,1.28-1.329,2.067-1.856h-11.191c-0.039,6.583-1.121,11.571-3.249,14.957
		c-2.165,3.452-5.363,5.177-9.598,5.177c-4.228,0-7.421-1.725-9.58-5.177c-2.122-3.386-3.191-8.374-3.23-14.957h-14.827v32.815
		C188.592,335.611,193.859,340.879,200.357,340.879z"/>
	<path fill="#D2D2AD" d="M200.357,340.879h67.086c6.502,0,11.765-5.268,11.765-11.768v-32.815h-21.511
		c0.779,0.523,1.486,1.12,2.058,1.843c1.408,1.77,2.11,4.065,2.11,6.876c0,3.576-1.141,6.37-3.425,8.391
		c-2.284,2.013-5.441,3.023-9.477,3.023c-4.033,0-7.188-1-9.463-3.009c-2.275-2.013-3.414-4.795-3.414-8.35
		c0-2.835,0.707-5.138,2.113-6.918c0.574-0.727,1.28-1.329,2.067-1.856h-11.191c-0.039,6.583-1.121,11.571-3.249,14.957
		c-2.165,3.452-5.363,5.177-9.598,5.177c-4.228,0-7.421-1.725-9.58-5.177c-2.122-3.386-3.191-8.374-3.23-14.957h-14.827v32.815
		C188.592,335.611,193.859,340.879,200.357,340.879z"/>
	<path fill="#F0F0CB" d="M216.229,312.188c2.515,0,4.387-1.343,5.617-4.011c1.198-2.61,1.804-6.589,1.832-11.881h-5.803
		l-7.35,11.506C211.85,310.725,213.755,312.188,216.229,312.188z"/>
	<path opacity="0.41" fill="#F0F0CB" d="M216.229,312.188c2.515,0,4.387-1.343,5.617-4.011c1.198-2.61,1.804-6.589,1.832-11.881
		h-5.803l-7.35,11.506C211.85,310.725,213.755,312.188,216.229,312.188z"/>
	<path fill="#D2D2AD" d="M216.229,312.188c2.515,0,4.387-1.343,5.617-4.011c1.198-2.61,1.804-6.589,1.832-11.881h-5.803
		l-7.35,11.506C211.85,310.725,213.755,312.188,216.229,312.188z"/>
	<path fill="#F0F0CB" d="M243.456,310.204c1.319,1.355,3.153,2.032,5.508,2.032c2.408,0,4.262-0.668,5.56-2.003
		c1.303-1.34,1.953-3.242,1.953-5.725c0-2.419-0.656-4.308-1.978-5.652c-1.319-1.347-3.164-2.017-5.535-2.017
		c-2.392,0-4.234,0.667-5.535,2.003c-1.301,1.335-1.955,3.223-1.955,5.666C241.474,306.952,242.137,308.853,243.456,310.204z"/>
	<path opacity="0.41" fill="#F0F0CB" d="M243.456,310.204c1.319,1.355,3.153,2.032,5.508,2.032c2.408,0,4.262-0.668,5.56-2.003
		c1.303-1.34,1.953-3.242,1.953-5.725c0-2.419-0.656-4.308-1.978-5.652c-1.319-1.347-3.164-2.017-5.535-2.017
		c-2.392,0-4.234,0.667-5.535,2.003c-1.301,1.335-1.955,3.223-1.955,5.666C241.474,306.952,242.137,308.853,243.456,310.204z"/>
	<path fill="#D2D2AD" d="M243.456,310.204c1.319,1.355,3.153,2.032,5.508,2.032c2.408,0,4.262-0.668,5.56-2.003
		c1.303-1.34,1.953-3.242,1.953-5.725c0-2.419-0.656-4.308-1.978-5.652c-1.319-1.347-3.164-2.017-5.535-2.017
		c-2.392,0-4.234,0.667-5.535,2.003c-1.301,1.335-1.955,3.223-1.955,5.666C241.474,306.952,242.137,308.853,243.456,310.204z"/>
	<path fill="#F0F0CB" d="M213.471,296.296h-4.66c0.014,2.357,0.172,4.58,0.489,6.646L213.471,296.296z"/>
	<path opacity="0.41" fill="#F0F0CB" d="M213.471,296.296h-4.66c0.014,2.357,0.172,4.58,0.489,6.646L213.471,296.296z"/>
	<path fill="#D2D2AD" d="M213.471,296.296h-4.66c0.014,2.357,0.172,4.58,0.489,6.646L213.471,296.296z"/>
	<path fill="#D86D50" d="M221.846,308.178c-1.23,2.668-3.103,4.011-5.617,4.011c-2.474,0-4.378-1.464-5.704-4.386l7.35-11.506
		h-4.403l-4.17,6.646c-0.317-2.066-0.475-4.289-0.489-6.646h-5.393c0.039,6.583,1.109,11.571,3.23,14.957
		c2.158,3.452,5.352,5.177,9.58,5.177c4.234,0,7.433-1.725,9.598-5.177c2.128-3.386,3.21-8.374,3.249-14.957h-5.398
		C223.65,301.589,223.044,305.567,221.846,308.178z"/>
	<path opacity="0.41" fill="#F0F0CB" d="M221.846,308.178c-1.23,2.668-3.103,4.011-5.617,4.011c-2.474,0-4.378-1.464-5.704-4.386
		l7.35-11.506h-4.403l-4.17,6.646c-0.317-2.066-0.475-4.289-0.489-6.646h-5.393c0.039,6.583,1.109,11.571,3.23,14.957
		c2.158,3.452,5.352,5.177,9.58,5.177c4.234,0,7.433-1.725,9.598-5.177c2.128-3.386,3.21-8.374,3.249-14.957h-5.398
		C223.65,301.589,223.044,305.567,221.846,308.178z"/>
	<path opacity="0.28" fill="#66AD9E" d="M221.846,308.178c-1.23,2.668-3.103,4.011-5.617,4.011c-2.474,0-4.378-1.464-5.704-4.386
		l7.35-11.506h-4.403l-4.17,6.646c-0.317-2.066-0.475-4.289-0.489-6.646h-5.393c0.039,6.583,1.109,11.571,3.23,14.957
		c2.158,3.452,5.352,5.177,9.58,5.177c4.234,0,7.433-1.725,9.598-5.177c2.128-3.386,3.21-8.374,3.249-14.957h-5.398
		C223.65,301.589,223.044,305.567,221.846,308.178z"/>
	<path fill="#D86D50" d="M238.2,298.153c-1.406,1.781-2.113,4.083-2.113,6.918c0,3.555,1.139,6.337,3.414,8.35
		c2.275,2.009,5.43,3.009,9.463,3.009c4.035,0,7.193-1.011,9.477-3.023c2.284-2.021,3.425-4.814,3.425-8.391
		c0-2.812-0.702-5.107-2.11-6.876c-0.572-0.723-1.278-1.319-2.058-1.843h-17.431C239.48,296.824,238.773,297.426,238.2,298.153z
		 M248.963,296.84c2.371,0,4.216,0.67,5.535,2.017c1.321,1.344,1.978,3.233,1.978,5.652c0,2.482-0.649,4.385-1.953,5.725
		c-1.298,1.335-3.152,2.003-5.56,2.003c-2.355,0-4.188-0.677-5.508-2.032c-1.319-1.352-1.982-3.252-1.982-5.695
		c0-2.442,0.654-4.331,1.955-5.666C244.729,297.508,246.572,296.84,248.963,296.84z"/>
	<path opacity="0.41" fill="#F0F0CB" d="M238.2,298.153c-1.406,1.781-2.113,4.083-2.113,6.918c0,3.555,1.139,6.337,3.414,8.35
		c2.275,2.009,5.43,3.009,9.463,3.009c4.035,0,7.193-1.011,9.477-3.023c2.284-2.021,3.425-4.814,3.425-8.391
		c0-2.812-0.702-5.107-2.11-6.876c-0.572-0.723-1.278-1.319-2.058-1.843h-17.431C239.48,296.824,238.773,297.426,238.2,298.153z
		 M248.963,296.84c2.371,0,4.216,0.67,5.535,2.017c1.321,1.344,1.978,3.233,1.978,5.652c0,2.482-0.649,4.385-1.953,5.725
		c-1.298,1.335-3.152,2.003-5.56,2.003c-2.355,0-4.188-0.677-5.508-2.032c-1.319-1.352-1.982-3.252-1.982-5.695
		c0-2.442,0.654-4.331,1.955-5.666C244.729,297.508,246.572,296.84,248.963,296.84z"/>
	<path opacity="0.28" fill="#66AD9E" d="M238.2,298.153c-1.406,1.781-2.113,4.083-2.113,6.918c0,3.555,1.139,6.337,3.414,8.35
		c2.275,2.009,5.43,3.009,9.463,3.009c4.035,0,7.193-1.011,9.477-3.023c2.284-2.021,3.425-4.814,3.425-8.391
		c0-2.812-0.702-5.107-2.11-6.876c-0.572-0.723-1.278-1.319-2.058-1.843h-17.431C239.48,296.824,238.773,297.426,238.2,298.153z
		 M248.963,296.84c2.371,0,4.216,0.67,5.535,2.017c1.321,1.344,1.978,3.233,1.978,5.652c0,2.482-0.649,4.385-1.953,5.725
		c-1.298,1.335-3.152,2.003-5.56,2.003c-2.355,0-4.188-0.677-5.508-2.032c-1.319-1.352-1.982-3.252-1.982-5.695
		c0-2.442,0.654-4.331,1.955-5.666C244.729,297.508,246.572,296.84,248.963,296.84z"/>
</g>
</svg>
