<?xml version="1.0" encoding="utf-8"?>
<!-- Generator: Adobe Illustrator 15.0.0, SVG Export Plug-In . SVG Version: 6.00 Build 0)  -->
<!DOCTYPE svg PUBLIC "-//W3C//DTD SVG 1.1//EN" "http://www.w3.org/Graphics/SVG/1.1/DTD/svg11.dtd">
<svg version="1.1" id="Capa_1" xmlns="http://www.w3.org/2000/svg" xmlns:xlink="http://www.w3.org/1999/xlink" x="0px" y="0px"
	 width="600px" height="600px" viewBox="0 0 600 600" enable-background="new 0 0 600 600" xml:space="preserve">
<g>
	<path fill="#F0F0CB" d="M300,50c138.067,0,250,111.93,250,250c0,138.07-111.933,250-250,250C161.93,550,50,438.07,50,300
		C50,161.93,161.93,50,300,50z"/>
	<path fill="#40424F" d="M461.673,300c0-89.291-72.384-161.673-161.673-161.673c-89.291,0-161.673,72.382-161.673,161.673
		c0,89.286,72.382,161.673,161.673,161.673C389.289,461.673,461.673,389.286,461.673,300z"/>
	<circle fill="#C2C63D" cx="300" cy="300" r="130.837"/>
	<path fill="#B8BC33" d="M392.263,207.446c-51.094-51.094-133.933-51.092-185.032,0c-51.091,51.096-51.091,133.938,0.002,185.033
		L392.263,207.446z"/>
	<path fill="#F0F0CB" d="M304.681,295.319c0,2.583-2.098,4.681-4.681,4.681l0,0c-2.585,0-4.683-2.098-4.683-4.681v-85.963
		c0-2.585,2.097-4.681,4.683-4.681l0,0c2.583,0,4.681,2.095,4.681,4.681V295.319z"/>
	<path fill="#F0F0CB" d="M299.995,306.62c-1.824-1.826-1.824-4.791,0.002-6.62l0,0c1.83-1.829,4.793-1.829,6.623,0l54.496,54.5
		c1.829,1.824,1.829,4.789,0,6.618l0,0c-1.832,1.827-4.792,1.827-6.621,0L299.995,306.62z"/>
	<circle fill="#D86D50" cx="300" cy="300" r="10.945"/>
</g>
</svg>
