<?xml version="1.0" encoding="utf-8"?>
<!-- Generator: Adobe Illustrator 15.0.0, SVG Export Plug-In . SVG Version: 6.00 Build 0)  -->
<!DOCTYPE svg PUBLIC "-//W3C//DTD SVG 1.1//EN" "http://www.w3.org/Graphics/SVG/1.1/DTD/svg11.dtd">
<svg version="1.1" id="Capa_1" xmlns="http://www.w3.org/2000/svg" xmlns:xlink="http://www.w3.org/1999/xlink" x="0px" y="0px"
	 width="600px" height="600px" viewBox="0 0 600 600" enable-background="new 0 0 600 600" xml:space="preserve">
<g>
	<path fill="#F0F0CB" d="M300,50c138.072,0,250,111.928,250,250S438.072,550,300,550C161.926,550,50,438.072,50,300
		S161.926,50,300,50z"/>
	<path fill="#40424F" d="M393.021,406.697l-64.68-149.999l-0.023-0.058l-3.988-9.249c-0.41-0.951-2.324-5.382-2.891-6.699
		c-6.967-16.157-26.011-33.504-44.245-37.458l-10.318-23.925l-4.333,1.867l-13.821-32.053l-7.67,11.821l-8.384,12.919l7.344,17.031
		l-4.333,1.867l10.318,23.923c-9.64,15.973-10.099,41.735-3.133,57.892c0.569,1.317,2.48,5.75,2.888,6.699l3.988,9.249
		l10.989,25.489h0.002l53.715,124.566c5.225,12.123,19.297,17.717,31.424,12.492l18.986-8.188l15.678-6.762
		C392.66,432.895,398.25,418.822,393.021,406.697z"/>
	<g>
		<polygon fill="#C2C63D" points="241.052,160.946 232.668,173.865 240.012,190.896 251.878,185.778 		"/>
		<path fill="#40424F" d="M260.732,316.014l53.715,124.566c5.225,12.123,19.297,17.717,31.424,12.492l18.986-8.188l-63.779-146.27
			L260.732,316.014z"/>
		
			<rect x="241.358" y="303.268" transform="matrix(-0.3959 -0.9183 0.9183 -0.3959 77.7991 657.718)" fill="#C2C63D" width="27.757" height="0.002"/>
		<polygon fill="#C2C63D" points="300.123,296.419 289.984,273.172 253.146,289.056 249.741,290.525 260.732,316.014 
			301.078,298.615 		"/>
		<path fill="#40424F" d="M276.402,242.024l-1.124-2.578l-15.36-35.227l-4.389-10.062l-3.652-8.379l-11.866,5.118l-4.333,1.867
			l10.318,23.923c-9.64,15.973-10.099,41.735-3.133,57.892c0.569,1.317,2.48,5.75,2.888,6.699l3.988,9.249l3.405-1.469
			l36.838-15.884L276.402,242.024z"/>
		<polygon fill="#B8BC33" points="262.543,181.177 248.722,149.125 241.052,160.946 251.878,185.778 		"/>
		<path fill="#363845" d="M393.021,406.697l-64.68-149.999l10.963,25.431l-38.227,16.485l63.779,146.27l15.678-6.762
			C392.66,432.895,398.25,418.822,393.021,406.697z"/>
		<path fill="#40424F" d="M324.912,258.108l3.406-1.468l-3.988-9.249c-0.41-0.951-0.893-1.844-1.406-2.713
			C324.34,249.116,324.967,253.641,324.912,258.108z"/>
		<polygon fill="#C2C63D" points="328.318,256.64 328.318,256.64 328.342,256.698 		"/>
		<polygon opacity="0.26" fill="#C2C63D" points="328.318,256.64 328.318,256.64 328.342,256.698 		"/>
		<polygon fill="#B8BC33" points="328.342,256.698 328.318,256.64 324.912,258.108 289.984,273.172 300.123,296.419 
			301.078,298.615 339.305,282.129 		"/>
		<path fill="#363845" d="M324.33,247.392c-0.41-0.951-2.324-5.382-2.891-6.699c-6.967-16.157-26.011-33.504-44.245-37.458
			l-10.318-23.925l-4.333,1.867l-10.666,4.601l3.652,8.379l4.389,10.062l15.36,35.227l1.124,2.578l13.582,31.148l34.928-15.064
			l3.406-1.468L324.33,247.392z"/>
	</g>
</g>
</svg>
