<?xml version="1.0" encoding="utf-8"?>
<!-- Generator: Adobe Illustrator 15.0.0, SVG Export Plug-In . SVG Version: 6.00 Build 0)  -->
<!DOCTYPE svg PUBLIC "-//W3C//DTD SVG 1.1//EN" "http://www.w3.org/Graphics/SVG/1.1/DTD/svg11.dtd">
<svg version="1.1" id="Capa_1" xmlns="http://www.w3.org/2000/svg" xmlns:xlink="http://www.w3.org/1999/xlink" x="0px" y="0px"
	 width="600px" height="600px" viewBox="0 0 600 600" enable-background="new 0 0 600 600" xml:space="preserve">
<g>
	<circle fill="#66AD9E" cx="300" cy="300" r="250"/>
	<path fill="#40424F" d="M449.895,189.821c0-11.5-9.32-20.821-20.821-20.821H170.927c-11.498,0-20.822,9.321-20.822,20.821v136.016
		h299.79V189.821z"/>
	<circle fill="#F0F0CB" cx="300" cy="175.236" r="2.786"/>
	<path fill="#F0F0CB" d="M150.105,325.837v20.819c0,11.496,9.324,20.816,20.822,20.816h89.124v45.832h-26.665v17.693h133.23v-17.693
		h-26.664v-45.832h89.121c11.501,0,20.821-9.32,20.821-20.816v-20.819H150.105z"/>
	<path fill="#40424F" d="M305.574,346.656c0-3.084-2.496-5.576-5.574-5.576c-3.083,0-5.577,2.492-5.577,5.576
		c0,3.075,2.494,5.572,5.577,5.572C303.078,352.229,305.574,349.731,305.574,346.656z"/>
	<g>
		<polygon fill="#D86D50" points="305.85,180.812 278.507,180.812 254.793,180.812 228.986,180.812 164.301,180.812 
			164.301,228.227 164.301,247.144 164.301,264.524 164.301,283.565 164.301,315.578 435.699,315.578 435.699,180.812 		"/>
	</g>
	<g>
		<polygon fill="#D86D50" points="305.85,180.812 278.507,180.812 254.793,180.812 228.986,180.812 164.301,180.812 
			164.301,228.227 164.301,247.144 164.301,264.524 164.301,283.565 164.301,315.578 435.699,315.578 435.699,180.812 		"/>
	</g>
	<polygon fill="#CE6346" points="278.507,180.812 254.793,180.812 228.986,180.812 164.301,180.812 164.301,228.227 
		164.301,247.144 164.301,264.524 164.301,283.565 164.301,315.578 164.301,315.578 435.699,180.812 	"/>
</g>
</svg>
