<?xml version="1.0" encoding="utf-8"?>
<!-- Generator: Adobe Illustrator 15.0.0, SVG Export Plug-In . SVG Version: 6.00 Build 0)  -->
<!DOCTYPE svg PUBLIC "-//W3C//DTD SVG 1.1//EN" "http://www.w3.org/Graphics/SVG/1.1/DTD/svg11.dtd">
<svg version="1.1" id="Capa_1" xmlns="http://www.w3.org/2000/svg" xmlns:xlink="http://www.w3.org/1999/xlink" x="0px" y="0px"
	 width="600px" height="600px" viewBox="0 0 600 600" enable-background="new 0 0 600 600" xml:space="preserve">
<g>
	<polygon fill="#F0F0CB" points="296.167,309.5 292.68,340.833 297.229,361.893 302.759,361.89 314.167,337.833 304.834,309.5 	"/>
	<g>
		<path fill="#C2C63D" d="M300,50c138.065,0,250,111.918,250,249.993C550,438.066,438.065,550,300,550
			C161.928,550,50,438.066,50,299.993C50,161.918,161.928,50,300,50z"/>
		<path fill="#E6E6C1" d="M398.592,306.564c1.711-0.983,2.759-2.81,2.759-4.787v-28.165l14.084-24.395
			c0.986-1.708,0.986-3.815,0-5.524l-14.084-24.396v-28.166c0-1.978-1.048-3.799-2.759-4.789l-24.394-14.087l-14.082-24.389
			c-0.989-1.708-2.812-2.761-4.788-2.761h-28.171l-24.395-14.074c-0.853-0.494-1.805-0.739-2.759-0.739l0,0l0,0
			c-0.001,0-0.001,0-0.001,0l0,0c-0.953,0-1.908,0.245-2.771,0.739l-24.39,14.074h-28.165c-1.975,0-3.799,1.055-4.785,2.761
			l-14.084,24.389l-24.393,14.087c-1.713,0.99-2.769,2.812-2.769,4.789v28.166l-14.081,24.396c-0.988,1.709-0.988,3.816,0,5.526
			l14.081,24.396v28.164c0,1.979,1.058,3.805,2.769,4.788l24.393,14.082l0.173,0.299l-2.091,6.442l0.002,0.001l-35.866,110.523
			c-0.581,1.797-0.117,3.77,1.207,5.13c1.325,1.35,3.293,1.857,5.099,1.319l44.066-13.26l27.875,36.6
			c0.645,0.842,1.514,1.442,2.485,1.758c0.769,0.25,1.594,0.314,2.421,0.178c1.868-0.319,3.403-1.646,3.986-3.449l24.835-76.529
			l24.832,76.528c0.583,1.8,2.118,3.129,3.984,3.449c0.83,0.137,1.656,0.073,2.432-0.178c0.963-0.315,1.833-0.916,2.474-1.758
			l27.889-36.6l44.053,13.26c1.816,0.539,3.783,0.031,5.109-1.318c1.325-1.36,1.78-3.333,1.197-5.131l-35.855-110.525l0.002-0.001
			l-2.091-6.443l0.172-0.298L398.592,306.564z M287.381,164.52c2.744-0.419,5.532-0.704,8.357-0.847
			C292.913,163.816,290.125,164.101,287.381,164.52c-39.787,6.08-70.27,40.448-70.27,81.935
			C217.111,204.967,247.594,170.599,287.381,164.52z M223.626,278.719c2.694,6.37,6.171,12.326,10.295,17.764l0,0
			C229.797,291.045,226.32,285.089,223.626,278.719z M355.33,355.652h-28.172l-19.839,11.457l0.001-0.001l19.84-11.459h28.171
			c1.481,0,2.878-0.593,3.9-1.609C358.209,355.058,356.812,355.652,355.33,355.652z"/>
		<path fill="#363845" d="M333.888,268.736L256.425,243.6c-2.675-0.87-5.547,0.598-6.406,3.268l-61.997,191.047
			c-0.581,1.797-0.117,3.77,1.207,5.13c1.325,1.35,3.293,1.857,5.099,1.319l44.066-13.26l27.875,36.6
			c0.644,0.842,1.513,1.442,2.485,1.758c0.769,0.25,1.594,0.314,2.421,0.178c1.868-0.319,3.403-1.646,3.986-3.449l61.996-191.042
			C338.025,272.475,336.559,269.599,333.888,268.736z"/>
		<path fill="#40424F" d="M360.113,352.891c-0.988,1.705-2.812,2.762-4.787,2.762h-28.172L302.76,369.74
			c-0.852,0.494-1.805,0.737-2.76,0.737c-0.953,0-1.909-0.241-2.771-0.737l-4.549-2.631l32.149,99.08
			c0.583,1.8,2.118,3.129,3.984,3.449c0.83,0.137,1.656,0.073,2.432-0.178c0.963-0.315,1.833-0.916,2.474-1.758l27.889-36.6
			l44.053,13.26c1.816,0.539,3.783,0.031,5.109-1.318c1.325-1.36,1.78-3.333,1.197-5.131l-35.855-110.525l-1.917,1.108
			L360.113,352.891z"/>
		<path opacity="0.18" fill="#40424F" enable-background="new    " d="M250.019,246.868l-26.132,80.523l1.918,1.107l14.083,24.393
			c0.986,1.707,2.811,2.762,4.785,2.762h28.165l19.841,11.457l-29.839-91.96c-0.868-2.673,0.592-5.549,3.27-6.411l33.889-11
			L256.426,243.6C253.75,242.73,250.879,244.196,250.019,246.868z"/>
		<path fill="#2C2E3B" d="M250.019,246.868l-26.132,80.523l1.918,1.107l14.083,24.393c0.986,1.707,2.811,2.762,4.785,2.762h28.165
			l19.841,11.457l-29.839-91.96c-0.868-2.673,0.592-5.549,3.27-6.411l33.889-11L256.426,243.6
			C253.75,242.73,250.879,244.196,250.019,246.868z"/>
		<path fill="#40424F" d="M343.564,243.599l-77.452,25.137c-2.678,0.862-4.138,3.738-3.271,6.411l29.839,91.961l4.549,2.631
			c0.861,0.496,1.817,0.738,2.771,0.738c0.955,0,1.908-0.242,2.761-0.738l24.395-14.089h28.171c1.976,0,3.799-1.055,4.788-2.761
			l14.082-24.393l1.916-1.108l-26.129-80.522C349.111,244.196,346.24,242.73,343.564,243.599z"/>
		<path fill="#363845" d="M353.984,275.364l-77.451,25.137c-2.678,0.862-4.138,3.738-3.271,6.411l19.418,60.195l4.549,2.631
			c0.861,0.496,1.817,0.738,2.771,0.738c0.955,0,1.908-0.242,2.761-0.738l24.395-14.089h28.171c1.976,0,3.799-1.055,4.788-2.761
			l14.082-24.393l1.916-1.108l-15.709-48.757C359.531,275.962,356.66,274.496,353.984,275.364z"/>
		<path fill="#F0F0CB" d="M415.431,243.694l-14.084-24.396v-28.166c0-1.978-1.048-3.799-2.759-4.789l-24.394-14.087l-14.082-24.389
			c-0.989-1.708-2.812-2.761-4.788-2.761h-28.171l-24.395-14.074c-0.853-0.494-1.806-0.739-2.76-0.739v33.272
			c45.777,0,82.883,37.111,82.883,82.89c0,45.777-37.105,82.891-82.883,82.891v33.289c0.954,0,1.907-0.247,2.76-0.745l24.395-14.081
			h28.171c1.976,0,3.799-1.053,4.788-2.764l14.082-24.398l24.394-14.082c1.711-0.983,2.759-2.81,2.759-4.787v-28.165l14.084-24.395
			C416.417,247.51,416.417,245.403,415.431,243.694z"/>
		<path fill="#F0F0CB" d="M353.965,246.455c0,29.807-24.161,53.971-53.965,53.971v28.92c45.777,0,82.883-37.114,82.883-82.891
			c0-45.78-37.105-82.89-82.883-82.89v28.918C329.804,192.483,353.965,216.645,353.965,246.455z"/>
		<path fill="#E6E6C1" d="M353.965,246.455c0,29.807-24.161,53.971-53.965,53.971v28.92c45.777,0,82.883-37.114,82.883-82.891
			c0-45.78-37.105-82.89-82.883-82.89v28.918C329.804,192.483,353.965,216.645,353.965,246.455z"/>
		<path fill="#F0F0CB" d="M353.965,246.455c0-29.81-24.161-53.972-53.965-53.972v107.942
			C329.804,300.426,353.965,276.262,353.965,246.455z"/>
		<path fill="#E6E6C1" d="M217.107,246.455c0-45.78,37.115-82.89,82.893-82.89v-33.272c-0.953,0-1.909,0.245-2.771,0.739
			l-24.39,14.074h-28.165c-1.975,0-3.799,1.055-4.785,2.761l-14.083,24.389l-24.393,14.087c-1.712,0.99-2.769,2.812-2.769,4.789
			v28.166l-14.081,24.396c-0.989,1.709-0.989,3.816,0,5.526l14.081,24.396v28.164c0,1.979,1.058,3.805,2.769,4.788l24.393,14.082
			l14.083,24.398c0.986,1.711,2.811,2.764,4.785,2.764h28.165l24.39,14.081c0.862,0.496,1.818,0.744,2.771,0.744v-33.289
			C254.223,329.346,217.107,292.232,217.107,246.455z"/>
		<path fill="#F0F0CB" d="M300,192.483c-29.812,0-53.974,24.162-53.974,53.972c0,29.807,24.164,53.971,53.974,53.971
			c29.804,0,53.965-24.164,53.965-53.971C353.965,216.645,329.804,192.483,300,192.483z"/>
		<path fill="#F0F0CB" d="M217.107,246.455c0,45.777,37.115,82.891,82.893,82.891v-28.92c-29.812,0-53.974-24.165-53.974-53.971
			c0-29.81,24.164-53.972,53.974-53.972v-28.918C254.223,163.565,217.107,200.676,217.107,246.455z"/>
		<path fill="#DCDCB7" d="M217.107,246.455c0,45.777,37.115,82.891,82.893,82.891v-28.92c-29.812,0-53.974-24.165-53.974-53.971
			c0-29.81,24.164-53.972,53.974-53.972v-28.918C254.223,163.565,217.107,200.676,217.107,246.455z"/>
		<path fill="#E6E6C1" d="M246.026,246.455c0,29.807,24.164,53.971,53.974,53.971V192.483
			C270.188,192.483,246.026,216.645,246.026,246.455z"/>
	</g>
</g>
</svg>
