<?xml version='1.0' encoding='iso-8859-1'?>
<svg version="1.1" xmlns="http://www.w3.org/2000/svg" viewBox="0 0 463.034 463.034" xmlns:xlink="http://www.w3.org/1999/xlink" enable-background="new 0 0 463.034 463.034">
  <g>
    <g>
      <path d="m401.494,236.593l-27.313-54.627c-2.424-4.848-3.174-10.445-2.11-15.761l5.847-29.234c0.097-0.484 0.146-0.977 0.146-1.471 0-74.715-60.785-135.5-135.5-135.5h-32c-83.538,0-151.5,67.962-151.5,151.5 0,41.804 10.038,76.379 19.746,109.816 9.958,34.297 20.254,69.763 20.254,114.184 0,2.613 1.36,5.037 3.589,6.399l128.458,78.502c2.87,1.754 6.046,2.633 9.229,2.633 2.967,0 5.94-0.765 8.674-2.298 5.667-3.178 9.05-8.954 9.05-15.451v-29.785c0-22.332 18.168-40.5 40.5-40.5h26.556c20.38,0 37.671-15.91 39.364-36.22l5.17-62.038 19.551-7.821c6.084-2.434 10.909-7.342 13.238-13.468 2.327-6.124 1.982-12.999-0.949-18.86zm-13.073,13.53c-0.855,2.248-2.556,3.978-4.789,4.872l-23.855,9.542c-2.637,1.055-4.453,3.51-4.688,6.34l-5.555,66.657c-1.05,12.598-11.774,22.466-24.416,22.466h-26.556c-30.603,0-55.5,24.897-55.5,55.5v29.786c0,1.384-0.869,2.078-1.387,2.368-0.518,0.291-1.564,0.67-2.744-0.051l-124.898-76.327c-0.616-44.551-10.882-79.912-20.819-114.142-9.849-33.922-19.151-65.964-19.151-105.634 0-75.266 61.233-136.5 136.5-136.5h32c66.201,0 120.104,53.659 120.498,119.768l-5.699,28.495c-1.714,8.57-0.505,17.595 3.403,25.411l27.313,54.626c1.076,2.152 1.197,4.575 0.343,6.823z"/>
      <path d="m298.063,113.227v-1.727c0-12.958-10.542-23.5-23.5-23.5h-51.178l2.2-5.867c1.455-3.878-0.511-8.201-4.389-9.656-3.879-1.454-8.202,0.511-9.656,4.389l-4.175,11.134h-52.803c-12.958,0-23.5,10.542-23.5,23.5v64c0,12.958 10.542,23.5 23.5,23.5h59.178l-2.2,5.867c-1.455,3.878 0.511,8.201 4.389,9.656 0.868,0.325 1.757,0.479 2.632,0.479 3.037,0 5.895-1.858 7.023-4.869l4.176-11.133h44.803c12.958,0 23.5-10.542 23.5-23.5v-1.727c9.292-3.137 16-11.936 16-22.273v-16c0-10.337-6.708-19.136-16-22.273zm-143.5,70.773c-4.687,0-8.5-3.813-8.5-8.5v-64c0-4.687 3.813-8.5 8.5-8.5h47.178l-14.2,37.867c-0.864,2.303-0.543,4.883 0.858,6.905s3.705,3.228 6.165,3.228h37.178l-12.375,33h-64.804zm144.5-32.5c0,4.687-3.813,8.5-8.5,8.5-4.142,0-7.5,3.358-7.5,7.5v8c0,4.687-3.813,8.5-8.5,8.5h-39.178l14.2-37.867c0.864-2.303 0.543-4.883-0.858-6.905s-3.705-3.228-6.165-3.228h-37.178l12.375-33h56.803c4.687,0 8.5,3.813 8.5,8.5v8c0,4.142 3.358,7.5 7.5,7.5 4.687,0 8.5,3.813 8.5,8.5v16h0.001z"/>
    </g>
  </g>
</svg>
