<?xml version='1.0' encoding='iso-8859-1'?>
<svg version="1.1" xmlns="http://www.w3.org/2000/svg" viewBox="0 0 463 463" xmlns:xlink="http://www.w3.org/1999/xlink" enable-background="new 0 0 463 463">
  <g>
    <g>
      <path d="m295.5,0h-128c-12.958,0-23.5,10.542-23.5,23.5v416c0,12.958 10.542,23.5 23.5,23.5h128c12.958,0 23.5-10.542 23.5-23.5v-416c0-12.958-10.542-23.5-23.5-23.5zm8.5,439.5c0,4.687-3.813,8.5-8.5,8.5h-128c-4.687,0-8.5-3.813-8.5-8.5v-416c0-4.687 3.813-8.5 8.5-8.5h128c4.687,0 8.5,3.813 8.5,8.5v416z"/>
      <path d="m231.5,328c-21.78,0-39.5,17.72-39.5,39.5s17.72,39.5 39.5,39.5 39.5-17.72 39.5-39.5-17.72-39.5-39.5-39.5zm0,64c-13.509,0-24.5-10.991-24.5-24.5s10.991-24.5 24.5-24.5 24.5,10.991 24.5,24.5-10.991,24.5-24.5,24.5z"/>
      <path d="m271.5,56h-80c-8.547,0-15.5,6.953-15.5,15.5v200c0,8.547 6.953,15.5 15.5,15.5h80c8.547,0 15.5-6.953 15.5-15.5v-200c0-8.547-6.953-15.5-15.5-15.5zm.5,215.5c0,0.276-0.224,0.5-0.5,0.5h-80c-0.276,0-0.5-0.224-0.5-0.5v-200c0-0.276 0.224-0.5 0.5-0.5h80c0.276,0 0.5,0.224 0.5,0.5v200z"/>
      <path d="m247.5,104h-32c-4.142,0-7.5,3.358-7.5,7.5s3.358,7.5 7.5,7.5h32c4.142,0 7.5-3.358 7.5-7.5s-3.358-7.5-7.5-7.5z"/>
      <path d="m247.5,144h-32c-4.142,0-7.5,3.358-7.5,7.5s3.358,7.5 7.5,7.5h32c4.142,0 7.5-3.358 7.5-7.5s-3.358-7.5-7.5-7.5z"/>
      <path d="m247.5,184h-32c-4.142,0-7.5,3.358-7.5,7.5s3.358,7.5 7.5,7.5h32c4.142,0 7.5-3.358 7.5-7.5s-3.358-7.5-7.5-7.5z"/>
      <path d="m247.5,224h-32c-4.142,0-7.5,3.358-7.5,7.5s3.358,7.5 7.5,7.5h32c4.142,0 7.5-3.358 7.5-7.5s-3.358-7.5-7.5-7.5z"/>
    </g>
  </g>
</svg>
