<?xml version='1.0' encoding='iso-8859-1'?>
<svg version="1.1" xmlns="http://www.w3.org/2000/svg" viewBox="0 0 463 463" xmlns:xlink="http://www.w3.org/1999/xlink" enable-background="new 0 0 463 463">
  <g>
    <g>
      <path d="M311.5,0C227.962,0,160,67.963,160,151.5c0,39.076,14.873,74.743,39.252,101.641l-31.417,31.417    C162.961,281.59,157.354,280,151.5,280c-8.417,0-16.327,3.278-22.272,9.228L9.229,409.227C3.278,415.176,0,423.086,0,431.5    s3.278,16.324,9.226,22.27C15.173,459.722,23.083,463,31.5,463s16.327-3.278,22.272-9.228l119.999-119.999    c5.951-5.949,9.229-13.859,9.229-22.273c0-5.854-1.59-11.461-4.558-16.335l31.417-31.417C236.757,288.127,272.424,303,311.5,303    c83.538,0,151.5-67.963,151.5-151.5S395.038,0,311.5,0z M43.163,443.168C40.05,446.284,35.908,448,31.5,448    s-8.55-1.716-11.667-4.836C16.716,440.049,15,435.906,15,431.5s1.716-8.549,4.834-11.665l106.697-106.697l23.331,23.331    L43.163,443.168z M163.166,323.165l-2.697,2.697l-23.331-23.331l2.699-2.699c3.113-3.116,7.255-4.832,11.663-4.832    s8.55,1.716,11.667,4.836c3.117,3.115,4.833,7.258,4.833,11.664S166.284,320.049,163.166,323.165z M311.5,288    C236.234,288,175,226.767,175,151.5S236.234,15,311.5,15S448,76.233,448,151.5S386.766,288,311.5,288z"/>
      <path d="m311.5,32c-65.893,0-119.5,53.607-119.5,119.5s53.607,119.5 119.5,119.5 119.5-53.607 119.5-119.5-53.607-119.5-119.5-119.5zm7.5,223.728v-16.228c0-4.143-3.358-7.5-7.5-7.5s-7.5,3.357-7.5,7.5v16.228c-51.656-3.681-93.047-45.073-96.728-96.728h16.228c4.142,0 7.5-3.357 7.5-7.5s-3.358-7.5-7.5-7.5h-16.228c3.681-51.656 45.072-93.047 96.728-96.728v16.228c0,4.143 3.358,7.5 7.5,7.5s7.5-3.357 7.5-7.5v-16.228c51.66,3.682 93.053,45.079 96.729,96.74-0.077-0.002-0.152-0.011-0.229-0.011h-16c-4.142,0-7.5,3.357-7.5,7.5s3.358,7.5 7.5,7.5h16c0.077,0 0.152-0.009 0.229-0.011-3.676,51.66-45.069,93.057-96.729,96.738z"/>
      <path d="m372.803,100.804c2.929-2.93 2.929-7.678 0-10.607-2.929-2.928-7.678-2.928-10.606,0l-40.258,40.258c-3.147-1.567-6.69-2.454-10.439-2.454-10.336,0-19.128,6.71-22.266,16h-9.734c-4.142,0-7.5,3.357-7.5,7.5s3.358,7.5 7.5,7.5h9.734c0.342,1.012 0.749,1.993 1.219,2.939l-13.11,13.11c-2.929,2.93-2.929,7.678 0,10.607 1.464,1.464 3.384,2.196 5.303,2.196s3.839-0.732 5.303-2.196l13.111-13.111c3.147,1.568 6.691,2.454 10.439,2.454 10.336,0 19.128-6.71 22.266-16h33.735c4.142,0 7.5-3.357 7.5-7.5s-3.358-7.5-7.5-7.5h-33.734c-0.342-1.012-0.749-1.994-1.22-2.939l40.257-40.257zm-61.303,59.196c-4.687,0-8.5-3.813-8.5-8.5s3.813-8.5 8.5-8.5 8.5,3.813 8.5,8.5-3.813,8.5-8.5,8.5z"/>
    </g>
  </g>
</svg>
