<?xml version='1.0' encoding='iso-8859-1'?>
<svg version="1.1" xmlns="http://www.w3.org/2000/svg" viewBox="0 0 463 463" xmlns:xlink="http://www.w3.org/1999/xlink" enable-background="new 0 0 463 463">
  <g>
    <path d="m375.5,168h-16c-12.958,0-23.5,10.542-23.5,23.5 0,10.336 6.71,19.128 16,22.266v33.734c0,7.031-4.428,13.032-10.635,15.404-3.44-8.717-11.941-14.904-21.865-14.904h-64.5v-17h48.5c12.958,0 23.5-10.542 23.5-23.5v-152c0-30.603-24.897-55.5-55.5-55.5h-80c-30.603,0-55.5,24.897-55.5,55.5v152c0,12.958 10.542,23.5 23.5,23.5h48.5v17h-64.5c-9.924,0-18.425,6.187-21.865,14.904-6.207-2.372-10.635-8.373-10.635-15.404v-33.734c9.29-3.138 16-11.93 16-22.266 0-12.958-10.542-23.5-23.5-23.5h-16c-12.958,0-23.5,10.542-23.5,23.5s10.542,23.5 23.5,23.5h8.5v32.5c0,15.146 10.746,27.827 25.014,30.825 2.932,9.639 11.901,16.675 22.486,16.675h64.5v24.5c0,10.336 6.71,19.128 16,22.266v74.234h-64.5c-12.958,0-23.5,10.542-23.5,23.5s10.542,23.5 23.5,23.5 23.5-10.542 23.5-23.5c0-2.997-0.57-5.862-1.597-8.5h100.195c-1.027,2.638-1.597,5.503-1.597,8.5 0,12.958 10.542,23.5 23.5,23.5s23.5-10.542 23.5-23.5-10.543-23.5-23.501-23.5h-64.5v-74.234c9.29-3.138 16-11.93 16-22.266v-24.5h64.5c10.585,0 19.554-7.036 22.486-16.675 14.268-2.998 25.014-15.679 25.014-30.825v-32.5h8.5c12.958,0 23.5-10.542 23.5-23.5s-10.542-23.5-23.5-23.5zm-296.5,23.5c0-4.687 3.813-8.5 8.5-8.5h16c4.687,0 8.5,3.813 8.5,8.5s-3.813,8.5-8.5,8.5h-16c-4.687,0-8.5-3.813-8.5-8.5zm89,248c0,4.687-3.813,8.5-8.5,8.5s-8.5-3.813-8.5-8.5 3.813-8.5 8.5-8.5 8.5,3.813 8.5,8.5zm135.5,8.5c-4.687,0-8.5-3.813-8.5-8.5s3.813-8.5 8.5-8.5 8.5,3.813 8.5,8.5-3.813,8.5-8.5,8.5zm-152.5-240.5v-152c0-22.332 18.168-40.5 40.5-40.5h80c22.332,0 40.5,18.168 40.5,40.5v152c0,4.687-3.813,8.5-8.5,8.5h-144c-4.687,0-8.5-3.813-8.5-8.5zm72,23.5h17v17h-17v-17zm17,88.5c0,4.687-3.813,8.5-8.5,8.5s-8.5-3.813-8.5-8.5v-24.5h17v24.5zm79.5-39.5h-176c-4.687,0-8.5-3.813-8.5-8.5s3.813-8.5 8.5-8.5h176c4.687,0 8.5,3.813 8.5,8.5s-3.813,8.5-8.5,8.5zm56-80h-16c-4.687,0-8.5-3.813-8.5-8.5s3.813-8.5 8.5-8.5h16c4.687,0 8.5,3.813 8.5,8.5s-3.813,8.5-8.5,8.5z"/>
  </g>
</svg>
