<?xml version='1.0' encoding='iso-8859-1'?>
<svg version="1.1" xmlns="http://www.w3.org/2000/svg" viewBox="0 0 455 455" xmlns:xlink="http://www.w3.org/1999/xlink" enable-background="new 0 0 455 455">
  <g>
    <g>
      <path d="m403.5,0h-176c-12.958,0-23.5,10.542-23.5,23.5v80.5h-44.891c-17.715,0-34.151,7.11-46.28,20.021s-18.201,29.759-17.096,47.439l4.27,68.326c0.08,29.568 12.534,56.017 31.997,73.489v11.953l-13.183,19.774-61.71,16.831c-17.138,4.675-29.107,20.345-29.107,38.108v31.559c0,12.958 10.542,23.5 23.5,23.5h272c12.958,0 23.5-10.542 23.5-23.5v-31.559c0-17.764-11.969-33.434-29.106-38.107l-61.711-16.831-13.183-19.774v-11.953c19.463-17.473 31.916-43.921 31.997-73.489l1.049-16.787h127.454c12.958,0 23.5-10.542 23.5-23.5v-176c0-12.958-10.542-23.5-23.5-23.5zm-279.739,134.292c9.264-9.861 21.818-15.292 35.348-15.292h56.781c13.53,0 26.084,5.431 35.348,15.292 9.264,9.861 13.901,22.729 13.058,36.233l-1.411,22.573c-6.35-12.898-12.925-21.505-13.455-22.189-2.057-2.657-5.63-3.624-8.747-2.36-37.671,15.26-108.473,15.451-109.184,15.451-1.68,0-3.312,0.564-4.633,1.603-0.523,0.411-7.453,5.977-14.19,16.482l-1.972-31.559c-0.844-13.505 3.793-26.373 13.057-36.234zm85.043,243.905c-0.001,0-0.001-0.001 0,0l-10.193-10.193 35.279-29.399 8.597,12.896-23.813,35.721c-0.04,0.059-0.131,0.196-0.367,0.22-0.238,0.023-0.353-0.095-0.403-0.145l-9.1-9.1zm-42.61,.003l-9.097,9.097c-0.05,0.05-0.167,0.165-0.403,0.144-0.235-0.023-0.327-0.161-0.367-0.22l-23.813-35.721 8.597-12.896 35.279,29.399-10.19,10.19c-0.002,0.003-0.004,0.005-0.006,0.007zm21.306,36.8c0.629,0 1.249-0.032 1.866-0.081l5.144,25.081h-14.02l5.145-25.081c0.616,0.049 1.236,0.081 1.865,0.081zm8.5-23.5c0,4.687-3.813,8.5-8.5,8.5s-8.5-3.813-8.5-8.5v-4.893l8.5-8.5 8.5,8.5v4.893zm-8.5-33.763l-39.931-33.276c11.979,6.734 25.555,10.539 39.931,10.539s27.952-3.805 39.931-10.538l-39.931,33.275zm-144.5,73.763v-31.559c0-11.018 7.424-20.737 18.054-23.637l59.204-16.147 23.589,35.383c2.586,3.879 6.73,6.367 11.37,6.827 0.516,0.051 1.031,0.076 1.543,0.076 3.136,0 6.166-0.953 8.731-2.713 1.305,3.477 3.41,6.564 6.092,9.038l-6.406,31.232h-66.177v-24.5c0-4.143-3.358-7.5-7.5-7.5s-7.5,3.357-7.5,7.5v24.5h-32.5c-4.687,0-8.5-3.813-8.5-8.5zm289-31.559v31.559c0,4.687-3.813,8.5-8.5,8.5h-32.5v-24.5c0-4.143-3.358-7.5-7.5-7.5s-7.5,3.357-7.5,7.5v24.5h-66.177l-6.406-31.23c2.682-2.474 4.787-5.561 6.092-9.038 2.565,1.76 5.595,2.713 8.731,2.713 0.512,0 1.028-0.025 1.543-0.076 4.64-0.46 8.784-2.948 11.37-6.827l23.589-35.383 59.205,16.147c10.629,2.898 18.053,12.618 18.053,23.635zm-144.5-79.941c-39.875,0-72.327-35.93-72.492-80.163 2.253-22.35 14.741-36.36 19.386-40.86 13.493-0.171 69.594-1.655 106.309-14.421 6.17,9.301 19.297,31.81 19.297,54.943 0,44.389-32.523,80.501-72.5,80.501zm224.5-120.5c0,4.687-3.813,8.5-8.5,8.5h-126.517l2.284-36.539c0.268-4.287 0.105-8.522-0.454-12.667l93.187-93.187v21.893c0,4.143 3.358,7.5 7.5,7.5s7.5-3.357 7.5-7.5v-40c0-4.143-3.358-7.5-7.5-7.5h-40c-4.142,0-7.5,3.357-7.5,7.5s3.358,7.5 7.5,7.5h21.893l-87.214,87.214c-2.876-6.606-6.897-12.752-12.008-18.192-11.416-12.152-26.649-19.161-43.171-19.943v-80.579c0-4.687 3.813-8.5 8.5-8.5h176c4.687,0 8.5,3.813 8.5,8.5v176z"/>
      <path d="m296.803,42.196c-2.929-2.928-7.678-2.928-10.606,0l-14.697,14.697-14.697-14.697c-2.929-2.928-7.678-2.928-10.606,0-2.929,2.93-2.929,7.678 0,10.607l14.696,14.697-14.696,14.696c-2.929,2.93-2.929,7.678 0,10.607 1.464,1.465 3.384,2.197 5.303,2.197s3.839-0.732 5.303-2.196l14.697-14.697 14.697,14.697c1.464,1.464 3.384,2.196 5.303,2.196s3.839-0.732 5.303-2.196c2.929-2.93 2.929-7.678 0-10.607l-14.696-14.697 14.696-14.696c2.929-2.93 2.929-7.678-5.68434e-14-10.608z"/>
      <path d="m384.803,130.196c-2.929-2.928-7.678-2.928-10.606,0l-14.697,14.697-14.697-14.697c-2.929-2.928-7.678-2.928-10.606,0-2.929,2.93-2.929,7.678 0,10.607l14.696,14.696-14.696,14.696c-2.929,2.93-2.929,7.678 0,10.607 1.464,1.464 3.384,2.196 5.303,2.196s3.839-0.732 5.303-2.196l14.697-14.697 14.697,14.697c1.464,1.464 3.384,2.196 5.303,2.196s3.839-0.732 5.303-2.196c2.929-2.93 2.929-7.678 0-10.607l-14.696-14.695 14.696-14.696c2.929-2.93 2.929-7.678-5.68434e-14-10.608z"/>
    </g>
  </g>
</svg>
