<?xml version='1.0' encoding='iso-8859-1'?>
<svg version="1.1" xmlns="http://www.w3.org/2000/svg" viewBox="0 0 463 463" xmlns:xlink="http://www.w3.org/1999/xlink" enable-background="new 0 0 463 463">
  <g>
    <path d="m274.997,247.787l.968-15.482c12.641,4.443 25.888,6.695 39.535,6.695 65.893,0 119.5-53.607 119.5-119.5s-53.607-119.5-119.5-119.5c-63.373,0-115.373,49.589-119.258,112h-37.133c-17.716,0-34.151,7.11-46.281,20.022-12.129,12.911-18.2,29.759-17.095,47.438l4.27,68.326c0.08,29.568 12.534,56.017 31.997,73.49v11.953l-13.183,19.774-61.711,16.831c-17.137,4.674-29.106,20.344-29.106,38.107v31.559c0,12.958 10.542,23.5 23.5,23.5h272c12.958,0 23.5-10.542 23.5-23.5v-31.559c0-17.764-11.969-33.434-29.106-38.107l-61.711-16.831-13.183-19.774v-11.953c19.463-17.472 31.916-43.921 31.997-73.489zm-87.497,117.95l-39.929-33.274c11.978,6.732 25.554,10.537 39.929,10.537s27.951-3.805 39.929-10.537l-39.929,33.274zm-46.39-19.133l35.279,29.399-19.293,19.292c-0.05,0.05-0.177,0.163-0.402,0.145-0.235-0.023-0.328-0.161-0.367-0.22l-23.813-35.72 8.596-12.896zm46.39,76.396c0.629,0 1.25-0.032 1.866-0.081l5.145,25.081h-14.022l5.145-25.081c0.616,0.049 1.237,0.081 1.866,0.081zm8.5-23.5c0,4.687-3.813,8.5-8.5,8.5s-8.5-3.813-8.5-8.5v-4.893l8.5-8.5 8.5,8.5v4.893zm2.61-23.496l35.279-29.399 8.597,12.896-23.813,35.72c-0.039,0.06-0.132,0.197-0.367,0.221-0.227,0.017-0.353-0.095-0.402-0.145l-19.294-19.293zm80.014-186.267c9.448-3.585 19.29-5.754 29.376-6.47v39.772c-10.937-2.798-21.3-11.669-29.85-25.706l.474-7.596zm90.944,8.453c2.725,1.657 5.38,3.445 7.959,5.356-5.651,4.182-11.738,7.806-18.178,10.795 2.79-3.607 5.437-7.585 7.917-11.924 0.79-1.382 1.557-2.791 2.302-4.227zm-46.568,24.84v-39.732c11.455,0.831 22.64,3.541 33.13,7.998-8.697,16.803-20.307,28.426-33.13,31.734zm0-54.787v-41.243h48.846c-0.748,18.479-4.231,35.804-9.684,50.553-12.38-5.282-25.613-8.453-39.162-9.31zm0-56.243v-41.243c13.549-0.858 26.782-4.028 39.162-9.31 5.453,14.749 8.935,32.074 9.684,50.553h-48.846zm0-56.298v-39.732c12.823,3.308 24.433,14.931 33.13,31.734-10.49,4.457-21.675,7.167-33.13,7.998zm44.267-19.119c-2.48-4.339-5.126-8.317-7.917-11.924 6.44,2.989 12.526,6.613 18.178,10.795-2.579,1.911-5.234,3.698-7.959,5.356-0.746-1.436-1.513-2.845-2.302-4.227zm-105.835,4.227c-2.725-1.657-5.38-3.445-7.96-5.355 5.652-4.182 11.738-7.806 18.178-10.796-2.79,3.607-5.437,7.585-7.917,11.924-0.789,1.382-1.556,2.791-2.301,4.227zm46.568-24.84v39.732c-11.454-0.831-22.64-3.541-33.13-7.998 8.697-16.803 20.307-28.426 33.13-31.734zm0,54.787v41.243h-48.846c0.749-18.479 4.231-35.804 9.684-50.553 12.381,5.282 25.613,8.453 39.162,9.31zm-48.899,58.23c-0.014-0.61-0.026-1.284-0.037-1.987h48.936v41.24c-9.776,0.606-19.358,2.401-28.644,5.363-0.423-15.516-6.404-30.104-17.185-41.581-0.991-1.055-2.022-2.058-3.07-3.035zm130.06,64.563c-4.284-3.365-8.769-6.419-13.423-9.149 6.539-17.071 10.36-36.748 11.11-57.4h32.881c-1.848,25.924-13.192,49.263-30.568,66.549zm30.567-81.55h-32.881c-0.75-20.652-4.571-40.33-11.11-57.4 4.654-2.73 9.14-5.784 13.423-9.149 17.377,17.285 28.721,40.624 30.568,66.549zm-177.889-66.55c4.284,3.365 8.769,6.419 13.423,9.149-6.539,17.071-10.36,36.749-11.11,57.401h-28.262-4.619c1.848-25.925 13.192-49.265 30.568-66.55zm-118.078,96.843c9.265-9.862 21.818-15.293 35.349-15.293h44.39 12.391c13.53,0 26.084,5.431 35.349,15.293 9.264,9.861 13.9,22.729 13.057,36.232l-1.411,22.572c-6.35-12.898-12.925-21.505-13.455-22.188-2.059-2.658-5.636-3.624-8.746-2.36-37.673,15.26-108.475,15.451-109.186,15.451-1.68,0-3.312,0.564-4.633,1.603-0.523,0.411-7.453,5.976-14.19,16.481l-1.972-31.558c-0.844-13.505 3.793-26.372 13.057-36.233zm-8.753,105.54c2.254-22.347 14.741-36.357 19.387-40.856 13.492-0.171 69.594-1.655 106.308-14.421 6.17,9.301 19.297,31.81 19.297,54.944 0,44.388-32.523,80.5-72.5,80.5-39.876,0-72.329-35.932-72.492-80.167zm-72.008,191.667v-31.559c0-11.018 7.424-20.737 18.054-23.637l59.204-16.147 23.589,35.384c2.587,3.879 6.731,6.366 11.37,6.826 0.517,0.051 1.031,0.076 1.544,0.076 3.135,0 6.165-0.953 8.731-2.713 1.305,3.477 3.41,6.565 6.092,9.038l-6.407,31.232h-66.177v-24.5c0-4.143-3.357-7.5-7.5-7.5s-7.5,3.357-7.5,7.5v24.5h-32.5c-4.687,0-8.5-3.813-8.5-8.5zm289-31.559v31.559c0,4.687-3.813,8.5-8.5,8.5h-32.5v-24.5c0-4.143-3.357-7.5-7.5-7.5s-7.5,3.357-7.5,7.5v24.5h-66.177l-6.406-31.23c2.682-2.474 4.787-5.561 6.092-9.038 2.566,1.76 5.595,2.713 8.731,2.713 0.513,0 1.028-0.025 1.544-0.076 4.639-0.46 8.783-2.947 11.37-6.827l23.589-35.383 59.204,16.147c10.629,2.898 18.053,12.618 18.053,23.635z"/>
  </g>
</svg>
