<?xml version="1.0" encoding="iso-8859-1"?>
<!-- Generator: Adobe Illustrator 19.1.0, SVG Export Plug-In . SVG Version: 6.00 Build 0)  -->
<svg version="1.1" id="Capa_1" xmlns="http://www.w3.org/2000/svg" xmlns:xlink="http://www.w3.org/1999/xlink" x="0px" y="0px"
	 viewBox="0 0 448.48 448.48" style="enable-background:new 0 0 448.48 448.48;" xml:space="preserve">
<g>
	<path d="M448.48,68.24v312c0,4.14-3.36,7.5-7.5,7.5H7.5c-4.14,0-7.5-3.36-7.5-7.5v-312c0-4.14,3.36-7.5,7.5-7.5h433.48
		C445.12,60.74,448.48,64.1,448.48,68.24z M433.48,372.74V122.75H15v249.99H433.48z M433.48,107.75V75.74H15v32.01H433.48z"/>
	<path style="fill:#3DD0F2;" d="M433.48,75.74v32.01H15V75.74H433.48z M98.06,91.75c0-1.98-0.8-3.91-2.19-5.31
		c-1.4-1.39-3.33-2.19-5.31-2.19c-1.97,0-3.9,0.8-5.3,2.19c-1.4,1.4-2.2,3.33-2.2,5.31c0,1.97,0.8,3.9,2.2,5.3
		c1.4,1.4,3.33,2.2,5.3,2.2c1.98,0,3.91-0.8,5.31-2.2C97.26,95.65,98.06,93.72,98.06,91.75z M72.42,91.75c0-1.98-0.8-3.91-2.19-5.31
		c-1.4-1.39-3.33-2.19-5.31-2.19c-1.97,0-3.9,0.8-5.3,2.19c-1.4,1.4-2.2,3.34-2.2,5.31s0.8,3.9,2.2,5.3c1.4,1.4,3.33,2.2,5.3,2.2
		c1.98,0,3.91-0.8,5.31-2.2C71.62,95.65,72.42,93.72,72.42,91.75z M46.78,91.75c0-1.98-0.8-3.91-2.19-5.31
		c-1.4-1.39-3.33-2.19-5.3-2.19c-1.98,0-3.91,0.8-5.31,2.19c-1.39,1.4-2.2,3.33-2.2,5.31c0,1.97,0.81,3.9,2.2,5.3
		c1.4,1.4,3.33,2.2,5.31,2.2c1.97,0,3.9-0.8,5.3-2.2C45.98,95.65,46.78,93.72,46.78,91.75z"/>
	<path d="M283.34,233.11v103.21c0,4.14-3.36,7.5-7.5,7.5H172.63c-4.14,0-7.5-3.36-7.5-7.5V233.11c0-4.14,3.36-7.5,7.5-7.5h78.81
		v-39.66c0-15-12.2-27.2-27.2-27.2s-27.2,12.2-27.2,27.2v19.3c0,4.14-3.36,7.5-7.5,7.5c-4.15,0-7.5-3.36-7.5-7.5v-19.3
		c0-23.27,18.93-42.2,42.2-42.2s42.2,18.93,42.2,42.2v39.66h9.4C279.98,225.61,283.34,228.97,283.34,233.11z M268.34,328.82v-88.21
		h-88.21v88.21H268.34z"/>
	<rect x="180.13" y="240.61" style="fill:#F48C6C;" width="88.21" height="88.21"/>
	<path d="M95.87,86.44c1.39,1.4,2.19,3.33,2.19,5.31c0,1.97-0.8,3.9-2.19,5.3c-1.4,1.4-3.33,2.2-5.31,2.2c-1.97,0-3.9-0.8-5.3-2.2
		c-1.4-1.4-2.2-3.33-2.2-5.3c0-1.98,0.8-3.91,2.2-5.31c1.4-1.39,3.33-2.19,5.3-2.19C92.54,84.25,94.47,85.05,95.87,86.44z"/>
	<path d="M70.23,86.44c1.39,1.4,2.19,3.33,2.19,5.31c0,1.97-0.8,3.9-2.19,5.3c-1.4,1.4-3.33,2.2-5.31,2.2c-1.97,0-3.9-0.8-5.3-2.2
		c-1.4-1.4-2.2-3.33-2.2-5.3s0.8-3.91,2.2-5.31c1.4-1.39,3.33-2.19,5.3-2.19C66.9,84.25,68.83,85.05,70.23,86.44z"/>
	<path d="M44.59,86.44c1.39,1.4,2.19,3.33,2.19,5.31c0,1.97-0.8,3.9-2.19,5.3c-1.4,1.4-3.33,2.2-5.3,2.2c-1.98,0-3.91-0.8-5.31-2.2
		c-1.39-1.4-2.2-3.33-2.2-5.3c0-1.98,0.81-3.91,2.2-5.31c1.4-1.39,3.33-2.19,5.31-2.19C41.26,84.25,43.19,85.05,44.59,86.44z"/>
</g>
<g>
</g>
<g>
</g>
<g>
</g>
<g>
</g>
<g>
</g>
<g>
</g>
<g>
</g>
<g>
</g>
<g>
</g>
<g>
</g>
<g>
</g>
<g>
</g>
<g>
</g>
<g>
</g>
<g>
</g>
</svg>
