<?xml version="1.0" encoding="iso-8859-1"?>
<!-- Generator: Adobe Illustrator 19.1.0, SVG Export Plug-In . SVG Version: 6.00 Build 0)  -->
<svg version="1.1" id="Capa_1" xmlns="http://www.w3.org/2000/svg" xmlns:xlink="http://www.w3.org/1999/xlink" x="0px" y="0px"
	 viewBox="0 0 426.89 426.89" style="enable-background:new 0 0 426.89 426.89;" xml:space="preserve">
<g>
	<path d="M371.04,262.225c32.33,10.15,55.85,40.4,55.85,76.04c0,43.93-35.75,79.68-79.68,79.68H99.82
		c-55.04,0-99.82-44.78-99.82-99.82c0-39.34,22.89-73.44,56.04-89.69V16.445c0-4.14,3.36-7.5,7.5-7.5l252,0.02
		c1.95,0,3.87,0.74,5.3,2.18l48,48c1.44,1.43,2.2,5.3,2.2,5.3V262.225z M411.89,338.265c0-35.67-29.02-64.69-64.68-64.69
		c-2.29,0-4.66,0.13-7.05,0.39c-2.24,0.24-4.47-0.54-6.07-2.12c-1.61-1.58-2.41-3.81-2.2-6.05c0.28-2.88,0.42-5.73,0.42-8.48
		c0-48.43-39.41-87.83-87.84-87.83c-42.86,0-79.25,30.61-86.53,72.79c-0.43,2.5-2.09,4.61-4.41,5.61c-2.32,1.01-4.99,0.77-7.11-0.62
		c-13.85-9.13-29.97-13.96-46.6-13.96c-46.77,0-84.82,38.05-84.82,84.82s38.05,84.82,84.82,84.82h247.39
		C382.87,402.945,411.89,373.925,411.89,338.265z M356.04,259.075V71.945h-40.5c-4.14,0-7.5-3.36-7.5-7.5v-40.5h-237v198.6
		c9.12-2.75,18.78-4.24,28.78-4.24c16.01,0,31.6,3.8,45.68,11.06c4.21-15.05,11.67-28.56,21.54-39.84h-57.5
		c-4.14,0-7.5-3.36-7.5-7.5s3.36-7.5,7.5-7.5h73.83c17.16-12.66,38.35-20.04,61.1-20.04c22.79,0,43.86,7.45,60.93,20.04h12.14
		c4.14,0,7.5,3.36,7.5,7.5c0,2.9-1.65,5.41-4.06,6.66c16.36,18.22,26.33,42.28,26.33,68.63c0,0.42-0.01,0.84-0.01,1.26
		C350.25,258.585,353.17,258.755,356.04,259.075z M323.04,56.945h22.39l-22.39-22.39V56.945z"/>
	<path style="fill:#3DD0F2;" d="M347.21,273.575c35.66,0,64.68,29.02,64.68,64.69c0,35.66-29.02,64.68-64.68,64.68H99.82
		c-46.77,0-84.82-38.05-84.82-84.82s38.05-84.82,84.82-84.82c16.63,0,32.75,4.83,46.6,13.96c2.12,1.39,4.79,1.63,7.11,0.62
		c2.32-1,3.98-3.11,4.41-5.61c7.28-42.18,43.67-72.79,86.53-72.79c48.43,0,87.84,39.4,87.84,87.83c0,2.75-0.14,5.6-0.42,8.48
		c-0.21,2.24,0.59,4.47,2.2,6.05c1.6,1.58,3.83,2.36,6.07,2.12C342.55,273.705,344.92,273.575,347.21,273.575z"/>
	<path d="M317.54,80.945c4.14,0,7.5,3.36,7.5,7.5s-3.36,7.5-7.5,7.5h-208c-4.14,0-7.5-3.36-7.5-7.5s3.36-7.5,7.5-7.5H317.54z"/>
	<path d="M317.54,127.735c4.14,0,7.5,3.36,7.5,7.5s-3.36,7.5-7.5,7.5h-208c-4.14,0-7.5-3.36-7.5-7.5s3.36-7.5,7.5-7.5H317.54z"/>
</g>
<g>
</g>
<g>
</g>
<g>
</g>
<g>
</g>
<g>
</g>
<g>
</g>
<g>
</g>
<g>
</g>
<g>
</g>
<g>
</g>
<g>
</g>
<g>
</g>
<g>
</g>
<g>
</g>
<g>
</g>
</svg>
