<?xml version="1.0" encoding="iso-8859-1"?>
<!-- Generator: Adobe Illustrator 19.1.0, SVG Export Plug-In . SVG Version: 6.00 Build 0)  -->
<svg version="1.1" id="Capa_1" xmlns="http://www.w3.org/2000/svg" xmlns:xlink="http://www.w3.org/1999/xlink" x="0px" y="0px"
	 viewBox="0 0 408.35 408.35" style="enable-background:new 0 0 408.35 408.35;" xml:space="preserve">
<g>
	<path d="M408.35,163.055v149.11c0,36.61-29.78,66.39-66.39,66.39h-90.89c-3.29,11.82-14.14,20.52-26.99,20.52h-27.36
		c-15.44,0-28.01-12.57-28.01-28.02c0-15.45,12.57-28.02,28.01-28.02h27.36c12.85,0,23.7,8.7,26.99,20.52h90.89
		c28.34,0,51.39-23.05,51.39-51.39v-5.46c-7.48,6.41-17.19,10.3-27.8,10.3h-33.32c-9.92,0-17.98-8.07-17.98-17.99v-118.1
		c0-9.91,8.06-17.98,17.98-17.98h33.32c10.6,0,20.31,3.88,27.8,10.29v-10.17c0-64.07-48.58-117.26-111.65-123.56
		c-3.4,7.16-10.68,12.14-19.12,12.14h-116.8c-8.44,0-15.72-4.98-19.13-12.14C63.59,45.805,15,98.985,15,163.055v10.18
		c7.49-6.41,17.2-10.3,27.8-10.3h33.32c9.92,0,17.99,8.07,17.99,17.98v118.1c0,9.92-8.07,17.99-17.99,17.99H42.8
		c-23.6,0-42.8-19.2-42.8-42.8v-111.15c0-71.91,54.61-131.58,125.45-138.51c2.57-8.81,10.7-15.27,20.33-15.27h116.8
		c9.62,0,17.76,6.46,20.32,15.27C353.74,31.475,408.35,91.135,408.35,163.055z M393.35,274.205v-68.47c0-15.33-12.47-27.8-27.8-27.8
		h-15.34v124.07h15.34C380.88,302.005,393.35,289.535,393.35,274.205z M335.21,302.005v-124.07h-2.98c-1.64,0-2.98,1.34-2.98,2.98
		v118.1c0,1.65,1.34,2.99,2.98,2.99H335.21z M268.76,30.455c0-3.41-2.78-6.18-6.18-6.18h-116.8c-3.41,0-6.18,2.77-6.18,6.18
		s2.77,6.18,6.18,6.18h116.8C265.98,36.635,268.76,33.865,268.76,30.455z M237.1,371.055c0-7.18-5.84-13.02-13.02-13.02h-27.36
		c-7.17,0-13.01,5.84-13.01,13.02s5.84,13.02,13.01,13.02h27.36C231.26,384.075,237.1,378.235,237.1,371.055z M79.11,299.015v-118.1
		c0-1.64-1.34-2.98-2.99-2.98h-2.98v124.07h2.98C77.77,302.005,79.11,300.665,79.11,299.015z M58.14,302.005v-124.07H42.8
		c-15.33,0-27.8,12.47-27.8,27.8v68.47c0,15.33,12.47,27.8,27.8,27.8H58.14z"/>
	<path style="fill:#3DD0F2;" d="M393.35,205.735v68.47c0,15.33-12.47,27.8-27.8,27.8h-15.34v-124.07h15.34
		C380.88,177.935,393.35,190.405,393.35,205.735z"/>
	<path style="fill:#FFFFFF;" d="M262.58,24.275c3.4,0,6.18,2.77,6.18,6.18s-2.78,6.18-6.18,6.18h-116.8c-3.41,0-6.18-2.77-6.18-6.18
		s2.77-6.18,6.18-6.18H262.58z"/>
	<path style="fill:#F48C6C;" d="M224.08,358.035c7.18,0,13.02,5.84,13.02,13.02s-5.84,13.02-13.02,13.02h-27.36
		c-7.17,0-13.01-5.84-13.01-13.02s5.84-13.02,13.01-13.02H224.08z"/>
	<path style="fill:#3DD0F2;" d="M58.14,177.935v124.07H42.8c-15.33,0-27.8-12.47-27.8-27.8v-68.47c0-15.33,12.47-27.8,27.8-27.8
		H58.14z"/>
</g>
<g>
</g>
<g>
</g>
<g>
</g>
<g>
</g>
<g>
</g>
<g>
</g>
<g>
</g>
<g>
</g>
<g>
</g>
<g>
</g>
<g>
</g>
<g>
</g>
<g>
</g>
<g>
</g>
<g>
</g>
</svg>
