<?xml version="1.0" encoding="utf-8"?>
<!-- Generator: Adobe Illustrator 15.0.0, SVG Export Plug-In . SVG Version: 6.00 Build 0)  -->
<!DOCTYPE svg PUBLIC "-//W3C//DTD SVG 1.1//EN" "http://www.w3.org/Graphics/SVG/1.1/DTD/svg11.dtd">
<svg version="1.1" id="Capa_1" xmlns="http://www.w3.org/2000/svg" xmlns:xlink="http://www.w3.org/1999/xlink" x="0px" y="0px"
	 width="600px" height="600px" viewBox="0 0 600 600" enable-background="new 0 0 600 600" xml:space="preserve">
<g>
	<circle fill="#65B3AD" cx="300" cy="300" r="243.811"/>
	<path opacity="0.37" fill="#56A49E" d="M543.811,300c0-25.926-4.062-50.899-11.559-74.338l-85.139-50.042L438,246.992L412,274
		l-98.634-52.41l2.2,85.41l-177.82,15.985l301.438,177.197C502.418,456.133,543.811,382.905,543.811,300z"/>
	<path fill="#FFFFFF" d="M447.113,175.62c-4.45,19.311-12.688,36.823-23.533,51.296c-10.826,14.501-24.199,25.99-38.531,34.005
		c-14.337,8.034-29.606,12.579-44.245,13.801c-7.324,0.62-14.492,0.423-21.368-0.493c-2.051-0.273-4.072-0.618-6.069-1.016V221.59
		l-87.81,50.697l-87.811,50.698l87.811,50.697l87.81,50.697v-50.684c1.902-0.462,3.801-0.942,5.682-1.459
		c6.317-1.734,12.508-3.772,18.534-6.099c12.055-4.652,23.446-10.461,33.948-17.227c21.025-13.527,38.432-30.875,51.374-50.137
		c12.966-19.265,21.482-40.452,25.407-61.616C452.269,215.983,451.588,194.898,447.113,175.62z"/>
</g>
</svg>
