<?xml version="1.0" encoding="utf-8"?>
<!-- Generator: Adobe Illustrator 15.0.0, SVG Export Plug-In . SVG Version: 6.00 Build 0)  -->
<!DOCTYPE svg PUBLIC "-//W3C//DTD SVG 1.1//EN" "http://www.w3.org/Graphics/SVG/1.1/DTD/svg11.dtd">
<svg version="1.1" id="Capa_1" xmlns="http://www.w3.org/2000/svg" xmlns:xlink="http://www.w3.org/1999/xlink" x="0px" y="0px"
	 width="600px" height="600px" viewBox="0 0 600 600" enable-background="new 0 0 600 600" xml:space="preserve">
<g>
	<circle fill="#EED26A" cx="300" cy="300" r="243.811"/>
	<circle fill="#C4E15E" cx="300" cy="300" r="243.811"/>
	<path opacity="0.37" fill="#B5D24F" d="M543.715,306.703l-83.989-59.168H317.201l0,0h11.8h12.993H371l-80.243-63.601
		L140.274,299.999l278.8,212.785C491.676,472.068,541.324,395.285,543.715,306.703z"/>
	<g>
		<polygon fill="#FFFFFF" points="257.17,390.159 223.549,364.229 290.757,364.229 290.757,390.159 		"/>
		<polygon fill="#FFFFFF" points="459.726,325.331 459.726,351.263 206.738,351.263 173.118,325.331 		"/>
		<polygon fill="#FFFFFF" points="459.726,312.363 156.307,312.363 140.274,299.999 157.861,286.434 459.726,286.434 		"/>
		<polygon fill="#FFFFFF" points="275.542,195.67 290.757,183.935 290.757,195.67 		"/>
		<polygon fill="#FFFFFF" points="459.726,247.535 459.726,273.467 174.676,273.467 208.295,247.535 		"/>
		<polygon fill="#FFFFFF" points="290.757,403.127 290.757,416.065 273.982,403.127 		"/>
		<polygon fill="#FFFFFF" points="290.757,208.638 290.757,234.567 225.107,234.567 258.729,208.638 		"/>
	</g>
</g>
</svg>
