<?xml version="1.0" encoding="utf-8"?>
<!-- Generator: Adobe Illustrator 15.0.0, SVG Export Plug-In . SVG Version: 6.00 Build 0)  -->
<!DOCTYPE svg PUBLIC "-//W3C//DTD SVG 1.1//EN" "http://www.w3.org/Graphics/SVG/1.1/DTD/svg11.dtd">
<svg version="1.1" id="Capa_1" xmlns="http://www.w3.org/2000/svg" xmlns:xlink="http://www.w3.org/1999/xlink" x="0px" y="0px"
	 width="600px" height="600px" viewBox="0 0 600 600" enable-background="new 0 0 600 600" xml:space="preserve">
<g>
	<circle fill="#EED26A" cx="300" cy="300.001" r="243.811"/>
	<circle fill="#65B3AD" cx="300" cy="300.001" r="243.811"/>
	<path opacity="0.37" fill="#56A49E" d="M543.203,317.133L408.182,185.939H281.307L164.369,302.418l222.796,225.328
		C473.687,494.611,536.504,413.605,543.203,317.133z"/>
	<g>
		<circle fill="#FFFFFF" cx="178.412" cy="302.417" r="14.044"/>
		<path fill="#FFFFFF" d="M231.797,263.077c7.758,0,14.047-6.29,14.047-14.046c0-7.757-6.289-14.043-14.047-14.043
			c-7.752,0-14.043,6.286-14.043,14.043C217.754,256.787,224.045,263.077,231.797,263.077z"/>
		<circle fill="#FFFFFF" cx="287.504" cy="249.032" r="14.044"/>
		<circle fill="#FFFFFF" cx="343.207" cy="249.032" r="14.044"/>
		<path fill="#FFFFFF" d="M398.91,263.077c7.76,0,14.045-6.29,14.045-14.046c0-7.757-6.285-14.043-14.045-14.043
			c-7.754,0-14.043,6.286-14.043,14.043C384.867,256.787,391.156,263.077,398.91,263.077z"/>
		<circle fill="#FFFFFF" cx="287.504" cy="191.756" r="14.043"/>
		<circle fill="#FFFFFF" cx="343.207" cy="191.756" r="14.043"/>
		<path fill="#FFFFFF" d="M398.91,205.799c7.76,0,14.045-6.287,14.045-14.043s-6.285-14.043-14.045-14.043
			c-7.754,0-14.043,6.287-14.043,14.043S391.156,205.799,398.91,205.799z"/>
		<circle fill="#FFFFFF" cx="232.547" cy="356.551" r="14.045"/>
		<circle fill="#FFFFFF" cx="287.504" cy="356.551" r="14.045"/>
		<path fill="#FFFFFF" d="M342.457,342.506c-7.754,0-14.043,6.289-14.043,14.045s6.289,14.045,14.043,14.045
			c7.76,0,14.049-6.289,14.049-14.045S350.217,342.506,342.457,342.506z"/>
		<circle fill="#FFFFFF" cx="397.414" cy="356.551" r="14.045"/>
		<circle fill="#FFFFFF" cx="287.504" cy="409.312" r="14.046"/>
		<path fill="#FFFFFF" d="M342.457,395.266c-7.754,0-14.043,6.291-14.043,14.047c0,7.758,6.289,14.045,14.043,14.045
			c7.76,0,14.049-6.287,14.049-14.045C356.506,401.557,350.217,395.266,342.457,395.266z"/>
		<circle fill="#FFFFFF" cx="397.414" cy="409.312" r="14.046"/>
		<circle fill="#FFFFFF" cx="232.959" cy="302.417" r="14.044"/>
		<circle fill="#FFFFFF" cx="287.504" cy="302.417" r="14.044"/>
		<path fill="#FFFFFF" d="M342.047,316.461c7.758,0,14.049-6.287,14.049-14.043c0-7.758-6.291-14.045-14.049-14.045
			c-7.754,0-14.043,6.287-14.043,14.045C328.004,310.174,334.293,316.461,342.047,316.461z"/>
		<path fill="#FFFFFF" d="M396.592,316.461c7.76,0,14.047-6.287,14.047-14.043c0-7.758-6.287-14.045-14.047-14.045
			c-7.754,0-14.043,6.287-14.043,14.045C382.549,310.174,388.838,316.461,396.592,316.461z"/>
	</g>
</g>
</svg>
