<?xml version="1.0" encoding="utf-8"?>
<!-- Generator: Adobe Illustrator 15.0.0, SVG Export Plug-In . SVG Version: 6.00 Build 0)  -->
<!DOCTYPE svg PUBLIC "-//W3C//DTD SVG 1.1//EN" "http://www.w3.org/Graphics/SVG/1.1/DTD/svg11.dtd">
<svg version="1.1" id="Capa_1" xmlns="http://www.w3.org/2000/svg" xmlns:xlink="http://www.w3.org/1999/xlink" x="0px" y="0px"
	 width="600px" height="600px" viewBox="0 0 600 600" enable-background="new 0 0 600 600" xml:space="preserve">
<g>
	<circle fill="#CF6F55" cx="300" cy="300" r="243.811"/>
	<path fill="#C06046" d="M237.532,286.855l-49.989-51.004l-62.072,63.504l232.089,237.602c37.111-8.983,70.903-26.453,99.211-50.246
		L273.185,286.578L237.532,286.855z"/>
	<path fill="#C06046" d="M300.645,125.471l-62.52,63.053l51.8,49.602l-0.277,35.653l189.96,191.083
		c27.427-29.863,47.494-66.586,57.35-107.301L300.645,125.471z"/>
	<g>
		<polygon fill="#F5F5F5" points="300.645,125.471 238.125,188.523 254.695,204.838 289.357,169.344 290.168,273.365 
			313.422,273.184 312.612,169.152 347.833,204.113 364.148,187.543 		"/>
		<polygon fill="#F5F5F5" points="474.529,300.645 411.476,238.125 395.162,254.695 430.655,289.357 326.635,290.168 
			326.815,313.422 430.848,312.611 395.887,347.832 412.457,364.148 		"/>
		<polygon fill="#F5F5F5" points="299.355,474.529 361.875,411.477 345.305,395.162 310.643,430.656 309.832,326.635 
			286.578,326.814 287.388,430.848 252.167,395.887 235.852,412.457 		"/>
		<polygon fill="#F5F5F5" points="125.471,299.355 188.524,361.875 204.838,345.305 169.345,310.643 273.365,309.832 
			273.185,286.578 169.152,287.389 204.114,252.168 187.543,235.852 		"/>
	</g>
</g>
</svg>
