<?xml version="1.0" encoding="utf-8"?>
<!-- Generator: Adobe Illustrator 15.0.0, SVG Export Plug-In . SVG Version: 6.00 Build 0)  -->
<!DOCTYPE svg PUBLIC "-//W3C//DTD SVG 1.1//EN" "http://www.w3.org/Graphics/SVG/1.1/DTD/svg11.dtd">
<svg version="1.1" id="Capa_1" xmlns="http://www.w3.org/2000/svg" xmlns:xlink="http://www.w3.org/1999/xlink" x="0px" y="0px"
	 width="600px" height="600px" viewBox="0 0 600 600" enable-background="new 0 0 600 600" xml:space="preserve">
<g>
	<circle fill="#EED26A" cx="300" cy="300" r="243.811"/>
	<circle fill="#C4E15E" cx="300" cy="300" r="243.811"/>
	<path opacity="0.37" fill="#B5D24F" d="M543.811,300c0-5.57-0.205-11.091-0.572-16.568l-58.615-66.346l-103.781,6.812L300,287.244
		l-46.146-55.069l-64.659-16.156l14.241,51.907l86.71,90.963l-6.958,74.865l85.499,100.23
		C469.893,504.321,543.811,410.798,543.811,300z"/>
	<path fill="#FFFFFF" d="M440.594,191.667l-44.029-25.421v33.879c-23.402,1.959-42.707,8.396-58.68,19.528
		c-16.289,11.355-28.471,27.143-37.09,48.124c-8.617-20.98-20.799-36.769-37.09-48.124c-16.332-11.383-36.148-17.858-60.27-19.654
		v-33.753l-44.029,25.421l-44.029,25.419l44.029,25.42l44.029,25.419v-32.568c76.008,7.256,79.752,74.979,79.752,198.396h35.217
		c0-122.557,3.68-190.204,78.16-198.246v32.417l44.029-25.42l44.029-25.42L440.594,191.667z"/>
</g>
</svg>
