<?xml version="1.0" encoding="utf-8"?>
<!-- Generator: Adobe Illustrator 15.0.0, SVG Export Plug-In . SVG Version: 6.00 Build 0)  -->
<!DOCTYPE svg PUBLIC "-//W3C//DTD SVG 1.1//EN" "http://www.w3.org/Graphics/SVG/1.1/DTD/svg11.dtd">
<svg version="1.1" id="Capa_1" xmlns="http://www.w3.org/2000/svg" xmlns:xlink="http://www.w3.org/1999/xlink" x="0px" y="0px"
	 width="600px" height="600px" viewBox="0 0 600 600" enable-background="new 0 0 600 600" xml:space="preserve">
<g>
	<path fill="#EED26A" d="M543.811,300c0-134.654-109.16-243.811-243.811-243.811S56.189,165.346,56.189,300
		c0,134.65,109.16,243.81,243.811,243.81S543.811,434.65,543.811,300z"/>
	<path fill="#C4E15E" d="M543.811,300c0-134.654-109.16-243.811-243.811-243.811S56.189,165.346,56.189,300
		c0,134.65,109.16,243.81,243.811,243.81S543.811,434.65,543.811,300z"/>
	<path opacity="0.37" fill="#B5D24F" d="M520.375,404.4L439.1,300H300l-93.125,33L160.9,383.981l113.824,158.53
		c8.309,0.856,16.741,1.299,25.276,1.299C397.29,543.811,481.261,486.815,520.375,404.4z"/>
	<g>
		<polygon fill="#FFFFFF" points="160.9,383.981 300,300 160.9,216.019 		"/>
		<polygon fill="#FFFFFF" points="439.1,300 300,216.019 300,300 300,383.981 		"/>
	</g>
</g>
</svg>
