<?xml version="1.0" encoding="utf-8"?>
<!-- Generator: Adobe Illustrator 15.0.0, SVG Export Plug-In . SVG Version: 6.00 Build 0)  -->
<!DOCTYPE svg PUBLIC "-//W3C//DTD SVG 1.1//EN" "http://www.w3.org/Graphics/SVG/1.1/DTD/svg11.dtd">
<svg version="1.1" id="Capa_1" xmlns="http://www.w3.org/2000/svg" xmlns:xlink="http://www.w3.org/1999/xlink" x="0px" y="0px"
	 width="600px" height="600px" viewBox="0 0 600 600" enable-background="new 0 0 600 600" xml:space="preserve">
<g>
	<circle fill="#D97077" cx="300" cy="300" r="243.811"/>
	<path fill="#CA6168" d="M543.811,300c0-0.152-0.006-0.303-0.006-0.454L423.865,177.045l-74.94,81.721l-83.084-83.645
		l-71.729,14.913l-1.5,76.496L265,339l-88.866,83.955l115.244,120.688c2.864,0.1,5.735,0.168,8.623,0.168
		C434.65,543.811,543.811,434.65,543.811,300z"/>
	<g>
		<polygon fill="#F5F5F5" points="423.865,177.045 335.072,177.423 335.254,200.676 384.862,200.087 311.881,274.214 
			328.452,290.529 401.441,216.396 401.624,266.021 424.879,265.841 		"/>
		<polygon fill="#F5F5F5" points="422.955,423.866 422.578,335.073 399.324,335.255 399.912,384.862 325.786,311.882 
			309.471,328.452 383.605,401.441 333.979,401.624 334.159,424.879 		"/>
		<polygon fill="#F5F5F5" points="176.134,422.955 264.927,422.578 264.746,399.325 215.138,399.913 288.119,325.786 
			271.548,309.471 198.559,383.605 198.375,333.979 175.121,334.16 		"/>
		<polygon fill="#F5F5F5" points="177.045,176.134 177.422,264.928 200.676,264.746 200.087,215.138 274.214,288.119 
			290.53,271.548 216.395,198.559 266.021,198.375 265.84,175.121 		"/>
	</g>
</g>
</svg>
