<?xml version="1.0" encoding="utf-8"?>
<!-- Generator: Adobe Illustrator 15.0.0, SVG Export Plug-In . SVG Version: 6.00 Build 0)  -->
<!DOCTYPE svg PUBLIC "-//W3C//DTD SVG 1.1//EN" "http://www.w3.org/Graphics/SVG/1.1/DTD/svg11.dtd">
<svg version="1.1" id="Capa_1" xmlns="http://www.w3.org/2000/svg" xmlns:xlink="http://www.w3.org/1999/xlink" x="0px" y="0px"
	 width="600px" height="600px" viewBox="0 0 600 600" enable-background="new 0 0 600 600" xml:space="preserve">
<g>
	<circle fill="#CF6F55" cx="300" cy="300" r="243.811"/>
	<path fill="#C06046" d="M522.444,399.943l-81.903-132.202l-99.438-51.723l-190.223,4.011l170.479,322.84
		C411.176,535.07,487.053,478.592,522.444,399.943z"/>
	<path fill="#FFFFFF" d="M150.881,220.029l29.46,17.009l29.459,17.009v-18.476h134.569c40.619,0,73.666,33.046,73.666,73.666
		c0,40.618-33.047,73.665-73.666,73.665s-73.666-33.047-73.666-73.665c0-14.333,4.115-28.223,11.901-40.166l-26.04-16.976
		c-11.087,17.006-16.947,36.764-16.947,57.142c0,57.759,46.992,104.751,104.752,104.751s104.75-46.992,104.75-104.751
		c0-57.761-46.99-104.751-104.75-104.751H209.8v-18.475l-29.459,17.01L150.881,220.029z"/>
</g>
</svg>
