<?xml version="1.0" encoding="utf-8"?>
<!-- Generator: Adobe Illustrator 15.0.0, SVG Export Plug-In . SVG Version: 6.00 Build 0)  -->
<!DOCTYPE svg PUBLIC "-//W3C//DTD SVG 1.1//EN" "http://www.w3.org/Graphics/SVG/1.1/DTD/svg11.dtd">
<svg version="1.1" id="Capa_1" xmlns="http://www.w3.org/2000/svg" xmlns:xlink="http://www.w3.org/1999/xlink" x="0px" y="0px"
	 width="600px" height="600px" viewBox="0 0 600 600" enable-background="new 0 0 600 600" xml:space="preserve">
<g>
	<circle fill="#3C556B" cx="300" cy="300" r="243.811"/>
	<path opacity="0.37" fill="#2D465C" d="M529.622,382.107L422.34,274.138l-83.298-27.146H161.355l262.839,262.839
		C472.694,481.062,510.361,435.966,529.622,382.107z"/>
	<path fill="#FFFFFF" d="M235.51,178.033l18.267,19.614l-37.467,34.828h127.589c52.243,0,94.746,42.503,94.746,94.746
		s-42.503,94.746-94.746,94.746v-29c36.253,0,65.746-29.494,65.746-65.746c0-36.252-29.493-65.746-65.746-65.746H216.279
		l37.498,34.847l-18.268,19.614l-74.154-68.943L235.51,178.033z"/>
</g>
</svg>
