<?xml version="1.0" encoding="utf-8"?>
<!-- Generator: Adobe Illustrator 15.0.0, SVG Export Plug-In . SVG Version: 6.00 Build 0)  -->
<!DOCTYPE svg PUBLIC "-//W3C//DTD SVG 1.1//EN" "http://www.w3.org/Graphics/SVG/1.1/DTD/svg11.dtd">
<svg version="1.1" id="Capa_1" xmlns="http://www.w3.org/2000/svg" xmlns:xlink="http://www.w3.org/1999/xlink" x="0px" y="0px"
	 width="600px" height="600px" viewBox="0 0 600 600" enable-background="new 0 0 600 600" xml:space="preserve">
<g>
	<circle fill="#EED26A" cx="300" cy="300" r="243.811"/>
	<circle fill="#C4E15E" cx="300" cy="300" r="243.811"/>
	<path opacity="0.37" fill="#B5D24F" d="M538.425,351.12L318.332,149.437l-43.018,43.018l-36.666-43.018l-43.018,43.018
		l129.055,129.055L195.631,450.563l83.688,92.365c6.819,0.573,13.714,0.882,20.682,0.882
		C417.114,543.811,514.93,461.226,538.425,351.12z"/>
	<g>
		<rect x="195.631" y="149.437" fill="#FFFFFF" width="43.018" height="43.018"/>
		<polygon fill="#FFFFFF" points="367.703,278.491 404.368,278.491 404.368,235.473 361.35,235.473 361.35,278.491 324.686,278.491 
			324.686,321.509 361.35,321.509 361.35,364.527 404.368,364.527 404.368,321.509 367.703,321.509 		"/>
		<polygon fill="#FFFFFF" points="324.686,321.509 281.667,321.509 281.667,364.527 318.332,364.527 318.332,407.546 
			361.35,407.546 361.35,364.527 324.686,364.527 		"/>
		<polygon fill="#FFFFFF" points="281.667,364.527 238.648,364.527 238.648,407.546 275.314,407.546 275.314,450.563 
			318.332,450.563 318.332,407.546 281.667,407.546 		"/>
		<rect x="195.631" y="407.546" fill="#FFFFFF" width="43.018" height="43.018"/>
		<polygon fill="#FFFFFF" points="318.332,192.454 318.332,149.437 275.314,149.437 275.314,192.454 238.648,192.454 
			238.648,235.473 281.667,235.473 281.667,192.454 		"/>
		<polygon fill="#FFFFFF" points="361.35,235.473 361.35,192.454 318.332,192.454 318.332,235.473 281.667,235.473 281.667,278.491 
			324.686,278.491 324.686,235.473 		"/>
		<rect x="404.368" y="278.491" fill="#FFFFFF" width="43.019" height="43.018"/>
	</g>
</g>
</svg>
