<?xml version="1.0" encoding="utf-8"?>
<!-- Generator: Adobe Illustrator 15.0.0, SVG Export Plug-In . SVG Version: 6.00 Build 0)  -->
<!DOCTYPE svg PUBLIC "-//W3C//DTD SVG 1.1//EN" "http://www.w3.org/Graphics/SVG/1.1/DTD/svg11.dtd">
<svg version="1.1" id="Capa_1" xmlns="http://www.w3.org/2000/svg" xmlns:xlink="http://www.w3.org/1999/xlink" x="0px" y="0px"
	 width="600px" height="600px" viewBox="0 0 600 600" enable-background="new 0 0 600 600" xml:space="preserve">
<g>
	<circle fill="#EED26A" cx="300" cy="300" r="243.811"/>
	<circle fill="#C4E15E" cx="300" cy="300" r="243.811"/>
	<path opacity="0.37" fill="#B5D24F" d="M527.914,386.729l-54.32-63.743L338,285l-128.947,38.941l175.371,204.848
		C450.388,504.439,502.918,452.375,527.914,386.729z"/>
	<path fill="#FFFFFF" d="M164.227,175.62c4.45,19.311,12.688,36.823,23.533,51.296c10.826,14.501,24.199,25.99,38.53,34.005
		c14.338,8.034,29.607,12.579,44.246,13.801c7.324,0.62,14.492,0.423,21.368-0.493c2.051-0.273,4.072-0.618,6.069-1.016V221.59
		l87.81,50.697l87.811,50.698l-87.811,50.697l-87.81,50.697v-50.684c-1.902-0.462-3.801-0.942-5.682-1.459
		c-6.317-1.734-12.508-3.772-18.534-6.099c-12.055-4.652-23.446-10.461-33.948-17.227c-21.025-13.527-38.432-30.875-51.374-50.137
		c-12.966-19.265-21.482-40.452-25.407-61.616C159.071,215.983,159.752,194.898,164.227,175.62z"/>
</g>
</svg>
