<?xml version="1.0" encoding="utf-8"?>
<!-- Generator: Adobe Illustrator 15.0.0, SVG Export Plug-In . SVG Version: 6.00 Build 0)  -->
<!DOCTYPE svg PUBLIC "-//W3C//DTD SVG 1.1//EN" "http://www.w3.org/Graphics/SVG/1.1/DTD/svg11.dtd">
<svg version="1.1" id="Capa_1" xmlns="http://www.w3.org/2000/svg" xmlns:xlink="http://www.w3.org/1999/xlink" x="0px" y="0px"
	 width="600px" height="600px" viewBox="0 0 600 600" enable-background="new 0 0 600 600" xml:space="preserve">
<g>
	<circle fill="#65B3AD" cx="300" cy="300" r="243.811"/>
	<path opacity="0.37" fill="#56A49E" d="M534.135,368.178L425.688,202.172L280,175.621L196.939,243l-19.051,159.247l105.792,141.007
		c5.396,0.357,10.834,0.557,16.319,0.557C410.984,543.811,504.638,469.646,534.135,368.178z"/>
	<path fill="#FFFFFF" d="M300,140.729c-87.964,0-159.271,71.308-159.271,159.271S212.036,459.271,300,459.271
		S459.271,387.964,459.271,300S387.964,140.729,300,140.729z M309.925,388.502h-64.812L322.076,300l-76.963-88.502h64.812
		L386.888,300L309.925,388.502z"/>
</g>
</svg>
