<?xml version="1.0" encoding="utf-8"?>
<!-- Generator: Adobe Illustrator 15.0.0, SVG Export Plug-In . SVG Version: 6.00 Build 0)  -->
<!DOCTYPE svg PUBLIC "-//W3C//DTD SVG 1.1//EN" "http://www.w3.org/Graphics/SVG/1.1/DTD/svg11.dtd">
<svg version="1.1" id="Capa_1" xmlns="http://www.w3.org/2000/svg" xmlns:xlink="http://www.w3.org/1999/xlink" x="0px" y="0px"
	 width="600px" height="600px" viewBox="0 0 600 600" enable-background="new 0 0 600 600" xml:space="preserve">
<g>
	<circle fill="#3C556B" cx="300" cy="300.002" r="243.811"/>
	<g>
		<path opacity="0.37" fill="#2D465C" d="M530.611,379.227L331.686,185.94H204.811v239.759L324.682,542.65
			C420.727,532.973,500.312,467.549,530.611,379.227z"/>
		<g>
			<circle fill="#FFFFFF" cx="429.039" cy="300.536" r="14.044"/>
			<path fill="#FFFFFF" d="M375.654,339.877c-7.758,0-14.047,6.289-14.047,14.045c0,7.758,6.289,14.043,14.047,14.043
				c7.752,0,14.043-6.285,14.043-14.043C389.697,346.166,383.406,339.877,375.654,339.877z"/>
			<circle fill="#FFFFFF" cx="319.947" cy="353.921" r="14.044"/>
			<circle fill="#FFFFFF" cx="264.245" cy="353.921" r="14.044"/>
			<path fill="#FFFFFF" d="M208.542,339.877c-7.76,0-14.045,6.289-14.045,14.045c0,7.758,6.285,14.043,14.045,14.043
				c7.754,0,14.043-6.285,14.043-14.043C222.584,346.166,216.295,339.877,208.542,339.877z"/>
			<circle fill="#FFFFFF" cx="319.947" cy="411.197" r="14.043"/>
			<circle fill="#FFFFFF" cx="264.245" cy="411.197" r="14.043"/>
			<path fill="#FFFFFF" d="M208.542,397.154c-7.76,0-14.045,6.287-14.045,14.043s6.285,14.043,14.045,14.043
				c7.754,0,14.043-6.287,14.043-14.043S216.295,397.154,208.542,397.154z"/>
			<circle fill="#FFFFFF" cx="374.904" cy="246.402" r="14.045"/>
			<circle fill="#FFFFFF" cx="319.947" cy="246.402" r="14.045"/>
			<path fill="#FFFFFF" d="M264.995,260.448c7.754,0,14.043-6.289,14.043-14.046c0-7.756-6.289-14.045-14.043-14.045
				c-7.76,0-14.049,6.289-14.049,14.045C250.946,254.159,257.235,260.448,264.995,260.448z"/>
			<circle fill="#FFFFFF" cx="210.038" cy="246.402" r="14.045"/>
			<circle fill="#FFFFFF" cx="319.947" cy="193.641" r="14.046"/>
			<path fill="#FFFFFF" d="M264.995,207.687c7.754,0,14.043-6.29,14.043-14.046c0-7.759-6.289-14.046-14.043-14.046
				c-7.76,0-14.049,6.287-14.049,14.046C250.946,201.397,257.235,207.687,264.995,207.687z"/>
			<circle fill="#FFFFFF" cx="210.038" cy="193.641" r="14.046"/>
			<circle fill="#FFFFFF" cx="374.492" cy="300.536" r="14.044"/>
			<circle fill="#FFFFFF" cx="319.947" cy="300.536" r="14.044"/>
			<path fill="#FFFFFF" d="M265.405,286.492c-7.758,0-14.049,6.287-14.049,14.043c0,7.758,6.291,14.045,14.049,14.045
				c7.754,0,14.043-6.287,14.043-14.045C279.448,292.779,273.159,286.492,265.405,286.492z"/>
			<path fill="#FFFFFF" d="M210.86,286.492c-7.76,0-14.047,6.287-14.047,14.043c0,7.758,6.287,14.045,14.047,14.045
				c7.754,0,14.043-6.287,14.043-14.045C224.903,292.779,218.614,286.492,210.86,286.492z"/>
		</g>
	</g>
</g>
</svg>
