<?xml version="1.0" encoding="utf-8"?>
<!-- Generator: Adobe Illustrator 15.0.0, SVG Export Plug-In . SVG Version: 6.00 Build 0)  -->
<!DOCTYPE svg PUBLIC "-//W3C//DTD SVG 1.1//EN" "http://www.w3.org/Graphics/SVG/1.1/DTD/svg11.dtd">
<svg version="1.1" id="Capa_1" xmlns="http://www.w3.org/2000/svg" xmlns:xlink="http://www.w3.org/1999/xlink" x="0px" y="0px"
	 width="600px" height="600px" viewBox="0 0 600 600" enable-background="new 0 0 600 600" xml:space="preserve">
<g>
	<circle fill="#EED26A" cx="300" cy="300" r="243.811"/>
	<circle fill="#C4E15E" cx="300" cy="300" r="243.811"/>
	<path fill="#C4E15E" d="M543.592,309.949L373.285,175.621l-120.46,49.004l-55.887,176.434L365.754,534.83
		C465.402,506.986,539.275,417.426,543.592,309.949z"/>
	<path opacity="0.37" fill="#B5D24F" d="M543.592,309.949L373.285,175.621L159.433,267l101.315,68l-63.81,66.059L365.754,534.83
		C465.402,506.986,539.275,417.426,543.592,309.949z"/>
	<path fill="#FFFFFF" d="M298.107,155.639c-68.376,0-125.645,47.537-140.571,111.361h101.315v-30.486L364.004,300l-105.153,63.486
		V335H158.024c15.645,62.814,72.424,109.361,140.083,109.361c79.725,0,144.358-64.633,144.358-144.361
		C442.465,220.273,377.832,155.639,298.107,155.639z"/>
</g>
</svg>
