<?xml version="1.0" encoding="utf-8"?>
<!-- Generator: Adobe Illustrator 15.0.0, SVG Export Plug-In . SVG Version: 6.00 Build 0)  -->
<!DOCTYPE svg PUBLIC "-//W3C//DTD SVG 1.1//EN" "http://www.w3.org/Graphics/SVG/1.1/DTD/svg11.dtd">
<svg version="1.1" id="Capa_1" xmlns="http://www.w3.org/2000/svg" xmlns:xlink="http://www.w3.org/1999/xlink" x="0px" y="0px"
	 width="600px" height="600px" viewBox="0 0 600 600" enable-background="new 0 0 600 600" xml:space="preserve">
<g>
	<circle fill="#EED26A" cx="300" cy="300" r="243.811"/>
	<circle fill="#D97077" cx="300" cy="300" r="243.811"/>
	<path fill="#CA6168" d="M535.989,361.469l-76.264-61.47L309.243,183.935v11.735l12.416,12.968l-12.416,25.93l20.065,12.968
		l-189.034,25.932l13.727,12.967l-13.727,25.93l14.393,12.968l-14.393,25.932l214.012,186.474
		C442.94,517.575,513.226,449.104,535.989,361.469z"/>
	<g>
		<polygon fill="#FFFFFF" points="342.83,390.159 376.45,364.229 309.243,364.229 309.243,390.159 		"/>
		<polygon fill="#FFFFFF" points="140.274,325.331 140.274,351.263 393.262,351.263 426.882,325.331 		"/>
		<polygon fill="#FFFFFF" points="140.274,312.363 443.693,312.363 459.726,299.999 442.139,286.434 140.274,286.434 		"/>
		<polygon fill="#FFFFFF" points="324.458,195.67 309.243,183.935 309.243,195.67 		"/>
		<polygon fill="#FFFFFF" points="140.274,247.535 140.274,273.467 425.324,273.467 391.705,247.535 		"/>
		<polygon fill="#FFFFFF" points="309.243,403.127 309.243,416.065 326.018,403.127 		"/>
		<polygon fill="#FFFFFF" points="309.243,208.638 309.243,234.567 374.893,234.567 341.271,208.638 		"/>
	</g>
</g>
</svg>
