<?xml version="1.0" encoding="utf-8"?>
<!-- Generator: Adobe Illustrator 15.0.0, SVG Export Plug-In . SVG Version: 6.00 Build 0)  -->
<!DOCTYPE svg PUBLIC "-//W3C//DTD SVG 1.1//EN" "http://www.w3.org/Graphics/SVG/1.1/DTD/svg11.dtd">
<svg version="1.1" id="Capa_1" xmlns="http://www.w3.org/2000/svg" xmlns:xlink="http://www.w3.org/1999/xlink" x="0px" y="0px"
	 width="600px" height="600px" viewBox="0 0 600 600" enable-background="new 0 0 600 600" xml:space="preserve">
<g>
	<circle fill="#3C556B" cx="300" cy="300" r="243.811"/>
	<path fill="#3C556B" d="M543.633,308.837l-165.34-130.414l-120.46,49.004l-55.887,176.435l164.901,130.668
		C466.289,506.241,539.801,416.412,543.633,308.837z"/>
	<path opacity="0.37" fill="#2D465C" d="M543.633,308.837l-165.34-130.414l-120.46,49.004l-55.887,176.435l164.901,130.668
		C466.289,506.241,539.801,416.412,543.633,308.837z"/>
	<path fill="#FFFFFF" d="M444.361,300c0-79.728-64.634-144.361-144.364-144.361c-79.725,0-144.358,64.634-144.358,144.361
		s64.634,144.361,144.358,144.361C379.728,444.361,444.361,379.728,444.361,300z M339.252,363.487L234.1,300l105.152-63.487V363.487
		z"/>
</g>
</svg>
