<?xml version="1.0" encoding="utf-8"?>
<!-- Generator: Adobe Illustrator 15.0.0, SVG Export Plug-In . SVG Version: 6.00 Build 0)  -->
<!DOCTYPE svg PUBLIC "-//W3C//DTD SVG 1.1//EN" "http://www.w3.org/Graphics/SVG/1.1/DTD/svg11.dtd">
<svg version="1.1" id="Capa_1" xmlns="http://www.w3.org/2000/svg" xmlns:xlink="http://www.w3.org/1999/xlink" x="0px" y="0px"
	 width="600px" height="600px" viewBox="0 0 600 600" enable-background="new 0 0 600 600" xml:space="preserve">
<g>
	<circle fill="#EED26A" cx="300" cy="300" r="243.811"/>
	<circle fill="#C4E15E" cx="300" cy="300" r="243.811"/>
	<path fill="#C4E15E" d="M543.592,309.948L373.285,175.62l-120.46,49.004l-55.887,176.435L365.753,534.83
		C465.402,506.985,539.275,417.425,543.592,309.948z"/>
	<path opacity="0.37" fill="#B5D24F" d="M543.592,309.948L373.285,175.62l-120.46,49.004l-55.887,176.435L365.753,534.83
		C465.402,506.985,539.275,417.425,543.592,309.948z"/>
	<path fill="#FFFFFF" d="M300.003,444.361c79.725,0,144.358-64.634,144.358-144.361s-64.634-144.361-144.358-144.361
		c-79.73,0-144.364,64.634-144.364,144.361S220.272,444.361,300.003,444.361z M260.748,236.513L365.9,300l-105.152,63.486V236.513z"
		/>
</g>
</svg>
