<?xml version="1.0" encoding="utf-8"?>
<!-- Generator: Adobe Illustrator 15.0.0, SVG Export Plug-In . SVG Version: 6.00 Build 0)  -->
<!DOCTYPE svg PUBLIC "-//W3C//DTD SVG 1.1//EN" "http://www.w3.org/Graphics/SVG/1.1/DTD/svg11.dtd">
<svg version="1.1" id="Capa_1" xmlns="http://www.w3.org/2000/svg" xmlns:xlink="http://www.w3.org/1999/xlink" x="0px" y="0px"
	 width="600px" height="600px" viewBox="0 0 600 600" enable-background="new 0 0 600 600" xml:space="preserve">
<g>
	<circle fill="#EED26A" cx="300" cy="300" r="243.811"/>
	<circle fill="#D97077" cx="300" cy="300" r="243.811"/>
	<path fill="#CA6168" d="M542.341,326.773l-143.36-131.85L206,269l-18.038,122.03l163.175,147.392
		C452.727,516.736,530.869,431.779,542.341,326.773z"/>
	<path fill="#FFFFFF" d="M299.996,155.639c68.376,0,125.645,47.537,140.571,111.361H339.252v-30.486L234.1,300l105.152,63.486V335
		h100.827c-15.645,62.814-72.424,109.361-140.083,109.361c-79.725,0-144.357-64.633-144.357-144.361
		C155.639,220.273,220.271,155.639,299.996,155.639z"/>
</g>
</svg>
