<?xml version="1.0" encoding="utf-8"?>
<!-- Generator: Adobe Illustrator 15.0.0, SVG Export Plug-In . SVG Version: 6.00 Build 0)  -->
<!DOCTYPE svg PUBLIC "-//W3C//DTD SVG 1.1//EN" "http://www.w3.org/Graphics/SVG/1.1/DTD/svg11.dtd">
<svg version="1.1" id="Capa_1" xmlns="http://www.w3.org/2000/svg" xmlns:xlink="http://www.w3.org/1999/xlink" x="0px" y="0px"
	 width="600px" height="600px" viewBox="0 0 600 600" enable-background="new 0 0 600 600" xml:space="preserve">
<g>
	<circle fill="#CF6F55" cx="300" cy="300" r="243.811"/>
	<path fill="#C06046" d="M536.495,359.518l-102.79-157.346l-145.688-26.551L204.956,243l-19.051,159.247l106.101,141.419
		c2.661,0.086,5.328,0.145,8.01,0.145C414.135,543.811,509.93,465.398,536.495,359.518z"/>
	<path fill="#FFFFFF" d="M140.729,300c0,87.964,71.308,159.271,159.271,159.271S459.271,387.964,459.271,300
		S387.964,140.729,300,140.729S140.729,212.036,140.729,300z M213.112,300l76.963-88.502h64.812L277.924,300l76.963,88.502h-64.812
		L213.112,300z"/>
</g>
</svg>
