<?xml version="1.0" encoding="utf-8"?>
<!-- Generator: Adobe Illustrator 15.0.0, SVG Export Plug-In . SVG Version: 6.00 Build 0)  -->
<!DOCTYPE svg PUBLIC "-//W3C//DTD SVG 1.1//EN" "http://www.w3.org/Graphics/SVG/1.1/DTD/svg11.dtd">
<svg version="1.1" id="Capa_1" xmlns="http://www.w3.org/2000/svg" xmlns:xlink="http://www.w3.org/1999/xlink" x="0px" y="0px"
	 width="600px" height="600px" viewBox="0 0 600 600" enable-background="new 0 0 600 600" xml:space="preserve">
<g>
	<circle fill="#3C556B" cx="300" cy="300" r="243.811"/>
	<path opacity="0.37" fill="#2D465C" d="M532.588,373.306L318.225,166.41l9.471,43.123L252,219l-62.708,81l26.34,98.648
		l132.744,140.354C435.738,521.414,506.192,457.131,532.588,373.306z"/>
	<path fill="#FFFFFF" d="M384.35,398.647c17.312-17.313,28.744-39.161,33.057-63.181c4.213-23.453,1.4-47.348-8.129-69.096
		l-26.674,11.688c15.02,34.276,7.623,73.529-18.846,99.996c-35.16,35.161-92.372,35.161-127.533,0
		c-35.162-35.16-35.162-92.372,0-127.533c17.797-17.798,41.485-27.023,65.701-26.449l-9.879,34.947l46.645-11.816l46.646-11.816
		l-33.557-34.488l-33.557-34.488l-8.195,28.994c-12.077-1.016-24.3-0.197-36.249,2.484c-22.018,4.938-42.124,16.018-58.147,32.041
		c-22.533,22.533-34.942,52.492-34.942,84.358c0,0.002,0-0.001,0,0.001c0,31.863,12.411,61.826,34.942,84.359
		c22.533,22.532,52.493,34.941,84.359,34.941C331.857,433.59,361.816,421.18,384.35,398.647z"/>
</g>
</svg>
