<?xml version="1.0" encoding="utf-8"?>
<!-- Generator: Adobe Illustrator 15.0.0, SVG Export Plug-In . SVG Version: 6.00 Build 0)  -->
<!DOCTYPE svg PUBLIC "-//W3C//DTD SVG 1.1//EN" "http://www.w3.org/Graphics/SVG/1.1/DTD/svg11.dtd">
<svg version="1.1" id="Capa_1" xmlns="http://www.w3.org/2000/svg" xmlns:xlink="http://www.w3.org/1999/xlink" x="0px" y="0px"
	 width="600px" height="600px" viewBox="0 0 600 600" enable-background="new 0 0 600 600" xml:space="preserve">
<g>
	<circle fill="#65B3AD" cx="300" cy="300" r="243.811"/>
	<path opacity="0.37" fill="#56A49E" d="M543.383,314.293l-94.264-94.264l-166.982-4.011l-109.942,54.073v102.4l168.001,168.001
		C451.135,522.086,536.762,428.791,543.383,314.293z"/>
	<path fill="#FFFFFF" d="M419.659,203.021l-29.459-17.01v18.475H255.631c-57.759,0-104.75,46.99-104.75,104.751
		c0,57.759,46.991,104.751,104.75,104.751c57.76,0,104.752-46.992,104.752-104.751c0-20.378-5.86-40.136-16.947-57.142
		l-26.04,16.976c7.786,11.943,11.901,25.833,11.901,40.166c0,40.618-33.047,73.664-73.666,73.664
		c-40.62,0-73.666-33.046-73.666-73.664c0-40.62,33.046-73.666,73.666-73.666h134.568v18.476l29.46-17.009l29.46-17.009
		L419.659,203.021z"/>
</g>
</svg>
