<?xml version="1.0" encoding="utf-8"?>
<!-- Generator: Adobe Illustrator 15.0.0, SVG Export Plug-In . SVG Version: 6.00 Build 0)  -->
<!DOCTYPE svg PUBLIC "-//W3C//DTD SVG 1.1//EN" "http://www.w3.org/Graphics/SVG/1.1/DTD/svg11.dtd">
<svg version="1.1" id="Capa_1" xmlns="http://www.w3.org/2000/svg" xmlns:xlink="http://www.w3.org/1999/xlink" x="0px" y="0px"
	 width="600px" height="600px" viewBox="0 0 600 600" enable-background="new 0 0 600 600" xml:space="preserve">
<g>
	<circle fill="#C4E15E" cx="300" cy="300" r="243.811"/>
	<path fill="#C4E15E" d="M191.582,278.152l80.996-26.999l121.494,1.5l2.722-44.58l142.747,137.49
		c-0.261,1.381-0.532,2.758-0.807,4.134c3.324-16.046,5.076-32.666,5.076-49.697c0-134.653-109.16-243.811-243.811-243.811
		S56.189,165.347,56.189,300c0,134.65,109.16,243.811,243.811,243.811c15.127,0,29.928-1.389,44.293-4.025L175.717,377.313
		L191.582,278.152z"/>
	<path opacity="0.37" fill="#B5D24F" d="M538.734,349.697c0.274-1.376,0.546-2.753,0.807-4.134l-142.747-137.49l-2.722,44.58
		l-121.494-1.5l-80.996,26.999l-15.865,99.162l168.576,162.472C441.622,521.92,518.734,446.264,538.734,349.697z"/>
	<path fill="#FFFFFF" d="M364.49,178.033l-18.267,19.614l37.467,34.828H256.102c-52.243,0-94.746,42.503-94.746,94.746
		s42.503,94.746,94.746,94.746v-29c-36.253,0-65.746-29.494-65.746-65.746c0-36.252,29.493-65.746,65.746-65.746h127.619
		l-37.498,34.847l18.268,19.614l74.154-68.943L364.49,178.033z"/>
</g>
</svg>
