<?xml version="1.0" encoding="utf-8"?>
<!-- Generator: Adobe Illustrator 15.0.0, SVG Export Plug-In . SVG Version: 6.00 Build 0)  -->
<!DOCTYPE svg PUBLIC "-//W3C//DTD SVG 1.1//EN" "http://www.w3.org/Graphics/SVG/1.1/DTD/svg11.dtd">
<svg version="1.1" id="Capa_1" xmlns="http://www.w3.org/2000/svg" xmlns:xlink="http://www.w3.org/1999/xlink" x="0px" y="0px"
	 width="600px" height="600px" viewBox="0 0 600 600" enable-background="new 0 0 600 600" xml:space="preserve">
<g>
	<circle fill="#EED26A" cx="300" cy="300" r="243.811"/>
	<circle fill="#D97077" cx="300" cy="300" r="243.811"/>
	<path fill="#CA6168" d="M518.444,408.365L300.002,146.971l7.735,192.697l-54.633,74.32l-64.888,39.041l79.262,88.617
		c10.641,1.418,21.493,2.164,32.521,2.164C395.721,543.811,478.545,488.637,518.444,408.365z"/>
	<path fill="#FFFFFF" d="M317.639,235.027h33.201l-25.418-44.028l-25.42-44.028l-25.42,44.028l-25.42,44.028h33.201
		c-0.48,120.18-7.973,182.785-94.146,182.785v35.217c30.783,0,55.217-6.6,74.695-20.176c16.289-11.354,28.471-27.143,37.09-48.123
		c8.619,20.979,20.799,36.77,37.09,48.123c19.479,13.576,43.908,20.176,74.691,20.176v-35.217
		C325.609,417.812,318.117,355.207,317.639,235.027z"/>
</g>
</svg>
