<?xml version="1.0" encoding="iso-8859-1"?>
<!-- Generator: Adobe Illustrator 19.1.0, SVG Export Plug-In . SVG Version: 6.00 Build 0)  -->
<svg version="1.1" id="Capa_1" xmlns="http://www.w3.org/2000/svg" xmlns:xlink="http://www.w3.org/1999/xlink" x="0px" y="0px"
	 viewBox="0 0 456.67 456.67" style="enable-background:new 0 0 456.67 456.67;" xml:space="preserve">
<g>
	<g id="XMLID_17_">
		<g>
			<path style="fill:#FFCC73;" d="M83.54,434.28c0,3.18,2.59,5.77,5.77,5.77h278.05c3.18,0,5.78-2.59,5.78-5.77V22.4
				c0-3.19-2.6-5.78-5.78-5.78H89.31c-3.18,0-5.77,2.59-5.77,5.78V434.28z M367.36,9c7.38,0,13.39,6.01,13.39,13.4v411.88
				c0,7.38-6.01,13.39-13.39,13.39H89.31c-7.38,0-13.39-6.01-13.39-13.39V22.4c0-7.39,6.01-13.4,13.39-13.4H367.36z"/>
			<path d="M262.26,325.64c0,1.76,1.43,3.19,3.19,3.19c1.76,0,3.19-1.43,3.19-3.19v-45.38c0-1.76-1.43-3.2-3.19-3.2
				c-1.76,0-3.19,1.44-3.19,3.2V325.64z M289.58,251.03c0,1.76,1.43,3.19,3.19,3.19c1.76,0,3.19-1.43,3.19-3.19v-45.38
				c0-1.76-1.43-3.2-3.19-3.2c-1.76,0-3.19,1.44-3.19,3.2V251.03z M301.28,325.64c0,1.76,1.43,3.19,3.19,3.19s3.19-1.43,3.19-3.19
				v-45.38c0-1.76-1.43-3.2-3.19-3.2s-3.19,1.44-3.19,3.2V325.64z M308.15,254.22c1.76,0,3.2-1.43,3.2-3.19v-45.38
				c0-1.76-1.44-3.2-3.2-3.2c-1.76,0-3.19,1.44-3.19,3.2v45.38C304.96,252.79,306.39,254.22,308.15,254.22z M316.66,325.64
				c0,1.76,1.43,3.19,3.19,3.19c1.76,0,3.2-1.43,3.2-3.19v-45.38c0-1.76-1.44-3.2-3.2-3.2c-1.76,0-3.19,1.44-3.19,3.2V325.64z
				 M320.35,176.42c0,1.76,1.43,3.19,3.19,3.19c1.76,0,3.19-1.43,3.19-3.19v-45.39c0-1.76-1.43-3.19-3.19-3.19
				c-1.76,0-3.19,1.43-3.19,3.19V176.42z M320.35,251.03c0,1.76,1.43,3.19,3.19,3.19c1.76,0,3.19-1.43,3.19-3.19v-45.38
				c0-1.76-1.43-3.2-3.19-3.2c-1.76,0-3.19,1.44-3.19,3.2V251.03z M338.92,179.61c1.76,0,3.19-1.43,3.19-3.19v-45.39
				c0-1.76-1.43-3.19-3.19-3.19c-1.76,0-3.19,1.43-3.19,3.19v45.39C335.73,178.18,337.16,179.61,338.92,179.61z M338.92,254.22
				c1.76,0,3.19-1.43,3.19-3.19v-45.38c0-1.76-1.43-3.2-3.19-3.2c-1.76,0-3.19,1.44-3.19,3.2v45.38
				C335.73,252.79,337.16,254.22,338.92,254.22z M145.92,400.25c0,1.76,1.43,3.19,3.19,3.19s3.19-1.43,3.19-3.19v-45.38
				c0-1.76-1.43-3.19-3.19-3.19s-3.19,1.43-3.19,3.19V400.25z M145.92,101.81c0,1.76,1.43,3.19,3.19,3.19s3.19-1.43,3.19-3.19V56.42
				c0-1.76-1.43-3.19-3.19-3.19s-3.19,1.43-3.19,3.19V101.81z M145.92,176.42c0,1.76,1.43,3.19,3.19,3.19s3.19-1.43,3.19-3.19
				v-45.39c0-1.76-1.43-3.19-3.19-3.19s-3.19,1.43-3.19,3.19V176.42z M145.92,325.64c0,1.76,1.43,3.19,3.19,3.19
				s3.19-1.43,3.19-3.19v-45.38c0-1.76-1.43-3.2-3.19-3.2s-3.19,1.44-3.19,3.2V325.64z M161.3,176.42c0,1.76,1.43,3.19,3.19,3.19
				c1.77,0,3.2-1.43,3.2-3.19v-45.39c0-1.76-1.43-3.19-3.2-3.19c-1.76,0-3.19,1.43-3.19,3.19V176.42z M161.3,101.81
				c0,1.76,1.43,3.19,3.19,3.19c1.77,0,3.2-1.43,3.2-3.19V56.42c0-1.76-1.43-3.19-3.2-3.19c-1.76,0-3.19,1.43-3.19,3.19V101.81z
				 M161.3,400.25c0,1.76,1.43,3.19,3.19,3.19c1.77,0,3.2-1.43,3.2-3.19v-45.38c0-1.76-1.43-3.19-3.2-3.19
				c-1.76,0-3.19,1.43-3.19,3.19V400.25z M176.69,400.25c0,1.76,1.43,3.19,3.19,3.19c1.76,0,3.19-1.43,3.19-3.19v-45.38
				c0-1.76-1.43-3.19-3.19-3.19c-1.76,0-3.19,1.43-3.19,3.19V400.25z M176.69,101.81c0,1.76,1.43,3.19,3.19,3.19
				c1.76,0,3.19-1.43,3.19-3.19V56.42c0-1.76-1.43-3.19-3.19-3.19c-1.76,0-3.19,1.43-3.19,3.19V101.81z M195.26,403.44
				c1.76,0,3.19-1.43,3.19-3.19v-45.38c0-1.76-1.43-3.19-3.19-3.19c-1.76,0-3.19,1.43-3.19,3.19v45.38
				C192.07,402.01,193.5,403.44,195.26,403.44z M115.15,400.25c0,1.76,1.43,3.19,3.19,3.19c1.76,0,3.2-1.43,3.2-3.19v-45.38
				c0-1.76-1.44-3.19-3.2-3.19c-1.76,0-3.19,1.43-3.19,3.19V400.25z M115.15,176.42c0,1.76,1.43,3.19,3.19,3.19
				c1.76,0,3.2-1.43,3.2-3.19v-45.39c0-1.76-1.44-3.19-3.2-3.19c-1.76,0-3.19,1.43-3.19,3.19V176.42z M115.15,101.81
				c0,1.76,1.43,3.19,3.19,3.19c1.76,0,3.2-1.43,3.2-3.19V56.42c0-1.76-1.44-3.19-3.2-3.19c-1.76,0-3.19,1.43-3.19,3.19V101.81z
				 M115.15,251.03c0,1.76,1.43,3.19,3.19,3.19c1.76,0,3.2-1.43,3.2-3.19v-45.38c0-1.76-1.44-3.2-3.2-3.2
				c-1.76,0-3.19,1.44-3.19,3.2V251.03z M115.15,325.64c0,1.76,1.43,3.19,3.19,3.19c1.76,0,3.2-1.43,3.2-3.19v-45.38
				c0-1.76-1.44-3.2-3.2-3.2c-1.76,0-3.19,1.44-3.19,3.2V325.64z M228.22,101.81c0,1.76,1.43,3.19,3.19,3.19
				c1.76,0,3.2-1.43,3.2-3.19V56.42c0-1.76-1.44-3.19-3.2-3.19c-1.76,0-3.19,1.43-3.19,3.19V101.81z M133.73,328.83
				c1.76,0,3.19-1.43,3.19-3.19v-45.38c0-1.76-1.43-3.2-3.19-3.2c-1.76,0-3.19,1.44-3.19,3.2v45.38
				C130.54,327.4,131.97,328.83,133.73,328.83z M133.73,105c1.76,0,3.19-1.43,3.19-3.19V56.42c0-1.76-1.43-3.19-3.19-3.19
				c-1.76,0-3.19,1.43-3.19,3.19v45.39C130.54,103.57,131.97,105,133.73,105z M133.73,254.22c1.76,0,3.19-1.43,3.19-3.19v-45.38
				c0-1.76-1.43-3.2-3.19-3.2c-1.76,0-3.19,1.44-3.19,3.2v45.38C130.54,252.79,131.97,254.22,133.73,254.22z M133.73,403.44
				c1.76,0,3.19-1.43,3.19-3.19v-45.38c0-1.76-1.43-3.19-3.19-3.19c-1.76,0-3.19,1.43-3.19,3.19v45.38
				C130.54,402.01,131.97,403.44,133.73,403.44z M133.73,179.61c1.76,0,3.19-1.43,3.19-3.19v-45.39c0-1.76-1.43-3.19-3.19-3.19
				c-1.76,0-3.19,1.43-3.19,3.19v45.39C130.54,178.18,131.97,179.61,133.73,179.61z M367.36,16.62c3.18,0,5.78,2.59,5.78,5.78
				v411.88c0,3.18-2.6,5.77-5.78,5.77H89.31c-3.18,0-5.77-2.59-5.77-5.77V22.4c0-3.19,2.59-5.78,5.77-5.78H367.36z M364.14,431.05
				v-49H207.45v18.2c0,6.72-5.47,12.19-12.19,12.19c-2.91,0-5.59-1.03-7.69-2.74c-2.1,1.71-4.78,2.74-7.69,2.74
				c-2.92,0-5.59-1.03-7.69-2.74c-2.1,1.71-4.78,2.74-7.7,2.74c-2.91,0-5.59-1.03-7.69-2.74c-2.1,1.71-4.77,2.74-7.69,2.74
				c-2.91,0-5.59-1.03-7.69-2.74c-2.1,1.71-4.78,2.74-7.69,2.74c-2.92,0-5.59-1.03-7.69-2.74c-2.1,1.71-4.78,2.74-7.7,2.74
				c-6.72,0-12.19-5.47-12.19-12.19v-18.2H92.54v49H364.14z M364.14,373.05v-65.61h-32.09v18.2c0,6.72-5.47,12.19-12.2,12.19
				c-2.91,0-5.59-1.03-7.69-2.74c-2.1,1.71-4.78,2.74-7.69,2.74c-6.72,0-12.19-5.47-12.19-12.19v-18.2h-14.64v18.2
				c0,6.72-5.47,12.19-12.19,12.19s-12.19-5.47-12.19-12.19v-18.2H161.3v18.2c0,6.72-5.47,12.19-12.19,12.19
				c-2.91,0-5.59-1.03-7.69-2.74c-2.1,1.71-4.78,2.74-7.69,2.74c-2.92,0-5.59-1.03-7.69-2.74c-2.1,1.71-4.78,2.74-7.7,2.74
				c-6.72,0-12.19-5.47-12.19-12.19v-18.2H92.54v65.61h13.61v-18.18c0-6.73,5.47-12.19,12.19-12.19c2.92,0,5.6,1.03,7.7,2.74
				c2.1-1.71,4.77-2.74,7.69-2.74c2.91,0,5.59,1.03,7.69,2.74c2.1-1.71,4.78-2.74,7.69-2.74c2.92,0,5.59,1.03,7.69,2.74
				c2.1-1.71,4.78-2.74,7.69-2.74c2.92,0,5.6,1.03,7.7,2.74c2.1-1.71,4.77-2.74,7.69-2.74c2.91,0,5.59,1.03,7.69,2.74
				c2.1-1.71,4.78-2.74,7.69-2.74c6.72,0,12.19,5.46,12.19,12.19v18.18H364.14z M364.14,298.44v-65.61h-13.03v18.2
				c0,6.72-5.47,12.19-12.19,12.19c-2.91,0-5.59-1.03-7.69-2.74c-2.1,1.71-4.78,2.74-7.69,2.74c-2.92,0-5.59-1.03-7.69-2.74
				c-2.1,1.71-4.78,2.74-7.7,2.74c-2.91,0-5.59-1.03-7.69-2.74c-2.1,1.71-4.77,2.74-7.69,2.74c-6.72,0-12.19-5.47-12.19-12.19v-18.2
				H145.92v18.2c0,6.72-5.47,12.19-12.19,12.19c-2.92,0-5.59-1.03-7.69-2.74c-2.1,1.71-4.78,2.74-7.7,2.74
				c-6.72,0-12.19-5.47-12.19-12.19v-18.2H92.54v65.61h13.61v-18.18c0-6.73,5.47-12.2,12.19-12.2c2.92,0,5.6,1.04,7.7,2.75
				c2.1-1.71,4.77-2.75,7.69-2.75c2.91,0,5.59,1.04,7.69,2.75c2.1-1.71,4.78-2.75,7.69-2.75c6.72,0,12.19,5.47,12.19,12.2v18.18
				h91.96v-18.18c0-6.73,5.47-12.2,12.19-12.2s12.19,5.47,12.19,12.2v18.18h14.64v-18.18c0-6.73,5.47-12.2,12.19-12.2
				c2.91,0,5.59,1.04,7.69,2.75c2.1-1.71,4.78-2.75,7.69-2.75c6.73,0,12.2,5.47,12.2,12.2v18.18H364.14z M364.14,223.83v-65.61
				h-13.03v18.2c0,6.72-5.47,12.19-12.19,12.19c-2.91,0-5.59-1.03-7.69-2.74c-2.1,1.71-4.78,2.74-7.69,2.74
				c-6.72,0-12.19-5.47-12.19-12.19v-18.2H176.69v18.2c0,6.72-5.47,12.19-12.2,12.19c-2.91,0-5.59-1.03-7.69-2.74
				c-2.1,1.71-4.77,2.74-7.69,2.74c-2.91,0-5.59-1.03-7.69-2.74c-2.1,1.71-4.78,2.74-7.69,2.74c-2.92,0-5.59-1.03-7.69-2.74
				c-2.1,1.71-4.78,2.74-7.7,2.74c-6.72,0-12.19-5.47-12.19-12.19v-18.2H92.54v65.61h13.61v-18.18c0-6.73,5.47-12.2,12.19-12.2
				c2.92,0,5.6,1.03,7.7,2.75c2.1-1.72,4.77-2.75,7.69-2.75c6.72,0,12.19,5.47,12.19,12.2v18.18h134.66v-18.18
				c0-6.73,5.47-12.2,12.19-12.2c2.92,0,5.59,1.03,7.69,2.75c2.1-1.72,4.78-2.75,7.69-2.75c2.92,0,5.6,1.03,7.7,2.75
				c2.1-1.72,4.77-2.75,7.69-2.75c2.91,0,5.59,1.03,7.69,2.75c2.1-1.72,4.78-2.75,7.69-2.75c6.72,0,12.19,5.47,12.19,12.2v18.18
				H364.14z M364.14,149.22V83.61H243.61v18.2c0,6.72-5.47,12.19-12.2,12.19c-6.72,0-12.19-5.47-12.19-12.19v-18.2h-27.15v18.2
				c0,6.72-5.47,12.19-12.19,12.19c-2.92,0-5.59-1.03-7.69-2.75c-2.1,1.72-4.78,2.75-7.7,2.75c-2.91,0-5.59-1.03-7.69-2.75
				c-2.1,1.72-4.77,2.75-7.69,2.75c-2.91,0-5.59-1.03-7.69-2.75c-2.1,1.72-4.78,2.75-7.69,2.75c-2.92,0-5.59-1.03-7.69-2.75
				c-2.1,1.72-4.78,2.75-7.7,2.75c-6.72,0-12.19-5.47-12.19-12.19v-18.2H92.54v65.61h13.61v-18.19c0-6.72,5.47-12.19,12.19-12.19
				c2.92,0,5.6,1.03,7.7,2.75c2.1-1.72,4.77-2.75,7.69-2.75c2.91,0,5.59,1.03,7.69,2.75c2.1-1.72,4.78-2.75,7.69-2.75
				c2.92,0,5.59,1.03,7.69,2.75c2.1-1.72,4.78-2.75,7.69-2.75c6.73,0,12.2,5.47,12.2,12.19v18.19h134.66v-18.19
				c0-6.72,5.47-12.19,12.19-12.19c2.91,0,5.59,1.03,7.69,2.75c2.1-1.72,4.78-2.75,7.69-2.75c6.72,0,12.19,5.47,12.19,12.19v18.19
				H364.14z M364.14,74.61V25.62H92.54v48.99h13.61V56.42c0-6.72,5.47-12.19,12.19-12.19c2.92,0,5.6,1.03,7.7,2.75
				c2.1-1.72,4.77-2.75,7.69-2.75c2.91,0,5.59,1.03,7.69,2.75c2.1-1.72,4.78-2.75,7.69-2.75c2.92,0,5.59,1.03,7.69,2.75
				c2.1-1.72,4.78-2.75,7.69-2.75c2.92,0,5.6,1.03,7.7,2.75c2.1-1.72,4.77-2.75,7.69-2.75c6.72,0,12.19,5.47,12.19,12.19v18.19
				h27.15V56.42c0-6.72,5.47-12.19,12.19-12.19c6.73,0,12.2,5.47,12.2,12.19v18.19H364.14z"/>
			<path style="fill:#F97946;" d="M338.92,127.84c1.76,0,3.19,1.43,3.19,3.19v45.39c0,1.76-1.43,3.19-3.19,3.19
				c-1.76,0-3.19-1.43-3.19-3.19v-45.39C335.73,129.27,337.16,127.84,338.92,127.84z"/>
			<path style="fill:#F97946;" d="M342.11,205.65v45.38c0,1.76-1.43,3.19-3.19,3.19c-1.76,0-3.19-1.43-3.19-3.19v-45.38
				c0-1.76,1.43-3.2,3.19-3.2C340.68,202.45,342.11,203.89,342.11,205.65z"/>
			<path style="fill:#F97946;" d="M323.54,127.84c1.76,0,3.19,1.43,3.19,3.19v45.39c0,1.76-1.43,3.19-3.19,3.19
				c-1.76,0-3.19-1.43-3.19-3.19v-45.39C320.35,129.27,321.78,127.84,323.54,127.84z"/>
			<path style="fill:#F97946;" d="M323.54,202.45c1.76,0,3.19,1.44,3.19,3.2v45.38c0,1.76-1.43,3.19-3.19,3.19
				c-1.76,0-3.19-1.43-3.19-3.19v-45.38C320.35,203.89,321.78,202.45,323.54,202.45z"/>
			<path style="fill:#F97946;" d="M319.85,277.06c1.76,0,3.2,1.44,3.2,3.2v45.38c0,1.76-1.44,3.19-3.2,3.19
				c-1.76,0-3.19-1.43-3.19-3.19v-45.38C316.66,278.5,318.09,277.06,319.85,277.06z"/>
			<path style="fill:#4489D3;" d="M308.15,202.45c1.76,0,3.2,1.44,3.2,3.2v45.38c0,1.76-1.44,3.19-3.2,3.19
				c-1.76,0-3.19-1.43-3.19-3.19v-45.38C304.96,203.89,306.39,202.45,308.15,202.45z"/>
			<path style="fill:#F97946;" d="M304.47,277.06c1.76,0,3.19,1.44,3.19,3.2v45.38c0,1.76-1.43,3.19-3.19,3.19s-3.19-1.43-3.19-3.19
				v-45.38C301.28,278.5,302.71,277.06,304.47,277.06z"/>
			<path style="fill:#4489D3;" d="M292.77,202.45c1.76,0,3.19,1.44,3.19,3.2v45.38c0,1.76-1.43,3.19-3.19,3.19
				c-1.76,0-3.19-1.43-3.19-3.19v-45.38C289.58,203.89,291.01,202.45,292.77,202.45z"/>
			<path style="fill:#4489D3;" d="M265.45,277.06c1.76,0,3.19,1.44,3.19,3.2v45.38c0,1.76-1.43,3.19-3.19,3.19
				c-1.76,0-3.19-1.43-3.19-3.19v-45.38C262.26,278.5,263.69,277.06,265.45,277.06z"/>
			<path style="fill:#F97946;" d="M234.61,101.81c0,1.76-1.44,3.19-3.2,3.19c-1.76,0-3.19-1.43-3.19-3.19V56.42
				c0-1.76,1.43-3.19,3.19-3.19c1.76,0,3.2,1.43,3.2,3.19V101.81z"/>
			<path style="fill:#F97946;" d="M192.07,354.87c0-1.76,1.43-3.19,3.19-3.19c1.76,0,3.19,1.43,3.19,3.19v45.38
				c0,1.76-1.43,3.19-3.19,3.19c-1.76,0-3.19-1.43-3.19-3.19V354.87z"/>
			<path style="fill:#F97946;" d="M183.07,56.42v45.39c0,1.76-1.43,3.19-3.19,3.19c-1.76,0-3.19-1.43-3.19-3.19V56.42
				c0-1.76,1.43-3.19,3.19-3.19C181.64,53.23,183.07,54.66,183.07,56.42z"/>
			<path style="fill:#F97946;" d="M179.88,351.68c1.76,0,3.19,1.43,3.19,3.19v45.38c0,1.76-1.43,3.19-3.19,3.19
				c-1.76,0-3.19-1.43-3.19-3.19v-45.38C176.69,353.11,178.12,351.68,179.88,351.68z"/>
			<path style="fill:#4489D3;" d="M164.49,53.23c1.77,0,3.2,1.43,3.2,3.19v45.39c0,1.76-1.43,3.19-3.2,3.19
				c-1.76,0-3.19-1.43-3.19-3.19V56.42C161.3,54.66,162.73,53.23,164.49,53.23z"/>
			<path style="fill:#4489D3;" d="M164.49,127.84c1.77,0,3.2,1.43,3.2,3.19v45.39c0,1.76-1.43,3.19-3.2,3.19
				c-1.76,0-3.19-1.43-3.19-3.19v-45.39C161.3,129.27,162.73,127.84,164.49,127.84z"/>
			<path style="fill:#4489D3;" d="M164.49,351.68c1.77,0,3.2,1.43,3.2,3.19v45.38c0,1.76-1.43,3.19-3.2,3.19
				c-1.76,0-3.19-1.43-3.19-3.19v-45.38C161.3,353.11,162.73,351.68,164.49,351.68z"/>
			<path style="fill:#4489D3;" d="M149.11,53.23c1.76,0,3.19,1.43,3.19,3.19v45.39c0,1.76-1.43,3.19-3.19,3.19s-3.19-1.43-3.19-3.19
				V56.42C145.92,54.66,147.35,53.23,149.11,53.23z"/>
			<path style="fill:#4489D3;" d="M149.11,127.84c1.76,0,3.19,1.43,3.19,3.19v45.39c0,1.76-1.43,3.19-3.19,3.19
				s-3.19-1.43-3.19-3.19v-45.39C145.92,129.27,147.35,127.84,149.11,127.84z"/>
			<path style="fill:#4489D3;" d="M149.11,277.06c1.76,0,3.19,1.44,3.19,3.2v45.38c0,1.76-1.43,3.19-3.19,3.19s-3.19-1.43-3.19-3.19
				v-45.38C145.92,278.5,147.35,277.06,149.11,277.06z"/>
			<path style="fill:#4489D3;" d="M149.11,351.68c1.76,0,3.19,1.43,3.19,3.19v45.38c0,1.76-1.43,3.19-3.19,3.19
				s-3.19-1.43-3.19-3.19v-45.38C145.92,353.11,147.35,351.68,149.11,351.68z"/>
			<path style="fill:#F97946;" d="M136.92,56.42v45.39c0,1.76-1.43,3.19-3.19,3.19c-1.76,0-3.19-1.43-3.19-3.19V56.42
				c0-1.76,1.43-3.19,3.19-3.19C135.49,53.23,136.92,54.66,136.92,56.42z"/>
			<path style="fill:#F97946;" d="M136.92,131.03v45.39c0,1.76-1.43,3.19-3.19,3.19c-1.76,0-3.19-1.43-3.19-3.19v-45.39
				c0-1.76,1.43-3.19,3.19-3.19C135.49,127.84,136.92,129.27,136.92,131.03z"/>
			<path style="fill:#F97946;" d="M136.92,205.65v45.38c0,1.76-1.43,3.19-3.19,3.19c-1.76,0-3.19-1.43-3.19-3.19v-45.38
				c0-1.76,1.43-3.2,3.19-3.2C135.49,202.45,136.92,203.89,136.92,205.65z"/>
			<path style="fill:#F97946;" d="M136.92,280.26v45.38c0,1.76-1.43,3.19-3.19,3.19c-1.76,0-3.19-1.43-3.19-3.19v-45.38
				c0-1.76,1.43-3.2,3.19-3.2C135.49,277.06,136.92,278.5,136.92,280.26z"/>
			<path style="fill:#F97946;" d="M136.92,354.87v45.38c0,1.76-1.43,3.19-3.19,3.19c-1.76,0-3.19-1.43-3.19-3.19v-45.38
				c0-1.76,1.43-3.19,3.19-3.19C135.49,351.68,136.92,353.11,136.92,354.87z"/>
			<path style="fill:#F97946;" d="M118.34,53.23c1.76,0,3.2,1.43,3.2,3.19v45.39c0,1.76-1.44,3.19-3.2,3.19
				c-1.76,0-3.19-1.43-3.19-3.19V56.42C115.15,54.66,116.58,53.23,118.34,53.23z"/>
			<path style="fill:#F97946;" d="M118.34,127.84c1.76,0,3.2,1.43,3.2,3.19v45.39c0,1.76-1.44,3.19-3.2,3.19
				c-1.76,0-3.19-1.43-3.19-3.19v-45.39C115.15,129.27,116.58,127.84,118.34,127.84z"/>
			<path style="fill:#F97946;" d="M118.34,202.45c1.76,0,3.2,1.44,3.2,3.2v45.38c0,1.76-1.44,3.19-3.2,3.19
				c-1.76,0-3.19-1.43-3.19-3.19v-45.38C115.15,203.89,116.58,202.45,118.34,202.45z"/>
			<path style="fill:#F97946;" d="M118.34,277.06c1.76,0,3.2,1.44,3.2,3.2v45.38c0,1.76-1.44,3.19-3.2,3.19
				c-1.76,0-3.19-1.43-3.19-3.19v-45.38C115.15,278.5,116.58,277.06,118.34,277.06z"/>
			<path style="fill:#F97946;" d="M118.34,351.68c1.76,0,3.2,1.43,3.2,3.19v45.38c0,1.76-1.44,3.19-3.2,3.19
				c-1.76,0-3.19-1.43-3.19-3.19v-45.38C115.15,353.11,116.58,351.68,118.34,351.68z"/>
			<path d="M75.92,434.28c0,7.38,6.01,13.39,13.39,13.39h278.05c7.38,0,13.39-6.01,13.39-13.39V22.4c0-7.39-6.01-13.4-13.39-13.4
				H89.31c-7.38,0-13.39,6.01-13.39,13.4V434.28z M389.75,22.4v411.88c0,12.34-10.04,22.39-22.39,22.39H89.31
				c-12.34,0-22.39-10.05-22.39-22.39V22.4C66.92,10.05,76.97,0,89.31,0h278.05C379.71,0,389.75,10.05,389.75,22.4z"/>
		</g>
	</g>
</g>
<g>
</g>
<g>
</g>
<g>
</g>
<g>
</g>
<g>
</g>
<g>
</g>
<g>
</g>
<g>
</g>
<g>
</g>
<g>
</g>
<g>
</g>
<g>
</g>
<g>
</g>
<g>
</g>
<g>
</g>
</svg>
