<?xml version="1.0" encoding="iso-8859-1"?>
<!-- Generator: Adobe Illustrator 19.1.0, SVG Export Plug-In . SVG Version: 6.00 Build 0)  -->
<svg version="1.1" id="Capa_1" xmlns="http://www.w3.org/2000/svg" xmlns:xlink="http://www.w3.org/1999/xlink" x="0px" y="0px"
	 viewBox="0 0 443.05 443.05" style="enable-background:new 0 0 443.05 443.05;" xml:space="preserve">
<g id="XMLID_11_">
	<g>
		<path style="fill:#F97946;" d="M384.835,98.65c0,2.8-2.1,5.88-6.03,8.96l-0.92-18.63C382.405,92.29,384.835,95.62,384.835,98.65z"
			/>
		<path style="fill:#F97946;" d="M85.275,79.16l0.48,4.01l-21.69,11.68l2.21,14.24c-5.24-3.56-8.06-7.16-8.06-10.44
			C58.215,92.38,68.225,85.23,85.275,79.16z"/>
		<path style="fill:#4489D3;" d="M381.485,116.76l-5.14,28.4c-1.09,3.29-4.99,6.9-11.27,10.36l-0.84,0.46
			c-25.51,13.59-81.31,22.34-142.72,22.34c-58.7,0-111.76-7.85-139.04-20.52l-1.11-0.53c-8.29-3.99-13.37-8.21-14.66-12.07
			l-5.14-28.44c1.83,1.23,3.86,2.43,6.09,3.6v0.07l2.55,1.22c29.49,14.21,87.47,23.03,151.31,23.03c66.71,0,127.68-9.85,155.35-25.1
			l2.32-1.3v-0.05C379.985,117.74,380.745,117.26,381.485,116.76z"/>
		<path style="fill:#F97946;" d="M373.485,160.95l-45.07,249.25l-0.08,0.4v0.4c0,2.93-6.14,9.41-29.18,15.12
			c-20.68,5.12-48.25,7.93-77.63,7.93s-56.95-2.81-77.64-7.93c-23.03-5.71-29.18-12.19-29.18-15.12v-0.4l-45.15-249.66
			c1.63,1.07,3.41,2.13,5.36,3.16v0.06l2.55,1.23c28.08,13.53,83.28,21.93,144.05,21.93c63.5,0,121.55-9.38,147.9-23.91l2.33-1.29
			v-0.06C372.345,161.69,372.925,161.32,373.485,160.95z"/>
		<path style="fill:#FFCC73;" d="M367.675,64.47l2.38,48.51c-5.96,3-13.35,5.76-21.9,8.26l5.13-26.42l-24.81-10.27l-3.44,8.31
			l18.02,7.46l-4.57,23.5c-18.42,4.51-41,7.9-65.86,9.88l1.77-21.74l-8.98-0.73l-1.87,23.12c-13.52,0.87-27.63,1.33-42.03,1.33
			c-25.42,0-49.82-1.4-71.75-3.98l21.9-34.34l40.11,7.16l25.84-16.45l-4.83-7.59l-22.88,14.56l-42.59-7.6l-27.42,43
			c-9.19-1.27-17.87-2.76-25.91-4.45l-5.86-22.19l-8.7,2.3l4.65,17.62c-10.84-2.68-20.25-5.77-27.84-9.2l-2.3-14.76l21.49-11.58
			l-4.95-41.28l57.98-25.94l21.94,12.91l-14.56,19.74l-44.78,8.53l1.68,8.84l48.25-9.19l19.3-26.17l28.19-23.74l21.37,18.86
			l-20.4,16.84l5.73,6.94l23.85-19.68l30.91-10.82l39.76,15.29l3.36,8.96l-20.04,24.28l6.94,5.73l19.95-24.17L367.675,64.47z"/>
		<path d="M377.345,77.98c10.94,6.15,16.49,13.09,16.49,20.67c0,1.67-56.5,312.8-56.5,312.8c-0.37,9.7-12.48,17.58-36.02,23.4
			c-21.37,5.29-49.71,8.2-79.79,8.2c-30.09,0-58.43-2.91-79.8-8.2c-23.54-5.82-35.65-13.7-36.01-23.4c0,0-56.5-311.15-56.5-312.8
			c0-11.11,11.76-20.73,34.97-28.64l-3.44-28.62l68.27-30.54l27.5,16.17L208.605,0l29.18,25.74l32.29-11.31l46.62,17.94l4.84,12.88
			l54.79,11.89L377.345,77.98z M378.805,107.61c3.93-3.08,6.03-6.16,6.03-8.96c0-3.03-2.43-6.36-6.95-9.67L378.805,107.61z
			 M376.345,145.16l5.14-28.4c-0.74,0.5-1.5,0.98-2.3,1.47v0.05l-2.32,1.3c-27.67,15.25-88.64,25.1-155.35,25.1
			c-63.84,0-121.82-8.82-151.31-23.03l-2.55-1.22v-0.07c-2.23-1.17-4.26-2.37-6.09-3.6l5.14,28.44c1.29,3.86,6.37,8.08,14.66,12.07
			l1.11,0.53c27.28,12.67,80.34,20.52,139.04,20.52c61.41,0,117.21-8.75,142.72-22.34l0.84-0.46
			C371.355,152.06,375.255,148.45,376.345,145.16z M328.415,410.2l45.07-249.25c-0.56,0.37-1.14,0.74-1.74,1.11v0.06l-2.33,1.29
			c-26.35,14.53-84.4,23.91-147.9,23.91c-60.77,0-115.97-8.4-144.05-21.93l-2.55-1.23v-0.06c-1.95-1.03-3.73-2.09-5.36-3.16
			l45.15,249.66v0.4c0,2.93,6.15,9.41,29.18,15.12c20.69,5.12,48.26,7.93,77.64,7.93s56.95-2.81,77.63-7.93
			c23.04-5.71,29.18-12.19,29.18-15.12v-0.4L328.415,410.2z M370.055,112.98l-2.38-48.51l-47.77-10.36l-19.95,24.17l-6.94-5.73
			l20.04-24.28l-3.36-8.96l-39.76-15.29l-30.91,10.82l-23.85,19.68l-5.73-6.94l20.4-16.84l-21.37-18.86l-28.19,23.74l-19.3,26.17
			l-48.25,9.19l-1.68-8.84l44.78-8.53l14.56-19.74l-21.94-12.91L90.475,46.9l4.95,41.28l-21.49,11.58l2.3,14.76
			c7.59,3.43,17,6.52,27.84,9.2l-4.65-17.62l8.7-2.3l5.86,22.19c8.04,1.69,16.72,3.18,25.91,4.45l27.42-43l42.59,7.6l22.88-14.56
			l4.83,7.59l-25.84,16.45l-40.11-7.16l-21.9,34.34c21.93,2.58,46.33,3.98,71.75,3.98c14.4,0,28.51-0.46,42.03-1.33l1.87-23.12
			l8.98,0.73l-1.77,21.74c24.86-1.98,47.44-5.37,65.86-9.88l4.57-23.5l-18.02-7.46l3.44-8.31l24.81,10.27l-5.13,26.42
			C356.705,118.74,364.095,115.98,370.055,112.98z M85.755,83.17l-0.48-4.01c-17.05,6.07-27.06,13.22-27.06,19.49
			c0,3.28,2.82,6.88,8.06,10.44l-2.21-14.24L85.755,83.17z"/>
	</g>
</g>
<g>
</g>
<g>
</g>
<g>
</g>
<g>
</g>
<g>
</g>
<g>
</g>
<g>
</g>
<g>
</g>
<g>
</g>
<g>
</g>
<g>
</g>
<g>
</g>
<g>
</g>
<g>
</g>
<g>
</g>
</svg>
