<?xml version="1.0" encoding="iso-8859-1"?>
<!-- Generator: Adobe Illustrator 19.1.0, SVG Export Plug-In . SVG Version: 6.00 Build 0)  -->
<svg version="1.1" id="Capa_1" xmlns="http://www.w3.org/2000/svg" xmlns:xlink="http://www.w3.org/1999/xlink" x="0px" y="0px"
	 viewBox="0 0 463.86 463.86" style="enable-background:new 0 0 463.86 463.86;" xml:space="preserve">
<g id="XMLID_40_">
	<g>
		<polygon style="fill:#4489D3;" points="326.785,222.88 323.845,268.05 140.015,268.05 137.085,222.88 		"/>
		<polygon style="fill:#3B75A8;" points="308.375,277.05 293.885,454.86 169.985,454.86 155.485,277.05 		"/>
		<path style="fill:#6BCE95;" d="M315.705,77.07v25.9c0,18.27-14.86,33.13-33.13,33.13h-21.03v77.78h-54.2V36.1
			c0-7.25,2.82-14.05,7.94-19.16c5.12-5.12,11.93-7.94,19.16-7.94c14.94,0,27.1,12.15,27.1,27.1v77.75h18.04
			c9.95,0,18.04-8.09,18.04-18.03V77.07c0-4.99,4.05-9.04,9.04-9.04C311.645,68.03,315.705,72.08,315.705,77.07z"/>
		<path d="M336.385,213.88l-4.11,63.17h-14.87l-15.23,186.81h-140.48l-15.24-186.81h-14.87l-4.11-63.17h70.87V36.1
			c0-9.65,3.76-18.72,10.58-25.53C215.745,3.75,224.805,0,234.445,0c19.9,0,36.1,16.19,36.1,36.1v68.75h9.04
			c4.98,0,9.04-4.05,9.04-9.03V77.07c0-9.95,8.09-18.04,18.04-18.04c9.95,0,18.04,8.09,18.04,18.04v25.9
			c0,23.23-18.9,42.13-42.13,42.13h-12.03v68.78H336.385z M323.845,268.05l2.94-45.17h-189.7l2.93,45.17H323.845z M315.705,102.97
			v-25.9c0-4.99-4.06-9.04-9.04-9.04c-4.99,0-9.04,4.05-9.04,9.04v18.75c0,9.94-8.09,18.03-18.04,18.03h-18.04V36.1
			c0-14.95-12.16-27.1-27.1-27.1c-7.23,0-14.04,2.82-19.16,7.94c-5.12,5.11-7.94,11.91-7.94,19.16v177.78h54.2V136.1h21.03
			C300.845,136.1,315.705,121.24,315.705,102.97z M293.885,454.86l14.49-177.81h-152.89l14.5,177.81H293.885z"/>
	</g>
</g>
<g>
</g>
<g>
</g>
<g>
</g>
<g>
</g>
<g>
</g>
<g>
</g>
<g>
</g>
<g>
</g>
<g>
</g>
<g>
</g>
<g>
</g>
<g>
</g>
<g>
</g>
<g>
</g>
<g>
</g>
</svg>
