<?xml version="1.0" encoding="iso-8859-1"?>
<!-- Generator: Adobe Illustrator 19.1.0, SVG Export Plug-In . SVG Version: 6.00 Build 0)  -->
<svg version="1.1" id="Capa_1" xmlns="http://www.w3.org/2000/svg" xmlns:xlink="http://www.w3.org/1999/xlink" x="0px" y="0px"
	 viewBox="0 0 433.76 433.76" style="enable-background:new 0 0 433.76 433.76;" xml:space="preserve">
<g>
	<g id="XMLID_39_">
		<g>
			<path style="fill:#F97946;" d="M100.88,131.68c3.58,0,6.5,2.91,6.5,6.5c0,3.58-2.92,6.5-6.5,6.5c-3.59,0-6.5-2.92-6.5-6.5
				C94.38,134.59,97.29,131.68,100.88,131.68z"/>
			<path style="fill:#FFCC73;" d="M135.88,131.68c3.58,0,6.5,2.91,6.5,6.5c0,3.58-2.92,6.5-6.5,6.5c-3.59,0-6.5-2.92-6.5-6.5
				C129.38,134.59,132.29,131.68,135.88,131.68z"/>
			<path style="fill:#3B75A8;" d="M349.56,10.37l2.14,12.82L178.54,52.28c-3.53,0.58-6.89-1.81-7.48-5.34
				c-0.28-1.71,0.12-3.44,1.13-4.85c1-1.41,2.5-2.35,4.22-2.63L349.56,10.37z"/>
			<rect x="87.88" y="253.68" style="fill:#3B75A8;" width="258" height="7.1"/>
			<path style="fill:#3B75A8;" d="M315.38,417.74v7.02h-197v-7.02c0-6.06,4.92-10.98,10.98-10.98h175.03
				C310.45,406.76,315.38,411.68,315.38,417.74z"/>
			<rect x="87.88" y="333.68" style="fill:#3B75A8;" width="258" height="7.1"/>
			<path style="fill:#3B75A8;" d="M315.38,317.66v7.02h-197v-7.02c0-6.06,4.92-10.98,10.98-10.98h175.03
				C310.45,306.68,315.38,311.6,315.38,317.66z"/>
			<rect x="87.88" y="173.68" style="fill:#3B75A8;" width="258" height="7.1"/>
			<path style="fill:#3B75A8;" d="M315.38,237.66v7.02h-197v-7.02c0-6.06,4.92-10.98,10.98-10.98h175.03
				C310.45,226.68,315.38,231.6,315.38,237.66z"/>
			<path style="fill:#3B75A8;" d="M345.88,94.68v37H231.32c-6.03,0-10.94-4.92-10.94-10.95c0-11-8.95-19.95-19.95-19.95H87.88v-6.1
				H345.88z"/>
			<path style="fill:#4489D3;" d="M357.38,72.68v13h-281V48.45c0-6.93,5.64-12.57,12.57-12.57h49.86c6.93,0,12.57,5.64,12.57,12.57
				v3.17c0,11.61,9.44,21.06,21.05,21.06H357.38z"/>
			<path style="fill:#4489D3;" d="M357.38,140.68v24h-281v-54.9h124.05c6.04,0,10.95,4.91,10.95,10.95c0,11,8.94,19.95,19.94,19.95
				H357.38z M151.38,138.18c0-8.55-6.96-15.5-15.5-15.5c-8.55,0-15.5,6.95-15.5,15.5c0,8.54,6.95,15.5,15.5,15.5
				C144.42,153.68,151.38,146.72,151.38,138.18z M116.38,138.18c0-8.55-6.96-15.5-15.5-15.5c-8.55,0-15.5,6.95-15.5,15.5
				c0,8.54,6.95,15.5,15.5,15.5C109.42,153.68,116.38,146.72,116.38,138.18z"/>
			<path style="fill:#4489D3;" d="M357.38,349.78v74.98h-33v-7.02c0-11.02-8.97-19.98-19.99-19.98H129.36
				c-11.02,0-19.98,8.96-19.98,19.98v7.02h-33v-74.98H357.38z"/>
			<path style="fill:#4489D3;" d="M357.38,269.78v54.9h-33v-7.02c0-11.02-8.97-19.98-19.99-19.98H129.36
				c-11.02,0-19.98,8.96-19.98,19.98v7.02h-33v-54.9H357.38z"/>
			<path style="fill:#4489D3;" d="M357.38,189.78v54.9h-33v-7.02c0-11.02-8.97-19.98-19.99-19.98H129.36
				c-11.02,0-19.98,8.96-19.98,19.98v7.02h-33v-54.9H357.38z"/>
			<path d="M366.38,340.78v92.98h-299v-92.98h11.5v-7.1h-11.5v-72.9h11.5v-7.1h-11.5v-72.9h11.5v-7.1h-11.5v-72.9h11.5v-6.1h-11.5
				V48.45c0-11.89,9.67-21.57,21.57-21.57h49.86c11.89,0,21.57,9.68,21.57,21.57v3.17c0,6.65,5.4,12.06,12.05,12.06h193.95v31h-11.5
				v37h11.5v42h-11.5v7.1h11.5v72.9h-11.5v7.1h11.5v72.9h-11.5v7.1H366.38z M357.38,424.76v-74.98h-281v74.98h33v-7.02
				c0-11.02,8.96-19.98,19.98-19.98h175.03c11.02,0,19.99,8.96,19.99,19.98v7.02H357.38z M357.38,324.68v-54.9h-281v54.9h33v-7.02
				c0-11.02,8.96-19.98,19.98-19.98h175.03c11.02,0,19.99,8.96,19.99,19.98v7.02H357.38z M357.38,244.68v-54.9h-281v54.9h33v-7.02
				c0-11.02,8.96-19.98,19.98-19.98h175.03c11.02,0,19.99,8.96,19.99,19.98v7.02H357.38z M357.38,164.68v-24H231.32
				c-11,0-19.94-8.95-19.94-19.95c0-6.04-4.91-10.95-10.95-10.95H76.38v54.9H357.38z M357.38,85.68v-13H172.43
				c-11.61,0-21.05-9.45-21.05-21.06v-3.17c0-6.93-5.64-12.57-12.57-12.57H88.95c-6.93,0-12.57,5.64-12.57,12.57v37.23H357.38z
				 M345.88,340.78v-7.1h-258v7.1H345.88z M345.88,260.78v-7.1h-258v7.1H345.88z M345.88,180.78v-7.1h-258v7.1H345.88z
				 M345.88,131.68v-37h-258v6.1h112.55c11,0,19.95,8.95,19.95,19.95c0,6.03,4.91,10.95,10.94,10.95H345.88z M315.38,424.76v-7.02
				c0-6.06-4.93-10.98-10.99-10.98H129.36c-6.06,0-10.98,4.92-10.98,10.98v7.02H315.38z M315.38,324.68v-7.02
				c0-6.06-4.93-10.98-10.99-10.98H129.36c-6.06,0-10.98,4.92-10.98,10.98v7.02H315.38z M315.38,244.68v-7.02
				c0-6.06-4.93-10.98-10.99-10.98H129.36c-6.06,0-10.98,4.92-10.98,10.98v7.02H315.38z"/>
			<path d="M356.96,0l5.09,30.58L180.03,61.16c-0.86,0.14-1.72,0.21-2.56,0.21c-7.44,0-14.02-5.38-15.28-12.95
				c-0.69-4.09,0.26-8.19,2.67-11.56s5.98-5.6,10.06-6.28L356.96,0z M351.7,23.19l-2.14-12.82L176.41,39.46
				c-1.72,0.28-3.22,1.22-4.22,2.63c-1.01,1.41-1.41,3.14-1.13,4.85c0.59,3.53,3.95,5.92,7.48,5.34L351.7,23.19z"/>
			<path d="M135.88,122.68c8.54,0,15.5,6.95,15.5,15.5c0,8.54-6.96,15.5-15.5,15.5c-8.55,0-15.5-6.96-15.5-15.5
				C120.38,129.63,127.33,122.68,135.88,122.68z M142.38,138.18c0-3.59-2.92-6.5-6.5-6.5c-3.59,0-6.5,2.91-6.5,6.5
				c0,3.58,2.91,6.5,6.5,6.5C139.46,144.68,142.38,141.76,142.38,138.18z"/>
			<path d="M100.88,122.68c8.54,0,15.5,6.95,15.5,15.5c0,8.54-6.96,15.5-15.5,15.5c-8.55,0-15.5-6.96-15.5-15.5
				C85.38,129.63,92.33,122.68,100.88,122.68z M107.38,138.18c0-3.59-2.92-6.5-6.5-6.5c-3.59,0-6.5,2.91-6.5,6.5
				c0,3.58,2.91,6.5,6.5,6.5C104.46,144.68,107.38,141.76,107.38,138.18z"/>
		</g>
	</g>
</g>
<g>
</g>
<g>
</g>
<g>
</g>
<g>
</g>
<g>
</g>
<g>
</g>
<g>
</g>
<g>
</g>
<g>
</g>
<g>
</g>
<g>
</g>
<g>
</g>
<g>
</g>
<g>
</g>
<g>
</g>
</svg>
