<?xml version="1.0" encoding="iso-8859-1"?>
<!-- Generator: Adobe Illustrator 19.1.0, SVG Export Plug-In . SVG Version: 6.00 Build 0)  -->
<svg version="1.1" id="Capa_1" xmlns="http://www.w3.org/2000/svg" xmlns:xlink="http://www.w3.org/1999/xlink" x="0px" y="0px"
	 viewBox="0 0 460.5 460.5" style="enable-background:new 0 0 460.5 460.5;" xml:space="preserve">
<g>
	<g id="XMLID_6_">
		<g>
			<path style="fill:#FFCC73;" d="M378.18,15.51c19.59,0,38.02,7.63,51.87,21.48c13.86,13.86,21.49,32.28,21.49,51.88
				c0,15.98-5.09,31.19-14.48,43.77L334.41,29.99C346.99,20.59,362.19,15.51,378.18,15.51z"/>
			<path d="M366.65,134.12c3.66,3.65,9.6,3.65,13.25,0c3.65-3.66,3.65-9.6,0-13.25c-1.83-1.83-4.22-2.74-6.62-2.74
				s-4.8,0.91-6.63,2.74C363,124.52,363,130.46,366.65,134.12z M386.26,114.5c3.47,3.47,5.38,8.08,5.38,12.99s-1.91,9.52-5.38,12.99
				c-3.46,3.47-8.08,5.38-12.98,5.38c-4.91,0-9.52-1.91-12.99-5.38s-5.38-8.08-5.38-12.99s1.91-9.52,5.38-12.99
				s8.08-5.38,12.99-5.38C378.18,109.12,382.8,111.03,386.26,114.5z"/>
			<path style="fill:#FFCC73;" d="M373.28,118.13c2.4,0,4.79,0.91,6.62,2.74c3.65,3.65,3.65,9.59,0,13.25
				c-3.65,3.65-9.59,3.65-13.25,0c-3.65-3.66-3.65-9.6,0-13.25C368.48,119.04,370.88,118.13,373.28,118.13z"/>
			<polygon style="fill:#A7B6C4;" points="367.71,76.02 340.36,103.37 330.76,76.67 349.56,57.87 			"/>
			<polygon style="fill:#A7B6C4;" points="323.73,83.71 333.33,110.41 316.89,126.85 298.74,108.69 			"/>
			<path style="fill:#FFCC73;" d="M286.65,110.72c0.85,0,1.7,0.32,2.35,0.97l24.9,24.89c1.29,1.3,1.29,3.41,0,4.7l-12.47,12.46
				l-29.59-29.59l12.46-12.46C284.95,111.04,285.8,110.72,286.65,110.72z"/>
			<path style="fill:#FFCC73;" d="M265.48,130.51l29.59,29.6l-37.12,37.12c-1.3,1.3-3.41,1.29-4.7,0l-24.9-24.9
				c-1.29-1.29-1.29-3.4,0-4.69L265.48,130.51z"/>
			<path d="M277.94,105.32c3.75-3.75,9.33-4.56,13.89-2.45l51.37-51.36l-15.67-15.68c-0.41,0.39-0.82,0.77-1.22,1.16l-286,286
				l28.57,64.65l32.77-1.43l138.1-138.09c45.22-45.22,101.94-77.23,164.03-92.56c9.94-2.45,19.03-7.58,26.27-14.82
				c0.4-0.4,0.77-0.82,1.16-1.22l-57.13-57.13l-51.37,51.36c0.76,1.65,1.14,3.42,1.14,5.2c0,3.15-1.19,6.29-3.59,8.69l-55.95,55.96
				c-2.4,2.4-5.56,3.6-8.71,3.6c-1.78,0-3.54-0.4-5.18-1.15L140.37,316.09l-30.88-30.88l110.05-110.04
				c-2.11-4.56-1.3-10.14,2.45-13.9L277.94,105.32z M253.25,197.23c1.29,1.29,3.4,1.3,4.7,0l37.12-37.12l-29.59-29.6l-37.13,37.13
				c-1.29,1.29-1.29,3.4,0,4.69L253.25,197.23z M436.41,30.63c32.12,32.11,32.12,84.36,0,116.47c-8.4,8.4-18.94,14.35-30.47,17.2
				c-60.5,14.94-115.77,46.12-159.83,90.18L105.54,395.05l-15.38,0.67L31.9,453.99L0,365.28l34.1-34.09l-4.51-10.2L319.94,30.63
				c15.56-15.56,36.24-24.12,58.24-24.12S420.86,15.07,436.41,30.63z M451.54,88.87c0-19.6-7.63-38.02-21.49-51.88
				c-13.85-13.85-32.28-21.48-51.87-21.48c-15.99,0-31.19,5.08-43.77,14.48l102.65,102.65C446.45,120.06,451.54,104.85,451.54,88.87
				z M340.36,103.37l27.35-27.35l-18.15-18.15l-18.8,18.8L340.36,103.37z M333.33,110.41l-9.6-26.7l-24.99,24.98l18.15,18.16
				L333.33,110.41z M313.9,141.28c1.29-1.29,1.29-3.4,0-4.7L289,111.69c-0.65-0.65-1.5-0.97-2.35-0.97s-1.7,0.32-2.35,0.97
				l-12.46,12.46l29.59,29.59L313.9,141.28z M231.68,212.06l11.83-11.84l-18.15-18.15l-3.28,3.28L231.68,212.06z M224.65,219.09
				l-9.61-26.7l-32.82,32.82l9.61,26.7L224.65,219.09z M184.79,258.95l-9.6-26.71l-32.82,32.82l9.6,26.71L184.79,258.95z
				 M144.94,298.8l-9.61-26.7l-13.11,13.11l18.15,18.16L144.94,298.8z M35.57,437.59l41.28-41.29l-13.72,0.6L38,340.02l-27.6,27.59
				L35.57,437.59z"/>
			<path style="fill:#F97946;" d="M250.42,206.05c1.64,0.75,3.4,1.15,5.18,1.15c3.15,0,6.31-1.2,8.71-3.6l55.95-55.96
				c2.4-2.4,3.59-5.54,3.59-8.69c0-1.78-0.38-3.55-1.14-5.2l51.37-51.36l57.13,57.13c-0.39,0.4-0.76,0.82-1.16,1.22
				c-7.24,7.24-16.33,12.37-26.27,14.82c-62.09,15.33-118.81,47.34-164.03,92.56l-138.1,138.09l-32.77,1.43l-28.57-64.65l286-286
				c0.4-0.39,0.81-0.77,1.22-1.16l15.67,15.68l-51.37,51.36c-4.56-2.11-10.14-1.3-13.89,2.45l-55.95,55.95
				c-3.75,3.76-4.56,9.34-2.45,13.9L109.49,285.21l30.88,30.88L250.42,206.05z M373.28,145.86c4.9,0,9.52-1.91,12.98-5.38
				c3.47-3.47,5.38-8.08,5.38-12.99s-1.91-9.52-5.38-12.99c-3.46-3.47-8.08-5.38-12.98-5.38c-4.91,0-9.52,1.91-12.99,5.38
				s-5.38,8.08-5.38,12.99s1.91,9.52,5.38,12.99S368.37,145.86,373.28,145.86z"/>
			<polygon style="fill:#A7B6C4;" points="243.51,200.22 231.68,212.06 222.08,185.35 225.36,182.07 			"/>
			<polygon style="fill:#A7B6C4;" points="215.04,192.39 224.65,219.09 191.83,251.91 182.22,225.21 			"/>
			<polygon style="fill:#A7B6C4;" points="175.19,232.24 184.79,258.95 151.97,291.77 142.37,265.06 			"/>
			<polygon style="fill:#A7B6C4;" points="135.33,272.1 144.94,298.8 140.37,303.37 122.22,285.21 			"/>
			<polygon style="fill:#A7B6C4;" points="76.85,396.3 35.57,437.59 10.4,367.61 38,340.02 63.13,396.9 			"/>
		</g>
	</g>
</g>
<g>
</g>
<g>
</g>
<g>
</g>
<g>
</g>
<g>
</g>
<g>
</g>
<g>
</g>
<g>
</g>
<g>
</g>
<g>
</g>
<g>
</g>
<g>
</g>
<g>
</g>
<g>
</g>
<g>
</g>
</svg>
