<?xml version="1.0" encoding="iso-8859-1"?>
<!-- Generator: Adobe Illustrator 19.1.0, SVG Export Plug-In . SVG Version: 6.00 Build 0)  -->
<svg version="1.1" id="Capa_1" xmlns="http://www.w3.org/2000/svg" xmlns:xlink="http://www.w3.org/1999/xlink" x="0px" y="0px"
	 viewBox="0 0 441.74 441.74" style="enable-background:new 0 0 441.74 441.74;" xml:space="preserve">
<path style="fill:#FFCC73;" d="M158.7,156.95v25.42c0,1.09-0.89,1.98-1.98,1.98s-1.98-0.89-1.98-1.98v-25.42
	c0-1.09,0.89-1.98,1.98-1.98S158.7,155.86,158.7,156.95z"/>
<path style="fill:#FFCC73;" d="M158.7,220.68v25.42c0,1.09-0.89,1.98-1.98,1.98s-1.98-0.89-1.98-1.98v-25.42
	c0-1.09,0.89-1.98,1.98-1.98S158.7,219.59,158.7,220.68z"/>
<path style="fill:#FFCC73;" d="M158.7,284.41v25.41c0,1.09-0.89,1.98-1.98,1.98s-1.98-0.89-1.98-1.98v-25.41
	c0-1.1,0.89-1.98,1.98-1.98S158.7,283.31,158.7,284.41z"/>
<path style="fill:#6BCE95;" d="M173.32,8v323.32h-33.2V8H173.32z M166.7,309.82v-25.41c0-5.51-4.48-9.98-9.98-9.98
	c-5.51,0-9.98,4.47-9.98,9.98v25.41c0,5.51,4.47,9.98,9.98,9.98C162.22,319.8,166.7,315.33,166.7,309.82z M166.7,246.1v-25.42
	c0-5.5-4.48-9.98-9.98-9.98c-5.51,0-9.98,4.48-9.98,9.98v25.42c0,5.5,4.47,9.98,9.98,9.98C162.22,256.08,166.7,251.6,166.7,246.1z
	 M166.7,182.37v-25.42c0-5.5-4.48-9.98-9.98-9.98c-5.51,0-9.98,4.48-9.98,9.98v25.42c0,5.5,4.47,9.98,9.98,9.98
	C162.22,192.35,166.7,187.87,166.7,182.37z M166.7,118.64V93.23c0-5.51-4.48-9.98-9.98-9.98c-5.51,0-9.98,4.47-9.98,9.98v25.41
	c0,5.5,4.47,9.98,9.98,9.98C162.22,128.62,166.7,124.14,166.7,118.64z M166.7,54.91V29.5c0-5.5-4.48-9.98-9.98-9.98
	c-5.51,0-9.98,4.48-9.98,9.98v25.41c0,5.51,4.47,9.99,9.98,9.99C162.22,64.9,166.7,60.42,166.7,54.91z"/>
<path style="fill:#F97946;" d="M102.3,110.41v323.33H69.11V110.41H102.3z M95.68,412.23v-25.41c0-5.5-4.48-9.98-9.98-9.98
	s-9.98,4.48-9.98,9.98v25.41c0,5.51,4.48,9.98,9.98,9.98S95.68,417.74,95.68,412.23z M95.68,348.51v-25.42
	c0-5.5-4.48-9.98-9.98-9.98s-9.98,4.48-9.98,9.98v25.42c0,5.5,4.48,9.98,9.98,9.98S95.68,354.01,95.68,348.51z M95.68,284.78v-25.42
	c0-5.5-4.48-9.98-9.98-9.98s-9.98,4.48-9.98,9.98v25.42c0,5.5,4.48,9.98,9.98,9.98S95.68,290.28,95.68,284.78z M95.68,221.05v-25.41
	c0-5.51-4.48-9.98-9.98-9.98s-9.98,4.47-9.98,9.98v25.41c0,5.51,4.48,9.98,9.98,9.98S95.68,226.56,95.68,221.05z M95.68,157.33
	v-25.42c0-5.5-4.48-9.98-9.98-9.98s-9.98,4.48-9.98,9.98v25.42c0,5.5,4.48,9.98,9.98,9.98S95.68,162.83,95.68,157.33z"/>
<polygon style="fill:#FFCC73;" points="301.61,339.32 301.61,433.74 110.3,433.74 110.3,110.41 132.12,110.41 132.12,339.32 "/>
<polygon style="fill:#FFCC73;" points="372.63,8 372.63,331.32 309.61,331.32 309.61,102.41 181.32,102.41 181.32,8 "/>
<path d="M380.63,0v339.32h-71.02v102.42H61.11V102.41h71.01V0H380.63z M372.63,331.32V8H181.32v94.41h128.29v228.91H372.63z
	 M301.61,433.74v-94.42H132.12V110.41H110.3v323.33H301.61z M301.61,331.32V110.41H181.32v220.91H301.61z M173.32,331.32V8h-33.2
	v323.32H173.32z M102.3,433.74V110.41H69.11v323.33H102.3z"/>
<rect x="181.32" y="110.41" style="fill:#E2B369;" width="120.29" height="220.91"/>
<path d="M166.7,284.41v25.41c0,5.51-4.48,9.98-9.98,9.98c-5.51,0-9.98-4.47-9.98-9.98v-25.41c0-5.51,4.47-9.98,9.98-9.98
	C162.22,274.43,166.7,278.9,166.7,284.41z M158.7,309.82v-25.41c0-1.1-0.89-1.98-1.98-1.98s-1.98,0.88-1.98,1.98v25.41
	c0,1.09,0.89,1.98,1.98,1.98S158.7,310.91,158.7,309.82z"/>
<path d="M166.7,220.68v25.42c0,5.5-4.48,9.98-9.98,9.98c-5.51,0-9.98-4.48-9.98-9.98v-25.42c0-5.5,4.47-9.98,9.98-9.98
	C162.22,210.7,166.7,215.18,166.7,220.68z M158.7,246.1v-25.42c0-1.09-0.89-1.98-1.98-1.98s-1.98,0.89-1.98,1.98v25.42
	c0,1.09,0.89,1.98,1.98,1.98S158.7,247.19,158.7,246.1z"/>
<path d="M166.7,156.95v25.42c0,5.5-4.48,9.98-9.98,9.98c-5.51,0-9.98-4.48-9.98-9.98v-25.42c0-5.5,4.47-9.98,9.98-9.98
	C162.22,146.97,166.7,151.45,166.7,156.95z M158.7,182.37v-25.42c0-1.09-0.89-1.98-1.98-1.98s-1.98,0.89-1.98,1.98v25.42
	c0,1.09,0.89,1.98,1.98,1.98S158.7,183.46,158.7,182.37z"/>
<path d="M166.7,29.5v25.41c0,5.51-4.48,9.99-9.98,9.99c-5.51,0-9.98-4.48-9.98-9.99V29.5c0-5.5,4.47-9.98,9.98-9.98
	C162.22,19.52,166.7,24,166.7,29.5z M158.7,54.91V29.5c0-1.09-0.89-1.98-1.98-1.98s-1.98,0.89-1.98,1.98v25.41
	c0,1.1,0.89,1.99,1.98,1.99S158.7,56.01,158.7,54.91z"/>
<path d="M95.68,386.82v25.41c0,5.51-4.48,9.98-9.98,9.98s-9.98-4.47-9.98-9.98v-25.41c0-5.5,4.48-9.98,9.98-9.98
	S95.68,381.32,95.68,386.82z M87.68,412.23v-25.41c0-1.09-0.89-1.98-1.98-1.98c-1.09,0-1.98,0.89-1.98,1.98v25.41
	c0,1.1,0.89,1.98,1.98,1.98C86.79,414.21,87.68,413.33,87.68,412.23z"/>
<path d="M95.68,323.09v25.42c0,5.5-4.48,9.98-9.98,9.98s-9.98-4.48-9.98-9.98v-25.42c0-5.5,4.48-9.98,9.98-9.98
	S95.68,317.59,95.68,323.09z M87.68,348.51v-25.42c0-1.09-0.89-1.98-1.98-1.98c-1.09,0-1.98,0.89-1.98,1.98v25.42
	c0,1.09,0.89,1.98,1.98,1.98C86.79,350.49,87.68,349.6,87.68,348.51z"/>
<g id="XMLID_49_">
	<g>
		<rect x="154.74" y="102.87" width="3.96" height="8"/>
		<path style="fill:#FFCC73;" d="M158.7,118.64c0,1.09-0.89,1.98-1.98,1.98s-1.98-0.89-1.98-1.98v-7.77h3.96V118.64z"/>
		<path style="fill:#FFFFFF;" d="M156.72,91.25c1.09,0,1.98,0.88,1.98,1.98v9.64h-3.96v-9.64
			C154.74,92.13,155.63,91.25,156.72,91.25z"/>
		<path d="M154.74,118.64c0,1.09,0.89,1.98,1.98,1.98s1.98-0.89,1.98-1.98v-7.77v-8v-9.64c0-1.1-0.89-1.98-1.98-1.98
			s-1.98,0.88-1.98,1.98v9.64v8V118.64z M166.7,93.23v25.41c0,5.5-4.48,9.98-9.98,9.98c-5.51,0-9.98-4.48-9.98-9.98V93.23
			c0-5.51,4.47-9.98,9.98-9.98C162.22,83.25,166.7,87.72,166.7,93.23z"/>
	</g>
</g>
<path d="M95.68,259.36v25.42c0,5.5-4.48,9.98-9.98,9.98s-9.98-4.48-9.98-9.98v-25.42c0-5.5,4.48-9.98,9.98-9.98
	S95.68,253.86,95.68,259.36z M87.68,284.78v-25.42c0-1.09-0.89-1.98-1.98-1.98c-1.09,0-1.98,0.89-1.98,1.98v25.42
	c0,1.09,0.89,1.98,1.98,1.98C86.79,286.76,87.68,285.87,87.68,284.78z"/>
<path d="M95.68,195.64v25.41c0,5.51-4.48,9.98-9.98,9.98s-9.98-4.47-9.98-9.98v-25.41c0-5.51,4.48-9.98,9.98-9.98
	S95.68,190.13,95.68,195.64z M87.68,221.05v-25.41c0-1.09-0.89-1.98-1.98-1.98c-1.09,0-1.98,0.89-1.98,1.98v25.41
	c0,1.1,0.89,1.98,1.98,1.98C86.79,223.03,87.68,222.15,87.68,221.05z"/>
<path d="M95.68,131.91v25.42c0,5.5-4.48,9.98-9.98,9.98s-9.98-4.48-9.98-9.98v-25.42c0-5.5,4.48-9.98,9.98-9.98
	S95.68,126.41,95.68,131.91z M87.68,157.33v-25.42c0-1.09-0.89-1.98-1.98-1.98c-1.09,0-1.98,0.89-1.98,1.98v25.42
	c0,1.09,0.89,1.98,1.98,1.98C86.79,159.31,87.68,158.42,87.68,157.33z"/>
<g>
</g>
<g>
</g>
<g>
</g>
<g>
</g>
<g>
</g>
<g>
</g>
<g>
</g>
<g>
</g>
<g>
</g>
<g>
</g>
<g>
</g>
<g>
</g>
<g>
</g>
<g>
</g>
<g>
</g>
</svg>
