<?xml version="1.0" encoding="iso-8859-1"?>
<!-- Generator: Adobe Illustrator 19.1.0, SVG Export Plug-In . SVG Version: 6.00 Build 0)  -->
<svg version="1.1" id="Capa_1" xmlns="http://www.w3.org/2000/svg" xmlns:xlink="http://www.w3.org/1999/xlink" x="0px" y="0px"
	 viewBox="0 0 464.19 464.19" style="enable-background:new 0 0 464.19 464.19;" xml:space="preserve">
<g id="XMLID_14_">
	<g>
		<path d="M300.455,138.62l9.53,325.57h-155.78l9.53-325.57l2.67-1.12c8.03-3.38,13.23-11.21,13.23-19.93
			c0-4.05,3.29-7.35,7.35-7.35h22.1v-8.67h-11.13L210.895,0h42.39l12.95,101.55h-11.13v8.67h22.1c4.05,0,7.35,3.3,7.35,7.35
			c0,8.72,5.19,16.55,13.23,19.93L300.455,138.62z M300.715,455.19l-0.43-14.56h-136.39l-0.43,14.56H300.715z M300.025,431.63
			l-8.36-285.48h-119.15l-8.36,285.48H300.025z M181.575,137.15h101.04c-4.14-4.98-6.66-11.23-7.02-17.93h-87.01
			C188.235,125.92,185.705,132.17,181.575,137.15z M256.005,92.55L245.365,9h-2.08l4,83.55H256.005z M246.105,110.22v-8.67h-28.02
			v8.67H246.105z M238.275,92.55l-4-83.55h-4.36l-4,83.55H238.275z M216.895,92.55l4-83.55h-2.07l-10.65,83.55H216.895z"/>
		<polygon style="fill:#E2B369;" points="300.285,440.63 300.715,455.19 163.465,455.19 163.895,440.63 		"/>
		<polygon style="fill:#FFCC73;" points="291.665,146.15 300.025,431.63 164.155,431.63 172.515,146.15 		"/>
		<path style="fill:#E2B369;" d="M282.615,137.15h-101.04c4.13-4.98,6.66-11.23,7.01-17.93h87.01
			C275.955,125.92,278.475,132.17,282.615,137.15z"/>
		<polygon style="fill:#F97946;" points="245.365,9 256.005,92.55 247.285,92.55 243.285,9 		"/>
		<rect x="218.085" y="101.55" style="fill:#E2B369;" width="28.02" height="8.67"/>
		<polygon style="fill:#F97946;" points="234.275,9 238.275,92.55 225.915,92.55 229.915,9 		"/>
		<polygon style="fill:#F97946;" points="220.895,9 216.895,92.55 208.175,92.55 218.825,9 		"/>
	</g>
</g>
<g>
</g>
<g>
</g>
<g>
</g>
<g>
</g>
<g>
</g>
<g>
</g>
<g>
</g>
<g>
</g>
<g>
</g>
<g>
</g>
<g>
</g>
<g>
</g>
<g>
</g>
<g>
</g>
<g>
</g>
</svg>
