<?xml version="1.0" encoding="iso-8859-1"?>
<!-- Generator: Adobe Illustrator 19.1.0, SVG Export Plug-In . SVG Version: 6.00 Build 0)  -->
<svg version="1.1" id="Capa_1" xmlns="http://www.w3.org/2000/svg" xmlns:xlink="http://www.w3.org/1999/xlink" x="0px" y="0px"
	 viewBox="0 0 461.983 461.983" style="enable-background:new 0 0 461.983 461.983;" xml:space="preserve">
<g>
	<g id="XMLID_17_">
		<g>
			<path style="fill:#FFCC73;" d="M358.401,131.083c2.11,4.33,3.22,9.09,3.22,13.99c0,17.62-14.33,31.95-31.95,31.95
				c-9.1,0-17.66-3.87-23.67-10.51L358.401,131.083z"/>
			<path style="fill:#4489D3;" d="M282.071,9.913c12.28,2.38,22.99,9.16,30.38,19.17l-81.88,55.36
				c-13.83-22.42-7.62-52.05,14.4-66.94c8.28-5.59,17.83-8.5,27.6-8.5C275.731,9.003,278.901,9.303,282.071,9.913z"/>
			<path style="fill:#4489D3;" d="M419.421,78.963l-182.42,123.33c-20.34-32.88-21.98-73.96-4.15-108.53l87.4-59.09
				C358.971,31.003,396.481,47.833,419.421,78.963z"/>
			<path d="M306.001,166.513c6.01,6.64,14.57,10.51,23.67,10.51c17.62,0,31.95-14.33,31.95-31.95c0-4.9-1.11-9.66-3.22-13.99
				L306.001,166.513z M206.401,407.913c0-8.21-6.69-14.9-14.9-14.9c-3.88,0-7.5,1.48-10.21,4.04c8.8,3.77,17.09,8.64,24.65,14.47
				C206.241,410.353,206.401,409.143,206.401,407.913z M230.571,84.443l81.88-55.36c-7.39-10.01-18.1-16.79-30.38-19.17
				c-3.17-0.61-6.34-0.91-9.5-0.91c-9.77,0-19.32,2.91-27.6,8.5C222.951,32.393,216.741,62.023,230.571,84.443z M237.001,202.293
				l182.42-123.33c-22.94-31.13-60.45-47.96-99.17-44.29l-87.4,59.09C215.021,128.333,216.661,169.413,237.001,202.293z
				 M58.741,185.723c7.47,11.05,22.52,13.95,33.56,6.49c5.35-3.62,8.97-9.1,10.2-15.44c1.22-6.34-0.09-12.77-3.71-18.12
				c-3.62-5.35-9.1-8.97-15.44-10.2c-1.54-0.3-3.1-0.45-4.63-0.45c-4.78,0-9.45,1.42-13.49,4.16c-5.35,3.62-8.97,9.1-10.2,15.44
				C53.811,173.943,55.121,180.373,58.741,185.723z M429.471,77.603l2.52,3.73l-66.07,44.67c3.08,5.85,4.7,12.36,4.7,19.07
				c0,22.58-18.37,40.95-40.95,40.95c-12.09,0-23.45-5.33-31.18-14.43l-63.98,43.25l-2.52-3.73
				c-24.18-35.77-27.12-81.51-7.87-120.05c-0.56-0.83-1.09-1.67-1.6-2.51l-111.61,75.46c3.34,13.17-1.68,27.62-13.56,35.66
				c-0.71,0.47-1.43,0.92-2.15,1.33l23.87,188.28c5.77-0.91,11.64-1.39,17.6-1.39c12.33,0,24.34,2.02,35.66,5.77
				c4.46-6.02,11.5-9.65,19.17-9.65c13.18,0,23.9,10.72,23.9,23.9c0,3.4-0.73,6.72-2.11,9.78c11.41,10.44,20.79,23.28,27.28,37.98
				l2.78,6.31H29.991l2.78-6.31c10.64-24.12,29.05-43.23,51.51-54.93l-25.65-202.2c-2.79-2.13-5.28-4.72-7.35-7.78
				c-4.96-7.34-6.77-16.17-5.08-24.87c1.68-8.7,6.65-16.22,13.99-21.19c7.03-4.75,15.42-6.6,23.76-5.27l130.78-88.42
				c2.08-16.07,10.76-31.2,25.2-40.96c12.94-8.75,28.51-11.94,43.84-8.97c15.27,2.95,28.48,11.64,37.23,24.48
				C363.941,22.063,405.291,41.833,429.471,77.603z M229.291,452.983c-17.95-34.29-53.57-56.09-92.62-56.09s-74.68,21.8-92.62,56.09
				H229.291z M107.431,155.503l111.04-75.08c-2.39-5.92-3.75-12.1-4.12-18.29l-119.7,80.92c4.61,2.51,8.58,6.09,11.6,10.55
				C106.671,154.233,107.051,154.863,107.431,155.503z M110.221,391.043l-23.66-186.63c-2.56,0.62-5.16,0.94-7.74,0.94
				c-3.56,0-7.1-0.59-10.47-1.7l24.49,193.06C98.441,394.363,104.261,392.473,110.221,391.043z"/>
			<path style="fill:#4489D3;" d="M229.291,452.983H44.051c17.94-34.29,53.57-56.09,92.62-56.09S211.341,418.693,229.291,452.983z"
				/>
			<path style="fill:#FFCC73;" d="M191.501,393.013c8.21,0,14.9,6.69,14.9,14.9c0,1.23-0.16,2.44-0.46,3.61
				c-7.56-5.83-15.85-10.7-24.65-14.47C184.001,394.493,187.621,393.013,191.501,393.013z"/>
			<path style="fill:#4489D3;" d="M78.801,190.183c3.56,0,7.03-1.06,10.04-3.1c8.22-5.55,10.38-16.75,4.83-24.97
				c-5.56-8.21-16.76-10.38-24.98-4.83c-3.98,2.7-6.67,6.78-7.58,11.49c-0.91,4.72,0.06,9.51,2.76,13.49
				c2.69,3.98,6.77,6.67,11.48,7.58C76.501,190.073,77.661,190.183,78.801,190.183z M83.351,148.453
				c6.34,1.23,11.82,4.85,15.44,10.2c3.62,5.35,4.93,11.78,3.71,18.12c-1.23,6.34-4.85,11.82-10.2,15.44
				c-11.04,7.46-26.09,4.56-33.56-6.49c-3.62-5.35-4.93-11.78-3.71-18.12c1.23-6.34,4.85-11.82,10.2-15.44
				c4.04-2.74,8.71-4.16,13.49-4.16C80.251,148.003,81.811,148.153,83.351,148.453z"/>
			<path d="M71.321,177.223c2.78,4.1,8.38,5.18,12.48,2.41c4.1-2.78,5.19-8.37,2.41-12.48c-1.73-2.56-4.57-3.95-7.46-3.95
				c-1.73,0-3.48,0.5-5.02,1.54c-1.99,1.34-3.33,3.38-3.79,5.74C69.491,172.843,69.981,175.233,71.321,177.223z M68.691,157.283
				c8.22-5.55,19.42-3.38,24.98,4.83c5.55,8.22,3.39,19.42-4.83,24.97c-3.01,2.04-6.48,3.1-10.04,3.1c-1.14,0-2.3-0.11-3.45-0.34
				c-4.71-0.91-8.79-3.6-11.48-7.58c-2.7-3.98-3.67-8.77-2.76-13.49C62.021,164.063,64.711,159.983,68.691,157.283z"/>
			<path style="fill:#FFCC73;" d="M78.751,163.203c2.89,0,5.73,1.39,7.46,3.95c2.78,4.11,1.69,9.7-2.41,12.48
				c-4.1,2.77-9.7,1.69-12.48-2.41c-1.34-1.99-1.83-4.38-1.38-6.74c0.46-2.36,1.8-4.4,3.79-5.74
				C75.271,163.703,77.021,163.203,78.751,163.203z"/>
		</g>
	</g>
</g>
<g>
</g>
<g>
</g>
<g>
</g>
<g>
</g>
<g>
</g>
<g>
</g>
<g>
</g>
<g>
</g>
<g>
</g>
<g>
</g>
<g>
</g>
<g>
</g>
<g>
</g>
<g>
</g>
<g>
</g>
</svg>
