<?xml version="1.0" encoding="iso-8859-1"?>
<!-- Generator: Adobe Illustrator 19.1.0, SVG Export Plug-In . SVG Version: 6.00 Build 0)  -->
<svg version="1.1" id="Capa_1" xmlns="http://www.w3.org/2000/svg" xmlns:xlink="http://www.w3.org/1999/xlink" x="0px" y="0px"
	 viewBox="0 0 465 465" style="enable-background:new 0 0 465 465;" xml:space="preserve">
<g>
	<g id="XMLID_11_">
		<g>
			<path d="M465,338.255v18.65c0,12.44-10.13,22.57-22.58,22.57H22.57c-12.45,0-22.57-10.13-22.57-22.57v-18.65h16.89v-231.96
				c0-11.45,9.32-20.77,20.77-20.77h389.68c11.45,0,20.77,9.32,20.77,20.77v231.96H465z M456,356.905v-9.65H9v9.65
				c0,7.48,6.08,13.57,13.57,13.57h419.85C449.91,370.475,456,364.385,456,356.905z M439.11,338.255v-231.96
				c0-6.49-5.28-11.77-11.77-11.77H37.66c-6.49,0-11.77,5.28-11.77,11.77v231.96H439.11z"/>
			<path style="fill:#6A7075;" d="M456,347.255v9.65c0,7.48-6.09,13.57-13.58,13.57H22.57c-7.49,0-13.57-6.09-13.57-13.57v-9.65H456
				z"/>
			<path style="fill:#A7B6C4;" d="M439.11,106.295v231.96H25.89v-231.96c0-6.49,5.28-11.77,11.77-11.77h389.68
				C433.83,94.525,439.11,99.805,439.11,106.295z M430.16,319.665v-205.94c0-5.73-4.67-10.39-10.39-10.39H45.23
				c-5.73,0-10.39,4.66-10.39,10.39v205.94c0,5.73,4.66,10.39,10.39,10.39h374.54C425.49,330.055,430.16,325.395,430.16,319.665z"/>
			<path d="M430.16,113.725v205.94c0,5.73-4.67,10.39-10.39,10.39H45.23c-5.73,0-10.39-4.66-10.39-10.39v-205.94
				c0-5.73,4.66-10.39,10.39-10.39h374.54C425.49,103.335,430.16,107.995,430.16,113.725z M421.16,319.665v-205.94
				c0-0.76-0.63-1.39-1.39-1.39H45.23c-0.77,0-1.39,0.63-1.39,1.39v205.94c0,0.76,0.62,1.39,1.39,1.39h374.54
				C420.53,321.055,421.16,320.425,421.16,319.665z"/>
			<path style="fill:#4489D3;" d="M421.16,113.725v205.94c0,0.76-0.63,1.39-1.39,1.39H45.23c-0.77,0-1.39-0.63-1.39-1.39v-205.94
				c0-0.76,0.62-1.39,1.39-1.39h374.54C420.53,112.335,421.16,112.965,421.16,113.725z M303.22,188.095v-9H53.05v9H303.22z
				 M245.16,209.205v-9H53.05v9H245.16z M232.5,145.875v-9H53.05v9H232.5z M217.72,230.315v-9H53.05v9H217.72z M179.72,166.985v-9
				H53.05v9H179.72z"/>
			<rect x="53.05" y="179.095" width="250.17" height="9"/>
			<rect x="53.05" y="200.205" width="192.11" height="9"/>
			<rect x="53.05" y="136.875" width="179.45" height="9"/>
			<rect x="53.05" y="221.315" width="164.67" height="9"/>
			<rect x="53.05" y="157.985" width="126.67" height="9"/>
		</g>
	</g>
</g>
<g>
</g>
<g>
</g>
<g>
</g>
<g>
</g>
<g>
</g>
<g>
</g>
<g>
</g>
<g>
</g>
<g>
</g>
<g>
</g>
<g>
</g>
<g>
</g>
<g>
</g>
<g>
</g>
<g>
</g>
</svg>
