<?xml version="1.0" encoding="iso-8859-1"?>
<!-- Generator: Adobe Illustrator 19.1.0, SVG Export Plug-In . SVG Version: 6.00 Build 0)  -->
<svg version="1.1" id="Capa_1" xmlns="http://www.w3.org/2000/svg" xmlns:xlink="http://www.w3.org/1999/xlink" x="0px" y="0px"
	 viewBox="0 0 427.93 427.93" style="enable-background:new 0 0 427.93 427.93;" xml:space="preserve">
<g>
	<g id="XMLID_17_">
		<g>
			<path style="fill:#4489D3;" d="M413.93,90.694c3.23,3.23,5,7.52,5,12.08s-1.77,8.85-5,12.08l-237.9,237.9l-95.28-95.29
				l237.89-237.9c6.66-6.66,17.5-6.66,24.16,0L413.93,90.694z"/>
			<path style="fill:#FFCC73;" d="M158.62,348.064l-16.96,16.96c-22.83-5.67-47.05,1-63.78,17.73l-8.85,8.85l-13.56-13.57
				l-13.57-13.57l8.85-8.84c8.52-8.53,14.61-19.2,17.6-30.87c2.77-10.83,2.8-22.15,0.13-32.92l16.95-16.96L158.62,348.064z"/>
			<path d="M77.88,382.754c16.73-16.73,40.95-23.4,63.78-17.73l16.96-16.96l-73.19-73.19l-16.95,16.96
				c2.67,10.77,2.64,22.09-0.13,32.92c-2.99,11.67-9.08,22.34-17.6,30.87l-8.85,8.84l13.57,13.57l13.56,13.57L77.88,382.754z
				 M420.29,84.324c4.93,4.93,7.64,11.48,7.64,18.45s-2.71,13.52-7.64,18.44l-244.26,244.26l-11.04-11.04l-20.68,20.68l-2.56-0.75
				c-20.43-5.95-42.46-0.29-57.51,14.75l-15.21,15.21l-4.59-4.59l-22.62,22.62L0,402.834l33.76-33.77l-4.59-4.6l15.21-15.21
				c7.39-7.38,12.66-16.63,15.26-26.73c2.58-10.14,2.41-20.78-0.51-30.77l-0.74-2.56l20.68-20.68l-11.05-11.05l244.26-244.26
				c10.17-10.17,26.72-10.17,36.89,0L420.29,84.324z M418.93,102.774c0-4.56-1.77-8.85-5-12.08l-71.13-71.13
				c-6.66-6.66-17.5-6.66-24.16,0l-237.89,237.9l95.28,95.29l237.9-237.9C417.16,111.624,418.93,107.334,418.93,102.774z
				 M58.07,393.374l-8.97-8.98l-8.97-8.97l-24.68,24.69l24.46,11.42L58.07,393.374z"/>
			<polygon style="fill:#F97946;" points="49.1,384.394 58.07,393.374 39.91,411.534 15.45,400.114 40.13,375.424 			"/>
		</g>
	</g>
</g>
<g>
</g>
<g>
</g>
<g>
</g>
<g>
</g>
<g>
</g>
<g>
</g>
<g>
</g>
<g>
</g>
<g>
</g>
<g>
</g>
<g>
</g>
<g>
</g>
<g>
</g>
<g>
</g>
<g>
</g>
</svg>
