<?xml version="1.0" encoding="iso-8859-1"?>
<!-- Generator: Adobe Illustrator 19.1.0, SVG Export Plug-In . SVG Version: 6.00 Build 0)  -->
<svg version="1.1" id="Capa_1" xmlns="http://www.w3.org/2000/svg" xmlns:xlink="http://www.w3.org/1999/xlink" x="0px" y="0px"
	 viewBox="0 0 462.58 462.58" style="enable-background:new 0 0 462.58 462.58;" xml:space="preserve">
<g>
	<g id="XMLID_28_">
		<g>
			<path style="fill:#FFCC73;" d="M287.345,199.54v111.1c0,61.77-50.26,112.03-112.03,112.03s-112.03-50.26-112.03-112.03V199.55
				c30.58,28.29,69.96,43.76,112.02,43.76C217.375,243.31,256.755,227.84,287.345,199.54z"/>
			<path style="fill:#E2B369;" d="M287.095,187.23c-28.61,29.29-66.48,45.87-107.27,47.01v-20.18
				c11.39-2.12,20.04-12.12,20.04-24.12v-66.83c0-11.99-8.65-22-20.04-24.12V82.6C237.085,84.88,283.415,130.33,287.095,187.23z"/>
			<path style="fill:#F97946;" d="M175.315,107.56c8.57,0,15.55,6.98,15.55,15.55v66.83c0,8.57-6.98,15.55-15.55,15.55
				c-8.57,0-15.55-6.98-15.55-15.55v-66.83C159.765,114.54,166.745,107.56,175.315,107.56z"/>
			<path d="M159.765,189.94c0,8.57,6.98,15.55,15.55,15.55c8.57,0,15.55-6.98,15.55-15.55v-66.83c0-8.57-6.98-15.55-15.55-15.55
				c-8.57,0-15.55,6.98-15.55,15.55V189.94z M63.535,187.23c28.6,29.3,66.48,45.88,107.29,47.01v-20.17
				c-11.4-2.12-20.06-12.13-20.06-24.13v-66.83c0-12,8.66-22.01,20.06-24.13V82.6C113.555,84.87,67.215,130.33,63.535,187.23z
				 M287.095,187.23c-3.68-56.9-50.01-102.35-107.27-104.63v16.39c11.39,2.12,20.04,12.13,20.04,24.12v66.83
				c0,12-8.65,22-20.04,24.12v20.18C220.615,233.1,258.485,216.52,287.095,187.23z M63.285,310.64
				c0,61.77,50.26,112.03,112.03,112.03s112.03-50.26,112.03-112.03v-111.1c-30.59,28.3-69.97,43.77-112.04,43.77
				c-42.06,0-81.44-15.47-112.02-43.76V310.64z M408.295,453.58v9h-25.61c-40.6,0-73.62-33.03-73.62-73.62V73.62
				c0-35.63-28.99-64.62-64.62-64.62s-64.61,28.98-64.62,64.6c64.65,2.38,116.52,55.71,116.52,120.93v116.11
				c0,66.74-54.3,121.03-121.03,121.03s-121.03-54.29-121.03-121.03V194.53c0-65.23,51.88-118.56,116.54-120.93
				c0.01-40.59,33.03-73.6,73.62-73.6s73.62,33.02,73.62,73.62v315.34c0,35.63,28.98,64.62,64.62,64.62H408.295z"/>
			<path style="fill:#E2B369;" d="M150.765,189.94c0,12,8.66,22.01,20.06,24.13v20.17c-40.81-1.13-78.69-17.71-107.29-47.01
				c3.68-56.9,50.02-102.36,107.29-104.63v16.38c-11.4,2.12-20.06,12.13-20.06,24.13V189.94z"/>
		</g>
	</g>
</g>
<g>
</g>
<g>
</g>
<g>
</g>
<g>
</g>
<g>
</g>
<g>
</g>
<g>
</g>
<g>
</g>
<g>
</g>
<g>
</g>
<g>
</g>
<g>
</g>
<g>
</g>
<g>
</g>
<g>
</g>
</svg>
