<?xml version="1.0" encoding="iso-8859-1"?>
<!-- Generator: Adobe Illustrator 19.1.0, SVG Export Plug-In . SVG Version: 6.00 Build 0)  -->
<svg version="1.1" id="Capa_1" xmlns="http://www.w3.org/2000/svg" xmlns:xlink="http://www.w3.org/1999/xlink" x="0px" y="0px"
	 viewBox="0 0 459.736 459.736" style="enable-background:new 0 0 459.736 459.736;" xml:space="preserve">
<g id="XMLID_7_">
	<g>
		<path style="fill:#4489D3;" d="M449.6,54.164c1.43,1.44,1.47,3.8,0.08,5.27c-54.46,57.52-113.42,114.42-180.25,173.95
			c-2.05,1.82-5.17,1.73-7.12-0.22l-35.74-35.74c-1.94-1.94-2.03-5.07-0.21-7.11c59.52-66.83,116.42-125.79,173.95-180.26
			c1.49-1.41,3.8-1.37,5.26,0.09L449.6,54.164z"/>
		<path style="fill:#A7B6C4;" d="M221.84,205.424l32.48,32.47c-71.81,69.65-148.53,135.47-228.48,196
			C86.41,353.904,152.23,277.184,221.84,205.424z"/>
		<path d="M455.96,47.804c4.93,4.93,5.05,12.76,0.26,17.82c-54.64,57.71-113.78,114.78-180.81,174.48
			c-2.69,2.39-6.06,3.58-9.42,3.58c-1.38,0-2.76-0.2-4.09-0.6c-79.89,77.6-165.87,150.49-255.61,216.65L0,453.444
			c66.21-89.8,139.1-175.77,216.66-255.6c-1.37-4.58-0.4-9.72,2.98-13.52c29.84-33.51,59.04-65.05,87.98-95.04
			c28.94-30,57.64-58.44,86.5-85.76c5.06-4.79,12.88-4.68,17.81,0.25L455.96,47.804z M449.68,59.434c1.39-1.47,1.35-3.83-0.08-5.27
			l-44.03-44.02c-1.46-1.46-3.77-1.5-5.26-0.09c-57.53,54.47-114.43,113.43-173.95,180.26c-1.82,2.04-1.73,5.17,0.21,7.11
			l35.74,35.74c1.95,1.95,5.07,2.04,7.12,0.22C336.26,173.854,395.22,116.954,449.68,59.434z M254.32,237.894l-32.48-32.47
			c-69.61,71.76-135.43,148.48-196,228.47C105.79,373.364,182.51,307.544,254.32,237.894z"/>
	</g>
</g>
<g>
</g>
<g>
</g>
<g>
</g>
<g>
</g>
<g>
</g>
<g>
</g>
<g>
</g>
<g>
</g>
<g>
</g>
<g>
</g>
<g>
</g>
<g>
</g>
<g>
</g>
<g>
</g>
<g>
</g>
</svg>
