<?xml version="1.0" encoding="iso-8859-1"?>
<!-- Generator: Adobe Illustrator 19.1.0, SVG Export Plug-In . SVG Version: 6.00 Build 0)  -->
<svg version="1.1" id="Capa_1" xmlns="http://www.w3.org/2000/svg" xmlns:xlink="http://www.w3.org/1999/xlink" x="0px" y="0px"
	 viewBox="0 0 460.08 460.08" style="enable-background:new 0 0 460.08 460.08;" xml:space="preserve">
<g>
	<g id="XMLID_45_">
		<g>
			<path style="fill:#4489D3;" d="M266.073,342.88c9.61,7.66,15.57,16.55,15.57,23.21c0,7.14-7.18,14.45-19.71,20.05
				c-13.87,6.2-32.4,9.61-52.19,9.61s-38.32-3.41-52.19-9.61c-12.52-5.6-19.71-12.91-19.71-20.05c0-6.66,5.97-15.55,15.57-23.21
				c9.98-7.95,22.62-13.83,36.03-16.84l0.14,4.35c0.35,10.95,9.21,19.52,20.16,19.52s19.81-8.57,20.16-19.52l0.14-4.35
				C243.453,329.05,256.093,334.93,266.073,342.88z"/>
			<path style="fill:#D66943;" d="M215.533,39.73v183.6h-11.59V39.73c0-3.19,2.6-5.79,5.8-5.79c1.55,0,3.01,0.6,4.09,1.68
				C214.933,36.72,215.533,38.18,215.533,39.73z"/>
			<path style="fill:#F97946;" d="M223.983,234.96l-3.07,95.14c-0.2,6.06-5.1,10.81-11.17,10.81c-6.07,0-10.97-4.75-11.17-10.81
				l-3.07-95.14c0.03-1.46,1.22-2.63,2.68-2.63h23.12C222.763,232.33,223.953,233.5,223.983,234.96z"/>
			<path d="M375.913,409.29c2.48,0.19,4.33,2.36,4.13,4.84c-0.02,0.36-0.06,0.73-0.09,1.09c-0.24,2.32-2.19,4.05-4.47,4.05
				c-0.16,0-0.31-0.01-0.46-0.03c-0.43-0.04-0.85-0.15-1.24-0.3c-1.8-0.73-3-2.58-2.79-4.62c0.03-0.3,0.06-0.6,0.08-0.9
				c0.19-2.36,2.16-4.14,4.48-4.14C375.673,409.28,375.793,409.28,375.913,409.29z"/>
			<path d="M379.553,402.13c0.39,2.45-1.27,4.76-3.73,5.16c-0.12,0.02-0.24,0.03-0.36,0.04c-0.12,0.01-0.24,0.01-0.36,0.01
				c-2.17,0-4.08-1.57-4.44-3.78c-0.04-0.29-0.09-0.58-0.15-0.87c-0.35-1.91,0.55-3.75,2.11-4.69c0.45-0.27,0.95-0.46,1.49-0.56
				c2.45-0.45,4.8,1.16,5.25,3.6C379.433,401.4,379.493,401.76,379.553,402.13z"/>
			<path d="M374.583,421.21c2.34,0.83,3.56,3.41,2.73,5.75c-0.13,0.34-0.25,0.69-0.38,1.03c-0.69,1.79-2.4,2.89-4.21,2.89
				c-0.53,0-1.08-0.09-1.61-0.3c-0.56-0.21-1.05-0.52-1.46-0.91c-1.3-1.21-1.81-3.13-1.13-4.9c0.11-0.28,0.21-0.56,0.31-0.84
				c0.71-1.98,2.67-3.16,4.68-2.96C373.863,421,374.223,421.08,374.583,421.21z"/>
			<path d="M375.753,389.56c1.03,2.27,0.03,4.94-2.23,5.96c-0.6,0.28-1.24,0.41-1.86,0.41c-1.71,0-3.34-0.98-4.1-2.64
				c-0.12-0.27-0.25-0.55-0.38-0.82c-0.98-2.04-0.28-4.45,1.54-5.67c0.18-0.12,0.37-0.23,0.57-0.33c2.24-1.08,4.93-0.13,6,2.11
				C375.453,388.9,375.603,389.23,375.753,389.56z"/>
			<path d="M370.173,432.35c2.05,1.42,2.55,4.22,1.14,6.27c-0.21,0.3-0.43,0.6-0.65,0.9c-0.88,1.21-2.24,1.85-3.63,1.85
				c-0.58,0-1.15-0.11-1.7-0.34c-0.33-0.13-0.65-0.31-0.95-0.53c-2.01-1.47-2.45-4.28-0.98-6.29c0.17-0.24,0.34-0.48,0.51-0.72
				c0.88-1.26,2.28-1.94,3.71-1.94C368.503,431.55,369.393,431.81,370.173,432.35z"/>
			<path d="M368.813,378.44c1.58,1.91,1.32,4.75-0.6,6.33c-0.63,0.53-1.36,0.85-2.11,0.98c-0.25,0.04-0.51,0.06-0.76,0.06
				c-1.29,0-2.57-0.56-3.46-1.63c-0.2-0.23-0.39-0.47-0.59-0.7c-1.62-1.88-1.41-4.72,0.47-6.34c0.11-0.09,0.22-0.18,0.33-0.26
				c1.88-1.33,4.49-1.04,6.02,0.73C368.353,377.88,368.583,378.16,368.813,378.44z"/>
			<path d="M363.023,441.98c1.6,1.9,1.36,4.74-0.54,6.34c-0.28,0.23-0.55,0.46-0.83,0.69c-0.84,0.67-1.84,1-2.83,1
				c-1.31,0-2.61-0.57-3.5-1.67c-1.57-1.93-1.27-4.76,0.66-6.33c0.24-0.19,0.47-0.38,0.7-0.58c1.77-1.49,4.35-1.38,5.99,0.18
				C362.793,441.72,362.913,441.85,363.023,441.98z"/>
			<path d="M359.223,369.51c2.03,1.44,2.5,4.25,1.06,6.27c-0.22,0.31-0.47,0.58-0.75,0.82c-0.82,0.7-1.86,1.07-2.92,1.07
				c-0.9,0-1.81-0.27-2.6-0.83c-0.25-0.17-0.49-0.35-0.74-0.52c-1.96-1.33-2.54-3.94-1.38-5.96c0.06-0.1,0.12-0.19,0.19-0.29
				c1.4-2.05,4.2-2.58,6.25-1.19C358.633,369.09,358.933,369.3,359.223,369.51z"/>
			<path d="M353.623,449.4c1.05,2.25,0.08,4.93-2.17,5.98c-0.33,0.16-0.67,0.31-1,0.46c-0.59,0.26-1.2,0.38-1.81,0.38
				c-1.73,0-3.38-1-4.12-2.69c-0.07-0.15-0.12-0.3-0.17-0.45c-0.69-2.17,0.36-4.54,2.48-5.48c0.27-0.12,0.54-0.24,0.8-0.36
				c1.95-0.92,4.21-0.32,5.47,1.32C353.303,448.81,353.483,449.09,353.623,449.4z"/>
			<path d="M347.633,363.37c2.34,0.86,3.53,3.45,2.66,5.78c-0.13,0.34-0.29,0.66-0.48,0.95c-0.84,1.25-2.25,1.99-3.74,1.99
				c-0.52,0-1.04-0.09-1.56-0.28c-0.28-0.1-0.56-0.21-0.84-0.3c-2.23-0.77-3.47-3.11-2.9-5.35c0.03-0.12,0.07-0.25,0.11-0.37
				c0.81-2.35,3.36-3.6,5.72-2.79C346.953,363.12,347.293,363.24,347.633,363.37z"/>
			<path d="M342.613,454.13c0.42,2.45-1.22,4.78-3.67,5.2c-0.36,0.06-0.72,0.12-1.08,0.18c-0.23,0.03-0.45,0.05-0.68,0.05
				c-2.19,0-4.1-1.6-4.44-3.83c-0.01-0.11-0.03-0.23-0.04-0.34c-0.17-2.33,1.47-4.43,3.81-4.78c0.3-0.05,0.6-0.1,0.89-0.15
				c2.18-0.37,4.26,0.88,5,2.88C342.493,453.59,342.563,453.86,342.613,454.13z"/>
			<path d="M333.143,369.37c-2.39-0.16-4.23-2.16-4.2-4.53c0-0.09,0-0.18,0.01-0.26c0.17-2.48,2.32-4.36,4.79-4.19
				c0.37,0.03,0.74,0.06,1.1,0.09c2.48,0.23,4.3,2.41,4.08,4.89c-0.01,0.15-0.03,0.29-0.06,0.43c-0.41,2.12-2.26,3.66-4.42,3.66
				c-0.14,0-0.27,0-0.41-0.02C333.733,369.42,333.433,369.39,333.143,369.37z"/>
			<path d="M330.753,455.47c0,0.04,0,0.07,0,0.11c0,2.48-2.02,4.5-4.5,4.5h-1c-2.48,0-4.5-2.02-4.5-4.5c0-2.49,2.02-4.5,4.5-4.5h1
				C328.693,451.08,330.693,453.03,330.753,455.47z"/>
			<path d="M322.473,360.28c2.49,0,4.5,2.01,4.5,4.5c0,2.48-2.01,4.5-4.5,4.5h-0.99c-2.49,0-4.5-2.02-4.5-4.5
				c0-2.49,2.01-4.5,4.5-4.5H322.473z"/>
			<path d="M314.283,451.08c2.49,0,4.5,2.01,4.5,4.5c0,2.48-2.01,4.5-4.5,4.5h-0.99c-2.49,0-4.5-2.02-4.5-4.5
				c0-2.49,2.01-4.5,4.5-4.5H314.283z"/>
			<path d="M310.513,360.28c2.48,0,4.5,2.01,4.5,4.5c0,2.48-2.02,4.5-4.5,4.5h-1c-2.48,0-4.5-2.02-4.5-4.5c0-2.49,2.02-4.5,4.5-4.5
				H310.513z"/>
			<path d="M302.323,451.08c2.49,0,4.5,2.01,4.5,4.5c0,2.48-2.01,4.5-4.5,4.5h-1c-2.48,0-4.5-2.02-4.5-4.5c0-2.49,2.02-4.5,4.5-4.5
				H302.323z"/>
			<path d="M298.543,360.28c2.49,0,4.5,2.01,4.5,4.5c0,2.48-2.01,4.5-4.5,4.5h-0.99c-2.39,0-4.34-1.86-4.49-4.21
				c-0.01-0.1-0.01-0.19-0.01-0.29c0-2.49,2.01-4.5,4.5-4.5H298.543z"/>
			<path d="M290.363,451.08c2.48,0,4.5,2.01,4.5,4.5c0,2.48-2.02,4.5-4.5,4.5h-1c-2.49,0-4.5-2.02-4.5-4.5c0-2.49,2.01-4.5,4.5-4.5
				H290.363z"/>
			<path d="M290.623,365.18c0.01,0.31,0.02,0.61,0.02,0.91c0,21.68-35.54,38.66-80.9,38.66s-80.9-16.98-80.9-38.66
				c0-9.62,6.91-20.64,18.96-30.24c11.44-9.13,26-15.77,41.34-18.95l-2.64-81.89c0-5.31,3.57-9.8,8.44-11.21V39.73
				c0-6.68,4.45-12.33,10.54-14.16c-0.14-0.44-0.24-0.91-0.24-1.4l-0.01-0.39c-0.03-1.72,0.89-3.24,2.29-4.03
				c0.62-0.35,1.34-0.56,2.11-0.58c0.03,0,0.07,0,0.1,0c2.44,0,4.44,1.95,4.5,4.4c0.01,0.2,0.01,0.4,0.01,0.6
				c0,0.49-0.1,0.95-0.24,1.39c2.31,0.69,4.44,1.94,6.2,3.69c2.8,2.83,4.33,6.54,4.33,10.48V223.8c4.88,1.4,8.45,5.89,8.45,11.21
				v0.15l-2.64,81.74c15.34,3.18,29.9,9.82,41.34,18.95C283.353,345.15,290.203,355.78,290.623,365.18z M281.643,366.09
				c0-6.66-5.96-15.55-15.57-23.21c-9.98-7.95-22.62-13.83-36.03-16.84l-0.14,4.35c-0.35,10.95-9.21,19.52-20.16,19.52
				s-19.81-8.57-20.16-19.52l-0.14-4.35c-13.41,3.01-26.05,8.89-36.03,16.84c-9.6,7.66-15.57,16.55-15.57,23.21
				c0,7.14,7.19,14.45,19.71,20.05c13.87,6.2,32.4,9.61,52.19,9.61s38.32-3.41,52.19-9.61
				C274.463,380.54,281.643,373.23,281.643,366.09z M220.913,330.1l3.07-95.14c-0.03-1.46-1.22-2.63-2.68-2.63h-23.12
				c-1.46,0-2.65,1.17-2.68,2.63l3.07,95.14c0.2,6.06,5.1,10.81,11.17,10.81C215.813,340.91,220.713,336.16,220.913,330.1z
				 M215.533,223.33V39.73c0-1.55-0.6-3.01-1.7-4.11c-1.08-1.08-2.54-1.68-4.09-1.68c-3.2,0-5.8,2.6-5.8,5.79v183.6H215.533z"/>
			<path d="M278.393,451.08c2.49,0,4.5,2.01,4.5,4.5c0,2.48-2.01,4.5-4.5,4.5h-1c-2.48,0-4.5-2.02-4.5-4.5c0-2.49,2.02-4.5,4.5-4.5
				H278.393z"/>
			<path d="M266.433,451.08c2.48,0,4.5,2.01,4.5,4.5c0,2.48-2.02,4.5-4.5,4.5h-1c-2.49,0-4.5-2.02-4.5-4.5c0-2.49,2.01-4.5,4.5-4.5
				H266.433z"/>
			<path d="M254.463,451.08c2.49,0,4.5,2.01,4.5,4.5c0,2.48-2.01,4.5-4.5,4.5h-1c-2.48,0-4.5-2.02-4.5-4.5c0-2.49,2.02-4.5,4.5-4.5
				H254.463z"/>
			<path d="M242.503,451.08c2.48,0,4.5,2.01,4.5,4.5c0,2.48-2.02,4.5-4.5,4.5h-1c-2.49,0-4.5-2.02-4.5-4.5c0-2.49,2.01-4.5,4.5-4.5
				H242.503z"/>
			<path d="M230.533,451.08c2.49,0,4.5,2.01,4.5,4.5c0,2.48-2.01,4.5-4.5,4.5h-1c-2.48,0-4.5-2.02-4.5-4.5c0-2.49,2.02-4.5,4.5-4.5
				H230.533z"/>
			<path d="M218.573,451.08c2.48,0,4.5,2.01,4.5,4.5c0,2.48-2.02,4.5-4.5,4.5h-1c-2.49,0-4.5-2.02-4.5-4.5c0-2.49,2.01-4.5,4.5-4.5
				H218.573z"/>
			<path d="M206.603,451.08c2.49,0,4.5,2.01,4.5,4.5c0,2.48-2.01,4.5-4.5,4.5h-1c-2.48,0-4.5-2.02-4.5-4.5c0-2.49,2.02-4.5,4.5-4.5
				H206.603z"/>
			<path d="M210.123,10.68c1.39,2.06,0.85,4.85-1.21,6.24c-0.77,0.52-1.65,0.77-2.51,0.77c-1.45,0-2.87-0.69-3.74-1.98
				c-0.14-0.21-0.29-0.42-0.44-0.63c-1.38-1.84-1.14-4.4,0.48-5.95c0.13-0.12,0.27-0.24,0.42-0.35c1.99-1.49,4.81-1.09,6.3,0.9
				C209.663,10.01,209.903,10.34,210.123,10.68z"/>
			<path d="M198.843,1.64c2.31,0.9,3.45,3.51,2.55,5.83c-0.22,0.55-0.54,1.04-0.92,1.45c-0.85,0.89-2.04,1.41-3.28,1.41
				c-0.54,0-1.09-0.1-1.63-0.31c-0.24-0.09-0.48-0.18-0.71-0.26c-2.01-0.66-3.24-2.6-3.09-4.62c0.03-0.36,0.1-0.71,0.22-1.06
				c0.78-2.36,3.33-3.64,5.69-2.86C198.063,1.35,198.453,1.49,198.843,1.64z"/>
			<path d="M194.643,451.08c2.48,0,4.5,2.01,4.5,4.5c0,2.48-2.02,4.5-4.5,4.5h-1c-2.49,0-4.5-2.02-4.5-4.5c0-2.49,2.01-4.5,4.5-4.5
				H194.643z"/>
			<path d="M185.403,0c2.48,0,4.5,2.01,4.5,4.5c0,0.16-0.01,0.31-0.02,0.46c-0.23,2.26-2.15,4.04-4.48,4.04h-1
				c-2.49,0-4.5-2.02-4.5-4.5c0-2.49,2.01-4.5,4.5-4.5H185.403z"/>
			<path d="M182.673,451.08c2.49,0,4.5,2.01,4.5,4.5c0,2.48-2.01,4.5-4.5,4.5h-1c-2.48,0-4.5-2.02-4.5-4.5c0-2.49,2.02-4.5,4.5-4.5
				H182.673z"/>
			<path d="M173.433,0c2.49,0,4.5,2.01,4.5,4.5c0,2.48-2.01,4.5-4.5,4.5h-0.99c-2.49,0-4.5-2.02-4.5-4.5c0-2.49,2.01-4.5,4.5-4.5
				H173.433z"/>
			<path d="M170.713,451.08c2.48,0,4.5,2.01,4.5,4.5c0,2.48-2.02,4.5-4.5,4.5h-1c-2.49,0-4.5-2.02-4.5-4.5c0-2.49,2.01-4.5,4.5-4.5
				H170.713z"/>
			<path d="M161.473,0c2.48,0,4.5,2.01,4.5,4.5c0,2.48-2.02,4.5-4.5,4.5h-1c-2.48,0-4.5-2.02-4.5-4.5c0-2.49,2.02-4.5,4.5-4.5
				H161.473z"/>
			<path d="M158.743,451.08c2.49,0,4.5,2.01,4.5,4.5c0,2.48-2.01,4.5-4.5,4.5h-1c-2.48,0-4.5-2.02-4.5-4.5c0-2.49,2.02-4.5,4.5-4.5
				H158.743z"/>
			<path d="M149.503,0c2.49,0,4.5,2.01,4.5,4.5c0,2.48-2.01,4.5-4.5,4.5h-0.99c-2.49,0-4.5-2.02-4.5-4.5c0-2.49,2.01-4.5,4.5-4.5
				H149.503z"/>
			<path d="M146.783,451.08c2.48,0,4.5,2.01,4.5,4.5c0,2.48-2.02,4.5-4.5,4.5h-1c-2.49,0-4.5-2.02-4.5-4.5c0-2.49,2.01-4.5,4.5-4.5
				H146.783z"/>
			<path d="M137.543,0c2.48,0,4.5,2.01,4.5,4.5c0,2.48-2.02,4.5-4.5,4.5h-1c-2.44,0-4.44-1.96-4.5-4.39c0-0.04,0-0.07,0-0.11
				c0-2.49,2.02-4.5,4.5-4.5H137.543z"/>
			<path d="M134.813,451.08c2.49,0,4.5,2.01,4.5,4.5c0,2.48-2.01,4.5-4.5,4.5h-0.99c-2.49,0-4.5-2.02-4.5-4.5
				c0-2.49,2.01-4.5,4.5-4.5H134.813z"/>
			<path d="M126.003,9.18c-0.3,0.03-0.6,0.06-0.89,0.1c-0.18,0.02-0.35,0.03-0.53,0.03c-1.97,0-3.71-1.29-4.29-3.16
				c-0.08-0.26-0.14-0.54-0.17-0.83c-0.29-2.47,1.48-4.7,3.95-4.98c0.36-0.05,0.72-0.09,1.09-0.12c2.48-0.23,4.67,1.58,4.9,4.06
				c0.01,0.14,0.02,0.28,0.02,0.42C130.083,7,128.343,8.96,126.003,9.18z"/>
			<path d="M123.573,450.59c2.34,0.36,3.97,2.47,3.8,4.79c-0.01,0.11-0.02,0.22-0.04,0.34c-0.35,2.23-2.26,3.82-4.45,3.82
				c-0.22,0-0.46-0.02-0.69-0.06c-0.36-0.05-0.73-0.11-1.09-0.18c-2.45-0.44-4.07-2.78-3.63-5.22c0.05-0.27,0.12-0.54,0.21-0.79
				c0.75-2,2.83-3.24,5.01-2.85C122.983,450.5,123.273,450.54,123.573,450.59z"/>
			<path d="M118.303,6.18c0.61,2.23-0.56,4.59-2.76,5.41c-0.28,0.11-0.56,0.22-0.84,0.33c-0.55,0.22-1.11,0.32-1.67,0.32
				c-1.57,0-3.06-0.82-3.87-2.2c-0.12-0.2-0.22-0.41-0.31-0.63c-0.92-2.31,0.2-4.93,2.51-5.85c0.34-0.13,0.68-0.27,1.02-0.39
				c2.32-0.88,4.92,0.3,5.79,2.62C118.223,5.92,118.263,6.05,118.303,6.18z"/>
			<path d="M113.273,447.55c2.12,0.94,3.15,3.33,2.45,5.49c-0.05,0.15-0.11,0.3-0.18,0.45c-0.74,1.68-2.39,2.67-4.11,2.67
				c-0.61,0-1.23-0.12-1.83-0.39c-0.33-0.15-0.67-0.3-1-0.46c-2.25-1.06-3.2-3.75-2.14-5.99c0.19-0.41,0.44-0.77,0.72-1.09
				c1.3-1.44,3.43-1.93,5.27-1.05C112.723,447.3,112.993,447.43,113.273,447.55z"/>
			<path d="M107.103,10.37c1.45,2.02,0.99,4.83-1.02,6.29c-0.25,0.17-0.49,0.35-0.73,0.53c-0.81,0.61-1.76,0.91-2.7,0.91
				c-0.68,0-1.36-0.16-1.98-0.46c-0.62-0.3-1.18-0.75-1.62-1.34c-1.49-1.98-1.1-4.8,0.89-6.3c0.29-0.22,0.58-0.43,0.88-0.64
				C102.833,7.9,105.643,8.36,107.103,10.37z"/>
			<path d="M104.113,441.92c1.83,1.48,2.18,4.1,0.89,6.01c-0.08,0.11-0.15,0.21-0.24,0.32c-0.89,1.09-2.18,1.66-3.49,1.66
				c-1,0-2-0.33-2.84-1.01c-0.28-0.24-0.57-0.47-0.84-0.71c-1.9-1.61-2.12-4.45-0.51-6.34c0.22-0.26,0.47-0.49,0.73-0.69
				c1.66-1.23,3.99-1.21,5.62,0.19C103.653,441.54,103.883,441.73,104.113,441.92z"/>
			<path d="M97.983,18.03c1.57,1.62,1.72,4.2,0.26,5.98c-0.19,0.24-0.38,0.48-0.57,0.72c-0.88,1.13-2.21,1.72-3.54,1.72
				c-0.73,0-1.46-0.17-2.13-0.54c-0.22-0.12-0.43-0.26-0.64-0.42c-1.96-1.53-2.3-4.36-0.77-6.31c0.22-0.29,0.45-0.57,0.68-0.85
				c1.57-1.93,4.4-2.22,6.33-0.65C97.743,17.79,97.863,17.91,97.983,18.03z"/>
			<path d="M96.733,434.1c1.46,2.01,1.01,4.82-1.01,6.28c-0.2,0.14-0.4,0.27-0.62,0.38c-0.63,0.32-1.33,0.47-2.01,0.47
				c-1.4,0-2.77-0.64-3.65-1.86c-0.21-0.29-0.43-0.59-0.63-0.9c-1.3-1.88-0.97-4.41,0.7-5.9c0.14-0.12,0.29-0.24,0.45-0.35
				c2.04-1.41,4.85-0.9,6.26,1.15C96.393,433.61,96.563,433.86,96.733,434.1z"/>
			<path d="M90.333,27.21c2.26,1.02,3.27,3.69,2.25,5.95c-0.12,0.28-0.24,0.55-0.35,0.82c-0.73,1.72-2.4,2.76-4.15,2.76
				c-0.59,0-1.18-0.12-1.75-0.36c-0.11-0.05-0.21-0.09-0.31-0.15c-2.08-1.07-3-3.57-2.09-5.75c0.15-0.34,0.29-0.67,0.45-1.01
				c0.89-1.97,3.01-2.99,5.03-2.56C89.723,26.98,90.033,27.08,90.333,27.21z"/>
			<path d="M91.653,424.65c0.87,2.32-0.3,4.92-2.63,5.8c-0.52,0.19-1.06,0.29-1.58,0.29c-1.82,0-3.54-1.11-4.21-2.91
				c-0.13-0.34-0.26-0.68-0.38-1.02c-0.83-2.35,0.39-4.92,2.74-5.75c2.34-0.83,4.91,0.39,5.74,2.73
				C91.433,424.08,91.543,424.37,91.653,424.65z"/>
			<path d="M85.783,38.31c2.45,0.39,4.13,2.69,3.74,5.15c-0.05,0.29-0.09,0.59-0.13,0.89c-0.31,2.25-2.24,3.89-4.45,3.89
				c-0.21,0-0.41-0.01-0.62-0.04c-2.46-0.33-4.18-2.6-3.85-5.07c0.05-0.36,0.1-0.72,0.16-1.08c0.35-2.21,2.26-3.8,4.43-3.8
				C85.303,38.25,85.543,38.27,85.783,38.31z"/>
			<path d="M89.213,414.18c0.24,2.43-1.5,4.6-3.9,4.9c-0.05,0.01-0.09,0.02-0.14,0.02c-0.15,0.02-0.3,0.02-0.45,0.02
				c-2.28,0-4.24-1.74-4.47-4.06c-0.04-0.37-0.07-0.73-0.09-1.1c-0.19-2.48,1.68-4.64,4.15-4.82c0.09-0.01,0.18-0.01,0.27-0.01
				c2.36-0.03,4.38,1.78,4.55,4.17C89.153,413.59,89.183,413.89,89.213,414.18z"/>
			<path d="M89.023,401.67v0.99c0,2.49-2.02,4.5-4.5,4.5c-2.49,0-4.5-2.01-4.5-4.5v-0.99c0-2.49,2.01-4.5,4.5-4.5
				C87.003,397.17,89.023,399.18,89.023,401.67z"/>
			<path d="M89.023,389.7v1c0,2.49-2.02,4.5-4.5,4.5c-2.49,0-4.5-2.01-4.5-4.5v-1c0-2.48,2.01-4.5,4.5-4.5
				C87.003,385.2,89.023,387.22,89.023,389.7z"/>
			<path d="M89.023,377.74v1c0,2.48-2.02,4.5-4.5,4.5c-2.49,0-4.5-2.02-4.5-4.5v-1c0-2.49,2.01-4.5,4.5-4.5
				C87.003,373.24,89.023,375.25,89.023,377.74z"/>
			<path d="M89.023,365.77v1c0,2.49-2.02,4.5-4.5,4.5c-2.49,0-4.5-2.01-4.5-4.5v-1c0-2.48,2.01-4.5,4.5-4.5
				C87.003,361.27,89.023,363.29,89.023,365.77z"/>
			<path d="M89.023,353.81v1c0,2.48-2.02,4.5-4.5,4.5c-2.49,0-4.5-2.02-4.5-4.5v-1c0-2.49,2.01-4.5,4.5-4.5
				C87.003,349.31,89.023,351.32,89.023,353.81z"/>
			<path d="M89.023,341.84v1c0,2.49-2.02,4.5-4.5,4.5c-2.49,0-4.5-2.01-4.5-4.5v-1c0-2.48,2.01-4.5,4.5-4.5
				C87.003,337.34,89.023,339.36,89.023,341.84z"/>
			<path d="M89.023,329.88v1c0,2.48-2.02,4.5-4.5,4.5c-2.49,0-4.5-2.02-4.5-4.5v-1c0-2.49,2.01-4.5,4.5-4.5
				C87.003,325.38,89.023,327.39,89.023,329.88z"/>
			<path d="M89.023,317.91v1c0,2.49-2.02,4.5-4.5,4.5c-2.49,0-4.5-2.01-4.5-4.5v-1c0-2.48,2.01-4.5,4.5-4.5
				C87.003,313.41,89.023,315.43,89.023,317.91z"/>
			<path d="M89.023,305.95v1c0,2.48-2.02,4.5-4.5,4.5c-2.49,0-4.5-2.02-4.5-4.5v-1c0-2.49,2.01-4.5,4.5-4.5
				C87.003,301.45,89.023,303.46,89.023,305.95z"/>
			<path d="M89.023,293.98v1c0,2.49-2.02,4.5-4.5,4.5c-2.49,0-4.5-2.01-4.5-4.5v-1c0-2.48,2.01-4.5,4.5-4.5
				C87.003,289.48,89.023,291.5,89.023,293.98z"/>
			<path d="M89.023,282.02v1c0,2.48-2.02,4.5-4.5,4.5c-2.49,0-4.5-2.02-4.5-4.5v-1c0-2.49,2.01-4.5,4.5-4.5
				C87.003,277.52,89.023,279.53,89.023,282.02z"/>
			<path d="M89.023,270.05v1c0,2.49-2.02,4.5-4.5,4.5c-2.49,0-4.5-2.01-4.5-4.5v-1c0-2.48,2.01-4.5,4.5-4.5
				C87.003,265.55,89.023,267.57,89.023,270.05z"/>
			<path d="M89.023,258.09v1c0,2.48-2.02,4.5-4.5,4.5c-2.49,0-4.5-2.02-4.5-4.5v-1c0-2.49,2.01-4.5,4.5-4.5
				C87.003,253.59,89.023,255.6,89.023,258.09z"/>
			<path d="M89.023,246.12v1c0,2.49-2.02,4.5-4.5,4.5c-2.49,0-4.5-2.01-4.5-4.5v-1c0-2.48,2.01-4.5,4.5-4.5
				C87.003,241.62,89.023,243.64,89.023,246.12z"/>
			<path d="M89.023,234.16v1c0,2.48-2.02,4.5-4.5,4.5c-2.49,0-4.5-2.02-4.5-4.5v-1c0-2.49,2.01-4.5,4.5-4.5
				C87.003,229.66,89.023,231.67,89.023,234.16z"/>
			<path d="M89.023,222.2v0.99c0,2.49-2.02,4.5-4.5,4.5c-2.49,0-4.5-2.01-4.5-4.5v-0.99c0-2.49,2.01-4.5,4.5-4.5
				C87.003,217.7,89.023,219.71,89.023,222.2z"/>
			<path d="M89.023,210.23v1c0,2.48-2.02,4.5-4.5,4.5c-2.49,0-4.5-2.02-4.5-4.5v-1c0-2.48,2.01-4.5,4.5-4.5
				C87.003,205.73,89.023,207.75,89.023,210.23z"/>
			<path d="M89.023,198.27v0.99c0,2.49-2.02,4.5-4.5,4.5c-2.49,0-4.5-2.01-4.5-4.5v-0.99c0-2.49,2.01-4.5,4.5-4.5
				C87.003,193.77,89.023,195.78,89.023,198.27z"/>
			<path d="M89.023,186.3v1c0,2.48-2.02,4.5-4.5,4.5c-2.49,0-4.5-2.02-4.5-4.5v-1c0-2.48,2.01-4.5,4.5-4.5
				C87.003,181.8,89.023,183.82,89.023,186.3z"/>
			<path d="M89.023,174.34v0.99c0,2.49-2.02,4.5-4.5,4.5c-2.49,0-4.5-2.01-4.5-4.5v-0.99c0-2.49,2.01-4.5,4.5-4.5
				C87.003,169.84,89.023,171.85,89.023,174.34z"/>
			<path d="M89.023,162.37v1c0,2.48-2.02,4.5-4.5,4.5c-2.49,0-4.5-2.02-4.5-4.5v-1c0-2.48,2.01-4.5,4.5-4.5
				C87.003,157.87,89.023,159.89,89.023,162.37z"/>
			<path d="M89.023,150.41v0.99c0,2.49-2.02,4.5-4.5,4.5c-2.49,0-4.5-2.01-4.5-4.5v-0.99c0-2.49,2.01-4.5,4.5-4.5
				C87.003,145.91,89.023,147.92,89.023,150.41z"/>
			<path d="M89.023,138.44v1c0,2.48-2.02,4.5-4.5,4.5c-2.49,0-4.5-2.02-4.5-4.5v-1c0-2.48,2.01-4.5,4.5-4.5
				C87.003,133.94,89.023,135.96,89.023,138.44z"/>
			<path d="M89.023,126.48v0.99c0,2.49-2.02,4.5-4.5,4.5c-2.49,0-4.5-2.01-4.5-4.5v-0.99c0-2.49,2.01-4.5,4.5-4.5
				C87.003,121.98,89.023,123.99,89.023,126.48z"/>
			<path d="M89.023,114.51v1c0,2.49-2.02,4.5-4.5,4.5c-2.49,0-4.5-2.01-4.5-4.5v-1c0-2.48,2.01-4.5,4.5-4.5
				C87.003,110.01,89.023,112.03,89.023,114.51z"/>
			<path d="M89.023,102.55v0.99c0,2.49-2.02,4.5-4.5,4.5c-2.49,0-4.5-2.01-4.5-4.5v-0.99c0-2.49,2.01-4.5,4.5-4.5
				C87.003,98.05,89.023,100.06,89.023,102.55z"/>
			<path d="M89.023,90.58v1c0,2.49-2.02,4.5-4.5,4.5c-2.49,0-4.5-2.01-4.5-4.5v-1c0-2.48,2.01-4.5,4.5-4.5
				C87.003,86.08,89.023,88.1,89.023,90.58z"/>
			<path d="M89.023,78.62v1c0,2.48-2.02,4.5-4.5,4.5c-2.49,0-4.5-2.02-4.5-4.5v-1c0-2.49,2.01-4.5,4.5-4.5
				C87.003,74.12,89.023,76.13,89.023,78.62z"/>
			<path d="M89.023,66.65v1c0,2.49-2.02,4.5-4.5,4.5c-2.49,0-4.5-2.01-4.5-4.5v-1c0-2.48,2.01-4.5,4.5-4.5
				C87.003,62.15,89.023,64.17,89.023,66.65z"/>
			<path d="M89.023,54.69v1c0,2.48-2.02,4.5-4.5,4.5c-2.49,0-4.5-2.02-4.5-4.5v-1c0-2.49,2.01-4.5,4.5-4.5c0.11,0,0.22,0,0.33,0.01
				C87.183,50.37,89.023,52.31,89.023,54.69z"/>
		</g>
	</g>
</g>
<g>
</g>
<g>
</g>
<g>
</g>
<g>
</g>
<g>
</g>
<g>
</g>
<g>
</g>
<g>
</g>
<g>
</g>
<g>
</g>
<g>
</g>
<g>
</g>
<g>
</g>
<g>
</g>
<g>
</g>
</svg>
