<?xml version="1.0" encoding="iso-8859-1"?>
<!-- Generator: Adobe Illustrator 19.1.0, SVG Export Plug-In . SVG Version: 6.00 Build 0)  -->
<svg version="1.1" id="Capa_1" xmlns="http://www.w3.org/2000/svg" xmlns:xlink="http://www.w3.org/1999/xlink" x="0px" y="0px"
	 viewBox="0 0 466.88 466.88" style="enable-background:new 0 0 466.88 466.88;" xml:space="preserve">
<g>
	<g id="XMLID_17_">
		<g>
			<path d="M392.27,41.4v425.48H74.61V41.4L92.83,0h281.22L392.27,41.4z M383.27,457.88v-33.83H83.61v33.83H383.27z M383.27,415.05
				v-6.83H83.61v6.83H383.27z M383.27,399.22V282.64H83.61v116.58H383.27z M383.27,273.64v-6.83H83.61v6.83H383.27z M383.27,257.81
				v-71.43l-54.67,32.94H138.28l-54.67-32.94v71.43H383.27z M383.27,175.87V46.85H83.61v129.02l4.62,2.78v-66.87l22.09-61.67
				l17.59,49.1l17.58-49.1l17.59,49.11l17.6-49.11l17.58,49.1l17.59-49.1l17.59,49.1l17.58-49.1l17.6,49.11l17.59-49.11l17.58,49.1
				l17.59-49.1l17.59,49.1l17.58-49.1l22.1,61.67v66.87L383.27,175.87z M380.87,37.85L368.18,9H98.7L86,37.85H380.87z
				 M369.65,184.08v-67.02h-26.18v82.79L369.65,184.08z M367.75,108.06l-6.35-17.75l-0.17,0.23l-7.6-5.57l-8.26,23.09H367.75z
				 M334.47,205.27v-88.21h-26.18v93.26h17.81L334.47,205.27z M332.58,108.06l-6.36-17.76l-0.17,0.23l-7.6-5.56l-8.27,23.09H332.58z
				 M299.29,210.32v-93.26h-26.17v93.26H299.29z M297.4,108.06l-6.36-17.75l-0.17,0.23l-7.59-5.57l-8.27,23.09H297.4z
				 M264.12,210.32v-93.26h-26.18v93.26H264.12z M262.22,108.06l-6.36-17.75l-0.16,0.22l-7.6-5.56l-8.27,23.09H262.22z
				 M228.94,210.32v-93.26h-26.18v93.26H228.94z M227.05,108.06l-6.36-17.76l-0.17,0.24l-7.6-5.57l-8.27,23.09H227.05z
				 M193.76,210.32v-93.26h-26.18v93.26H193.76z M191.87,108.06l-6.36-17.75l-0.17,0.23l-7.59-5.57l-8.27,23.09H191.87z
				 M158.58,210.32v-93.26h-26.17v88.22l8.37,5.04H158.58z M156.69,108.06l-6.36-17.75l-0.17,0.22l-7.59-5.56l-8.27,23.09H156.69z
				 M123.41,199.85v-82.79H97.23v67.01L123.41,199.85z M121.52,108.06l-6.36-17.76l-0.17,0.24l-7.6-5.57l-8.27,23.09H121.52z"/>
			<rect x="83.61" y="424.05" style="fill:#F97946;" width="299.66" height="33.83"/>
			<rect x="83.61" y="408.22" style="fill:#D66943;" width="299.66" height="6.83"/>
			<rect x="83.61" y="282.64" style="fill:#FFCC73;" width="299.66" height="116.58"/>
			<rect x="83.61" y="266.81" style="fill:#D66943;" width="299.66" height="6.83"/>
			<polygon style="fill:#F97946;" points="383.27,186.38 383.27,257.81 83.61,257.81 83.61,186.38 138.28,219.32 328.6,219.32 			
				"/>
			<polygon style="fill:#F97946;" points="383.27,46.85 383.27,175.87 378.65,178.65 378.65,111.78 356.55,50.11 338.97,99.21 
				321.38,50.11 303.79,99.21 286.21,50.11 268.62,99.22 251.02,50.11 233.44,99.21 215.85,50.11 198.26,99.21 180.68,50.11 
				163.08,99.22 145.49,50.11 127.91,99.21 110.32,50.11 88.23,111.78 88.23,178.65 83.61,175.87 83.61,46.85 			"/>
			<polygon style="fill:#D66943;" points="368.18,9 380.87,37.85 86,37.85 98.7,9 			"/>
			<polygon style="fill:#6BCE95;" points="369.65,117.06 369.65,184.08 343.47,199.85 343.47,117.06 			"/>
			<polygon style="fill:#FFCC73;" points="361.4,90.31 367.75,108.06 345.37,108.06 353.63,84.97 361.23,90.54 			"/>
			<polygon style="fill:#4489D3;" points="334.47,117.06 334.47,205.27 326.1,210.32 308.29,210.32 308.29,117.06 			"/>
			<polygon style="fill:#FFCC73;" points="326.22,90.3 332.58,108.06 310.18,108.06 318.45,84.97 326.05,90.53 			"/>
			<rect x="273.12" y="117.06" style="fill:#F97946;" width="26.17" height="93.26"/>
			<polygon style="fill:#FFCC73;" points="291.04,90.31 297.4,108.06 275.01,108.06 283.28,84.97 290.87,90.54 			"/>
			<rect x="237.94" y="117.06" style="fill:#6BCE95;" width="26.18" height="93.26"/>
			<polygon style="fill:#FFCC73;" points="255.86,90.31 262.22,108.06 239.83,108.06 248.1,84.97 255.7,90.53 			"/>
			<rect x="202.76" y="117.06" style="fill:#4489D3;" width="26.18" height="93.26"/>
			<polygon style="fill:#FFCC73;" points="220.69,90.3 227.05,108.06 204.65,108.06 212.92,84.97 220.52,90.54 			"/>
			<rect x="167.58" y="117.06" style="fill:#F97946;" width="26.18" height="93.26"/>
			<polygon style="fill:#FFCC73;" points="185.51,90.31 191.87,108.06 169.48,108.06 177.75,84.97 185.34,90.54 			"/>
			<polygon style="fill:#6BCE95;" points="158.58,117.06 158.58,210.32 140.78,210.32 132.41,205.28 132.41,117.06 			"/>
			<polygon style="fill:#FFCC73;" points="150.33,90.31 156.69,108.06 134.3,108.06 142.57,84.97 150.16,90.53 			"/>
			<polygon style="fill:#4489D3;" points="123.41,117.06 123.41,199.85 97.23,184.07 97.23,117.06 			"/>
			<polygon style="fill:#FFCC73;" points="115.16,90.3 121.52,108.06 99.12,108.06 107.39,84.97 114.99,90.54 			"/>
		</g>
	</g>
</g>
<g>
</g>
<g>
</g>
<g>
</g>
<g>
</g>
<g>
</g>
<g>
</g>
<g>
</g>
<g>
</g>
<g>
</g>
<g>
</g>
<g>
</g>
<g>
</g>
<g>
</g>
<g>
</g>
<g>
</g>
</svg>
