<?xml version="1.0" encoding="iso-8859-1"?>
<!-- Generator: Adobe Illustrator 19.1.0, SVG Export Plug-In . SVG Version: 6.00 Build 0)  -->
<svg version="1.1" id="Capa_1" xmlns="http://www.w3.org/2000/svg" xmlns:xlink="http://www.w3.org/1999/xlink" x="0px" y="0px"
	 viewBox="0 0 469.49 469.49" style="enable-background:new 0 0 469.49 469.49;" xml:space="preserve">
<g>
	<g id="XMLID_50_">
		<g>
			<path style="fill:#6BCE95;" d="M460.49,372.85v28.38c0,2.01-1.63,3.64-3.64,3.64H12.64c-2,0-3.64-1.63-3.64-3.64v-28.38H460.49z"
				/>
			<rect x="17.39" y="356.7" style="fill:#60A57C;" width="434.72" height="7.15"/>
			<path style="fill:#6BCE95;" d="M445.27,87.3v214.57c0,7.45-6.06,13.51-13.51,13.51h-58.87V203.73c0-8-6.51-14.51-14.51-14.51
				H111.12c-8,0-14.51,6.51-14.51,14.51v111.65H37.73c-7.45,0-13.51-6.06-13.51-13.51V87.3c0-12.5,10.18-22.68,22.68-22.68h375.7
				C435.1,64.62,445.27,74.8,445.27,87.3z"/>
			<polygon style="fill:#A7B6C4;" points="418.79,324.38 418.79,332.46 402.78,327.61 386.77,332.46 386.77,324.38 			"/>
			<path d="M24.22,301.87c0,7.45,6.06,13.51,13.51,13.51h58.88V203.73c0-8,6.51-14.51,14.51-14.51h247.26
				c8,0,14.51,6.51,14.51,14.51v111.65h58.87c7.45,0,13.51-6.06,13.51-13.51V87.3c0-12.5-10.17-22.68-22.67-22.68H46.9
				c-12.5,0-22.68,10.18-22.68,22.68V301.87z M454.27,87.3v214.57c0,12.41-10.1,22.51-22.51,22.51h-3.97v20.21l-25.01-7.58
				l-25.01,7.58v-20.21h-13.88v-26.1H105.61v26.1H91.72v20.21l-25.01-7.58l-25,7.58v-20.21h-3.98c-12.41,0-22.51-10.1-22.51-22.51
				V87.3c0-17.47,14.21-31.68,31.68-31.68h375.7C440.06,55.62,454.27,69.83,454.27,87.3z M418.79,332.46v-8.08h-32.02v8.08
				l16.01-4.85L418.79,332.46z M363.89,289.28v-85.55c0-3.03-2.47-5.51-5.51-5.51H111.12c-3.04,0-5.51,2.48-5.51,5.51v85.55H363.89z
				 M82.72,332.46v-8.08H50.71v8.08l16-4.85L82.72,332.46z"/>
			<path style="fill:#A7B6C4;" d="M358.38,198.22c3.04,0,5.51,2.48,5.51,5.51v85.55H105.61v-85.55c0-3.03,2.47-5.51,5.51-5.51
				H358.38z"/>
			<polygon style="fill:#A7B6C4;" points="82.72,324.38 82.72,332.46 66.71,327.61 50.71,332.46 50.71,324.38 			"/>
			<path d="M9,401.23c0,2.01,1.64,3.64,3.64,3.64h444.21c2.01,0,3.64-1.63,3.64-3.64v-28.38H9V401.23z M469.49,363.85v37.38
				c0,6.97-5.67,12.64-12.64,12.64H12.64C5.67,413.87,0,408.2,0,401.23v-37.38h8.39V347.7h452.72v16.15H469.49z M452.11,363.85
				v-7.15H17.39v7.15H452.11z"/>
		</g>
	</g>
</g>
<g>
</g>
<g>
</g>
<g>
</g>
<g>
</g>
<g>
</g>
<g>
</g>
<g>
</g>
<g>
</g>
<g>
</g>
<g>
</g>
<g>
</g>
<g>
</g>
<g>
</g>
<g>
</g>
<g>
</g>
</svg>
