<?xml version="1.0" encoding="iso-8859-1"?>
<!-- Generator: Adobe Illustrator 19.1.0, SVG Export Plug-In . SVG Version: 6.00 Build 0)  -->
<svg version="1.1" id="Capa_1" xmlns="http://www.w3.org/2000/svg" xmlns:xlink="http://www.w3.org/1999/xlink" x="0px" y="0px"
	 viewBox="0 0 445.97 445.97" style="enable-background:new 0 0 445.97 445.97;" xml:space="preserve">
<g>
	<g id="XMLID_28_">
		<g>
			<polygon style="fill:#A7B6C4;" points="78.12,195.735 69.15,332.025 60.18,195.735 			"/>
			<polygon style="fill:#A7B6C4;" points="231.95,195.735 222.99,332.025 214.02,195.735 			"/>
			<polygon style="fill:#A7B6C4;" points="385.79,195.735 376.82,332.025 367.86,195.735 			"/>
			<path style="fill:#4489D3;" d="M409.44,62.745H344.2c1.85-5.03,6.68-8.64,12.34-8.64h40.56
				C402.76,54.105,407.6,57.715,409.44,62.745z"/>
			<polygon style="fill:#4489D3;" points="398.35,71.745 404.65,156.665 349,156.665 355.29,71.745 			"/>
			<path style="fill:#4489D3;" d="M436.58,186.735H317.07c2.13-11.96,12.61-21.07,25.17-21.07h69.16
				C423.97,165.665,434.44,174.775,436.58,186.735z"/>
			<path style="fill:#F97946;" d="M255.61,62.745h-65.24c1.84-5.03,6.68-8.64,12.34-8.64h40.56
				C248.93,54.105,253.76,57.715,255.61,62.745z"/>
			<polygon style="fill:#F97946;" points="244.52,71.745 250.81,156.665 195.16,156.665 201.46,71.745 			"/>
			<path style="fill:#F97946;" d="M282.74,186.735H163.23c2.14-11.96,12.61-21.07,25.18-21.07h69.16
				C270.13,165.665,280.61,174.775,282.74,186.735z"/>
			<path style="fill:#6BCE95;" d="M101.77,62.745H36.53c1.84-5.03,6.68-8.64,12.34-8.64h40.56
				C95.09,54.105,99.93,57.715,101.77,62.745z"/>
			<path style="fill:#6BCE95;" d="M128.9,186.735H9.4c2.13-11.96,12.61-21.07,25.17-21.07h69.16
				C116.29,165.665,126.77,174.775,128.9,186.735z"/>
			<polygon style="fill:#6BCE95;" points="90.68,71.745 96.97,156.665 41.33,156.665 47.62,71.745 			"/>
			<path d="M445.97,191.235v4.5h-51.16l-13.5,205.13h-8.98l-13.49-205.13h-51.17v-4.5c0-18.29,14.29-33.31,32.3-34.48l6.3-85.01
				h-11.86v-4.5c0-12.21,9.93-22.14,22.13-22.14h40.56c12.21,0,22.14,9.93,22.14,22.14v4.5h-11.86l6.3,85.01
				C431.68,157.925,445.97,172.945,445.97,191.235z M317.07,186.735h119.51c-2.14-11.96-12.61-21.07-25.18-21.07h-69.16
				C329.68,165.665,319.2,174.775,317.07,186.735z M344.2,62.745h65.24c-1.84-5.03-6.68-8.64-12.34-8.64h-40.56
				C350.88,54.105,346.05,57.715,344.2,62.745z M404.65,156.665l-6.3-84.92h-43.06l-6.29,84.92H404.65z M376.82,332.025l8.97-136.29
				h-17.93L376.82,332.025z"/>
			<path d="M292.14,191.235v4.5h-51.17l-13.49,205.13h-8.98L205,195.735h-51.16v-4.5c0-18.29,14.29-33.31,32.29-34.48l6.3-85.01
				h-11.86v-4.5c0-12.21,9.93-22.14,22.14-22.14h40.56c12.2,0,22.13,9.93,22.13,22.14v4.5h-11.86l6.3,85.01
				C277.85,157.925,292.14,172.945,292.14,191.235z M163.23,186.735h119.51c-2.13-11.96-12.61-21.07-25.17-21.07h-69.16
				C175.84,165.665,165.37,174.775,163.23,186.735z M190.37,62.745h65.24c-1.85-5.03-6.68-8.64-12.34-8.64h-40.56
				C197.05,54.105,192.21,57.715,190.37,62.745z M250.81,156.665l-6.29-84.92h-43.06l-6.3,84.92H250.81z M222.99,332.025
				l8.96-136.29h-17.93L222.99,332.025z"/>
			<path d="M138.3,191.235v4.5H87.14l-13.5,205.13h-8.98l-13.49-205.13H0v-4.5c0-18.29,14.29-33.31,32.3-34.48l6.3-85.01H26.74v-4.5
				c0-12.21,9.93-22.14,22.13-22.14h40.56c12.2,0,22.13,9.93,22.13,22.14v4.5H99.71l6.29,85.01
				C124.01,157.925,138.3,172.945,138.3,191.235z M9.4,186.735h119.5c-2.13-11.96-12.61-21.07-25.17-21.07H34.57
				C22.01,165.665,11.53,174.775,9.4,186.735z M36.53,62.745h65.24c-1.84-5.03-6.68-8.64-12.34-8.64H48.87
				C43.21,54.105,38.37,57.715,36.53,62.745z M96.97,156.665l-6.29-84.92H47.62l-6.29,84.92H96.97z M69.15,332.025l8.97-136.29
				H60.18L69.15,332.025z"/>
		</g>
	</g>
</g>
<g>
</g>
<g>
</g>
<g>
</g>
<g>
</g>
<g>
</g>
<g>
</g>
<g>
</g>
<g>
</g>
<g>
</g>
<g>
</g>
<g>
</g>
<g>
</g>
<g>
</g>
<g>
</g>
<g>
</g>
</svg>
