<?xml version="1.0" encoding="iso-8859-1"?>
<!-- Generator: Adobe Illustrator 19.1.0, SVG Export Plug-In . SVG Version: 6.00 Build 0)  -->
<svg version="1.1" id="Capa_1" xmlns="http://www.w3.org/2000/svg" xmlns:xlink="http://www.w3.org/1999/xlink" x="0px" y="0px"
	 viewBox="0 0 451.874 451.874" style="enable-background:new 0 0 451.874 451.874;" xml:space="preserve">
<g>
	<g id="XMLID_39_">
		<g>
			<path style="fill:#FFCC73;" d="M439.692,75.032c2.92,1.55,4.04,5.19,2.48,8.11l-15.28,28.73l-10.38-6.05l15.07-28.31
				c1.04-1.97,3.08-3.19,5.31-3.19C437.852,74.322,438.832,74.572,439.692,75.032z"/>
			<polygon style="fill:#FFCC73;" points="422.662,119.822 330.822,292.432 317.232,292.432 412.282,113.782 			"/>
			<path style="fill:#6BCE95;" d="M412.682,313.192v46.97c0,6.49-5.28,11.76-11.76,11.76H50.962c-6.49,0-11.76-5.27-11.76-11.76
				v-46.97c0-6.49,5.27-11.76,11.76-11.76h349.96C407.402,301.432,412.682,306.702,412.682,313.192z M393.182,341.182v-9h-22.5v9
				H393.182z M358.682,341.182v-9h-22.5v9H358.682z M324.182,341.182v-9h-22.5v9H324.182z M273.182,341.182v-9H54.202v9H273.182z"/>
			<rect x="370.682" y="332.182" width="22.5" height="9"/>
			<rect x="336.182" y="332.182" width="22.5" height="9"/>
			<rect x="301.682" y="332.182" width="22.5" height="9"/>
			<rect x="54.202" y="332.182" width="218.98" height="9"/>
			<polygon style="fill:#FFCC73;" points="38.502,111.732 134.652,292.432 121.052,292.432 28.132,117.782 			"/>
			<path d="M39.202,360.162c0,6.49,5.27,11.76,11.76,11.76h349.96c6.48,0,11.76-5.27,11.76-11.76v-46.97
				c0-6.49-5.28-11.76-11.76-11.76H50.962c-6.49,0-11.76,5.27-11.76,11.76V360.162z M443.912,67.082
				c7.31,3.88,10.09,12.98,6.21,20.29l-109.1,205.06h59.9c11.44,0,20.76,9.31,20.76,20.76v46.97c0,11.45-9.32,20.76-20.76,20.76
				h-4.74v5.63h-22.5v-5.63H78.192v5.63h-22.49v-5.63h-4.74c-11.45,0-20.76-9.31-20.76-20.76v-46.97c0-11.45,9.31-20.76,20.76-20.76
				h59.9L1.752,87.372c-3.88-7.31-1.1-16.41,6.21-20.29c2.17-1.15,4.6-1.76,7.03-1.76c5.56,0,10.64,3.05,13.25,7.96l116.6,219.15
				h162.19l116.6-219.15c2.62-4.91,7.69-7.96,13.26-7.96C439.312,65.322,441.742,65.932,443.912,67.082z M442.172,83.142
				c1.56-2.92,0.44-6.56-2.48-8.11c-0.86-0.46-1.84-0.71-2.8-0.71c-2.23,0-4.27,1.22-5.31,3.19l-15.07,28.31l10.38,6.05
				L442.172,83.142z M330.822,292.432l91.84-172.61l-10.38-6.04l-95.05,178.65H330.822z M134.652,292.432l-96.15-180.7l-10.37,6.05
				l92.92,174.65H134.652z M34.272,103.782l-13.98-26.27c-1.04-1.97-3.07-3.19-5.3-3.19c-0.97,0-1.94,0.25-2.82,0.71
				c-2.91,1.55-4.02,5.19-2.47,8.11l14.2,26.69L34.272,103.782z"/>
			<path style="fill:#FFCC73;" d="M20.292,77.512l13.98,26.27l-10.37,6.05l-14.2-26.69c-1.55-2.92-0.44-6.56,2.47-8.11
				c0.88-0.46,1.85-0.71,2.82-0.71C17.222,74.322,19.252,75.542,20.292,77.512z"/>
		</g>
	</g>
</g>
<g>
</g>
<g>
</g>
<g>
</g>
<g>
</g>
<g>
</g>
<g>
</g>
<g>
</g>
<g>
</g>
<g>
</g>
<g>
</g>
<g>
</g>
<g>
</g>
<g>
</g>
<g>
</g>
<g>
</g>
</svg>
