<?xml version="1.0" encoding="iso-8859-1"?>
<!-- Generator: Adobe Illustrator 19.1.0, SVG Export Plug-In . SVG Version: 6.00 Build 0)  -->
<svg version="1.1" id="Capa_1" xmlns="http://www.w3.org/2000/svg" xmlns:xlink="http://www.w3.org/1999/xlink" x="0px" y="0px"
	 viewBox="0 0 472.85 472.85" style="enable-background:new 0 0 472.85 472.85;" xml:space="preserve">
<g>
	<g id="XMLID_49_">
		<g>
			<path style="fill:#6A7075;" d="M178.77,188.58c6.21,0,11.26,5.05,11.26,11.25c0,6.21-5.05,11.26-11.26,11.26
				c-6.21,0-11.25-5.05-11.25-11.26C167.52,193.63,172.56,188.58,178.77,188.58z"/>
			<path style="fill:#6A7075;" d="M9,236.87h304.48c-6.98,7.46-16.9,12.14-27.89,12.14H9V236.87z"/>
			<path style="fill:#A7B6C4;" d="M323.81,210.78c0,6.14-1.46,11.95-4.05,17.09H9v-55.32h276.59
				C306.66,172.55,323.81,189.7,323.81,210.78z M199.03,199.83c0-11.17-9.09-20.25-20.26-20.25s-20.25,9.08-20.25,20.25
				s9.08,20.26,20.25,20.26S199.03,211,199.03,199.83z"/>
			<path style="fill:#6A7075;" d="M411.21,167.22c12.04,0,25.45,28.42,25.45,69.2c0,40.79-13.41,69.21-25.45,69.21
				c-12.04,0-25.45-28.42-25.45-69.21C385.76,195.64,399.17,167.22,411.21,167.22z"/>
			<path style="fill:#D66943;" d="M212.71,138.28c-12.38,4.72-25.64,7.19-39.24,7.19c-24.65,0-48.17-8.1-67.37-23.02h85.31
				C197.94,128.54,205.07,133.83,212.71,138.28z"/>
			<path d="M472.85,113.45V359.4H251.1l-1.31-1.26c-8-7.71-17-14.07-26.68-18.97c-9.78,4.93-18.79,11.29-26.78,18.98l-1.31,1.25
				H82.9H0V113.45h95.83h0.01h99.18l1.31,1.26c7.98,7.68,16.99,14.04,26.78,18.97c9.68-4.9,18.68-11.26,26.68-18.97l1.31-1.26
				H472.85z M463.85,350.4V122.45H358.57V350.4H463.85z M349.57,350.4v-20.12l-217.71-72.27H9v92.39h83.22
				c22.11-20.66,50.89-32.02,81.25-32.02s59.13,11.36,81.24,32.02H349.57z M349.57,320.8V122.45h-94.86
				c-22.11,20.66-50.88,32.02-81.24,32.02s-59.13-11.35-81.24-32.02H82.9H9v41.1h276.59c26.04,0,47.22,21.19,47.22,47.23
				s-21.18,47.23-47.22,47.23H160.42L349.57,320.8z M319.76,227.87c2.59-5.14,4.05-10.95,4.05-17.09
				c0-21.08-17.15-38.23-38.22-38.23H9v55.32H319.76z M313.48,236.87H9v12.14h276.59C296.58,249.01,306.5,244.33,313.48,236.87z
				 M191.41,350.4c6.53-6.09,13.67-11.39,21.3-15.83c-12.38-4.72-25.64-7.19-39.24-7.19c-24.66,0-48.18,8.11-67.38,23.02H191.41z
				 M173.47,145.47c13.6,0,26.86-2.47,39.24-7.19c-7.64-4.45-14.77-9.74-21.3-15.83H106.1C125.3,137.37,148.82,145.47,173.47,145.47
				z"/>
			<path style="fill:#F97946;" d="M463.85,122.45V350.4H358.57V122.45H463.85z M445.66,236.42c0-44.58-14.81-78.2-34.45-78.2
				c-19.64,0-34.45,33.62-34.45,78.2c0,44.59,14.81,78.21,34.45,78.21C430.85,314.63,445.66,281.01,445.66,236.42z"/>
			<path d="M411.21,158.22c19.64,0,34.45,33.62,34.45,78.2c0,44.59-14.81,78.21-34.45,78.21c-19.64,0-34.45-33.62-34.45-78.21
				C376.76,191.84,391.57,158.22,411.21,158.22z M436.66,236.42c0-40.78-13.41-69.2-25.45-69.2c-12.04,0-25.45,28.42-25.45,69.2
				c0,40.79,13.41,69.21,25.45,69.21C423.25,305.63,436.66,277.21,436.66,236.42z"/>
			<path style="fill:#F97946;" d="M349.57,330.28v20.12h-94.86c-22.11-20.66-50.88-32.02-81.24-32.02s-59.14,11.36-81.25,32.02H9
				v-92.39h122.86L349.57,330.28z"/>
			<path style="fill:#F97946;" d="M349.57,122.45V320.8l-189.15-62.79h125.17c26.04,0,47.22-21.19,47.22-47.23
				s-21.18-47.23-47.22-47.23H9v-41.1h73.9h9.33c22.11,20.67,50.88,32.02,81.24,32.02s59.13-11.36,81.24-32.02H349.57z"/>
			<path style="fill:#D66943;" d="M212.71,334.57c-7.63,4.44-14.77,9.74-21.3,15.83h-85.32c19.2-14.91,42.72-23.02,67.38-23.02
				C187.07,327.38,200.33,329.85,212.71,334.57z"/>
			<path d="M178.77,179.58c11.17,0,20.26,9.08,20.26,20.25s-9.09,20.26-20.26,20.26s-20.25-9.09-20.25-20.26
				S167.6,179.58,178.77,179.58z M190.03,199.83c0-6.2-5.05-11.25-11.26-11.25c-6.21,0-11.25,5.05-11.25,11.25
				c0,6.21,5.04,11.26,11.25,11.26C184.98,211.09,190.03,206.04,190.03,199.83z"/>
		</g>
	</g>
</g>
<g>
</g>
<g>
</g>
<g>
</g>
<g>
</g>
<g>
</g>
<g>
</g>
<g>
</g>
<g>
</g>
<g>
</g>
<g>
</g>
<g>
</g>
<g>
</g>
<g>
</g>
<g>
</g>
<g>
</g>
</svg>
