<?xml version="1.0" encoding="iso-8859-1"?>
<!-- Generator: Adobe Illustrator 19.1.0, SVG Export Plug-In . SVG Version: 6.00 Build 0)  -->
<svg version="1.1" id="Capa_1" xmlns="http://www.w3.org/2000/svg" xmlns:xlink="http://www.w3.org/1999/xlink" x="0px" y="0px"
	 viewBox="0 0 457.879 457.879" style="enable-background:new 0 0 457.879 457.879;" xml:space="preserve">
<g>
	<g id="XMLID_45_">
		<g>
			<path d="M453.83,242.389c0.02,4.64-2.01,8.91-5.52,11.79c12.52,20.49,12.83,46.43,0.48,67.33c-1.91,3.23-4.07,6.24-6.44,9.05
				c0.44,3.1,0.68,6.25,0.68,9.39c0,24.28-13.46,46.45-34.66,57.73c1.56,4.26,1.14,8.97-1.25,12.95c-2.76,4.64-7.64,7.4-13.04,7.4
				H41.45c-5.4,0-10.27-2.76-13.04-7.4c-1-1.67-1.65-3.47-1.96-5.3H0v-156.95l8.98-0.37c1.64,20.28,10.78,39.04,25.73,52.83
				c14.96,13.79,34.4,21.38,54.75,21.38h183.87c13.37,0,25.53-8.4,30.26-20.9c1.24-3.29,2.9-6.36,4.91-9.21
				c-0.08-2.74,0.1-5.51,0.58-8.28c2.3-13.16-3.9-26.58-15.41-33.38l-158.31-93.54c-17.51-10.35-38.11-13.7-58-9.44
				c-19.89,4.27-37.3,15.77-49.03,32.39l-7.55-4.89l79.84-135.12l22.77,13.46c1.2-1.43,2.68-2.65,4.39-3.58
				c4.74-2.58,10.35-2.48,14.99,0.27l303.6,179.38C451.01,232.129,453.8,236.989,453.83,242.389z M441.84,247.759
				c1.91-1.15,3-3.09,2.99-5.33c-0.01-2.23-1.12-4.16-3.04-5.3l-83.94-49.6c-6.2,7.76-15.53,12.02-25.07,12.02
				c-5.53,0-11.14-1.43-16.24-4.45l-81.11-47.92c-13.89-8.21-19.31-25.34-13.29-39.83l-83.95-49.61c-0.99-0.58-2.06-0.88-3.14-0.88
				c-1.01,0-2.02,0.26-2.97,0.78c-1.96,1.07-3.13,2.96-3.22,5.19c-1.04,25.84,12.15,50.07,34.42,63.23l206.57,122.05
				C392.12,261.269,419.7,261.139,441.84,247.759z M441.04,316.929c10.68-18.08,10.38-40.52-0.51-58.21
				c-11.03,5.44-23,8.17-34.98,8.17c-13.91,0-27.83-3.67-40.28-11.03L158.7,133.799c-25.12-14.84-40-42.18-38.84-71.33
				c0.01-0.26,0.04-0.51,0.06-0.76l-16.13-9.53l-58.53,99.05c9.12-5.95,19.33-10.23,30.21-12.56c22.1-4.74,45-1.01,64.47,10.49
				l158.3,93.54c14.72,8.7,22.64,25.85,19.71,42.68c-2.3,13.17,3.89,26.59,15.4,33.39l30.48,18.02c12.97,7.66,28.14,9.81,42.73,6.06
				C421.14,339.099,433.38,329.889,441.04,316.929z M434.03,339.949c0-0.38-0.02-0.76-0.03-1.15c-7.27,5.98-15.81,10.35-25.2,12.76
				c-5.43,1.4-10.94,2.09-16.4,2.09c-11.55,0-22.94-3.08-33.14-9.12l-30.49-18.01c-8.06-4.76-14.08-12.07-17.39-20.47
				c-6.43,15.12-21.52,25.17-38.05,25.17H89.46c-22.62,0-44.23-8.44-60.85-23.77c-8.18-7.54-14.79-16.42-19.61-26.17v115.05h18.73
				c0.11-0.23,0.22-0.46,0.34-0.69c13.83-25.69,40.55-41.65,69.73-41.65h239.93c26.91,0,51.71,13.57,66.25,35.82
				C422.35,380.119,434.03,360.949,434.03,339.949z M399.4,406.019c1.14-1.92,1.19-4.15,0.13-6.11
				c-12.25-22.78-35.93-36.92-61.8-36.92H97.8c-25.87,0-49.55,14.14-61.8,36.92c-1.06,1.96-1.01,4.19,0.13,6.11
				c1.15,1.91,3.09,3.01,5.32,3.01h97.5c2.2-15.53,15.58-27.52,31.71-27.52h94.21c16.13,0,29.51,11.99,31.71,27.52h97.5
				C396.31,409.029,398.25,407.929,399.4,406.019z M349.99,182.889l-120-70.9c-3.56,10.15,0.41,21.76,10.02,27.44l81.11,47.92
				C330.73,193.029,342.81,190.909,349.99,182.889z M148.07,409.029h139.39c-2.1-10.55-11.43-18.52-22.59-18.52h-94.21
				C159.5,390.509,150.17,398.479,148.07,409.029z"/>
			<path style="fill:#F97946;" d="M444.83,242.429c0.01,2.24-1.08,4.18-2.99,5.33c-22.14,13.38-49.72,13.51-71.99,0.35
				l-206.57-122.05c-22.27-13.16-35.46-37.39-34.42-63.23c0.09-2.23,1.26-4.12,3.22-5.19c0.95-0.52,1.96-0.78,2.97-0.78
				c1.08,0,2.15,0.3,3.14,0.88l83.95,49.61c-6.02,14.49-0.6,31.62,13.29,39.83l81.11,47.92c5.1,3.02,10.71,4.45,16.24,4.45
				c9.54,0,18.87-4.26,25.07-12.02l83.94,49.6C443.71,238.269,444.82,240.199,444.83,242.429z"/>
			<path style="fill:#A7B6C4;" d="M440.53,258.719c10.89,17.69,11.19,40.13,0.51,58.21c-7.66,12.96-19.9,22.17-34.48,25.92
				c-14.59,3.75-29.76,1.6-42.73-6.06l-30.48-18.02c-11.51-6.8-17.7-20.22-15.4-33.39c2.93-16.83-4.99-33.98-19.71-42.68
				l-158.3-93.54c-19.47-11.5-42.37-15.23-64.47-10.49c-10.88,2.33-21.09,6.61-30.21,12.56l58.53-99.05l16.13,9.53
				c-0.02,0.25-0.05,0.5-0.06,0.76c-1.16,29.15,13.72,56.49,38.84,71.33l206.57,122.06c12.45,7.36,26.37,11.03,40.28,11.03
				C417.53,266.889,429.5,264.159,440.53,258.719z M408.33,309.699c0-10.68-8.69-19.38-19.37-19.38c-10.68,0-19.37,8.7-19.37,19.38
				c0,10.68,8.69,19.37,19.37,19.37C399.64,329.069,408.33,320.379,408.33,309.699z"/>
			<path style="fill:#A7B6C4;" d="M434,338.799c0.01,0.39,0.03,0.77,0.03,1.15c0,21-11.68,40.17-30.05,49.86
				c-14.54-22.25-39.34-35.82-66.25-35.82H97.8c-29.18,0-55.9,15.96-69.73,41.65c-0.12,0.23-0.23,0.46-0.34,0.69H9v-115.05
				c4.82,9.75,11.43,18.63,19.61,26.17c16.62,15.33,38.23,23.77,60.85,23.77h183.87c16.53,0,31.62-10.05,38.05-25.17
				c3.31,8.4,9.33,15.71,17.39,20.47l30.49,18.01c10.2,6.04,21.59,9.12,33.14,9.12c5.46,0,10.97-0.69,16.4-2.09
				C418.19,349.149,426.73,344.779,434,338.799z"/>
			<path d="M388.96,290.319c10.68,0,19.37,8.7,19.37,19.38c0,10.68-8.69,19.37-19.37,19.37c-10.68,0-19.37-8.69-19.37-19.37
				C369.59,299.019,378.28,290.319,388.96,290.319z M399.33,309.699c0-5.72-4.65-10.38-10.37-10.38s-10.37,4.66-10.37,10.38
				s4.65,10.37,10.37,10.37S399.33,315.419,399.33,309.699z"/>
			<path style="fill:#F97946;" d="M399.53,399.909c1.06,1.96,1.01,4.19-0.13,6.11c-1.15,1.91-3.09,3.01-5.32,3.01h-97.5
				c-2.2-15.53-15.58-27.52-31.71-27.52h-94.21c-16.13,0-29.51,11.99-31.71,27.52h-97.5c-2.23,0-4.17-1.1-5.32-3.01
				c-1.14-1.92-1.19-4.15-0.13-6.11c12.25-22.78,35.93-36.92,61.8-36.92h239.93C363.6,362.989,387.28,377.129,399.53,399.909z"/>
			<path style="fill:#F97946;" d="M388.96,299.319c5.72,0,10.37,4.66,10.37,10.38s-4.65,10.37-10.37,10.37s-10.37-4.65-10.37-10.37
				S383.24,299.319,388.96,299.319z"/>
			<path style="fill:#A7B6C4;" d="M229.99,111.989l120,70.9c-7.18,8.02-19.26,10.14-28.87,4.46l-81.11-47.92
				C230.4,133.749,226.43,122.139,229.99,111.989z"/>
			<path style="fill:#A7B6C4;" d="M287.46,409.029H148.07c2.1-10.55,11.43-18.52,22.59-18.52h94.21
				C276.03,390.509,285.36,398.479,287.46,409.029z"/>
		</g>
	</g>
</g>
<g>
</g>
<g>
</g>
<g>
</g>
<g>
</g>
<g>
</g>
<g>
</g>
<g>
</g>
<g>
</g>
<g>
</g>
<g>
</g>
<g>
</g>
<g>
</g>
<g>
</g>
<g>
</g>
<g>
</g>
</svg>
