<?xml version='1.0' encoding='iso-8859-1'?>
<svg version="1.1" xmlns="http://www.w3.org/2000/svg" viewBox="0 0 470.047 470.047" xmlns:xlink="http://www.w3.org/1999/xlink" enable-background="new 0 0 470.047 470.047">
  <g>
    <path d="m467.61,226.595c-5.796-25.859-21.315-47.913-43.699-62.099-12.326-7.812-25.871-12.722-40.258-14.592-4.11-0.531-7.87,2.362-8.404,6.471-0.534,4.107 2.363,7.87 6.471,8.404 12.203,1.586 23.696,5.754 34.162,12.387 19,12.042 32.172,30.761 37.092,52.71 4.92,21.949 0.998,44.5-11.044,63.499-11.252,17.755-32.752,32.699-62.174,43.215-22.668,8.103-49.363,13.269-74.03,14.383-6.507-15.601-11.879-33.394-15.267-50.663-0.798-4.065-4.744-6.713-8.804-5.916-4.065,0.798-6.713,4.739-5.916,8.804 3.454,17.604 8.87,35.746 15.442,51.848l-15.636,7.69c-2.435,1.197-4.033,3.617-4.179,6.326-0.146,2.709 1.183,5.287 3.474,6.739l6.762,4.286-39.079,57.913v-102.45h9.357c4.142,0 7.5-3.358 7.5-7.5s-3.358-7.5-7.5-7.5h-20.336l9.038-14.781c29.556-19.926 58.782-47.092 80.386-74.778 27.73-35.539 42.388-71.029 42.388-102.636 0-70.763-57.569-128.332-128.332-128.332s-128.333,57.57-128.333,128.333c0,31.606 14.657,67.097 42.388,102.636 20.492,26.262 47.843,52.067 75.829,71.659l-13.139,21.488c-1.416,2.315-1.47,5.214-0.144,7.581 1.327,2.367 3.829,3.832 6.542,3.832h9.356v102.448l-39.079-57.913 6.762-4.286c3.499-2.217 4.537-6.851 2.32-10.35-2.217-3.499-6.851-4.538-10.35-2.32l-10.314,6.537-.153-9.524c7.54-17.309 13.774-37.454 17.598-56.947 0.797-4.064-1.851-8.006-5.916-8.804-4.061-0.797-8.006,1.851-8.804,5.916-3.389,17.271-8.76,35.063-15.267,50.663-24.667-1.114-51.361-6.28-74.03-14.383-29.422-10.517-50.921-25.46-62.174-43.215-12.042-18.999-15.964-41.55-11.044-63.499s18.093-40.668 37.092-52.71c10.466-6.633 21.959-10.801 34.162-12.387 4.108-0.534 7.005-4.297 6.471-8.404-0.535-4.108-4.297-7.007-8.404-6.471-14.387,1.871-27.932,6.78-40.258,14.592-22.383,14.187-37.902,36.24-43.698,62.099-5.796,25.858-1.175,52.427 13.011,74.81 13.06,20.606 37.194,37.657 69.795,49.31 23.452,8.383 50.957,13.787 76.556,15.139l.28,17.432c0.043,2.713 1.549,5.191 3.937,6.479 1.114,0.601 2.339,0.9 3.562,0.9 1.398,0 2.793-0.391 4.016-1.165l2.176-1.379 53.026,78.583c0.161,0.239 0.338,0.465 0.524,0.683 0.056,0.066 0.116,0.128 0.174,0.191 0.133,0.145 0.27,0.285 0.413,0.419 0.068,0.064 0.137,0.127 0.207,0.188 0.16,0.139 0.326,0.27 0.498,0.395 0.053,0.038 0.103,0.08 0.156,0.117 0.233,0.161 0.474,0.309 0.725,0.444 0.02,0.011 0.041,0.019 0.062,0.03 0.228,0.119 0.463,0.225 0.703,0.321 0.066,0.026 0.133,0.049 0.2,0.073 0.2,0.073 0.403,0.137 0.61,0.193 0.079,0.021 0.158,0.042 0.238,0.061 0.206,0.048 0.414,0.086 0.626,0.117 0.076,0.011 0.151,0.026 0.228,0.035 0.284,0.033 0.571,0.053 0.863,0.053s0.579-0.021 0.863-0.053c0.077-0.009 0.152-0.024 0.228-0.035 0.212-0.031 0.42-0.069 0.626-0.117 0.08-0.019 0.159-0.04 0.239-0.061 0.207-0.056 0.41-0.12 0.609-0.193 0.067-0.024 0.134-0.047 0.2-0.073 0.241-0.096 0.476-0.202 0.703-0.321 0.02-0.011 0.041-0.019 0.062-0.03 0.251-0.134 0.492-0.283 0.725-0.444 0.054-0.037 0.104-0.079 0.156-0.117 0.171-0.125 0.338-0.255 0.497-0.394 0.071-0.061 0.139-0.125 0.208-0.189 0.143-0.134 0.28-0.274 0.413-0.419 0.058-0.064 0.118-0.126 0.174-0.192 0.186-0.218 0.363-0.444 0.524-0.683l53.026-78.582 2.176,1.379c1.246,0.789 2.635,1.166 4.008,1.166 2.484,0 4.914-1.233 6.342-3.486 2.217-3.499 1.179-8.132-2.32-10.35l-10.314-6.537 8.559-4.21c27.122-0.813 56.929-6.38 82.076-15.369 32.601-11.653 56.735-28.704 69.795-49.31 14.187-22.382 18.808-48.95 13.012-74.808zm-306.705-4.831c-25.654-32.877-39.213-65.177-39.213-93.408 0-62.492 50.84-113.332 113.332-113.332s113.332,50.84 113.332,113.332c0,28.231-13.56,60.531-39.213,93.408-19.984,25.611-46.792,50.776-74.119,69.656-27.327-18.88-54.135-44.045-74.119-69.656z"/>
    <path d="m70.225,202.505c3.499-2.218 4.537-6.852 2.32-10.35-2.217-3.498-6.85-4.536-10.35-2.32-32.233,20.43-41.836,63.275-21.407,95.51 1.428,2.253 3.858,3.486 6.342,3.486 1.373,0 2.762-0.377 4.007-1.166 3.499-2.217 4.538-6.851 2.32-10.35-16.001-25.248-8.479-58.808 16.768-74.81z"/>
    <path d="m242.523,37.524c0-4.142-3.358-7.5-7.5-7.5-54.212,0-98.324,44.105-98.332,98.318 0,4.142 3.357,7.5 7.499,7.501 4.143,0 7.5-3.357 7.501-7.499 0.007-45.943 37.389-83.32 83.332-83.32 4.143,0 7.5-3.358 7.5-7.5z"/>
  </g>
</svg>
