<?xml version='1.0' encoding='iso-8859-1'?>
<svg version="1.1" xmlns="http://www.w3.org/2000/svg" viewBox="0 0 470 470" xmlns:xlink="http://www.w3.org/1999/xlink" enable-background="new 0 0 470 470">
  <g>
    <path d="m205.001,95.547c1.778,0 3.563-0.628 4.993-1.905 3.09-2.759 3.358-7.5 0.6-10.59-5.353-5.995-8.3-13.71-8.3-21.726 0-17.564 13.299-35.9 32.706-45.552 19.407,9.651 32.706,27.987 32.706,45.552 0,8.016-2.948,15.731-8.301,21.726-2.759,3.089-2.49,7.831 0.6,10.589 3.091,2.76 7.832,2.49 10.59-0.599 7.81-8.747 12.111-20.011 12.111-31.716 0-24.235-18.382-49.195-44.702-60.698-1.914-0.837-4.092-0.837-6.007,0-26.32,11.503-44.703,36.463-44.703,60.698 0,11.706 4.301,22.969 12.111,31.716 1.481,1.66 3.534,2.506 5.596,2.505z"/>
    <path d="m313.685,352.5h-31.187v-33.5c0-4.142-3.357-7.5-7.5-7.5h-2.5v-62.495c0-0.01 0-58.845 0-58.845 0-0.01 0-58.846 0-58.846 0-0.25-0.013-0.5-0.038-0.749-0.394-9.303-8.064-16.756-17.462-16.756h-12.5v-22.5c0-4.142-3.357-7.5-7.5-7.5s-7.5,3.358-7.5,7.5v22.5h-12.5c-9.649,0-17.5,7.851-17.5,17.5v118.843c0,0.005 0,58.845 0,58.845 0,0.005 0,2.503 0,2.503h-2.5c-4.142,0-7.5,3.358-7.5,7.5v33.5h-31.186c-2.797,0-5.361,1.556-6.653,4.037-1.291,2.481-1.095,5.474 0.509,7.765 17.937,25.614 46.438,41.663 77.33,43.914v54.284c0,4.142 3.358,7.5 7.5,7.5s7.5-3.358 7.5-7.5v-54.284c30.891-2.251 59.392-18.3 77.33-43.914 1.604-2.291 1.801-5.284 0.509-7.765-1.29-2.481-3.855-4.037-6.652-4.037zm-100.579-41l44.393-44.393v44.393h-44.393zm-.607-58.239l45-45v37.631l-45,45v-37.631zm2.5-124.452h40c0.526,0 1.018,0.176 1.426,0.467l-26.729,26.73c-2.929,2.929-2.929,7.678 0,10.606 1.464,1.464 3.384,2.197 5.303,2.197s3.839-0.732 5.303-2.197l17.196-17.196v37.632l-45,45v-100.739c0.001-1.355 1.146-2.5 2.501-2.5zm20,264.691c-23.667,0-46.171-9.512-62.644-26h32.644c4.142,0 7.5-3.358 7.5-7.5s-3.358-7.5-7.5-7.5h-2.5v-26h65v26h-32.5c-4.142,0-7.5,3.358-7.5,7.5s3.358,7.5 7.5,7.5h62.645c-16.474,16.488-38.977,26-62.645,26z"/>
    <path d="m353.817,95.547c1.777,0 3.562-0.628 4.992-1.905 3.09-2.759 3.358-7.5 0.6-10.59-5.353-5.995-8.301-13.711-8.301-21.726 0-17.564 13.299-35.9 32.706-45.552 19.406,9.651 32.705,27.987 32.705,45.552 0,8.016-2.947,15.732-8.3,21.726-2.759,3.089-2.49,7.831 0.6,10.589 3.091,2.76 7.832,2.49 10.59-0.599 7.81-8.746 12.11-20.01 12.11-31.716 0-24.235-18.382-49.196-44.701-60.699-1.916-0.836-4.092-0.836-6.008,0-26.319,11.503-44.702,36.463-44.702,60.699 0,11.705 4.302,22.969 12.111,31.716 1.482,1.66 3.536,2.506 5.598,2.505z"/>
    <path d="m56.188,95.547c1.778,0 3.563-0.628 4.993-1.905 3.09-2.759 3.358-7.5 0.6-10.59-5.353-5.995-8.3-13.71-8.3-21.726 0-17.564 13.299-35.9 32.706-45.552 19.407,9.651 32.706,27.987 32.706,45.552 0,8.016-2.948,15.731-8.3,21.726-2.759,3.089-2.491,7.831 0.599,10.589 3.088,2.758 7.83,2.491 10.589-0.599 7.81-8.747 12.111-20.01 12.111-31.716 0-24.235-18.382-49.196-44.702-60.699-1.915-0.837-4.092-0.836-6.007,0-26.32,11.504-44.703,36.464-44.703,60.699 0,11.706 4.301,22.969 12.111,31.716 1.482,1.66 3.535,2.506 5.597,2.505z"/>
    <path d="m134.161,379.378c-14.289,9.239-30.878,14.122-47.975,14.122-23.667,0-46.171-9.512-62.644-26h32.644c4.142,0 7.5-3.358 7.5-7.5s-3.358-7.5-7.5-7.5h-2.5v-26h65v26h-32.5c-4.142,0-7.5,3.358-7.5,7.5s3.358,7.5 7.5,7.5h40c4.142,0 7.5-3.358 7.5-7.5v-41c0-4.142-3.358-7.5-7.5-7.5h-2.5v-121.343c0-0.005 0-58.846 0-58.846 0-0.249-0.013-0.497-0.038-0.745-0.393-9.304-8.064-16.757-17.462-16.757h-12.5v-22.5c0-4.142-3.358-7.5-7.5-7.5s-7.5,3.358-7.5,7.5v22.5h-12.5c-9.649,0-17.5,7.851-17.5,17.5v59.997c0,0.005 0,58.846 0,58.846 0,0.005 0,58.845 0,58.845 0,0.005 0,2.503 0,2.503h-2.5c-4.142,0-7.5,3.358-7.5,7.5v33.5h-31.186c-2.797,0-5.361,1.556-6.653,4.037-1.291,2.481-1.095,5.474 0.509,7.765 17.937,25.614 46.438,41.663 77.33,43.914v54.284c0,4.142 3.358,7.5 7.5,7.5s7.5-3.358 7.5-7.5v-54.27c17.325-1.246 33.999-6.803 48.62-16.257 3.479-2.249 4.475-6.892 2.226-10.37-2.25-3.478-6.893-4.474-10.371-2.225zm-69.869-67.878l27.197-27.197c2.929-2.929 2.929-7.678 0-10.606-2.929-2.929-7.678-2.929-10.606,0l-17.197,17.197v-37.632l45-45v103.238h-44.394zm-.606-117.084l45-45v37.633l-45,45v-37.633zm2.5-65.607h40c0.526,0 1.018,0.176 1.427,0.467l-43.927,43.927v-41.894c-1.42109e-14-1.355 1.145-2.5 2.5-2.5z"/>
    <path d="m469.152,356.537c-1.291-2.481-3.855-4.037-6.652-4.037h-31.186v-33.5c0-4.142-3.357-7.5-7.5-7.5h-2.5v-62.495c0-0.01 0-58.845 0-58.845 0-0.01 0-58.846 0-58.846 0-0.25-0.013-0.5-0.038-0.749-0.394-9.303-8.064-16.756-17.462-16.756h-12.5v-22.5c0-4.142-3.357-7.5-7.5-7.5s-7.5,3.358-7.5,7.5v22.5h-12.5c-9.649,0-17.5,7.851-17.5,17.5v118.841c0,0.01 0,58.845 0,58.845 0,0.01 0,2.505 0,2.505h-2.5c-4.143,0-7.5,3.358-7.5,7.5v41c0,4.142 3.357,7.5 7.5,7.5h102.644c-16.473,16.488-38.976,26-62.644,26-17.098,0-33.688-4.883-47.976-14.122-3.478-2.25-8.122-1.253-10.37,2.226-2.249,3.478-1.253,8.121 2.226,10.37 14.621,9.454 31.295,15.01 48.62,16.257v54.27c0,4.142 3.357,7.5 7.5,7.5s7.5-3.358 7.5-7.5v-54.284c30.892-2.251 59.393-18.3 77.329-43.914 1.605-2.292 1.801-5.285 0.509-7.766zm-107.231-45.037l44.393-44.393v44.393h-44.393zm-.607-58.238l45-45v37.631l-45,45v-37.631zm2.5-124.453h40c0.526,0 1.018,0.176 1.426,0.467l-26.73,26.73c-2.929,2.929-2.929,7.678 0,10.606 1.465,1.464 3.385,2.197 5.304,2.197s3.839-0.732 5.304-2.197l17.196-17.196v37.632l-45,45v-100.739c5.68434e-14-1.355 1.145-2.5 2.5-2.5zm52.5,223.691h-65v-26h65v26z"/>
  </g>
</svg>
