<?xml version='1.0' encoding='iso-8859-1'?>
<svg version="1.1" xmlns="http://www.w3.org/2000/svg" viewBox="0 0 470 470" xmlns:xlink="http://www.w3.org/1999/xlink" enable-background="new 0 0 470 470">
  <g>
    <path d="m205.003,95.547c1.777,0 3.562-0.628 4.992-1.905 3.09-2.759 3.358-7.5 0.6-10.59-5.353-5.995-8.3-13.71-8.3-21.726 0-17.564 13.299-35.9 32.705-45.552 19.407,9.651 32.706,27.987 32.706,45.552 0,8.016-2.948,15.731-8.301,21.726-2.759,3.089-2.49,7.831 0.6,10.589 3.091,2.76 7.832,2.49 10.59-0.599 7.81-8.747 12.111-20.011 12.111-31.716 0-24.235-18.383-49.195-44.702-60.699-1.916-0.837-4.092-0.836-6.008,0-26.319,11.503-44.701,36.463-44.701,60.698 0,11.706 4.301,22.969 12.11,31.716 1.482,1.661 3.535,2.507 5.598,2.506z"/>
    <path d="m315.572,344.969h-23.698c-4.136,0-7.5-3.364-7.5-7.5v-216.16c0-4.142-3.357-7.5-7.5-7.5h-34.374v-22.5c0-4.142-3.357-7.5-7.5-7.5s-7.5,3.358-7.5,7.5v22.5h-34.374c-4.143,0-7.5,3.358-7.5,7.5 0,17.203-13.995,31.199-31.198,31.199-4.143,0-7.5,3.358-7.5,7.5v49.443c0,4.142 3.357,7.5 7.5,7.5h31.198v120.518c0,4.136-3.364,7.5-7.5,7.5h-23.698c-4.143,0-7.5,3.358-7.5,7.5v48.531c0,4.142 3.357,7.5 7.5,7.5h73.072v54c0,4.142 3.357,7.5 7.5,7.5s7.5-3.358 7.5-7.5v-54h73.072c4.143,0 7.5-3.358 7.5-7.5v-48.531c0-4.142-3.357-7.5-7.5-7.5zm-7.5,48.531h-146.144v-33.531h16.198c12.406,0 22.5-10.093 22.5-22.5v-128.018c0-4.142-3.357-7.5-7.5-7.5h-31.198v-35.052c19.479-3.193 34.896-18.612 38.09-38.09h69.356v208.66c0,12.407 10.094,22.5 22.5,22.5h16.198v33.531z"/>
    <path d="m218.659,178.472c2.68,2 6.257,1.941 8.841,0.099v132.429c0,4.142 3.357,7.5 7.5,7.5s7.5-3.358 7.5-7.5v-159.691c0-3.628-2.597-6.736-6.167-7.38-3.571-0.647-7.09,1.358-8.359,4.756-2.398,6.422-5.943,12.732-10.839,19.29-2.478,3.32-1.795,8.019 1.524,10.497z"/>
    <path d="m246.862,363.5h-4.362v-22.5c0-4.142-3.357-7.5-7.5-7.5s-7.5,3.358-7.5,7.5v22.5h-4.362c-4.143,0-7.5,3.358-7.5,7.5s3.357,7.5 7.5,7.5h23.725c4.143,0 7.5-3.358 7.5-7.5s-3.358-7.5-7.501-7.5z"/>
  </g>
</svg>
