<?xml version='1.0' encoding='iso-8859-1'?>
<svg version="1.1" xmlns="http://www.w3.org/2000/svg" viewBox="0 0 470 470" xmlns:xlink="http://www.w3.org/1999/xlink" enable-background="new 0 0 470 470">
  <g>
    <path d="m302.202,205h-57.671v-22.5c0-4.143-3.357-7.5-7.5-7.5s-7.5,3.357-7.5,7.5v22.5h-61.733c-18.085,0-32.798,14.722-32.798,32.817v89.683c0,4.143 3.357,7.5 7.5,7.5h125c4.143,0 7.5-3.357 7.5-7.5s-3.357-7.5-7.5-7.5h-117.5v-35.65c9.641-1.749 15.54-6.716 20.461-10.865 5.497-4.636 9.469-7.984 18.292-7.984 8.822,0 12.793,3.349 18.289,7.983 6.084,5.131 13.657,11.517 27.959,11.517s21.874-6.386 27.958-11.517c5.496-4.635 9.467-7.983 18.288-7.983 8.823,0 12.795,3.349 18.292,7.984 4.921,4.149 10.82,9.116 20.461,10.865v35.65h-22.5c-4.143,0-7.5,3.357-7.5,7.5s3.357,7.5 7.5,7.5h30c4.143,0 7.5-3.357 7.5-7.5v-89.683c-1.13687e-13-18.095-14.713-32.817-32.798-32.817zm7.007,57.017c-6.085-5.131-13.658-11.517-27.962-11.517-14.302,0-21.874,6.386-27.958,11.517-5.496,4.635-9.467,7.983-18.288,7.983-8.822,0-12.793-3.349-18.289-7.983-6.084-5.131-13.657-11.517-27.959-11.517-14.304,0-21.877,6.386-27.962,11.517-3.645,3.074-6.627,5.575-10.791,6.915v-31.115c0-9.824 7.984-17.817 17.798-17.817h134.404c9.813,0 17.798,7.993 17.798,17.817v31.115c-4.164-1.341-7.146-3.842-10.791-6.915z"/>
    <path d="m218.046,170.981c1.777,0 3.562-0.629 4.992-1.905 3.09-2.759 3.358-7.5 0.6-10.59-2.937-3.289-4.554-7.521-4.554-11.918 0-9.569 7.385-19.964 17.947-25.724 10.563,5.76 17.948,16.154 17.948,25.724 0,4.396-1.617,8.629-4.554,11.917-2.76,3.09-2.491,7.831 0.598,10.59 3.09,2.761 7.83,2.489 10.59-0.598 5.396-6.041 8.366-13.822 8.366-21.909 0-16.399-12.313-33.235-29.944-40.94-1.916-0.838-4.092-0.838-6.008,0-17.63,7.706-29.943,24.541-29.943,40.94 0,8.087 2.971,15.867 8.364,21.908 1.482,1.66 3.535,2.505 5.598,2.505z"/>
    <path d="m235,395c-12.406,0-22.5,10.094-22.5,22.5s10.094,22.5 22.5,22.5 22.5-10.094 22.5-22.5-10.094-22.5-22.5-22.5zm0,30c-4.136,0-7.5-3.364-7.5-7.5s3.364-7.5 7.5-7.5 7.5,3.364 7.5,7.5-3.364,7.5-7.5,7.5z"/>
    <path d="M329.091,0H140.909C114.216,0,92.5,21.716,92.5,48.409v373.182c0,26.693,21.716,48.409,48.409,48.409h188.182   c26.693,0,48.409-21.716,48.409-48.409V48.409C377.5,21.716,355.784,0,329.091,0z M107.5,75h255v290h-255V75z M140.909,15h188.182   c18.422,0,33.409,14.987,33.409,33.409V60h-255V48.409C107.5,29.987,122.487,15,140.909,15z M329.091,455H140.909   c-18.422,0-33.409-14.987-33.409-33.409V380h255v41.591C362.5,440.013,347.513,455,329.091,455z"/>
    <path d="m203.361,45h63.277c4.143,0 7.5-3.357 7.5-7.5s-3.357-7.5-7.5-7.5h-63.277c-4.143,0-7.5,3.357-7.5,7.5s3.358,7.5 7.5,7.5z"/>
  </g>
</svg>
