<?xml version='1.0' encoding='iso-8859-1'?>
<svg version="1.1" xmlns="http://www.w3.org/2000/svg" viewBox="0 0 470 470" xmlns:xlink="http://www.w3.org/1999/xlink" enable-background="new 0 0 470 470">
  <g>
    <path d="m311.255,141.601h-85c-4.142,0-7.5,3.358-7.5,7.5v166.731c0,25.022 18.475,45.807 42.5,49.436v89.732h-35c-4.142,0-7.5,3.358-7.5,7.5s3.358,7.5 7.5,7.5h85c4.142,0 7.5-3.358 7.5-7.5s-3.358-7.5-7.5-7.5h-35v-89.731c24.025-3.63 42.5-24.415 42.5-49.436v-166.732c0-4.142-3.358-7.5-7.5-7.5zm-7.5,174.232c0,19.299-15.701,35-35,35s-35-15.701-35-35v-159.232h70v159.232z"/>
    <path d="m256.255,203.51h25c4.142,0 7.5-3.358 7.5-7.5s-3.358-7.5-7.5-7.5h-25c-4.142,0-7.5,3.358-7.5,7.5s3.358,7.5 7.5,7.5z"/>
    <path d="m443.755,315.833v-166.732c0-4.142-3.358-7.5-7.5-7.5h-85c-4.142,0-7.5,3.358-7.5,7.5v166.731c0,25.022 18.475,45.807 42.5,49.436v89.732h-35c-4.142,0-7.5,3.358-7.5,7.5s3.358,7.5 7.5,7.5h85c4.142,0 7.5-3.358 7.5-7.5s-3.358-7.5-7.5-7.5h-35v-89.731c24.025-3.63 42.5-24.415 42.5-49.436zm-85,0v-159.232h70v159.231c0,19.299-15.701,35-35,35s-35-15.701-35-34.999z"/>
    <path d="m413.755,196.01c0-4.142-3.358-7.5-7.5-7.5h-25c-4.142,0-7.5,3.358-7.5,7.5s3.358,7.5 7.5,7.5h25c4.142,0 7.5-3.358 7.5-7.5z"/>
    <path d="m161.575,178.953c-0.007-0.022-0.017-0.043-0.025-0.064-7.93-20.821-14.18-45.149-14.666-86.242 3.599-2.427 5.97-6.542 5.97-11.2v-43.947c0-20.678-16.822-37.5-37.5-37.5h-10.708c-20.678,0-37.5,16.822-37.5,37.5v43.947c0,4.658 2.371,8.772 5.97,11.2-0.644,54.48-11.419,79.497-22.808,105.935-11.83,27.461-24.063,55.858-24.063,117.068v121.448c0,18.143 14.76,32.902 32.902,32.902h101.705c18.143,0 32.902-14.76 32.902-32.902v-121.448c0-61.21-12.232-89.607-24.063-117.068-2.788-6.476-5.54-12.869-8.116-19.629zm-52.221-99.006h-27.208v-42.447c0-12.407 10.093-22.5 22.5-22.5h10.708c12.407,0 22.5,10.093 22.5,22.5v42.597c-3.423,0.695-6,3.722-6,7.35 0,41.867 5.724,68.379 13.126,89.744-11.144,4.207-22.88,6.344-34.983,6.344-12.102,0-23.837-2.136-34.98-6.343 6.951-20.061 12.424-44.655 13.066-82.245h21.271c4.142,0 7.5-3.358 7.5-7.5s-3.358-7.5-7.5-7.5zm-45.271,124.569c1.88-4.365 3.77-8.757 5.62-13.297 12.842,4.852 26.359,7.316 40.294,7.316 13.937,0 27.455-2.465 40.298-7.317 1.85,4.541 3.741,8.932 5.622,13.298 11.225,26.059 21.849,50.759 22.767,103.634h-27.506c-3.544-19.51-20.66-34.35-41.177-34.35s-37.633,14.84-41.177,34.35h-27.507c0.918-52.875 11.541-77.575 22.766-103.634zm-22.838,118.634h34.405c4.142,0 7.5-3.358 7.5-7.5 0-14.805 12.045-26.85 26.85-26.85s26.85,12.045 26.85,26.85c0,4.142 3.358,7.5 7.5,7.5h34.405v94.917h-137.51v-94.917zm119.608,131.85h-101.706c-9.872,0-17.902-8.031-17.902-17.902v-4.03h137.51v4.03c0,9.871-8.031,17.902-17.902,17.902z"/>
  </g>
</svg>
