<?xml version='1.0' encoding='iso-8859-1'?>
<svg version="1.1" xmlns="http://www.w3.org/2000/svg" viewBox="0 0 470 470" xmlns:xlink="http://www.w3.org/1999/xlink" enable-background="new 0 0 470 470">
  <g>
    <path d="m462.5,415.675h-430c-4.143,0-7.5,3.357-7.5,7.5s3.357,7.5 7.5,7.5h4.342l4.326,15.138c3.182,11.138 14.748,19.862 26.332,19.862h360c11.584,0 23.15-8.725 26.333-19.862l4.325-15.138h4.342c4.143,0 7.5-3.357 7.5-7.5s-3.357-7.5-7.5-7.5zm-23.09,26.016c-1.344,4.701-7.021,8.983-11.91,8.983h-360c-4.89,0-10.566-4.282-11.909-8.983l-3.147-11.017h390.114l-3.148,11.017z"/>
    <path d="m204.999,126.825c0,4.143 3.358,7.5 7.5,7.5 4.143,0 7.5-3.358 7.5-7.5 0-7.744 1.831-11.253 4.149-15.695 2.742-5.256 5.851-11.213 5.851-22.635-0.001-11.423-3.108-17.381-5.851-22.637-2.318-4.443-4.149-7.953-4.149-15.698s1.831-11.256 4.149-15.699c2.742-5.256 5.851-11.214 5.851-22.636 0-4.143-3.357-7.5-7.5-7.5s-7.5,3.357-7.5,7.5c0,7.744-1.831,11.254-4.149,15.697-2.742,5.257-5.852,11.215-5.851,22.638 0,11.423 3.108,17.38 5.851,22.637 2.318,4.443 4.149,7.953 4.149,15.698 0,7.743-1.831,11.252-4.149,15.695-2.743,5.256-5.852,11.213-5.851,22.635z"/>
    <path d="m264.999,126.825c0,4.143 3.358,7.5 7.5,7.5 4.143,0 7.5-3.358 7.5-7.5 0-7.744 1.831-11.253 4.149-15.695 2.742-5.256 5.851-11.213 5.851-22.635-0.001-11.423-3.108-17.381-5.851-22.637-2.318-4.443-4.149-7.953-4.149-15.698s1.831-11.256 4.149-15.699c2.742-5.256 5.851-11.214 5.851-22.636 0-4.143-3.357-7.5-7.5-7.5s-7.5,3.357-7.5,7.5c0,7.744-1.831,11.254-4.149,15.697-2.742,5.257-5.852,11.215-5.851,22.638 0,11.423 3.108,17.38 5.851,22.637 2.318,4.443 4.149,7.953 4.149,15.698 0,7.743-1.831,11.252-4.149,15.695-2.743,5.256-5.852,11.213-5.851,22.635z"/>
    <path d="m87.5,354.325h40.632c31.729,32.271 73.988,50 119.367,50 39.13,0 77.208-13.786 107.22-38.819 3.182-2.653 3.609-7.383 0.956-10.563-2.654-3.182-7.385-3.609-10.563-0.956-27.321,22.789-61.987,35.339-97.612,35.339-42.304,0-81.631-16.925-110.737-47.657-1.416-1.496-3.386-2.343-5.445-2.343h-43.818c-19.365,0-37.571-7.541-51.265-21.235-13.694-13.695-21.235-31.901-21.235-51.266 0-19.366 7.541-37.572 21.234-51.266 13.692-13.693 31.898-21.234 51.265-21.234h30c4.143,0 7.5-3.357 7.5-7.5s-3.357-7.5-7.5-7.5h-22.5v-15h305v15h-27.5c-4.143,0-7.5,3.357-7.5,7.5v60c0,4.136-3.364,7.5-7.5,7.5s-7.5-3.364-7.5-7.5v-60c0-4.143-3.357-7.5-7.5-7.5h-30c-4.143,0-7.5,3.357-7.5,7.5v90c0,4.136-3.364,7.5-7.5,7.5s-7.5-3.364-7.5-7.5v-90c0-4.143-3.357-7.5-7.5-7.5h-135c-4.143,0-7.5,3.357-7.5,7.5s3.357,7.5 7.5,7.5h127.5v82.5c0,12.406 10.094,22.5 22.5,22.5s22.5-10.094 22.5-22.5v-82.5h15v52.5c0,12.406 10.094,22.5 22.5,22.5s22.5-10.094 22.5-22.5v-52.5h20v42.5c0,35.624-12.55,70.29-35.338,97.611-2.653,3.181-2.225,7.91 0.956,10.563 3.18,2.653 7.909,2.226 10.563-0.956 25.032-30.013 38.818-68.09 38.818-107.219v-80c0-4.143-3.357-7.5-7.5-7.5h-320c-4.143,0-7.5,3.357-7.5,7.5v22.814c-20.544,1.732-39.626,10.567-54.372,25.313-16.524,16.528-25.626,38.502-25.626,61.874s9.102,45.345 25.628,61.872c16.527,16.527 38.5,25.628 61.872,25.628z"/>
    <path d="m87.499,209.325c-15.359,0-29.799,5.981-40.658,16.841-10.86,10.86-16.841,25.3-16.841,40.659 0,15.358 5.981,29.798 16.842,40.659 10.86,10.859 25.3,16.841 40.658,16.841h21.409c2.681,0 5.157-1.431 6.497-3.753 1.339-2.322 1.337-5.183-0.005-7.503-13.348-23.072-20.402-49.438-20.402-76.244v-20c0-4.142-3.357-7.5-7.5-7.5zm8.973,100h-8.972c-11.352,0-22.024-4.421-30.051-12.448-8.028-8.027-12.449-18.7-12.449-30.052 0-11.353 4.421-22.025 12.448-30.053 6.229-6.229 14.053-10.287 22.551-11.792v11.845c0,25.168 5.666,49.988 16.473,72.5z"/>
  </g>
</svg>
