<?xml version='1.0' encoding='iso-8859-1'?>
<svg version="1.1" xmlns="http://www.w3.org/2000/svg" viewBox="0 0 470.002 470.002" xmlns:xlink="http://www.w3.org/1999/xlink" enable-background="new 0 0 470.002 470.002">
  <g>
    <path d="m418.654,460.246c-10.106-32.074-28.934-61.384-53.816-84.199-0.246-0.257-0.508-0.5-0.792-0.722-4.519-4.097-9.231-7.985-14.128-11.633-33.405-24.89-73.143-38.045-114.917-38.045s-81.512,13.155-114.917,38.045c-4.89,3.644-9.596,7.525-14.11,11.617-0.295,0.229-0.567,0.481-0.821,0.748-24.877,22.814-43.701,52.12-53.806,84.19-1.245,3.951 0.949,8.162 4.899,9.407 3.949,1.245 8.162-0.949 9.407-4.899 8.619-27.357 23.311-51.399 42.32-70.862 0.556,1.067 1.135,2.123 1.736,3.165 12.723,22.038 34.963,37.117 59.956,40.826 15.71,19.79 39.889,31.511 65.335,31.511s49.625-11.72 65.334-31.51c7.849-1.16 15.476-3.436 22.714-6.779 3.76-1.737 5.4-6.193 3.663-9.954s-6.191-5.399-9.954-3.663c-6.754,3.12-13.917,5.105-21.29,5.899-2.1,0.227-4.007,1.327-5.252,3.033-12.797,17.516-33.438,27.974-55.215,27.974s-42.418-10.458-55.214-27.974c-1.246-1.706-3.153-2.807-5.254-3.033-21.567-2.322-40.944-14.97-51.832-33.829-1.202-2.082-2.28-4.23-3.256-6.415 3.952-3.383 8.053-6.586 12.286-9.605 1.065,2.93 2.377,5.779 3.96,8.52 10.499,18.185 30.391,28.334 50.902,26.508 8.68,18.671 27.411,30.828 48.407,30.828s39.728-12.157 48.407-30.828c20.504,1.824 40.404-8.324 50.902-26.508 1.583-2.741 2.895-5.59 3.96-8.52 4.233,3.019 8.334,6.222 12.286,9.606-0.975,2.185-2.054,4.334-3.256,6.414-2.471,4.28-5.411,8.302-8.739,11.953-2.789,3.062-2.569,7.806 0.492,10.596 1.438,1.31 3.246,1.956 5.05,1.956 2.036,0 4.065-0.824 5.546-2.448 4.053-4.447 7.633-9.345 10.642-14.557 0.602-1.042 1.181-2.099 1.737-3.166 19.009,19.463 33.7,43.506 42.319,70.862 1.009,3.201 3.965,5.248 7.151,5.248 0.746,0 1.506-0.112 2.256-0.349 3.953-1.246 6.147-5.457 4.902-9.408zm-97.334-85.688c-8.325,14.419-24.864,21.804-41.152,18.387-3.743-0.785-7.479,1.37-8.668,5.005-5.182,15.817-19.85,26.444-36.499,26.444s-31.317-10.627-36.499-26.444c-1.19-3.635-4.926-5.79-8.668-5.005-16.295,3.426-32.827-3.969-41.152-18.387-1.736-3.008-3.033-6.188-3.898-9.49 26.632-15.651 57.558-24.421 90.218-24.421s63.585,8.77 90.218,24.421c-0.866,3.301-2.163,6.481-3.9,9.49z"/>
    <path d="m178.232,171.74h8.362c0.71,3.403 3.728,5.961 7.342,5.961 4.143,0 7.5-3.357 7.5-7.5v-5.961c0-4.143-3.357-7.5-7.5-7.5h-15.704c-4.143,0-7.5,3.357-7.5,7.5s3.357,7.5 7.5,7.5z"/>
    <path d="m283.392,177.701c3.614,0 6.632-2.558 7.342-5.961h8.363c4.143,0 7.5-3.357 7.5-7.5s-3.357-7.5-7.5-7.5h-15.705c-4.143,0-7.5,3.357-7.5,7.5v5.961c0,4.143 3.357,7.5 7.5,7.5z"/>
    <path d="m300.124,192.395c-4.094-0.561-7.89,2.299-8.457,6.402-3.638,26.301-26.424,46.134-53.003,46.134s-49.365-19.833-53.003-46.134c-0.568-4.104-4.369-6.962-8.457-6.402-4.104,0.568-6.97,4.354-6.402,8.457 4.659,33.681 33.834,59.079 67.862,59.079s63.203-25.398 67.862-59.079c0.568-4.103-2.298-7.889-6.402-8.457z"/>
    <path d="m238.664,219.123c15.274,0 27.7-12.427 27.7-27.701s-12.426-27.701-27.7-27.701-27.701,12.427-27.701,27.701 12.427,27.701 27.701,27.701zm0-40.402c7.003,0 12.7,5.697 12.7,12.701s-5.697,12.701-12.7,12.701c-7.004,0-12.701-5.697-12.701-12.701s5.697-12.701 12.701-12.701z"/>
    <path d="m102.401,217.075c7.985,7.27 18.729,11.445 29.268,11.638 12.742,47.141 55.879,81.93 106.994,81.93 51.116,0 94.251-34.788 106.994-81.93 10.539-0.193 21.284-4.369 29.269-11.638 8.02-7.3 13.168-16.87 14.499-26.948 1.394-10.554-1.512-20.4-8.182-27.727-8.307-9.125-21.254-12.627-34.154-9.781-5.017-23.695-17.727-45.018-35.896-60.759h10.043c4.143,0 7.5-3.357 7.5-7.5s-3.357-7.5-7.5-7.5h-26.635v-20.922c0.002-30.844-25.092-55.938-55.937-55.938s-55.938,25.094-55.938,55.938v20.922h-26.636c-4.143,0-7.5,3.357-7.5,7.5s3.357,7.5 7.5,7.5h10.044c-18.169,15.741-30.879,37.063-35.896,60.759-12.896-2.846-25.848,0.656-34.154,9.781-6.67,7.326-9.575,17.173-8.182,27.727 1.33,10.078 6.48,19.649 14.499,26.948zm136.263-202.075c22.573,0 40.938,18.365 40.938,40.938v20.922h-81.877v-20.922c0.001-22.573 18.366-40.938 40.939-40.938zm-131.489,157.498c5.829-6.403 16.202-7.681 25.812-3.186 2.17,1.017 4.697,0.933 6.798-0.224 2.101-1.157 3.521-3.249 3.821-5.628 3.817-30.153 21.918-56.782 48.549-71.601h93.019c26.631,14.819 44.731,41.448 48.548,71.601 0.301,2.379 1.721,4.471 3.821,5.627 2.1,1.157 4.626,1.241 6.798,0.225 9.612-4.498 19.984-3.216 25.812,3.186 3.645,4.004 5.208,9.566 4.402,15.665-0.867,6.572-4.321,12.9-9.726,17.82-4.436,4.038-10.302,6.677-16.184,7.483 0.552-4.472 0.84-9.024 0.84-13.643 0-4.143-3.357-7.5-7.5-7.5s-7.5,3.357-7.5,7.5c0,52.835-42.985,95.819-95.821,95.819-52.837,0-95.822-42.984-95.822-95.819 0-4.143-3.357-7.5-7.5-7.5s-7.5,3.357-7.5,7.5c0,4.619 0.289,9.171 0.84,13.643-5.881-0.806-11.748-3.445-16.183-7.483-5.404-4.919-8.858-11.247-9.727-17.819-0.805-6.1 0.759-11.663 4.403-15.666z"/>
  </g>
</svg>
