<?xml version='1.0' encoding='iso-8859-1'?>
<svg version="1.1" xmlns="http://www.w3.org/2000/svg" viewBox="0 0 470 470" xmlns:xlink="http://www.w3.org/1999/xlink" enable-background="new 0 0 470 470">
  <g>
    <path d="m450.59,331.216l19.38-217.368c0.252-2.825-1.112-5.552-3.524-7.044-2.413-1.493-5.46-1.495-7.876-0.01l-109.823,67.581-109.823-67.581c-2.41-1.482-5.451-1.482-7.861,0l-109.818,67.581-109.814-67.581c-2.415-1.484-5.464-1.482-7.876,0.01s-3.776,4.219-3.524,7.044l19.38,217.368c-11.228,3.463-19.411,13.935-19.411,26.284 0,15.163 12.336,27.5 27.5,27.5h415c15.164,0 27.5-12.337 27.5-27.5 0-12.349-8.183-22.821-19.41-26.284zm-8.09,38.784h-415c-6.893,0-12.5-5.607-12.5-12.5s5.607-12.5 12.5-12.5h355c4.142,0 7.5-3.357 7.5-7.5s-3.358-7.5-7.5-7.5h-348.139l-18.063-202.598 101.016,62.167c2.41,1.482 5.451,1.482 7.861,0l109.818-67.581 109.823,67.581c2.41,1.482 5.451,1.482 7.861,0l101.025-62.168-18.063,202.599h-23.139c-4.142,0-7.5,3.357-7.5,7.5s3.358,7.5 7.5,7.5h30c6.893,0 12.5,5.607 12.5,12.5s-5.607,12.5-12.5,12.5z"/>
    <path d="m79.949,130.038c1.34,0 2.698-0.359 3.923-1.113l44.881-27.618 37.374,22.998c3.529,2.171 8.147,1.07 10.318-2.457 2.17-3.527 1.071-8.147-2.457-10.318l-41.304-25.417c-2.41-1.482-5.451-1.482-7.861,0l-48.812,30.037c-3.528,2.171-4.627,6.791-2.457,10.318 1.417,2.302 3.876,3.57 6.395,3.57z"/>
    <path d="m303.873,124.311l37.382-23.005 44.873,27.615c1.226,0.754 2.583,1.113 3.923,1.113 2.519,0 4.978-1.269 6.395-3.57 2.171-3.527 1.071-8.147-2.457-10.318l-48.804-30.034c-2.41-1.482-5.451-1.482-7.861,0l-41.313,25.424c-3.528,2.171-4.627,6.791-2.457,10.318 2.171,3.528 6.79,4.627 10.319,2.457z"/>
    <circle cx="96.316" cy="292.437" r="7.5"/>
    <circle cx="66.316" cy="262.437" r="7.5"/>
  </g>
</svg>
