<?xml version='1.0' encoding='iso-8859-1'?>
<svg version="1.1" xmlns="http://www.w3.org/2000/svg" viewBox="0 0 500 500" xmlns:xlink="http://www.w3.org/1999/xlink" enable-background="new 0 0 500 500">
  <g>
    <path d="m257.5,130.184v-85.184h27.5c12.406,0 22.5-10.094 22.5-22.5v-15c0-4.143-3.357-7.5-7.5-7.5h-100c-4.142,0-7.5,3.357-7.5,7.5v15c0,12.406 10.093,22.5 22.5,22.5h27.5v85.184c-81.997,3.927-147.5,71.864-147.5,154.816 0,85.467 69.533,155 155,155 85.467,0 155-69.533 155-155 0-82.952-65.503-150.889-147.5-154.816zm-50-107.684v-7.5h85v7.5c0,4.136-3.364,7.5-7.5,7.5h-70c-4.136,0-7.5-3.364-7.5-7.5zm42.5,402.5c-77.196,0-140-62.804-140-140s62.804-140 140-140 140,62.804 140,140-62.804,140-140,140z"/>
    <path d="m72.5,277.5h-30c-4.142,0-7.5,3.357-7.5,7.5s3.358,7.5 7.5,7.5h30c4.142,0 7.5-3.357 7.5-7.5s-3.358-7.5-7.5-7.5z"/>
    <path d="m457.5,277.5h-30c-4.143,0-7.5,3.357-7.5,7.5s3.357,7.5 7.5,7.5h30c4.143,0 7.5-3.357 7.5-7.5s-3.357-7.5-7.5-7.5z"/>
    <path d="m119.186,405.208l-21.213,21.213c-2.929,2.93-2.929,7.678 0,10.607 1.464,1.464 3.384,2.196 5.303,2.196 1.919,0 3.839-0.732 5.303-2.196l21.213-21.213c2.929-2.93 2.929-7.678 0-10.607-2.929-2.928-7.678-2.928-10.606,5.68434e-14z"/>
    <path d="m375.512,166.988c1.919,0 3.839-0.732 5.304-2.196l21.213-21.213c2.929-2.93 2.929-7.678 0-10.607-2.93-2.928-7.678-2.928-10.607,0l-21.213,21.213c-2.929,2.93-2.929,7.678 0,10.607 1.464,1.464 3.384,2.196 5.303,2.196z"/>
    <path d="m119.186,164.792c1.464,1.464 3.384,2.196 5.303,2.196s3.839-0.732 5.303-2.196c2.929-2.93 2.929-7.678 0-10.607l-21.213-21.213c-2.929-2.928-7.678-2.928-10.606,0-2.929,2.93-2.929,7.678 0,10.607l21.213,21.213z"/>
    <path d="m380.815,405.208c-2.93-2.928-7.678-2.928-10.607,0-2.929,2.93-2.929,7.678 0,10.607l21.213,21.213c1.465,1.464 3.385,2.196 5.304,2.196s3.839-0.732 5.304-2.196c2.929-2.93 2.929-7.678 0-10.607l-21.214-21.213z"/>
    <path d="m250,455c-4.142,0-7.5,3.357-7.5,7.5v30c0,4.143 3.358,7.5 7.5,7.5 4.143,0 7.5-3.357 7.5-7.5v-30c0-4.143-3.357-7.5-7.5-7.5z"/>
    <path d="m341.467,218.75c4.143,0 7.5-3.357 7.5-7.5s-3.357-7.5-7.5-7.5h-22.028c-3.179-9.982-6.951-19.332-11.315-27.834-1.892-3.686-6.415-5.141-10.097-3.247-3.686,1.891-5.139,6.412-3.247,10.097 3.327,6.483 6.286,13.516 8.875,20.984h-46.155v-36.25c0-4.143-3.357-7.5-7.5-7.5-4.142,0-7.5,3.357-7.5,7.5v36.25h-46.155c2.589-7.468 5.548-14.502 8.875-20.984 1.892-3.685 0.438-8.206-3.248-10.097-3.685-1.894-8.206-0.438-10.097,3.247-4.364,8.502-8.136,17.852-11.314,27.834h-22.028c-4.142,0-7.5,3.357-7.5,7.5s3.358,7.5 7.5,7.5h17.811c-4.435,18.216-7,38.102-7.501,58.75h-36.343c-4.142,0-7.5,3.357-7.5,7.5s3.358,7.5 7.5,7.5h36.354c0.127,5.144 0.373,10.286 0.757,15.36 0.298,3.938 3.586,6.933 7.471,6.933 0.19,0 0.382-0.007 0.575-0.021 4.13-0.313 7.225-3.915 6.912-8.046-0.356-4.699-0.586-9.461-0.709-14.226h58.64v58.75h-50.647c-1.324-5.06-2.501-10.271-3.506-15.602-0.768-4.07-4.691-6.753-8.76-5.979-4.07,0.768-6.748,4.69-5.98,8.761 0.82,4.348 1.752,8.624 2.777,12.82h-17.85c-4.142,0-7.5,3.357-7.5,7.5s3.358,7.5 7.5,7.5h22.051c3.207,10.087 7.001,19.476 11.291,27.834 1.329,2.589 3.956,4.077 6.679,4.077 1.152,0 2.323-0.268 3.419-0.83 3.685-1.892 5.139-6.412 3.247-10.097-3.272-6.374-6.237-13.426-8.845-20.984h46.124v36.25c0,4.143 3.358,7.5 7.5,7.5 4.143,0 7.5-3.357 7.5-7.5v-36.25h46.155c-2.589,7.468-5.547,14.502-8.875,20.984-1.892,3.685-0.438,8.206 3.247,10.097 1.096,0.563 2.266,0.83 3.419,0.83 2.723,0 5.35-1.488 6.678-4.077 4.364-8.502 8.136-17.852 11.315-27.834h22.028c4.143,0 7.5-3.357 7.5-7.5s-3.357-7.5-7.5-7.5h-17.811c4.435-18.216 7.001-38.103 7.501-58.75h36.343c4.143,0 7.5-3.357 7.5-7.5s-3.357-7.5-7.5-7.5h-36.343c-0.501-20.647-3.066-40.534-7.501-58.75h17.811zm-157.62,58.75c0.528-20.837 3.268-40.761 7.969-58.75h50.684v58.75h-58.653zm124.336,73.75h-50.683v-58.75h58.653c-0.528,20.837-3.268,40.761-7.97,58.75zm7.97-73.75h-58.653v-58.75h50.683c4.702,17.989 7.442,37.913 7.97,58.75z"/>
  </g>
</svg>
