<?xml version='1.0' encoding='iso-8859-1'?>
<svg version="1.1" xmlns="http://www.w3.org/2000/svg" viewBox="0 0 469.985 469.985" xmlns:xlink="http://www.w3.org/1999/xlink" enable-background="new 0 0 469.985 469.985">
  <g>
    <path d="m179.992,70h20c4.142,0 7.5-3.357 7.5-7.5s-3.358-7.5-7.5-7.5h-20c-4.142,0-7.5,3.357-7.5,7.5s3.358,7.5 7.5,7.5z"/>
    <path d="m262.492,62.5c0,4.143 3.357,7.5 7.5,7.5h20c4.143,0 7.5-3.357 7.5-7.5s-3.357-7.5-7.5-7.5h-20c-4.142,0-7.5,3.357-7.5,7.5z"/>
    <path d="m204.941,81.945l-14.143,14.143c-2.929,2.93-2.929,7.678 0,10.607 1.464,1.464 3.384,2.196 5.303,2.196s3.839-0.732 5.303-2.196l14.143-14.143c2.929-2.93 2.929-7.678 0-10.607-2.929-2.927-7.678-2.927-10.606,0z"/>
    <path d="m259.741,45.252c1.919,0 3.839-0.732 5.304-2.197l14.142-14.143c2.929-2.929 2.929-7.678-0.001-10.606-2.928-2.928-7.677-2.929-10.606,0.001l-14.142,14.143c-2.929,2.929-2.929,7.678 0.001,10.606 1.464,1.464 3.384,2.196 5.302,2.196z"/>
    <path d="m204.941,43.056c1.464,1.464 3.384,2.196 5.303,2.196s3.839-0.732 5.303-2.196c2.929-2.93 2.929-7.678 0-10.607l-14.143-14.143c-2.929-2.928-7.678-2.928-10.606,0-2.929,2.93-2.929,7.678 0,10.607l14.143,14.143z"/>
    <path d="m268.579,106.694c1.465,1.465 3.384,2.197 5.304,2.197 1.919,0 3.839-0.732 5.303-2.196 2.93-2.929 2.93-7.678 0.001-10.606l-14.142-14.143c-2.929-2.929-7.678-2.93-10.606-0.001-2.93,2.929-2.93,7.678-0.001,10.606l14.141,14.143z"/>
    <path d="m234.992,35c4.143,0 7.5-3.357 7.5-7.5v-20c0-4.143-3.357-7.5-7.5-7.5-4.142,0-7.5,3.357-7.5,7.5v20c0,4.143 3.358,7.5 7.5,7.5z"/>
    <path d="m377.769,412.595l-135.848-327.965c-1.16-2.803-3.896-4.63-6.929-4.63-3.034,0-5.768,1.827-6.929,4.63l-135.847,327.965c-1.285,3.102-0.352,6.679 2.284,8.759 39.753,31.36 89.647,48.632 140.493,48.632 50.845,0 100.74-17.271 140.493-48.632 2.635-2.081 3.568-5.658 2.283-8.759zm-142.776,42.39c-45.594,0-90.367-14.867-126.716-41.968l126.716-305.919 126.716,305.919c-36.349,27.101-81.123,41.968-126.716,41.968z"/>
    <path d="m307.756,420.759c1.476,1.56 3.46,2.346 5.449,2.346 1.85,0 3.703-0.681 5.153-2.052 3.009-2.847 3.141-7.594 0.294-10.603-3.973-4.199-6.16-9.688-6.16-15.457 0-7.875 4.014-15.045 10.735-19.181 3.528-2.17 4.629-6.789 2.458-10.317-2.17-3.529-6.79-4.629-10.317-2.458-11.193,6.886-17.876,18.832-17.876,31.956 0,9.619 3.646,18.77 10.264,25.766z"/>
    <path d="m234.992,357.493c-20.678,0-37.5,16.822-37.5,37.5s16.822,37.5 37.5,37.5 37.5-16.822 37.5-37.5-16.822-37.5-37.5-37.5zm0,60c-12.407,0-22.5-10.094-22.5-22.5s10.093-22.5 22.5-22.5c12.406,0 22.5,10.094 22.5,22.5s-10.093,22.5-22.5,22.5z"/>
    <path d="m154.616,363.037c-3.526-2.17-8.147-1.069-10.318,2.458-2.17,3.528-1.07,8.147 2.458,10.317 6.722,4.136 10.735,11.306 10.735,19.181 0,5.77-2.188,11.259-6.16,15.456-2.847,3.009-2.716,7.756 0.293,10.603 1.45,1.372 3.303,2.053 5.153,2.053 1.989,0 3.974-0.786 5.449-2.345 6.619-6.996 10.265-16.146 10.265-25.767 0.001-13.124-6.681-25.07-17.875-31.956z"/>
    <path d="m219.285,211.094c-2.965-2.896-7.713-2.836-10.606,0.129-2.893,2.965-2.835,7.713 0.129,10.605 7.047,6.878 16.346,10.665 26.184,10.665s19.137-3.787 26.184-10.665c2.965-2.893 3.022-7.642 0.129-10.605-2.894-2.965-7.643-3.024-10.605-0.129-4.229,4.127-9.807,6.399-15.707,6.399s-11.479-2.272-15.708-6.399z"/>
    <path d="m247.492,294.993c0,20.678 16.822,37.5 37.5,37.5 6.278,0 12.496-1.587 17.982-4.589 3.634-1.988 4.967-6.546 2.979-10.18-1.989-3.634-6.547-4.966-10.18-2.979-3.284,1.797-7.013,2.747-10.781,2.747-12.406,0-22.5-10.094-22.5-22.5 0-9.922 6.646-18.8 16.161-21.588 3.975-1.165 6.253-5.331 5.088-9.307-1.163-3.973-5.323-6.252-9.307-5.088-15.862,4.65-26.942,19.447-26.942,35.984z"/>
    <path d="m222.492,294.993c0-16.537-11.079-31.334-26.943-35.982-3.972-1.162-8.141,1.113-9.306,5.088-1.165,3.976 1.113,8.142 5.088,9.307 9.515,2.788 16.161,11.666 16.161,21.588 0,12.406-10.093,22.5-22.5,22.5-3.769,0-7.498-0.95-10.782-2.747-3.633-1.99-8.191-0.654-10.179,2.979-1.989,3.634-0.655,8.191 2.979,10.18 5.486,3.002 11.704,4.589 17.983,4.589 20.677-0.002 37.499-16.824 37.499-37.502z"/>
  </g>
</svg>
