<?xml version='1.0' encoding='iso-8859-1'?>
<svg version="1.1" xmlns="http://www.w3.org/2000/svg" viewBox="0 0 490.02 490.02" xmlns:xlink="http://www.w3.org/1999/xlink" enable-background="new 0 0 490.02 490.02">
  <path d="m482.52,252.51c4.143,0 7.5-3.357 7.5-7.5s-3.357-7.5-7.5-7.5h-22.638c-0.184-5.596-0.566-11.187-1.163-16.761l22.088-1.498c4.132-0.28 7.255-3.857 6.975-7.99s-3.87-7.258-7.99-6.975l-23.181,1.572c-0.941-5.393-2.078-10.758-3.411-16.087l21.574-2.926c4.104-0.557 6.98-4.335 6.424-8.439-0.557-4.105-4.341-6.99-8.439-6.424l-23.717,3.216c-1.607-4.984-3.402-9.92-5.363-14.809l21.066-4.284c4.059-0.825 6.68-4.785 5.854-8.845-0.825-4.059-4.78-6.677-8.845-5.854l-30.012,6.104c-0.126,0.026-0.247,0.063-0.371,0.095-0.122,0.019-0.245,0.031-0.366,0.055l-172.434,35.071c-0.106,0.019-0.211,0.041-0.316,0.064l-121.795,24.772-129.535,9.965c-3.907,0.3-6.925,3.559-6.925,7.478v40c0,3.919 3.018,7.178 6.925,7.478l129.536,9.965 29.089,5.916c0.02,0.005 0.041,0.008 0.061,0.012l265.394,53.979c0.003,0 30.75,6.254 30.75,6.254 0.505,0.103 1.008,0.151 1.503,0.151 3.492,0 6.619-2.451 7.342-6.006 0.825-4.06-1.796-8.02-5.854-8.845l-21.068-4.285c1.96-4.888 3.756-9.825 5.363-14.809l23.718,3.216c0.342,0.047 0.682,0.069 1.018,0.069 3.694,0 6.912-2.73 7.422-6.493 0.557-4.104-2.319-7.883-6.424-8.439l-21.575-2.925c1.333-5.328 2.47-10.694 3.411-16.086l23.182,1.571c0.173,0.012 0.344,0.018 0.515,0.018 3.91,0 7.207-3.033 7.475-6.993 0.28-4.132-2.843-7.71-6.976-7.989l-22.088-1.497c0.597-5.574 0.979-11.164 1.163-16.761h22.638zm-53.784,74.08l-53.121-10.804c14.024-21.114 24.348-44.291 30.729-69.057 6.775-26.294 8.786-53.162 6.023-79.971l16.369-3.329c6.842,16.437 11.522,33.536 14.053,50.878 0.021,0.316 0.067,0.619 0.124,0.917 1.373,9.705 2.078,19.483 2.102,29.264-0.012,0.173-0.026,0.346-0.026,0.522 0,0.176 0.014,0.349 0.026,0.522-0.024,9.784-0.729,19.566-2.104,29.275-0.052,0.276-0.093,0.557-0.114,0.844-2.528,17.362-7.212,34.482-14.061,50.939zm-118.06-24.013c8.345-14.668 15.049-30.248 19.972-46.454 1.203-3.963-1.034-8.152-4.997-9.356-3.96-1.204-8.152,1.033-9.356,4.997-5.078,16.72-12.188,32.725-21.148,47.655l-50.5-10.271c13.993-28.951 21.778-60.753 22.689-92.893l58.073-11.812c0.333,13.052-0.521,26.157-2.591,39.073-0.656,4.09 2.128,7.938 6.218,8.593 0.402,0.064 0.802,0.096 1.196,0.096 3.619,0 6.806-2.626 7.396-6.313 2.357-14.702 3.264-29.635 2.711-44.485l57.245-11.643c4.751,50.181-8.856,101.547-37.925,142.776l-48.983-9.963zm-133.016-27.054c8.345-20.566 13.614-42.105 15.701-64.222l58.841-11.968c-1.354,30.108-9.129,59.811-22.744,86.725l-51.798-10.535zm-32.66-6.643v-47.743l32.951-6.702c-2.318,19.996-7.439,39.456-15.265,58.042l-17.686-3.597zm-130-36.926l85-6.539v17.286c0,4.143 3.357,7.5 7.5,7.5s7.5-3.357 7.5-7.5v-18.44l15-1.154v43.802l-115-8.847v-26.108z"/>
</svg>
