<?xml version='1.0' encoding='iso-8859-1'?>
<svg version="1.1" xmlns="http://www.w3.org/2000/svg" viewBox="0 0 469.989 469.989" xmlns:xlink="http://www.w3.org/1999/xlink" enable-background="new 0 0 469.989 469.989">
  <g>
    <path d="m423.896,46.13c-29.748-29.747-69.3-46.13-111.37-46.13s-81.621,16.383-111.369,46.13c-29.748,29.748-46.131,69.301-46.131,111.37 0,34.472 11.007,67.25 31.347,94.332l-179.758,179.759c-8.771,8.773-8.771,23.047-8.88178e-15,31.819 4.387,4.386 10.148,6.579 15.91,6.579 5.763,0 11.524-2.193 15.911-6.579l179.758-179.758c27.083,20.34 59.86,31.347 94.332,31.347 42.069,0 81.622-16.383 111.37-46.131 61.409-61.408 61.409-161.328 0-222.738zm-396.067,406.673c-1.416,1.417-3.3,2.197-5.304,2.197-2.003,0-3.887-0.78-5.303-2.197-2.925-2.924-2.924-7.682 0-10.605l178.759-178.758c1.679,1.843 3.402,3.654 5.176,5.428 1.775,1.775 3.586,3.498 5.429,5.177l-178.757,178.758zm385.46-194.541c-26.914,26.915-62.699,41.738-100.763,41.738-33.235,0-64.733-11.304-90.105-32.089-0.068-0.058-0.137-0.113-0.207-0.168-3.612-2.97-7.099-6.132-10.449-9.481-3.349-3.349-6.51-6.836-9.48-10.447-0.056-0.071-0.112-0.141-0.171-0.211-20.784-25.373-32.087-56.87-32.087-90.104 0-38.063 14.823-73.849 41.738-100.763 26.914-26.915 62.699-41.737 100.761-41.737 38.063,0 73.849,14.822 100.763,41.737 55.561,55.561 55.561,145.965 0,201.525z"/>
    <path d="m432.518,165.058c-4.112-0.517-7.859,2.398-8.374,6.509-3.131,24.992-14.22,47.636-32.067,65.482-18.748,18.749-42.523,29.477-67.027,32.198-54.661-0.299-99.038-44.854-99.038-99.584 0-43.104 35.068-78.172 78.173-78.172 33.656,0 61.038,27.381 61.038,61.037 0,26.099-21.232,47.331-47.331,47.331-20.052,0-36.364-16.313-36.364-36.364 0-15.214 12.378-27.592 27.592-27.592 11.344,0 20.573,9.229 20.573,20.573 0,4.143 3.357,7.5 7.5,7.5s7.5-3.357 7.5-7.5c0-19.615-15.958-35.573-35.573-35.573-23.485,0-42.592,19.106-42.592,42.592 0,28.322 23.042,51.364 51.364,51.364 34.369,0 62.331-27.962 62.331-62.331 0-41.927-34.11-76.037-76.038-76.037-51.376,0-93.173,41.797-93.173,93.172 0,25.171 8.164,48.468 21.975,67.395-43.874-43.873-43.874-115.245-0.009-159.108s115.236-43.864 159.099-0.001c17.848,17.849 28.937,40.492 32.067,65.483 0.514,4.109 4.27,7.027 8.374,6.509 4.109-0.515 7.024-4.264 6.509-8.374-3.549-28.329-16.116-53.996-36.343-74.225-49.713-49.712-130.601-49.71-180.313,0-49.711,49.712-49.712,130.601 0,180.313 24.856,24.855 57.507,37.284 90.156,37.284 4.44,0 8.879-0.238 13.3-0.698 0.42-0.012 0.832-0.054 1.232-0.133 27.651-3.145 54.463-15.292 75.625-36.454 20.227-20.228 32.794-45.894 36.343-74.225 0.515-4.108-2.4-7.857-6.509-8.371z"/>
  </g>
</svg>
