<?xml version='1.0' encoding='iso-8859-1'?>
<svg version="1.1" xmlns="http://www.w3.org/2000/svg" viewBox="0 0 470 470" xmlns:xlink="http://www.w3.org/1999/xlink" enable-background="new 0 0 470 470">
  <g>
    <path d="m362.5,187.5c-26.191,0-47.5,21.309-47.5,47.5s21.309,47.5 47.5,47.5 47.5-21.309 47.5-47.5-21.309-47.5-47.5-47.5zm0,80c-17.92,0-32.5-14.579-32.5-32.5s14.58-32.5 32.5-32.5 32.5,14.579 32.5,32.5-14.58,32.5-32.5,32.5z"/>
    <path d="M362.5,127.5C303.224,127.5,255,175.725,255,235c0,39.305,21.204,73.751,52.773,92.5H145v-45h93.805   c4.142,0,7.5-3.357,7.5-7.5s-3.358-7.5-7.5-7.5H107.707c-0.035,0-0.069,0.005-0.104,0.005c-0.035,0-0.068-0.005-0.103-0.005   c-0.399,0-0.788,0.04-1.17,0.1l-99.575,9.937C2.92,277.92,0,281.146,0,285v40c0,3.854,2.92,7.08,6.755,7.463l100.207,10   c0.248,0.024,0.496,0.037,0.745,0.037H362.5c59.276,0,107.5-48.225,107.5-107.5S421.776,127.5,362.5,127.5z M15,318.211v-26.422   l85-8.483V305c0,4.143,3.358,7.5,7.5,7.5s7.5-3.357,7.5-7.5v-22.5h15v45h-21.92L15,318.211z M362.5,327.5   c-51.005,0-92.5-41.495-92.5-92.5s41.495-92.5,92.5-92.5S455,183.995,455,235S413.505,327.5,362.5,327.5z"/>
    <path d="m432.472,242.673c-4.046-0.887-8.043,1.681-8.927,5.727-6.214,28.451-31.887,49.101-61.044,49.101-34.462,0-62.5-28.037-62.5-62.5s28.038-62.5 62.5-62.5c29.158,0 54.831,20.649 61.045,49.101 0.884,4.048 4.885,6.615 8.928,5.727 4.046-0.884 6.61-4.881 5.727-8.928-3.714-17.004-13.226-32.454-26.785-43.506-13.76-11.217-31.131-17.394-48.915-17.394-42.734,0-77.5,34.767-77.5,77.5s34.766,77.5 77.5,77.5c17.783,0 35.155-6.177 48.915-17.394 13.559-11.052 23.071-26.503 26.784-43.506 0.883-4.047-1.681-8.044-5.728-8.928z"/>
  </g>
</svg>
