<?xml version='1.0' encoding='iso-8859-1'?>
<svg version="1.1" xmlns="http://www.w3.org/2000/svg" viewBox="0 0 470 470" xmlns:xlink="http://www.w3.org/1999/xlink" enable-background="new 0 0 470 470">
  <g>
    <path d="m133.282,137.071h13.239c4.142,0 7.5-3.358 7.5-7.5s-3.358-7.5-7.5-7.5h-20.563c-4.142,0-7.5,3.358-7.5,7.5v5.875c0,4.142 3.358,7.5 7.5,7.5 3.585,0 6.582-2.514 7.324-5.875z"/>
    <path d="m168.297,166.104c-4.142,0-7.5,3.358-7.5,7.5 0,4.136-3.364,7.5-7.5,7.5s-7.5-3.364-7.5-7.5 3.364-7.5 7.5-7.5c4.142,0 7.5-3.358 7.5-7.5s-3.358-7.5-7.5-7.5c-12.407,0-22.5,10.093-22.5,22.5s10.093,22.5 22.5,22.5 22.5-10.093 22.5-22.5c0-4.142-3.358-7.5-7.5-7.5z"/>
    <path d="m399.229,240.891h-20.013c-11.246-10.16-26.137-16.358-42.45-16.358h-109.972l-27.126-217.959c-0.467-3.755-3.659-6.574-7.442-6.574-9.99,0-18.97,3.939-25.288,11.092-6.317,7.153-9.117,16.551-7.883,26.464l4.142,33.284h-13.353c-0.373,0-0.745,0.019-1.118,0.025l-4.376-35.161c-0.512-4.11-4.254-7.033-8.369-6.516-4.11,0.511-7.028,4.258-6.516,8.369l4.38,35.193c-10.502,2.523-20.34,7.498-28.633,14.627-10.624,9.134-18.172,21.28-21.667,34.695h-27.059c-14.926,0-27.07,12.144-27.07,27.07v17.857c0,14.926 12.144,27.07 27.07,27.07h24.846v239.077c0,20.322 16.533,36.855 36.855,36.855h11.617c20.322,0 36.855-16.533 36.855-36.855v-61.342h148.169v61.342c0,20.322 16.533,36.855 36.855,36.855h11.617c20.322,0 36.855-16.533 36.855-36.855v-145.224c0-11.68-3.189-22.624-8.722-32.031h7.796c14.532,0 26.355,11.823 26.355,26.355v105.752c0,4.142 3.358,7.5 7.5,7.5s7.5-3.358 7.5-7.5v-105.752c-5.68434e-14-22.803-18.552-41.355-41.355-41.355zm-225.29-205.187c-0.695-5.584 0.811-10.798 4.241-14.682 2.033-2.302 4.614-3.991 7.55-4.984l6.82,54.802h-14.239l-4.372-35.136zm-117.453,143.364c-6.655,0-12.07-5.415-12.07-12.07v-17.857c0-6.655 5.415-12.07 12.07-12.07h24.846v41.997h-24.846zm95.173,254.077c0,12.051-9.804,21.855-21.855,21.855h-11.617c-12.051,0-21.855-9.804-21.855-21.855v-61.342h55.327v61.342zm233.495,0c0,12.051-9.804,21.855-21.855,21.855h-11.617c-12.051,0-21.855-9.804-21.855-21.855v-61.342h32.827c4.142,0 7.5-3.358 7.5-7.5s-3.358-7.5-7.5-7.5h-266.322v-29.09h266.322c4.142,0 7.5-3.358 7.5-7.5s-3.358-7.5-7.5-7.5h-266.322v-29.09h203.465c4.142,0 7.5-3.358 7.5-7.5s-3.358-7.5-7.5-7.5h-203.465v-29.09h93.727c4.142,0 7.5-3.358 7.5-7.5s-3.358-7.5-7.5-7.5h-93.727v-91.623c0.33-0.663 0.572-1.381 0.695-2.145 4.196-26.031 26.409-44.925 52.817-44.925h44.574l18.31,147.12c0.467,3.755 3.658,6.574 7.442,6.574h116.596c26.682,0 48.389,21.707 48.389,48.389v145.222z"/>
    <path d="m359.797,268.623h-30c-4.142,0-7.5,3.358-7.5,7.5s3.358,7.5 7.5,7.5h30c4.142,0 7.5-3.358 7.5-7.5s-3.358-7.5-7.5-7.5z"/>
  </g>
</svg>
