<?xml version='1.0' encoding='iso-8859-1'?>
<svg version="1.1" xmlns="http://www.w3.org/2000/svg" viewBox="0 0 470 470" xmlns:xlink="http://www.w3.org/1999/xlink" enable-background="new 0 0 470 470">
  <g>
    <path d="M422.5,0h-375C43.357,0,40,3.358,40,7.5v455c0,4.142,3.357,7.5,7.5,7.5h375c4.143,0,7.5-3.358,7.5-7.5V7.5   C430,3.358,426.643,0,422.5,0z M415,455H55V15h360V455z"/>
    <path d="m253.905,193.483c-3.905-1.386-8.192,0.651-9.579,4.555-1.399,3.936-5.147,6.581-9.326,6.581s-7.927-2.645-9.326-6.581c-1.387-3.904-5.675-5.94-9.579-4.555-3.902,1.388-5.941,5.676-4.554,9.579 3.521,9.903 12.948,16.556 23.459,16.556s19.938-6.653 23.459-16.556c1.388-3.902-0.651-8.191-4.554-9.579z"/>
    <path d="m216.107,166.023v-5c0-4.142-3.357-7.5-7.5-7.5h-17.5c-4.143,0-7.5,3.358-7.5,7.5s3.357,7.5 7.5,7.5h10.427c1.029,2.913 3.808,5 7.073,5 4.143,0 7.5-3.357 7.5-7.5z"/>
    <path d="m278.893,153.523h-17.5c-4.143,0-7.5,3.358-7.5,7.5v5c0,4.142 3.357,7.5 7.5,7.5 3.266,0 6.044-2.087 7.073-5h10.427c4.143,0 7.5-3.358 7.5-7.5s-3.358-7.5-7.5-7.5z"/>
    <path d="m235,286.5c-33.913,0-66.412,10.332-93.985,29.878-3.38,2.396-4.177,7.077-1.781,10.456 2.395,3.378 7.075,4.177 10.455,1.781 25.024-17.739 54.524-27.115 85.311-27.115 30.788,0 60.289,9.377 85.313,27.117 1.317,0.934 2.831,1.382 4.331,1.382 2.35,0 4.663-1.101 6.125-3.163 2.396-3.379 1.599-8.061-1.78-10.456-27.575-19.548-60.076-29.88-93.989-29.88z"/>
    <path d="m362.655,174.337c1.217-9.211-1.329-17.815-7.167-24.229-7.021-7.713-17.815-10.842-28.681-8.81-3.636-15.993-11.377-30.651-22.663-42.86l-17.616-34.36c-1.89-3.687-6.408-5.141-10.096-3.252-3.686,1.89-5.142,6.41-3.252,10.096l12.476,24.333h-101.312l12.476-24.335c1.89-3.686 0.434-8.206-3.252-10.095s-8.206-0.435-10.096,3.252l-17.616,34.361c-11.286,12.209-19.027,26.867-22.664,42.86-10.865-2.036-21.658,1.096-28.681,8.81-5.838,6.413-8.384,15.018-7.167,24.229 1.153,8.737 5.609,17.026 12.547,23.341 6.975,6.349 15.789,9.984 24.499,10.296 11.2,39.489 47.58,68.501 90.609,68.501s79.41-29.011 90.609-68.501c8.709-0.312 17.524-3.947 24.499-10.296 6.939-6.315 11.395-14.604 12.548-23.341zm-14.871-1.963c-0.69,5.23-3.451,10.277-7.773,14.212-3.378,3.075-7.369,5.128-11.407,5.979 0.366-3.368 0.56-6.788 0.56-10.252 0-4.142-3.357-7.5-7.5-7.5s-7.5,3.358-7.5,7.5c0,43.65-35.513,79.163-79.164,79.163s-79.164-35.512-79.164-79.163c0-4.142-3.357-7.5-7.5-7.5s-7.5,3.358-7.5,7.5c0,3.464 0.194,6.884 0.56,10.252-4.037-0.851-8.03-2.904-11.407-5.979-4.322-3.934-7.083-8.981-7.773-14.211-0.628-4.756 0.575-9.077 3.388-12.167 4.539-4.984 12.689-5.944 20.285-2.39 2.166,1.014 4.687,0.933 6.785-0.217 2.098-1.15 3.521-3.233 3.83-5.605 2.032-15.561 8.541-29.925 18.88-41.738h52.926c3.449,15.865 17.594,27.787 34.477,27.787 4.143,0 7.5-3.358 7.5-7.5s-3.357-7.5-7.5-7.5c-8.536,0-15.843-5.306-18.833-12.787h50.662c10.339,11.813 16.847,26.178 18.88,41.738 0.31,2.372 1.732,4.455 3.83,5.605 2.098,1.15 4.618,1.23 6.785,0.217 7.594-3.555 15.746-2.594 20.285,2.39 2.813,3.089 4.016,7.41 3.388,12.166z"/>
    <path d="m77.5,360h315c4.143,0 7.5-3.358 7.5-7.5v-315c0-4.142-3.357-7.5-7.5-7.5h-30c-4.143,0-7.5,3.358-7.5,7.5s3.357,7.5 7.5,7.5h22.5v300h-300v-300h247.5c4.143,0 7.5-3.358 7.5-7.5s-3.357-7.5-7.5-7.5h-255c-4.143,0-7.5,3.358-7.5,7.5v315c0,4.142 3.357,7.5 7.5,7.5z"/>
  </g>
</svg>
