<?xml version='1.0' encoding='iso-8859-1'?>
<svg version="1.1" xmlns="http://www.w3.org/2000/svg" viewBox="0 0 470.002 470.002" xmlns:xlink="http://www.w3.org/1999/xlink" enable-background="new 0 0 470.002 470.002">
  <path d="m380.001,232.501v-89.995c0-0.005 0-22.377 0-22.377 0-4.143-3.357-7.5-7.5-7.5h-50.866c3.747-5.89 5.866-12.826 5.866-20.13 0-12.787-6.447-24.474-16.87-31.327 2.523-12.216-1.181-25.038-10.222-34.081-9.042-9.041-21.865-12.748-34.081-10.222-6.853-10.422-18.54-16.869-31.327-16.869s-24.474,6.447-31.327,16.87c-12.217-2.526-25.039,1.181-34.08,10.222-9.042,9.042-12.747,21.865-10.223,34.081-10.423,6.854-16.87,18.54-16.87,31.327 0,7.304 2.119,14.24 5.866,20.13h-50.866c-4.142,0-7.5,3.357-7.5,7.5v342.37c0,4.143 3.358,7.5 7.5,7.5h191.092c0.067,0.004 0.087,0 0.107,0h83.802c4.143,0 7.5-3.357 7.5-7.5v-49.993c0-0.005 0-90 0-90-0.001-0.006-0.001-90-0.001-90.006zm-15,176.825c-23.865,23.225-48.555,37.797-77.393,45.674h-15.107v-71.22c27.32-4.985 58.813-14.988 92.5-44.09v69.636zm-260-236.024c23.83-23.207 48.473-37.778 77.244-45.672h15.256v71.177c-27.317,4.99-58.808,15.002-92.5,44.126v-69.631zm0,179.994c10.662-10.386 21.332-18.933 32.541-26.023 3.5-2.215 4.543-6.848 2.329-10.349-2.213-3.499-6.846-4.541-10.348-2.329-8.415,5.323-16.524,11.388-24.522,18.318v-69.625c33.682-32.799 64.281-43.785 92.5-49.225v74.747c-15.026,2.763-27.915,6.436-40.14,11.418-3.836,1.563-5.678,5.94-4.115,9.776 1.186,2.909 3.989,4.671 6.948,4.671 0.943,0 1.901-0.179 2.828-0.557 10.516-4.286 21.64-7.532 34.479-10.041v74.726c-26.924,4.912-58.338,14.538-92.5,44.117v-69.624zm107.5-225.666h45v327.37h-45v-327.37zm152.5,191.71c-33.677,32.773-64.277,43.748-92.5,49.183v-74.745c27.32-4.985 58.813-14.988 92.5-44.088v69.65zm0-180.008c-10.661,10.378-21.33,18.919-32.541,26.004-3.502,2.213-4.546,6.846-2.333,10.347 1.427,2.258 3.859,3.494 6.347,3.494 1.37,0 2.757-0.375 4-1.161 8.417-5.319 16.527-11.381 24.527-18.307v69.632c-33.676,32.771-64.277,43.746-92.5,49.181v-74.748c15.023-2.759 27.91-6.427 40.13-11.402 3.837-1.562 5.681-5.938 4.119-9.773-1.562-3.837-5.938-5.684-9.773-4.119-10.515,4.279-21.638,7.522-34.476,10.027v-60.877h29.182c0.022,0 0.045,0 0.067,0h63.251v11.702zm-207.5-46.832c0-9.055 5.387-17.189 13.724-20.726 3.768-1.598 5.559-5.922 4.025-9.716-3.395-8.396-1.452-17.957 4.951-24.359s15.964-8.346 24.36-4.951c3.794,1.533 8.118-0.256 9.716-4.024 3.534-8.337 11.67-13.724 20.724-13.724 9.055,0 17.189,5.387 20.726,13.724 1.598,3.767 5.917,5.56 9.716,4.024 8.395-3.395 17.958-1.451 24.359,4.95 6.402,6.403 8.346,15.965 4.951,24.36-1.534,3.795 0.257,8.118 4.024,9.716 8.337,3.536 13.724,11.672 13.724,20.726 0,8.583-4.846,16.334-12.452,20.13h-130.096c-7.606-3.796-12.452-11.547-12.452-20.13zm-15.971,35.13c-12.7,6.716-24.766,15.074-36.529,25.269v-25.269h36.529zm-36.529,315.659c34.211-33.291 65.678-44.023 92.5-49.221v60.932h-92.5v-11.711zm223.418,11.711c12.721-6.716 24.804-15.075 36.582-25.276v25.276h-36.582z"/>
</svg>
