<?xml version='1.0' encoding='iso-8859-1'?>
<svg version="1.1" xmlns="http://www.w3.org/2000/svg" viewBox="0 0 470 470" xmlns:xlink="http://www.w3.org/1999/xlink" enable-background="new 0 0 470 470">
  <g>
    <path d="m277.87,169.63c-6.01,0-11.66,2.341-15.91,6.59l-144.956,144.957c-6.911,6.911-8.353,17.228-4.375,25.588l-110.432,110.432c-2.929,2.929-2.929,7.678-2.66454e-15,10.606 1.464,1.465 3.384,2.197 5.303,2.197s3.839-0.732 5.303-2.197l110.424-110.424c2.989,1.429 6.274,2.208 9.686,2.208 6.01,0 11.66-2.34 15.91-6.59l144.956-144.957c4.25-4.25 6.591-9.9 6.591-15.91 0-6.01-2.341-11.661-6.59-15.91-4.25-4.249-9.9-6.59-15.91-6.59zm5.303,27.803l-144.956,144.957c-1.417,1.417-3.3,2.197-5.303,2.197-2.003,0-3.887-0.78-5.304-2.197s-2.197-3.3-2.197-5.303c0-2.003 0.78-3.887 2.197-5.304l144.958-144.957c1.416-1.417 3.3-2.197 5.303-2.197s3.887,0.78 5.304,2.197c1.416,1.417 2.196,3.299 2.196,5.303-0.001,2.004-0.781,3.887-2.198,5.304z"/>
    <path d="m309.691,167.81c1.919,0 3.839-0.732 5.304-2.197l56.307-56.307c2.929-2.929 2.929-7.678 0-10.606-2.93-2.929-7.678-2.929-10.607,0l-56.307,56.307c-2.929,2.929-2.929,7.678 0,10.606 1.464,1.465 3.384,2.197 5.303,2.197z"/>
    <path d="m413.727,56.274c-2.93-2.929-7.678-2.929-10.607,0l-5.303,5.303-5.303-5.303c-2.93-2.929-7.678-2.929-10.607,0-2.929,2.929-2.929,7.678 0,10.606l5.303,5.303-5.303,5.303c-2.929,2.929-2.929,7.678 0,10.606 1.465,1.464 3.385,2.197 5.304,2.197s3.839-0.732 5.304-2.197l5.303-5.303 5.303,5.303c1.465,1.464 3.385,2.197 5.304,2.197s3.839-0.732 5.304-2.197c2.929-2.929 2.929-7.678 0-10.606l-5.303-5.303 5.303-5.303c2.926-2.928 2.926-7.677-0.002-10.606z"/>
    <path d="m285.37,147.13v-79.63c0-4.142-3.357-7.5-7.5-7.5s-7.5,3.358-7.5,7.5v79.63c0,4.142 3.357,7.5 7.5,7.5s7.5-3.358 7.5-7.5z"/>
    <path d="m292.87,15h-7.5v-7.5c0-4.142-3.357-7.5-7.5-7.5s-7.5,3.358-7.5,7.5v7.5h-7.5c-4.143,0-7.5,3.358-7.5,7.5s3.357,7.5 7.5,7.5h7.5v7.5c0,4.142 3.357,7.5 7.5,7.5s7.5-3.358 7.5-7.5v-7.5h7.5c4.143,0 7.5-3.358 7.5-7.5s-3.357-7.5-7.5-7.5z"/>
    <path d="m240.747,165.613c1.465,1.464 3.385,2.197 5.304,2.197s3.839-0.732 5.304-2.197c2.929-2.929 2.929-7.678 0-10.606l-56.308-56.307c-2.929-2.929-7.678-2.929-10.606,0-2.929,2.929-2.929,7.678 0,10.606l56.306,56.307z"/>
    <path d="m142.014,88.093c1.464,1.465 3.384,2.197 5.303,2.197 1.919,0 3.839-0.732 5.303-2.197l5.303-5.303 5.303,5.303c1.464,1.464 3.384,2.197 5.303,2.197s3.839-0.732 5.303-2.197c2.929-2.929 2.929-7.678 0-10.606l-5.303-5.303 5.303-5.303c2.929-2.929 2.929-7.678 0-10.606-2.929-2.929-7.678-2.929-10.606,0l-5.303,5.303-5.303-5.303c-2.929-2.929-7.678-2.929-10.606,0-2.929,2.929-2.929,7.678 0,10.606l5.303,5.303-5.303,5.303c-2.929,2.929-2.929,7.678 0,10.606z"/>
    <path d="m153.241,184.63c-4.142,0-7.5,3.358-7.5,7.5s3.358,7.5 7.5,7.5h60.991c4.142,0 7.5-3.358 7.5-7.5s-3.358-7.5-7.5-7.5h-60.991z"/>
    <path d="m93.241,199.63h7.5v7.5c0,4.142 3.358,7.5 7.5,7.5s7.5-3.358 7.5-7.5v-7.5h7.5c4.142,0 7.5-3.358 7.5-7.5s-3.358-7.5-7.5-7.5h-7.5v-7.5c0-4.142-3.358-7.5-7.5-7.5s-7.5,3.358-7.5,7.5v7.5h-7.5c-4.142,0-7.5,3.358-7.5,7.5s3.358,7.5 7.5,7.5z"/>
    <path d="m277.87,324.259c4.143,0 7.5-3.358 7.5-7.5v-60.985c0-4.142-3.357-7.5-7.5-7.5s-7.5,3.358-7.5,7.5v60.985c0,4.142 3.358,7.5 7.5,7.5z"/>
    <path d="m292.87,354.259h-7.5v-7.5c0-4.142-3.357-7.5-7.5-7.5s-7.5,3.358-7.5,7.5v7.5h-7.5c-4.143,0-7.5,3.358-7.5,7.5s3.357,7.5 7.5,7.5h7.5v7.5c0,4.142 3.357,7.5 7.5,7.5s7.5-3.358 7.5-7.5v-7.5h7.5c4.143,0 7.5-3.358 7.5-7.5s-3.357-7.5-7.5-7.5z"/>
    <path d="m314.994,218.647c-2.93-2.929-7.678-2.929-10.607,0-2.929,2.929-2.929,7.678 0,10.606l56.307,56.307c1.465,1.464 3.385,2.197 5.304,2.197s3.839-0.732 5.304-2.197c2.929-2.929 2.929-7.678 0-10.606l-56.308-56.307z"/>
    <path d="m413.727,296.167c-2.93-2.929-7.678-2.929-10.607,0l-5.303,5.303-5.303-5.303c-2.93-2.929-7.678-2.929-10.607,0-2.929,2.929-2.929,7.678 0,10.606l5.303,5.303-5.303,5.303c-2.929,2.929-2.929,7.678 0,10.606 1.465,1.464 3.385,2.197 5.304,2.197s3.839-0.732 5.304-2.197l5.303-5.303 5.303,5.303c1.465,1.464 3.385,2.197 5.304,2.197s3.839-0.732 5.304-2.197c2.929-2.929 2.929-7.678 0-10.606l-5.303-5.303 5.303-5.303c2.926-2.929 2.926-7.678-0.002-10.606z"/>
    <path d="m315.37,192.13c0,4.142 3.357,7.5 7.5,7.5h79.63c4.143,0 7.5-3.358 7.5-7.5s-3.357-7.5-7.5-7.5h-79.63c-4.142,0-7.5,3.358-7.5,7.5z"/>
    <path d="m462.5,184.63h-7.5v-7.5c0-4.142-3.357-7.5-7.5-7.5s-7.5,3.358-7.5,7.5v7.5h-7.5c-4.143,0-7.5,3.358-7.5,7.5s3.357,7.5 7.5,7.5h7.5v7.5c0,4.142 3.357,7.5 7.5,7.5s7.5-3.358 7.5-7.5v-7.5h7.5c4.143,0 7.5-3.358 7.5-7.5s-3.357-7.5-7.5-7.5z"/>
  </g>
</svg>
